<?xml version="1.0" encoding="utf-8"?>
<!-- Generator: Adobe Illustrator 22.1.0, SVG Export Plug-In . SVG Version: 6.00 Build 0)  -->
<svg version="1.1" id="Layer_1" xmlns="http://www.w3.org/2000/svg" xmlns:xlink="http://www.w3.org/1999/xlink" x="0px" y="0px"
	 viewBox="0 0 500 500" style="enable-background:new 0 0 500 500;" xml:space="preserve">
<style type="text/css">
	.st0{clip-path:url(#SVGID_2_);fill:#FCE3C3;}
	.st1{clip-path:url(#SVGID_2_);}
	.st2{fill:#FFCFCA;}
	.st3{fill:#F9BFBB;}
	.st4{opacity:0.3;fill:#F9BFBB;}
	.st5{fill:#AC1B35;}
	.st6{fill:#AC7E03;}
	.st7{fill:#485575;}
	.st8{fill:#3C4A68;}
	.st9{fill:#1F3C49;}
	.st10{fill:#FFFFFF;}
	.st11{fill:#D55454;}
	.st12{fill:#F37C7C;}
	.st13{fill:#F4B9B8;}
	.st14{fill:#FE8F8C;}
	.st15{fill:#FBB03B;}
	.st16{fill:#F98080;}
</style>
<g>
	<g>
		<defs>
			<circle id="SVGID_1_" cx="250.2" cy="250.2" r="226.7"/>
		</defs>
		<clipPath id="SVGID_2_">
			<use xlink:href="#SVGID_1_"  style="overflow:visible;"/>
		</clipPath>
		<circle class="st0" cx="250.2" cy="250.2" r="226.7"/>
		<g class="st1">
			<g>
				<path class="st2" d="M-185.3,671.4c-0.9-4.5-1.5-9.1-1.9-13.7c0,0,0,0,0,0c0-0.4-0.1-0.7-0.1-1.1c-0.3-3.8-0.4-7.6-0.3-11.4
					c0.8-0.5,1.7-1,2.5-1.5c3.8-2.4,7.6-4.9,11.3-7.4c-0.4,1.9-0.8,3.7-0.9,4.5c-0.3,2.6-0.6,5.2-0.8,7.7c-0.4,5.7-0.5,11.3-0.2,17
					c0.1,2.7,0.3,5.6-1,7.9c-0.2,0.4-0.6,0.9-1,1.2c-0.7,0.7-1.6,1.2-2.6,1.5c-0.1,0-0.2,0-0.2,0c-0.1,0-0.3,0-0.4,0.1
					c-0.9,0.1-1.8-0.1-2.6-0.8c-0.1-0.1-0.2-0.2-0.3-0.3l0,0c-0.7-0.7-1-1.7-1.3-2.6C-185.1,672.2-185.2,671.8-185.3,671.4z"/>
				<path class="st3" d="M-180.9,676.2c0.1,0,0.3,0,0.4-0.1c0.1,0,0.1,0,0.2,0c1-0.2,1.9-0.7,2.6-1.5c-0.1-0.8-0.2-1.6-0.3-2.5
					c-0.5-5.3-1.1-10.5-1.6-15.8c-0.1-1.2,0.2-4.7-1.1-5.4c-2-1-3.5,2.5-3.6,3.8c-0.1,0.9,0,1.7,0.1,2.6
					C-183.5,663.7-182.8,670.1-180.9,676.2z"/>
				<path class="st2" d="M-189.9,678.8c-0.2-0.9-0.3-1.8-0.5-2.7c-0.3-1.9-0.6-3.7-0.8-5.6c-0.4-3.2-0.7-6.4-0.8-9.7
					c-0.1-2.5-0.2-5-0.1-7.5c0-1.8,0.1-3.5,0.2-5.3c2.3-1.4,4.7-2.8,7-4.3c2.4-1.5,4.8-3.1,7.2-4.7c0.1,2.8-1.3,7.7-1.5,9.1
					c-0.1,0.9-0.2,1.9-0.3,2.8c-0.8,7.3-1,14.6-0.7,22c0.1,1.1,0.1,2.1,0.1,3.2c0,1.7-0.3,3.3-1.1,4.7c-1.3,2.4-4.7,3.8-6.8,2
					c-0.9-0.7-1.3-1.8-1.6-2.9C-189.8,679.6-189.8,679.2-189.9,678.8z"/>
				<path class="st3" d="M-190.4,676.1c0.8-2.4,1.5-4.9,2-7.5c1.2-6.4,1.1-13.1,2.7-19.4l-0.4,0.8c-0.1-0.2-0.2-0.3-0.3-0.4
					c-0.5-0.3-1.2-0.1-1.7,0.2c-1.6,0.8-2.9,2.1-4.1,3.4c0,2.5,0,5,0.1,7.5c0.1,3.2,0.4,6.5,0.8,9.7
					C-191,672.4-190.7,674.3-190.4,676.1z"/>
				<path class="st2" d="M-204.5,684.9c0-0.6,0-1.2,0-1.8c0.1-4.1,0.6-8.1,1.3-12.1c1.1-5.9,2.7-11.8,4.4-17.6
					c0.2-0.6,0.4-1.1,0.5-1.7c4.4-2.7,8.8-5.3,13.1-8c2.2-1.4,4.4-2.8,6.6-4.2c0,0.4,0,0.8-0.1,1.2c-0.4,2-1.6,3.7-2.7,5.5
					c-1.9,3.1-3.6,6.4-5.1,9.7c-0.3,0.6-0.5,1.2-0.8,1.8c0,0,0,0,0,0c-1.5,3.7-2.8,7.6-3.8,11.5c-0.1,0.4-0.2,0.9-0.3,1.3
					c-1.2,5.3-2.2,10.8-4.9,15.6c-1.1,2-3.2,4.1-5.4,3.5c-1.3-0.3-2.2-1.4-2.6-2.7C-204.3,686.3-204.4,685.6-204.5,684.9z"/>
				<path class="st4" d="M-198.2,651.7c4.4-2.7,8.8-5.3,13.1-8c3.8-2.4,7.6-4.9,11.3-7.4c-0.4,1.9-0.8,3.7-0.9,4.5
					c-0.2,1.6-0.4,3.1-0.5,4.7c-5.8,3.7-11,8.7-15.9,13.4c-3,2.9-5.9,6-8.7,9.1c-1.1,1-2.2,2-3.4,3c1.1-5.9,2.7-11.8,4.4-17.6
					C-198.5,652.8-198.4,652.3-198.2,651.7z"/>
				<path class="st2" d="M-224.9,665.1c11-9.2,22.1-18.5,33.1-27.7c10.6-8.9,19.8-16.5,31.4-23.9c4.8-3,11.2-7,16.3-9.8
					c26.3-17.2,52.6-34.3,78.9-51.5c16.6-10.9,33.3-21.7,49.9-32.6c10.9-7.1,21.9-14.3,31.8-22.7c12.3-10.5,83-115.9,90.6-125.1
					c4.6,5.9,33.8,30.2,40.2,78.4C122.4,473.6,64,536.5,35.2,554.8c-51.6,32.7-110.4,48.7-165.6,74.9c-2,1-4,5.9-5.2,7.9
					c-3.8,6.3-6.8,13.1-11.1,19.1c-4.3,6.1-9.3,11.7-14.9,16.8c-2.5,2.3-6.6,3.4-8.1-0.7c-0.2-0.3-0.3-0.6-0.4-1
					c-1.2-4.5,1-8.7,3.3-12.5c2.6-4.3,4.6-8.6,4.9-13.7c0.1-1.4-0.3-2.9-1.3-3.8c-0.6-0.5-1.5-0.8-2.3-0.9c-2.8-0.5-5.4,0-7.8,1.1
					c-1.3,0.5-2.5,1.2-3.7,2c-1.1,0.7-2.2,1.5-3.3,2.3c-1.4,1-2.7,2-4,3c-0.3,0.2-0.5,0.4-0.8,0.6c-0.2,0.2-0.5,0.3-0.7,0.5
					c-1.6,1.1-3.1,2.2-4.7,3.3c-2.9,2-5.7,4-8.6,6c-2.5,1.7-5,3.5-7.5,5.2c-4.4,3-9.1,6.5-14.5,7.4
					C-225.2,672.9-228.5,668.2-224.9,665.1z"/>
			</g>
			<path class="st5" d="M217.5,207.4c-2.2-4.6-3.9-9.6-5.1-14.8c-8.2-37.3,15.3-74.2,52.7-82.5s74.2,15.3,82.5,52.7
				c0.2,1.1,0.4,2.2,0.6,3.2c12.3,6.1,21.8,17.5,25,31.9c0.9,4.2,1.2,8.3,1,12.3c13.9,5.6,24.9,17.7,28.4,33.4
				c5.6,25.3-10.4,50.2-35.6,55.8c-4.2,0.9-8.4,1.2-12.5,1c-5.9,5.6-13.4,9.7-21.9,11.6c-10.4,2.3-20.8,0.9-29.8-3.3
				c-5.4,4.3-11.8,7.4-19,9c-19.1,4.2-38.1-3.9-48.6-19.1c-23,1.9-44.5-13.4-49.6-36.6C180.3,238.3,194.4,214.5,217.5,207.4z"/>
			<path class="st2" d="M299.6,303.5c-6.3-3.4-11.9-8-18.3-11.2c-0.5-0.1-1.1-0.2-1.7-0.2c-10.2-0.8-20.3-2.3-30.5-2.9
				c-3.2-0.2-6.4-0.2-9.5,0.2c-10.3,6.2-21,11.8-32.5,14.7c-4.7,1.2-10.5,2.4-16.5,3c-4.4,2-6.7,5.3-4.4,11.3
				c2.2,5.8,6.5,11.1,10.8,15.7c1.3,1.4,2.7,2.8,4.1,4.1c19.4,17.7,53.7,27,78.7,15.5c12.9-5.9,23.8-16,31.8-27.1
				c2.5-3.5,4.3-7.3,6.2-11.1c0.1-0.3,0.5-1,0.9-1.9C312.3,310.2,306,306.9,299.6,303.5z"/>
			<g>
				<g>
					<path class="st2" d="M233.3,310c3.5,2.8,8.1,3.8,12.5,4.7c5.3,1.1,10.6,2.3,16,2.7c10.5,0.7,20.4-2,30.7-4.2
						c0.5-6,1-12.1,1.5-18.1c0.6-7.6,1.2-15.1,2.6-22.6c0.4-2.3,0.9-4.6,1.4-6.8c1.3-5.6,3-11.2,4.6-16.8c1.3-4.6,2.7-9.1,4-13.7
						c-3,2.3-5.7,3.4-9.2,4.8c-14.7,6.1-29.6,11.7-44.6,17.1c-4.5,1.6-9.1,3.2-13.8,3.9l-3,26.4L233.3,310z"/>
				</g>
				<g>
					<path class="st3" d="M235.9,287.4c16.5-2.4,32.6-7.1,47.6-14.3c4.8-2.3,9.7-4.8,14.5-7.5c1.3-5.6,3-11.2,4.6-16.8
						c1.3-4.6,2.7-9.1,4-13.7c-3,2.3-5.7,3.4-9.2,4.8c-14.7,6.1-29.6,11.7-44.6,17.1c-4.5,1.6-9.1,3.2-13.8,3.9L235.9,287.4z"/>
				</g>
				<g>
					<path class="st2" d="M208.9,241.7c2.1,9.1,5.7,17.7,12.8,24c6.3,5.6,14.5,9.2,22.8,10.2c9.3,1.1,18.7-0.6,27.3-4.3
						c4.3-1.8,8.4-4.1,12.3-6.7c6.7-4.6,12.6-10.2,17.9-16.4c8.6-10,16.2-21.7,21.1-34.3c5.5-14.3,7.6-29.6,4-44.8
						c-1.5-6.2-4-12.1-7.4-17.5c-14.4-22.6-44.3-31.1-68.4-19.3c-12.6,6.1-23,16.7-29.6,29c-2.1,3.9-4,7.9-5.7,12
						C207.1,195,203.8,219.2,208.9,241.7z"/>
				</g>
				<g>
					<g>
						<path class="st2" d="M296.1,244c6.4,6.3,16.3,8.8,24.9,6.3c7.3-2.1,13.4-7.8,16.2-14.8c0.5-1.3,0.9-2.6,1.2-3.9
							c0.5-2.4,0.6-4.8,0.2-7.2c-1.1-5.9-6.1-10.7-11.9-12.1c-5.8-1.4-12.2,0.6-16.5,4.8l-5.4,10.3L296.1,244z"/>
					</g>
				</g>
			</g>
			<path class="st5" d="M226.1,143.4c2.4-1.9,4.8-3.8,7.2-5.6c0.3-0.2,0.6-0.4,0.9-0.7c0.1-0.1,0.2-0.2,0.3-0.2c0,0,0,0,0,0
				c1.2-0.8,2.3-1.6,3.6-2.3c2.5-1.5,5-2.9,7.6-4c0.5-0.2,1.1-0.4,1.6-0.6c0.9-0.3,1.9-0.5,2.9-0.7c3.5-6.5,9.8-11.5,17.6-13.2
				c6.9-1.5,13.7-0.2,19.3,3.1c2.3-1.6,5-2.7,7.9-3.4c12.4-2.7,24.7,5.1,27.5,17.6c0.2,0.8,0.3,1.6,0.4,2.4
				c6.9,3.5,12.3,9.9,14.1,18.1c1.4,6.3,0.4,12.6-2.4,17.9c6.9,2.3,12.4,8,14.1,15.6c2.5,11.5-4.7,22.9-16.2,25.4
				c-11.5,2.5-22.9-4.7-25.4-16.2c-0.8-3.7-0.6-7.3,0.4-10.7c-10.5-1.4-19.5-9.1-22.2-20c-1.9,0.9-3.9,1.6-6,2.1
				c-10.1,2.2-20-1.6-26.2-9c-3,2.8-6.7,4.8-11,5.8c-10.9,2.4-21.7-3.1-26.3-12.8C219.1,149,222.6,146.2,226.1,143.4z"/>
			<path class="st2" d="M203.6,325.5c0.1,0,0.1,0,0.2,0c-0.8,0.2-1.7,0.5-2.6,0.7C201.8,325.9,202.9,325.6,203.6,325.5z"/>
			<polygon class="st2" points="386.7,1129.8 385.9,1447.9 343.1,1451 297.7,1111.6 			"/>
			<path class="st6" d="M385.9,1447.9l28.8,52c0.3,0.5,0.5,1.1,0.5,1.7l0.6,8.1c0.2,2.2-1.5,4.2-3.7,4.3l-88.7,6.4
				c-2.2,0.2-4.2-1.5-4.3-3.7l-0.7-9c0-0.7,0.1-1.3,0.3-1.9l24.3-54.8L385.9,1447.9z"/>
			<path class="st2" d="M106.6,1531.9c9.6-0.8,19.2-4.1,28.4-6.6c23.8-6.3,47.3-13.6,70.7-20.9c5.6-2,11.4-4.1,17.3-6.2
				c0.9-0.5,1.7-1,2.5-1.7c2.7-2.2,4.7-5.1,5.7-8.4c0.6-2,0.9-4.1,0.6-6.2c-0.1-0.7-0.3-1.4-0.5-2.1c-0.9-2.8-2.7-5.2-4.4-7.6
				c-3.2-4.4-5-7.7-8.2-12l-8.4-11.9l-1.6-2.2l9.6-305.9l-89.4-20.9l34.9,334.5l-0.7,0.7l-22.8,23.7l-22,20.7
				c-4.1,3.6-8.2,7.3-12.4,10.9c-1,0.9-2,1.7-3,2.6c-2.9,2.6-7.4,4.9-9,8.6c-0.4,0.8-0.6,1.8-0.6,2.8
				C93.2,1531.3,100.5,1532.5,106.6,1531.9z"/>
			<path class="st6" d="M86.7,1528.8c0.2,2.8,4.1,7.3,8.2,7.1c7.7-0.4,17.7-2.7,25.1-4.6c15-3.8,28.2-8.4,43.1-12.7
				c14.8-4.2,28.4-9,42.6-14.1c5.6-2,11.4-4.1,17.3-6.2c0.3-0.1,0.6-0.2,0.9-0.3c3.9-1.4,9.5-3.8,11.8-7.5
				c2.9-4.8,0.3-11.2-2.1-15.6c-2.7-4.9-6.8-8.7-10.3-13c-1.1-1.4-10.9-14.3-11.8-13.9l-1.1,0.5l-34.9,16.1l-12.3-10l-1.7-1.4
				c-5.4,5.1-10.7,10.2-16.1,15.3c-10.7,10.2-21.4,20.3-32,30.5c-7.9,7.5-15.8,15-23.7,22.6C87.6,1523.2,86.5,1526,86.7,1528.8z"/>
			<path class="st7" d="M119.1,1298.8l115.9-6.2l17.8-252.2l26.6-377.9l8.5-120.7l-125.5,15.3c0,0-22.6,128.9-26.4,166
				c-1.8,17.6-11.1,118.7-15.6,261.2C115.5,1141.2,119.1,1298.8,119.1,1298.8z"/>
			<path class="st8" d="M252.8,1040.5l26.6-377.9c-10.9-9.9-21.9-19.6-32.8-29.4C232,768.5,234.1,905.6,252.8,1040.5z"/>
			<path class="st7" d="M324,534.6c0,0,36.9,54.8,52.4,136.5C410.5,851,406,1274.5,406,1274.5l-108.2,12.3L231,553.6L324,534.6z"/>
			<g>
				<path class="st9" d="M259.3,208.8c1.2,0.1,2.9-1.6,3.5-4.4c0.3-1.4,0.3-2.9-0.1-4c-0.1-0.4-0.6-1.3-1.3-1.5c0,0-0.1,0-0.1,0
					c-1.2-0.1-2.9,1.6-3.5,4.4c-0.3,1.4-0.3,2.9,0.1,4c0.1,0.4,0.6,1.3,1.3,1.5C259.3,208.8,259.3,208.8,259.3,208.8z"/>
				<path class="st9" d="M224.4,203.2c1,0.1,2.8-1.4,3.4-4.2c0.3-1.4,0.3-2.8-0.1-3.9c-0.3-0.8-0.7-1.3-1.2-1.4c0,0-0.1,0-0.1,0
					c-1-0.1-2.8,1.4-3.4,4.2c-0.3,1.4-0.3,2.8,0.1,3.9c0.3,0.8,0.7,1.3,1.2,1.4C224.3,203.2,224.4,203.2,224.4,203.2L224.4,203.2z"
					/>
				<path class="st9" d="M241.6,210.7c-0.9-1.1-2.4-1.6-3.9-1.4c-1.5,0.2-2.9,1.1-3.7,2.5c-0.8,1.3-1,3-0.4,4.4
					c0.5,1.4,1.7,2.5,3.1,2.8c-0.9-1-1.4-2.1-1.5-3.2c-0.1-1.1,0.1-2.1,0.6-2.9c0.5-0.9,1.3-1.6,2.3-1.9
					C239.1,210.5,240.3,210.4,241.6,210.7z"/>
			</g>
			<g>
				<path class="st9" d="M269.6,188.4c0.2,0,0.4-0.1,0.6-0.3c0.3-0.3,0.3-0.8,0-1.2c-2.4-2.3-5.8-3.5-9.1-3.3
					c-0.5,0-0.8,0.4-0.8,0.9c0,0.5,0.4,0.8,0.9,0.8c2.9-0.2,5.8,0.9,7.9,2.9C269.2,188.3,269.4,188.4,269.6,188.4z"/>
			</g>
			<g>
				<path class="st9" d="M234.5,181.8c0.2-0.1,0.3-0.2,0.5-0.3c0.2-0.4,0.1-0.9-0.2-1.1c-2.5-1.6-5.8-2.2-8.7-1.5
					c-0.4,0.1-0.7,0.5-0.6,1c0.1,0.4,0.5,0.7,1,0.6c2.5-0.6,5.3-0.1,7.4,1.3C234,181.8,234.2,181.9,234.5,181.8z"/>
			</g>
			<path class="st10" d="M260.5,200.7c1.7-0.2,2.1,2.4,0.4,2.7C259.2,203.7,258.8,201,260.5,200.7z"/>
			<path class="st10" d="M225,195.1c1.7-0.2,2.1,2.4,0.4,2.7C223.7,198,223.3,195.3,225,195.1z"/>
			<g>
				<path class="st11" d="M222.3,223.6c-0.2,3.5,0.6,6.9,2.1,9.7c2.4,4.5,6.6,7.6,11.6,7.9c5.1,0.3,9.8-2.4,12.7-6.8
					c1.7-2.6,2.8-5.7,3-9.1c0-0.1,0-0.2,0-0.4l-29.3-1.8C222.4,223.3,222.3,223.4,222.3,223.6z"/>
				<path class="st10" d="M223.6,223.3c3.1,3.7,7.8,6.2,13.1,6.5c5.4,0.3,10.3-1.6,13.8-4.9L223.6,223.3z"/>
				<path class="st12" d="M224.4,233.3c2.4,4.5,6.6,7.6,11.6,7.9c5.1,0.3,9.8-2.4,12.7-6.8c-4.9-1.4-10.1-2.1-15.2-2
					C230.4,232.4,227.4,232.7,224.4,233.3z"/>
			</g>
			<path class="st3" d="M257,220.7c-0.5,4.5,4,8.6,10,9.3c6,0.7,11.4-2.3,11.9-6.8c0.5-4.5-4-8.6-10-9.3
				C262.8,213.2,257.5,216.2,257,220.7z"/>
			<path class="st3" d="M210.2,209.3c-0.3,3,2.7,5.8,6.8,6.3c4.1,0.5,7.7-1.6,8-4.6c0.3-3-2.7-5.8-6.8-6.3
				C214.1,204.3,210.5,206.3,210.2,209.3z"/>
			<g>
				<g>
					<g>
						<path class="st13" d="M376,800.5c-0.7,1.9-1.6,3.8-2.5,5.7c-2.4,5-5,9.8-7.4,14.8c-1,2.2-2,4.4-2.4,6.7
							c-0.3,2.4,0,4.9,1.5,6.8c1.5,1.9,4.3,2.8,6.4,1.7c1.9-0.9,2.8-3,3.7-4.9c1.1-2.5,2.2-5.1,3.2-7.6c1.5-3.4,2.9-6.8,4.2-10.3
							c2.6-7.1,4.6-14.8,2.9-22.1c-0.6-2.3-5-9.7-7.3-4.8c-0.9,1.9-0.3,4.7-0.6,6.8C377.5,795.7,376.9,798.1,376,800.5z"/>
					</g>
					<g>
						<path class="st3" d="M378.5,805.5c-0.7,1.9-1.6,3.8-2.5,5.7c-2.4,5-5,9.8-7.4,14.8c-1,2.2-2,4.4-2.4,6.7
							c-0.3,2.4,0,4.9,1.5,6.8c1.5,1.9,4.3,2.8,6.4,1.7c1.9-0.9,2.8-3,3.7-4.9c1.1-2.5,2.2-5.1,3.2-7.6c1.5-3.4,2.9-6.8,4.2-10.3
							c2.6-7.1,4.6-14.8,2.9-22.1c-0.6-2.3-5-9.7-7.3-4.8c-0.9,1.9-0.3,4.7-0.6,6.8C379.9,800.7,379.3,803.1,378.5,805.5z"/>
					</g>
					<g>
						<path class="st3" d="M362.1,784.5c0.2,1.1,0.4,2.2,0.5,3.4c0.3-2.5,0.1-5.1,0.1-7.6c0-1.9,0-3.8,0.4-5.6
							c0.4-1.5,0.6-3.7,2.3-4.3c1.6-0.6,3.9,0.2,5.2,1.1c1.6,1,2.7,2.6,3.5,4.3c0.2,0.4,0.3,0.7,0.5,1.1c-0.2-1-0.4-2.1-0.7-3.1
							c-0.6-2.2-1.5-4.3-3.1-5.8c-1.6-1.5-4.1-2.3-6.1-1.4c-1.7,0.8-2.7,2.5-3.3,4.3C360.1,775.3,361.2,780,362.1,784.5z"/>
					</g>
					<path class="st2" d="M392.4,782.5c-0.2-10.9-4-36.6-2.3-56.1c6.9-51,34.5-136,33.1-172.8c-1.4-35.5-16.1-68.9-24.9-103.3
						c-4.9-19.4-8.3-39.2-15-58c-1.8-5-3.8-9.8-6.1-14.6c-7.4-15.1-17.8-26.8-31-37.1c-11-8.5-23.2-15.5-36.1-20.5l-7.2,52.3
						c0.1-0.1,0.2-0.1,0.4-0.2c-2.4,15.1,3.1,30.2,8.8,44.4c16.1,40.6,33.5,80.6,52.2,120c3,6.4,6.1,12.9,7.2,19.9
						c0.8,5.5,0.4,11.1,0,16.6c-4.1,52.2-7.5,96.7-9.2,149.5c-1.5,4.1-7.1,16.2-9.7,24.8c-1.5,5.1-3,10.3-4,15.5
						c-1.5,8.3,0.3,16.6,0.3,25c0,1.7,0,3.5,0.4,5.2c1.9,7.9,10.2,4,12.5-1.5c0.2-0.5,0.4-1,0.5-1.6c0.2-0.7,0.3-1.3,0.4-2
						c0.3-2.5,0.1-5.1,0.1-7.6c0-1.9,0-3.8,0.4-5.6c0.4-1.5,0.6-3.7,2.3-4.3c1.6-0.6,3.9,0.2,5.2,1.1c1.6,1,2.7,2.6,3.5,4.3
						c0.2,0.4,0.3,0.7,0.5,1.1c0.4,1,0.7,2,1,2.9c1.1,3.5,1.9,7.1,2.9,10.6c1.4,4.9,2,9.6,1.1,14.7c-1,5.1-3.1,9.9-4.9,14.8
						c-1.9,5.2-4.9,12.2-2,17.6c1.3,2.5,4.9,2.4,6.6,0.5c1-1,1.5-2.4,2.1-3.7c3.5-8.5,7.1-16.9,9.3-25.8
						C392.8,800,392.6,791.1,392.4,782.5z"/>
				</g>
			</g>
			<path class="st14" d="M406.4,445.2c-31.5,23.8-48,36.7-70.3,46.2c0,0,0,0.1,0,0.1c-2.1,6.2-4.1,12.7-6.3,19.3
				c-0.6,1.8-1.2,3.6-1.7,5.4c-2.4,7.6-4.9,15.5-7.3,23.3c-30,9.2-145,27.6-160,29.6c-1.5-8.3-3-16.3-4.5-25.2
				c-3.3-19.7-6.6-43.8-10.4-85.5c-0.1,0.2-0.2,0.3-0.2,0.5c-1.4,2.9-4.2,8.9-9,18.6c-0.6,1.3-1.3,2.6-2,4.1
				c-13.7-12.3-62.6-67.9-62.6-67.9s33.1-57.6,59.4-77.1c32.9-24.4,79.8-35.9,79.8-35.9s11.5,12,14.9,14.6
				c10.1,7.7,20.8,11.7,33.4,12.5c18.6,1.2,38.3-7.5,49.2-23.3C351.6,322,382.1,342.5,406.4,445.2z"/>
			<path class="st15" d="M329.5,531c-0.3,1.9-0.7,3.8-1.7,5.5c-0.5,0.8-3,1.9-7.1,3.2c-30,9.2-145,27.6-160,29.6
				c-0.8,0.1-1.4,0.2-1.6,0.2c-4.8,0.1-4.6-4.1-5-10.2c-0.1-2.8-3.6-14.3,2-15.2c0,0,0,0,0,0c32.3-5.2,64.6-10.5,96.8-15.7
				c22.6-3.7,45.1-7.4,67.7-11.2c1.9-0.3,5.1-1.4,7.3-0.8c0.6,0.1,1.1,0.4,1.5,0.8c0.1,0.1,0.1,0.1,0.2,0.2
				C331.9,520,330,528,329.5,531z"/>
			<path class="st16" d="M136.7,477.7c4.8-9.7,7.6-15.8,9-18.6c-0.8-8.8-0.4-17.7,1.2-26.4c-5.4,8.6-9.3,18-10.7,27.8
				C135.3,466.2,135.5,472,136.7,477.7z"/>
			<path class="st16" d="M336.1,491.6c-2.1,6.2-4.1,12.7-6.3,19.3c-11.5-18.9-15.7-42.1-12.1-64
				C320.8,462.8,327.1,478.1,336.1,491.6z"/>
		</g>
	</g>
	<g>
		<path class="st15" d="M250.1,493c-0.7,0-1.3-0.6-1.3-1.3s0.6-1.3,1.3-1.3c2.3,0,4.6,0,6.9-0.1c0.7-0.1,1.3,0.5,1.3,1.3
			c0,0.7-0.5,1.3-1.3,1.3C254.7,492.9,252.4,493,250.1,493z M243.2,492.9C243.2,492.9,243.2,492.9,243.2,492.9
			c-2.3-0.1-4.7-0.2-7-0.3c-0.7,0-1.3-0.6-1.2-1.4c0-0.7,0.6-1.2,1.4-1.2c2.3,0.1,4.6,0.2,6.9,0.3c0.7,0,1.3,0.6,1.3,1.3
			C244.5,492.3,243.9,492.9,243.2,492.9z M263.9,492.6c-0.7,0-1.2-0.5-1.3-1.2c0-0.7,0.5-1.3,1.2-1.4c2.3-0.1,4.6-0.3,6.8-0.5
			c0.7-0.1,1.3,0.5,1.4,1.2c0.1,0.7-0.5,1.3-1.2,1.4C268.6,492.3,266.3,492.4,263.9,492.6C264,492.6,263.9,492.6,263.9,492.6z
			 M229.4,492.1c0,0-0.1,0-0.1,0c-2.3-0.2-4.6-0.4-6.9-0.7c-0.7-0.1-1.2-0.7-1.1-1.4c0.1-0.7,0.7-1.2,1.4-1.1
			c2.3,0.3,4.6,0.5,6.8,0.7c0.7,0.1,1.2,0.7,1.2,1.4C230.7,491.6,230.1,492.1,229.4,492.1z M277.7,491.4c-0.6,0-1.2-0.5-1.3-1.1
			c-0.1-0.7,0.4-1.3,1.1-1.4c2.3-0.3,4.5-0.6,6.8-0.9c0.7-0.1,1.4,0.4,1.5,1.1c0.1,0.7-0.4,1.4-1.1,1.5c-2.3,0.3-4.6,0.6-6.9,0.9
			C277.8,491.4,277.7,491.4,277.7,491.4z M215.7,490.5c-0.1,0-0.1,0-0.2,0c-2.3-0.3-4.6-0.7-6.9-1.1c-0.7-0.1-1.2-0.8-1.1-1.5
			c0.1-0.7,0.8-1.2,1.5-1.1c2.2,0.4,4.5,0.7,6.8,1.1c0.7,0.1,1.2,0.8,1.1,1.5C216.9,490.1,216.4,490.5,215.7,490.5z M291.3,489.4
			c-0.6,0-1.2-0.4-1.3-1.1c-0.1-0.7,0.4-1.4,1.1-1.5c2.2-0.4,4.5-0.8,6.7-1.3c0.7-0.1,1.4,0.3,1.5,1c0.1,0.7-0.3,1.4-1,1.5
			c-2.3,0.5-4.6,0.9-6.8,1.3C291.5,489.4,291.4,489.4,291.3,489.4z M202.1,488.2c-0.1,0-0.2,0-0.3,0c-2.3-0.5-4.5-0.9-6.8-1.5
			c-0.7-0.2-1.1-0.9-1-1.5c0.2-0.7,0.9-1.1,1.5-1c2.2,0.5,4.5,1,6.7,1.4c0.7,0.1,1.2,0.8,1,1.5C203.3,487.8,202.7,488.2,202.1,488.2
			z M304.8,486.7c-0.6,0-1.1-0.4-1.3-1c-0.2-0.7,0.3-1.4,1-1.5c2.2-0.5,4.4-1.1,6.7-1.6c0.7-0.2,1.4,0.2,1.6,0.9
			c0.2,0.7-0.2,1.4-0.9,1.6c-2.2,0.6-4.5,1.1-6.7,1.7C305,486.7,304.9,486.7,304.8,486.7z M188.7,485.1c-0.1,0-0.2,0-0.3,0
			c-2.2-0.6-4.5-1.2-6.7-1.9c-0.7-0.2-1.1-0.9-0.9-1.6c0.2-0.7,0.9-1.1,1.6-0.9c2.2,0.6,4.4,1.3,6.6,1.8c0.7,0.2,1.1,0.9,0.9,1.6
			C189.8,484.7,189.3,485.1,188.7,485.1z M318.2,483.2c-0.6,0-1.1-0.4-1.2-0.9c-0.2-0.7,0.2-1.4,0.9-1.6c2.2-0.6,4.4-1.3,6.6-2
			c0.7-0.2,1.4,0.2,1.6,0.8c0.2,0.7-0.2,1.4-0.8,1.6c-2.2,0.7-4.4,1.4-6.6,2C318.4,483.2,318.3,483.2,318.2,483.2z M175.4,481.2
			c-0.1,0-0.3,0-0.4-0.1c-2.2-0.7-4.4-1.5-6.6-2.2c-0.7-0.2-1-1-0.8-1.6c0.2-0.7,1-1,1.6-0.8c2.2,0.8,4.3,1.5,6.5,2.2
			c0.7,0.2,1,0.9,0.8,1.6C176.5,480.9,176,481.2,175.4,481.2z M331.3,478.9c-0.5,0-1-0.3-1.2-0.9c-0.2-0.7,0.1-1.4,0.8-1.6
			c2.1-0.8,4.3-1.6,6.4-2.4c0.7-0.3,1.4,0.1,1.7,0.7c0.3,0.7-0.1,1.4-0.7,1.7c-2.2,0.8-4.3,1.7-6.5,2.4
			C331.6,478.9,331.5,478.9,331.3,478.9z M162.4,476.6c-0.2,0-0.3,0-0.5-0.1c-2.1-0.8-4.3-1.7-6.4-2.6c-0.7-0.3-1-1-0.7-1.7
			c0.3-0.7,1-1,1.7-0.7c2.1,0.9,4.3,1.8,6.4,2.6c0.7,0.3,1,1,0.7,1.7C163.4,476.3,162.9,476.6,162.4,476.6z M344.2,473.9
			c-0.5,0-1-0.3-1.2-0.8c-0.3-0.7,0-1.4,0.7-1.7c2.1-0.9,4.2-1.8,6.3-2.8c0.6-0.3,1.4,0,1.7,0.6c0.3,0.6,0,1.4-0.6,1.7
			c-2.1,1-4.2,1.9-6.3,2.8C344.5,473.9,344.3,473.9,344.2,473.9z M149.6,471.2c-0.2,0-0.4,0-0.5-0.1c-2.1-1-4.2-2-6.3-3
			c-0.6-0.3-0.9-1.1-0.6-1.7c0.3-0.6,1.1-0.9,1.7-0.6c2.1,1,4.1,2,6.2,2.9c0.6,0.3,0.9,1.1,0.6,1.7
			C150.6,470.9,150.1,471.2,149.6,471.2z M356.7,468.2c-0.5,0-0.9-0.3-1.2-0.7c-0.3-0.6-0.1-1.4,0.6-1.7c2-1,4.1-2.1,6.1-3.1
			c0.6-0.3,1.4-0.1,1.7,0.5c0.3,0.6,0.1,1.4-0.5,1.7c-2,1.1-4.1,2.1-6.2,3.1C357,468.2,356.9,468.2,356.7,468.2z M137.2,465.1
			c-0.2,0-0.4,0-0.6-0.1c-2-1.1-4.1-2.2-6.1-3.3c-0.6-0.4-0.8-1.1-0.5-1.8c0.4-0.6,1.1-0.8,1.8-0.5c2,1.1,4,2.2,6,3.3
			c0.6,0.3,0.9,1.1,0.5,1.7C138.2,464.8,137.7,465.1,137.2,465.1z M368.8,461.8c-0.4,0-0.9-0.2-1.1-0.7c-0.4-0.6-0.1-1.4,0.5-1.8
			c2-1.1,4-2.3,5.9-3.5c0.6-0.4,1.4-0.2,1.8,0.4c0.4,0.6,0.2,1.4-0.4,1.8c-2,1.2-4,2.4-6,3.5C369.3,461.7,369,461.8,368.8,461.8z
			 M125.2,458.3c-0.2,0-0.5-0.1-0.7-0.2c-2-1.2-3.9-2.4-5.9-3.7c-0.6-0.4-0.8-1.2-0.4-1.8c0.4-0.6,1.2-0.8,1.8-0.4
			c1.9,1.2,3.9,2.5,5.8,3.6c0.6,0.4,0.8,1.2,0.4,1.8C126.1,458.1,125.6,458.3,125.2,458.3z M380.6,454.6c-0.4,0-0.8-0.2-1.1-0.6
			c-0.4-0.6-0.2-1.4,0.4-1.8c1.9-1.2,3.8-2.5,5.7-3.8c0.6-0.4,1.4-0.3,1.8,0.3c0.4,0.6,0.3,1.4-0.3,1.8c-1.9,1.3-3.9,2.6-5.8,3.8
			C381.1,454.6,380.9,454.6,380.6,454.6z M113.6,450.8c-0.3,0-0.5-0.1-0.7-0.2c-1.9-1.3-3.8-2.6-5.7-4c-0.6-0.4-0.7-1.2-0.3-1.8
			c0.4-0.6,1.2-0.7,1.8-0.3c1.9,1.4,3.7,2.7,5.6,4c0.6,0.4,0.7,1.2,0.3,1.8C114.4,450.6,114,450.8,113.6,450.8z M392,446.9
			c-0.4,0-0.8-0.2-1-0.5c-0.4-0.6-0.3-1.4,0.3-1.8c1.8-1.3,3.7-2.7,5.5-4.1c0.6-0.4,1.4-0.3,1.8,0.2c0.4,0.6,0.3,1.4-0.2,1.8
			c-1.8,1.4-3.7,2.8-5.5,4.2C392.5,446.8,392.3,446.9,392,446.9z M102.4,442.7c-0.3,0-0.6-0.1-0.8-0.3c-1.8-1.4-3.6-2.9-5.4-4.3
			c-0.6-0.5-0.6-1.3-0.2-1.8c0.5-0.6,1.3-0.6,1.8-0.2c1.8,1.4,3.6,2.9,5.4,4.3c0.6,0.4,0.7,1.2,0.2,1.8
			C103.2,442.5,102.8,442.7,102.4,442.7z M402.9,438.4c-0.4,0-0.7-0.2-1-0.5c-0.5-0.6-0.4-1.4,0.2-1.8c1.8-1.4,3.5-2.9,5.2-4.4
			c0.5-0.5,1.4-0.4,1.8,0.1c0.5,0.5,0.4,1.4-0.1,1.8c-1.7,1.5-3.5,3-5.3,4.5C403.5,438.3,403.2,438.4,402.9,438.4z M91.7,433.9
			c-0.3,0-0.6-0.1-0.8-0.3c-1.7-1.5-3.5-3.1-5.2-4.6c-0.5-0.5-0.6-1.3-0.1-1.8c0.5-0.5,1.3-0.6,1.8-0.1c1.7,1.5,3.4,3.1,5.1,4.6
			c0.5,0.5,0.6,1.3,0.1,1.8C92.5,433.8,92.1,433.9,91.7,433.9z M413.3,429.4c-0.3,0-0.7-0.1-1-0.4c-0.5-0.5-0.4-1.3,0.1-1.8
			c1.7-1.5,3.4-3.1,5-4.7c0.5-0.5,1.3-0.5,1.8,0c0.5,0.5,0.5,1.3,0,1.8c-1.7,1.6-3.4,3.2-5,4.8C414,429.3,413.6,429.4,413.3,429.4z
			 M81.6,424.6c-0.3,0-0.6-0.1-0.9-0.4c-1.6-1.6-3.3-3.2-4.9-4.9c-0.5-0.5-0.5-1.3,0-1.8c0.5-0.5,1.3-0.5,1.8,0
			c1.6,1.6,3.2,3.3,4.9,4.9c0.5,0.5,0.5,1.3,0,1.8C82.2,424.5,81.9,424.6,81.6,424.6z M423.2,419.8c-0.3,0-0.6-0.1-0.9-0.4
			c-0.5-0.5-0.5-1.3,0-1.8c1.6-1.6,3.2-3.3,4.7-5c0.5-0.5,1.3-0.6,1.8-0.1c0.5,0.5,0.6,1.3,0.1,1.8c-1.6,1.7-3.2,3.4-4.8,5
			C423.9,419.7,423.6,419.8,423.2,419.8z M72,414.7c-0.3,0-0.7-0.1-1-0.4c-1.5-1.7-3.1-3.4-4.6-5.2c-0.5-0.5-0.4-1.4,0.1-1.8
			c0.5-0.5,1.4-0.4,1.8,0.1c1.5,1.7,3,3.5,4.6,5.1c0.5,0.5,0.4,1.3-0.1,1.8C72.6,414.6,72.3,414.7,72,414.7z M432.6,409.6
			c-0.3,0-0.6-0.1-0.8-0.3c-0.5-0.5-0.6-1.3-0.1-1.8c1.5-1.7,3-3.5,4.4-5.2c0.5-0.6,1.3-0.6,1.8-0.2c0.6,0.5,0.6,1.3,0.2,1.8
			c-1.5,1.8-3,3.6-4.5,5.3C433.3,409.5,432.9,409.6,432.6,409.6z M62.9,404.3c-0.4,0-0.7-0.2-1-0.5c-1.4-1.8-2.9-3.6-4.3-5.4
			c-0.4-0.6-0.3-1.4,0.2-1.8c0.6-0.4,1.4-0.3,1.8,0.2c1.4,1.8,2.8,3.6,4.3,5.4c0.5,0.6,0.4,1.4-0.2,1.8
			C63.5,404.2,63.2,404.3,62.9,404.3z M441.3,399c-0.3,0-0.6-0.1-0.8-0.3c-0.6-0.4-0.7-1.2-0.2-1.8c1.4-1.8,2.8-3.6,4.1-5.5
			c0.4-0.6,1.2-0.7,1.8-0.3c0.6,0.4,0.7,1.2,0.3,1.8c-1.4,1.9-2.8,3.7-4.2,5.6C442.1,398.8,441.7,399,441.3,399z M54.5,393.4
			c-0.4,0-0.8-0.2-1-0.5c-1.4-1.9-2.7-3.8-4-5.7c-0.4-0.6-0.3-1.4,0.3-1.8c0.6-0.4,1.4-0.3,1.8,0.3c1.3,1.9,2.6,3.8,4,5.6
			c0.4,0.6,0.3,1.4-0.3,1.8C55,393.3,54.8,393.4,54.5,393.4z M449.5,387.8c-0.3,0-0.5-0.1-0.7-0.2c-0.6-0.4-0.7-1.2-0.3-1.8
			c1.3-1.9,2.6-3.8,3.8-5.7c0.4-0.6,1.2-0.8,1.8-0.4c0.6,0.4,0.8,1.2,0.4,1.8c-1.2,1.9-2.5,3.9-3.8,5.8
			C450.3,387.6,449.9,387.8,449.5,387.8z M46.7,382c-0.4,0-0.8-0.2-1.1-0.6c-1.2-1.9-2.5-3.9-3.7-5.9c-0.4-0.6-0.2-1.4,0.4-1.8
			c0.6-0.4,1.4-0.2,1.8,0.4c1.2,1.9,2.4,3.9,3.6,5.8c0.4,0.6,0.2,1.4-0.4,1.8C47.2,381.9,46.9,382,46.7,382z M456.9,376.2
			c-0.2,0-0.5-0.1-0.7-0.2c-0.6-0.4-0.8-1.2-0.4-1.8c1.2-2,2.3-3.9,3.5-5.9c0.4-0.6,1.1-0.8,1.8-0.5c0.6,0.4,0.8,1.1,0.5,1.8
			c-1.1,2-2.3,4-3.5,6C457.8,376,457.4,376.2,456.9,376.2z M39.6,370.2c-0.4,0-0.9-0.2-1.1-0.7c-1.1-2-2.3-4-3.3-6.1
			c-0.3-0.6-0.1-1.4,0.5-1.7c0.6-0.3,1.4-0.1,1.7,0.5c1.1,2,2.2,4,3.3,6c0.4,0.6,0.1,1.4-0.5,1.8C40,370.2,39.8,370.2,39.6,370.2z
			 M463.7,364.1c-0.2,0-0.4,0-0.6-0.1c-0.6-0.3-0.9-1.1-0.5-1.7c1.1-2,2.1-4.1,3.1-6.1c0.3-0.6,1.1-0.9,1.7-0.6
			c0.6,0.3,0.9,1.1,0.6,1.7c-1,2.1-2.1,4.1-3.2,6.2C464.7,363.9,464.2,364.1,463.7,364.1z M33.1,358.1c-0.5,0-0.9-0.3-1.2-0.7
			c-1-2-2-4.2-3-6.2c-0.3-0.6,0-1.4,0.6-1.7c0.6-0.3,1.4,0,1.7,0.6c1,2.1,1.9,4.2,2.9,6.2c0.3,0.6,0.1,1.4-0.6,1.7
			C33.5,358,33.3,358.1,33.1,358.1z M469.9,351.7c-0.2,0-0.4,0-0.5-0.1c-0.6-0.3-0.9-1.1-0.6-1.7c1-2.1,1.9-4.2,2.8-6.3
			c0.3-0.7,1-1,1.7-0.7c0.7,0.3,1,1,0.7,1.7c-0.9,2.1-1.8,4.3-2.8,6.4C470.8,351.5,470.4,351.7,469.9,351.7z M27.4,345.5
			c-0.5,0-1-0.3-1.2-0.8c-0.9-2.1-1.8-4.3-2.6-6.4c-0.3-0.7,0.1-1.4,0.7-1.7c0.7-0.3,1.4,0.1,1.7,0.7c0.8,2.1,1.7,4.2,2.6,6.3
			c0.3,0.7,0,1.4-0.7,1.7C27.7,345.5,27.6,345.5,27.4,345.5z M475.3,339c-0.2,0-0.3,0-0.5-0.1c-0.7-0.3-1-1-0.7-1.7
			c0.8-2.1,1.6-4.3,2.4-6.5c0.2-0.7,1-1,1.6-0.8c0.7,0.2,1,1,0.8,1.6c-0.8,2.2-1.6,4.4-2.4,6.5C476.3,338.7,475.8,339,475.3,339z
			 M22.4,332.7c-0.5,0-1-0.3-1.2-0.9c-0.8-2.2-1.5-4.4-2.2-6.6c-0.2-0.7,0.1-1.4,0.8-1.6c0.7-0.2,1.4,0.1,1.6,0.8
			c0.7,2.2,1.5,4.4,2.2,6.5c0.2,0.7-0.1,1.4-0.8,1.6C22.7,332.7,22.5,332.7,22.4,332.7z M479.9,326c-0.1,0-0.3,0-0.4-0.1
			c-0.7-0.2-1-0.9-0.8-1.6c0.7-2.2,1.4-4.4,2-6.6c0.2-0.7,0.9-1.1,1.6-0.9c0.7,0.2,1.1,0.9,0.9,1.6c-0.6,2.2-1.3,4.4-2,6.6
			C481,325.6,480.5,326,479.9,326z M18.1,319.6c-0.6,0-1.1-0.4-1.2-0.9c-0.7-2.2-1.3-4.5-1.9-6.7c-0.2-0.7,0.2-1.4,0.9-1.6
			c0.7-0.2,1.4,0.2,1.6,0.9c0.6,2.2,1.2,4.4,1.8,6.6c0.2,0.7-0.2,1.4-0.9,1.6C18.4,319.6,18.2,319.6,18.1,319.6z M483.8,312.7
			c-0.1,0-0.2,0-0.3,0c-0.7-0.2-1.1-0.9-0.9-1.6c0.6-2.2,1.1-4.4,1.6-6.7c0.2-0.7,0.9-1.1,1.5-1c0.7,0.2,1.1,0.9,1,1.5
			c-0.5,2.2-1.1,4.5-1.7,6.7C484.9,312.3,484.4,312.7,483.8,312.7z M14.6,306.2c-0.6,0-1.1-0.4-1.3-1c-0.5-2.2-1-4.5-1.5-6.8
			c-0.1-0.7,0.3-1.4,1-1.5c0.7-0.1,1.4,0.3,1.5,1c0.5,2.2,0.9,4.5,1.5,6.7c0.2,0.7-0.3,1.4-1,1.5C14.8,306.2,14.7,306.2,14.6,306.2z
			 M486.9,299.3c-0.1,0-0.2,0-0.3,0c-0.7-0.1-1.2-0.8-1-1.5c0.4-2.2,0.9-4.5,1.3-6.7c0.1-0.7,0.8-1.2,1.5-1.1
			c0.7,0.1,1.2,0.8,1.1,1.5c-0.4,2.3-0.8,4.6-1.3,6.8C488,298.9,487.5,299.3,486.9,299.3z M11.9,292.7c-0.6,0-1.2-0.4-1.3-1.1
			c-0.4-2.3-0.8-4.6-1.1-6.9c-0.1-0.7,0.4-1.4,1.1-1.5c0.7-0.1,1.4,0.4,1.5,1.1c0.3,2.3,0.7,4.5,1.1,6.8c0.1,0.7-0.3,1.4-1.1,1.5
			C12,292.7,11.9,292.7,11.9,292.7z M489.2,285.7c-0.1,0-0.1,0-0.2,0c-0.7-0.1-1.2-0.8-1.1-1.5c0.3-2.3,0.6-4.6,0.9-6.8
			c0.1-0.7,0.7-1.2,1.4-1.1c0.7,0.1,1.2,0.7,1.1,1.4c-0.3,2.3-0.6,4.6-0.9,6.9C490.4,285.2,489.9,285.7,489.2,285.7z M9.9,279.1
			c-0.6,0-1.2-0.5-1.3-1.1c-0.3-2.3-0.5-4.6-0.7-6.9c-0.1-0.7,0.5-1.3,1.2-1.4c0.7-0.1,1.3,0.5,1.4,1.2c0.2,2.3,0.4,4.6,0.7,6.8
			c0.1,0.7-0.4,1.3-1.1,1.4C10,279.1,10,279.1,9.9,279.1z M490.8,272c0,0-0.1,0-0.1,0c-0.7-0.1-1.2-0.7-1.2-1.4
			c0.2-2.3,0.4-4.6,0.5-6.8c0-0.7,0.7-1.2,1.4-1.2c0.7,0,1.3,0.6,1.2,1.4c-0.1,2.3-0.3,4.6-0.5,6.9C492,271.5,491.5,272,490.8,272z
			 M8.7,265.3c-0.7,0-1.2-0.5-1.3-1.2c-0.1-2.3-0.2-4.6-0.3-6.9c0-0.7,0.5-1.3,1.3-1.3c0.7-0.1,1.3,0.5,1.3,1.3
			c0.1,2.3,0.2,4.6,0.3,6.9C10.1,264.7,9.5,265.3,8.7,265.3C8.8,265.3,8.8,265.3,8.7,265.3z M491.6,258.2
			C491.6,258.2,491.5,258.2,491.6,258.2c-0.7,0-1.3-0.6-1.3-1.3c0.1-2.3,0.1-4.6,0.1-6.9l0-0.5c0-0.7,0.6-1.3,1.3-1.3
			s1.3,0.6,1.3,1.3l0,0.4c0,2.3,0,4.6-0.1,6.9C492.8,257.6,492.3,258.2,491.6,258.2z M8.3,251.5c-0.7,0-1.3-0.6-1.3-1.3V250
			c0-2.2,0-4.5,0.1-6.7c0-0.7,0.6-1.3,1.3-1.3c0,0,0,0,0,0c0.7,0,1.3,0.6,1.3,1.3c-0.1,2.2-0.1,4.4-0.1,6.6v0.2
			C9.6,250.9,9,251.5,8.3,251.5z M491.6,243.9c-0.7,0-1.3-0.6-1.3-1.3c-0.1-2.3-0.2-4.6-0.3-6.9c0-0.7,0.5-1.3,1.2-1.4
			c0.7-0.1,1.3,0.5,1.4,1.2c0.1,2.3,0.2,4.7,0.3,6.9C492.9,243.3,492.3,243.9,491.6,243.9C491.6,243.9,491.6,243.9,491.6,243.9z
			 M8.7,237.7C8.7,237.7,8.7,237.7,8.7,237.7c-0.8,0-1.3-0.7-1.3-1.4c0.1-2.3,0.3-4.6,0.5-6.9c0.1-0.7,0.7-1.2,1.4-1.2
			c0.7,0.1,1.2,0.7,1.2,1.4c-0.2,2.3-0.3,4.6-0.5,6.8C10,237.2,9.4,237.7,8.7,237.7z M490.8,230.2c-0.7,0-1.2-0.5-1.3-1.2
			c-0.2-2.3-0.4-4.6-0.7-6.8c-0.1-0.7,0.4-1.3,1.1-1.4c0.7-0.1,1.3,0.4,1.4,1.1c0.3,2.3,0.5,4.6,0.7,6.9c0.1,0.7-0.5,1.3-1.2,1.4
			C490.8,230.2,490.8,230.2,490.8,230.2z M9.9,224c0,0-0.1,0-0.1,0c-0.7-0.1-1.2-0.7-1.1-1.4c0.3-2.3,0.6-4.6,0.9-6.9
			c0.1-0.7,0.8-1.2,1.5-1.1c0.7,0.1,1.2,0.8,1.1,1.5c-0.3,2.2-0.6,4.5-0.9,6.8C11.1,223.5,10.5,224,9.9,224z M489.2,216.5
			c-0.6,0-1.2-0.5-1.3-1.1c-0.3-2.3-0.7-4.5-1.1-6.8c-0.1-0.7,0.3-1.4,1-1.5c0.7-0.1,1.4,0.3,1.5,1c0.4,2.3,0.8,4.6,1.1,6.9
			c0.1,0.7-0.4,1.4-1.1,1.5C489.3,216.4,489.2,216.5,489.2,216.5z M11.8,210.3c-0.1,0-0.1,0-0.2,0c-0.7-0.1-1.2-0.8-1.1-1.5
			c0.4-2.3,0.8-4.6,1.3-6.8c0.1-0.7,0.8-1.1,1.5-1c0.7,0.1,1.2,0.8,1,1.5c-0.4,2.2-0.9,4.5-1.3,6.7C13,209.9,12.4,210.3,11.8,210.3z
			 M486.8,202.9c-0.6,0-1.1-0.4-1.3-1c-0.5-2.2-0.9-4.5-1.5-6.7c-0.2-0.7,0.3-1.4,1-1.5c0.7-0.2,1.4,0.3,1.5,1
			c0.5,2.3,1,4.5,1.5,6.8c0.1,0.7-0.3,1.4-1,1.5C487,202.8,486.9,202.9,486.8,202.9z M14.5,196.8c-0.1,0-0.2,0-0.3,0
			c-0.7-0.2-1.1-0.9-1-1.5c0.5-2.3,1.1-4.5,1.7-6.7c0.2-0.7,0.9-1.1,1.6-0.9c0.7,0.2,1.1,0.9,0.9,1.6c-0.6,2.2-1.1,4.4-1.6,6.7
			C15.6,196.4,15.1,196.8,14.5,196.8z M483.7,189.4c-0.6,0-1.1-0.4-1.2-1c-0.6-2.2-1.2-4.4-1.8-6.6c-0.2-0.7,0.2-1.4,0.9-1.6
			c0.7-0.2,1.4,0.2,1.6,0.9c0.7,2.2,1.3,4.4,1.9,6.7c0.2,0.7-0.2,1.4-0.9,1.6C483.9,189.4,483.8,189.4,483.7,189.4z M18,183.4
			c-0.1,0-0.2,0-0.4-0.1c-0.7-0.2-1.1-0.9-0.9-1.6c0.6-2.2,1.3-4.4,2-6.6c0.2-0.7,0.9-1,1.6-0.8c0.7,0.2,1,0.9,0.8,1.6
			c-0.7,2.2-1.4,4.4-2,6.6C19.1,183.1,18.6,183.4,18,183.4z M479.8,176.2c-0.5,0-1-0.3-1.2-0.9c-0.7-2.2-1.5-4.3-2.2-6.5
			c-0.2-0.7,0.1-1.4,0.8-1.7c0.7-0.2,1.4,0.1,1.7,0.8c0.8,2.2,1.5,4.4,2.2,6.6c0.2,0.7-0.1,1.4-0.8,1.6
			C480,176.2,479.9,176.2,479.8,176.2z M22.2,170.3c-0.1,0-0.3,0-0.4-0.1c-0.7-0.2-1-1-0.8-1.6c0.8-2.2,1.6-4.4,2.4-6.5
			c0.3-0.7,1-1,1.7-0.7c0.7,0.3,1,1,0.7,1.7c-0.8,2.1-1.6,4.3-2.4,6.5C23.3,169.9,22.8,170.3,22.2,170.3z M475.1,163.2
			c-0.5,0-1-0.3-1.2-0.8c-0.8-2.1-1.7-4.2-2.6-6.3c-0.3-0.7,0-1.4,0.7-1.7c0.7-0.3,1.4,0,1.7,0.7c0.9,2.1,1.8,4.3,2.6,6.4
			c0.3,0.7-0.1,1.4-0.7,1.7C475.4,163.2,475.3,163.2,475.1,163.2z M27.3,157.4c-0.2,0-0.3,0-0.5-0.1c-0.7-0.3-1-1-0.7-1.7
			c0.9-2.1,1.8-4.3,2.8-6.4c0.3-0.6,1.1-0.9,1.7-0.6c0.6,0.3,0.9,1.1,0.6,1.7c-1,2.1-1.9,4.2-2.8,6.3
			C28.2,157.1,27.8,157.4,27.3,157.4z M469.7,150.5c-0.5,0-1-0.3-1.2-0.8c-0.9-2.1-1.9-4.1-2.9-6.2c-0.3-0.6-0.1-1.4,0.6-1.7
			c0.6-0.3,1.4-0.1,1.7,0.6c1,2.1,2,4.2,3,6.2c0.3,0.6,0,1.4-0.6,1.7C470.1,150.5,469.9,150.5,469.7,150.5z M33,144.8
			c-0.2,0-0.4,0-0.6-0.1c-0.6-0.3-0.9-1.1-0.6-1.7c1-2.1,2.1-4.2,3.2-6.2c0.3-0.6,1.1-0.9,1.7-0.5c0.6,0.3,0.9,1.1,0.5,1.7
			c-1.1,2-2.1,4.1-3.1,6.1C33.9,144.5,33.5,144.8,33,144.8z M463.6,138.2c-0.5,0-0.9-0.2-1.1-0.7c-1.1-2-2.2-4-3.3-6
			c-0.4-0.6-0.1-1.4,0.5-1.8c0.6-0.4,1.4-0.1,1.8,0.5c1.1,2,2.2,4,3.3,6.1c0.3,0.6,0.1,1.4-0.5,1.7
			C464,138.1,463.8,138.2,463.6,138.2z M39.5,132.6c-0.2,0-0.4-0.1-0.6-0.2c-0.6-0.4-0.8-1.1-0.5-1.8c1.1-2,2.3-4,3.5-6
			c0.4-0.6,1.2-0.8,1.8-0.4c0.6,0.4,0.8,1.2,0.4,1.8c-1.2,1.9-2.3,3.9-3.5,5.9C40.3,132.3,39.9,132.6,39.5,132.6z M456.8,126.2
			c-0.4,0-0.9-0.2-1.1-0.6c-1.2-1.9-2.4-3.9-3.6-5.8c-0.4-0.6-0.2-1.4,0.4-1.8c0.6-0.4,1.4-0.2,1.8,0.4c1.2,1.9,2.5,3.9,3.7,5.9
			c0.4,0.6,0.2,1.4-0.4,1.8C457.3,126.2,457.1,126.2,456.8,126.2z M46.6,120.7c-0.2,0-0.5-0.1-0.7-0.2c-0.6-0.4-0.8-1.2-0.4-1.8
			c1.2-1.9,2.5-3.9,3.8-5.8c0.4-0.6,1.2-0.7,1.8-0.3c0.6,0.4,0.7,1.2,0.3,1.8c-1.3,1.9-2.6,3.8-3.8,5.7
			C47.4,120.5,47,120.7,46.6,120.7z M449.4,114.6c-0.4,0-0.8-0.2-1.1-0.6c-1.3-1.9-2.6-3.8-4-5.6c-0.4-0.6-0.3-1.4,0.3-1.8
			c0.6-0.4,1.4-0.3,1.8,0.3c1.4,1.9,2.7,3.8,4,5.7c0.4,0.6,0.3,1.4-0.3,1.8C449.9,114.6,449.6,114.6,449.4,114.6z M54.4,109.3
			c-0.3,0-0.5-0.1-0.8-0.2c-0.6-0.4-0.7-1.2-0.3-1.8c1.4-1.9,2.8-3.7,4.2-5.6c0.4-0.6,1.2-0.7,1.8-0.2c0.6,0.4,0.7,1.2,0.2,1.8
			c-1.4,1.8-2.8,3.7-4.1,5.5C55.2,109.1,54.8,109.3,54.4,109.3z M441.2,103.5c-0.4,0-0.8-0.2-1-0.5c-1.4-1.8-2.8-3.6-4.3-5.4
			c-0.5-0.6-0.4-1.4,0.2-1.8c0.6-0.5,1.4-0.4,1.8,0.2c1.5,1.8,2.9,3.6,4.3,5.4c0.4,0.6,0.3,1.4-0.2,1.8
			C441.8,103.4,441.5,103.5,441.2,103.5z M62.8,98.4c-0.3,0-0.6-0.1-0.8-0.3c-0.6-0.5-0.6-1.3-0.2-1.8c1.5-1.8,3-3.6,4.5-5.3
			c0.5-0.5,1.3-0.6,1.8-0.1c0.5,0.5,0.6,1.3,0.1,1.8c-1.5,1.7-3,3.5-4.4,5.3C63.6,98.2,63.2,98.4,62.8,98.4z M432.5,92.9
			c-0.4,0-0.7-0.2-1-0.4c-1.5-1.7-3-3.4-4.6-5.1c-0.5-0.5-0.4-1.3,0.1-1.8c0.5-0.5,1.3-0.4,1.8,0.1c1.6,1.7,3.1,3.4,4.6,5.2
			c0.5,0.5,0.4,1.4-0.1,1.8C433.1,92.7,432.8,92.9,432.5,92.9z M71.9,88c-0.3,0-0.6-0.1-0.9-0.3c-0.5-0.5-0.6-1.3-0.1-1.8
			c1.6-1.7,3.2-3.4,4.8-5c0.5-0.5,1.3-0.5,1.8,0c0.5,0.5,0.5,1.3,0,1.8c-1.6,1.6-3.2,3.3-4.7,5C72.6,87.8,72.2,88,71.9,88z
			 M423.1,82.7c-0.3,0-0.7-0.1-0.9-0.4c-1.6-1.6-3.2-3.3-4.9-4.8c-0.5-0.5-0.5-1.3,0-1.8c0.5-0.5,1.3-0.5,1.8,0
			c1.6,1.6,3.3,3.2,4.9,4.9c0.5,0.5,0.5,1.3,0,1.8C423.8,82.6,423.5,82.7,423.1,82.7z M81.5,78.1c-0.3,0-0.7-0.1-0.9-0.4
			c-0.5-0.5-0.5-1.3,0-1.8c1.7-1.6,3.4-3.2,5-4.8c0.5-0.5,1.3-0.4,1.8,0.1c0.5,0.5,0.4,1.3-0.1,1.8c-1.7,1.5-3.3,3.1-5,4.7
			C82.1,77.9,81.8,78.1,81.5,78.1z M413.2,73.1c-0.3,0-0.6-0.1-0.9-0.3c-1.7-1.5-3.4-3.1-5.1-4.6c-0.5-0.5-0.6-1.3-0.1-1.8
			c0.5-0.5,1.3-0.6,1.8-0.1c1.8,1.5,3.5,3.1,5.2,4.6c0.5,0.5,0.6,1.3,0.1,1.8C413.9,72.9,413.6,73.1,413.2,73.1z M91.6,68.7
			c-0.4,0-0.7-0.2-1-0.4c-0.5-0.5-0.4-1.4,0.1-1.8c1.7-1.5,3.5-3,5.3-4.5c0.6-0.5,1.4-0.4,1.8,0.2c0.5,0.6,0.4,1.4-0.2,1.8
			c-1.8,1.4-3.5,2.9-5.2,4.4C92.2,68.6,91.9,68.7,91.6,68.7z M402.8,64.1c-0.3,0-0.6-0.1-0.8-0.3c-1.8-1.4-3.6-2.9-5.4-4.3
			c-0.6-0.4-0.7-1.2-0.2-1.8c0.4-0.6,1.2-0.7,1.8-0.2c1.8,1.4,3.7,2.9,5.4,4.3c0.6,0.5,0.6,1.3,0.2,1.8
			C403.5,63.9,403.2,64.1,402.8,64.1z M102.3,60c-0.4,0-0.8-0.2-1-0.5c-0.4-0.6-0.3-1.4,0.2-1.8c1.8-1.4,3.7-2.8,5.5-4.2
			c0.6-0.4,1.4-0.3,1.8,0.3c0.4,0.6,0.3,1.4-0.3,1.8c-1.8,1.3-3.7,2.7-5.5,4.1C102.9,59.9,102.6,60,102.3,60z M391.9,55.6
			c-0.3,0-0.5-0.1-0.8-0.2c-1.8-1.3-3.7-2.7-5.6-4c-0.6-0.4-0.7-1.2-0.3-1.8c0.4-0.6,1.2-0.7,1.8-0.3c1.9,1.3,3.8,2.7,5.7,4
			c0.6,0.4,0.7,1.2,0.3,1.8C392.7,55.4,392.3,55.6,391.9,55.6z M113.5,51.9c-0.4,0-0.8-0.2-1.1-0.6c-0.4-0.6-0.3-1.4,0.3-1.8
			c1.9-1.3,3.8-2.6,5.8-3.8c0.6-0.4,1.4-0.2,1.8,0.4c0.4,0.6,0.2,1.4-0.4,1.8c-1.9,1.2-3.8,2.5-5.7,3.8
			C114,51.8,113.7,51.9,113.5,51.9z M380.5,47.8c-0.2,0-0.5-0.1-0.7-0.2c-1.9-1.2-3.9-2.5-5.8-3.6c-0.6-0.4-0.8-1.2-0.4-1.8
			c0.4-0.6,1.2-0.8,1.8-0.4c2,1.2,3.9,2.4,5.9,3.7c0.6,0.4,0.8,1.2,0.4,1.8C381.3,47.6,380.9,47.8,380.5,47.8z M125,44.4
			c-0.4,0-0.9-0.2-1.1-0.6c-0.4-0.6-0.2-1.4,0.4-1.8c2-1.2,4-2.4,6-3.5c0.6-0.4,1.4-0.1,1.8,0.5c0.4,0.6,0.1,1.4-0.5,1.8
			c-2,1.1-4,2.3-5.9,3.5C125.5,44.3,125.3,44.4,125,44.4z M368.6,40.7c-0.2,0-0.4-0.1-0.6-0.2c-2-1.1-4-2.2-6-3.3
			c-0.6-0.3-0.9-1.1-0.5-1.7c0.3-0.6,1.1-0.9,1.7-0.5c2,1.1,4.1,2.2,6.1,3.3c0.6,0.4,0.8,1.1,0.5,1.8
			C369.5,40.5,369.1,40.7,368.6,40.7z M137,37.6c-0.5,0-0.9-0.2-1.1-0.7c-0.3-0.6-0.1-1.4,0.5-1.7c2-1.1,4.1-2.1,6.2-3.2
			c0.6-0.3,1.4-0.1,1.7,0.6c0.3,0.6,0.1,1.4-0.6,1.7c-2,1-4.1,2-6.1,3.1C137.4,37.6,137.2,37.6,137,37.6z M356.4,34.2
			c-0.2,0-0.4,0-0.6-0.1c-2.1-1-4.2-2-6.2-2.9c-0.6-0.3-0.9-1.1-0.6-1.7c0.3-0.6,1.1-0.9,1.7-0.6c2.1,1,4.2,2,6.3,3
			c0.6,0.3,0.9,1.1,0.6,1.7C357.3,34,356.9,34.2,356.4,34.2z M149.3,31.5c-0.5,0-1-0.3-1.2-0.8c-0.3-0.6,0-1.4,0.6-1.7
			c2.1-1,4.2-1.9,6.3-2.8c0.7-0.3,1.4,0,1.7,0.7c0.3,0.7,0,1.4-0.7,1.7c-2.1,0.9-4.2,1.8-6.3,2.8C149.7,31.5,149.5,31.5,149.3,31.5z
			 M343.8,28.5c-0.2,0-0.3,0-0.5-0.1c-2.1-0.9-4.3-1.8-6.4-2.6c-0.7-0.3-1-1-0.7-1.7c0.3-0.7,1-1,1.7-0.7c2.1,0.8,4.3,1.7,6.4,2.6
			c0.7,0.3,1,1,0.7,1.7C344.8,28.2,344.3,28.5,343.8,28.5z M162,26.1c-0.5,0-1-0.3-1.2-0.8c-0.3-0.7,0.1-1.4,0.7-1.7
			c2.1-0.8,4.3-1.7,6.5-2.4c0.7-0.2,1.4,0.1,1.6,0.8c0.2,0.7-0.1,1.4-0.8,1.6c-2.1,0.8-4.3,1.6-6.4,2.4
			C162.3,26.1,162.2,26.1,162,26.1z M330.9,23.5c-0.1,0-0.3,0-0.4-0.1c-2.1-0.8-4.3-1.5-6.5-2.2c-0.7-0.2-1-0.9-0.8-1.6
			c0.2-0.7,0.9-1,1.6-0.8c2.2,0.7,4.4,1.5,6.6,2.2c0.7,0.2,1,1,0.8,1.6C331.9,23.2,331.4,23.5,330.9,23.5z M175,21.5
			c-0.5,0-1-0.3-1.2-0.9c-0.2-0.7,0.1-1.4,0.8-1.6c2.2-0.7,4.4-1.4,6.6-2.1c0.7-0.2,1.4,0.2,1.6,0.9c0.2,0.7-0.2,1.4-0.9,1.6
			c-2.2,0.6-4.4,1.3-6.6,2C175.3,21.5,175.1,21.5,175,21.5z M317.8,19.2c-0.1,0-0.2,0-0.4-0.1c-2.2-0.6-4.4-1.3-6.6-1.8
			c-0.7-0.2-1.1-0.9-0.9-1.6c0.2-0.7,0.9-1.1,1.6-0.9c2.2,0.6,4.5,1.2,6.7,1.8c0.7,0.2,1.1,0.9,0.9,1.6
			C318.8,18.9,318.3,19.2,317.8,19.2z M188.2,17.6c-0.6,0-1.1-0.4-1.2-1c-0.2-0.7,0.2-1.4,0.9-1.6c2.2-0.6,4.5-1.2,6.7-1.7
			c0.7-0.2,1.4,0.3,1.5,1c0.2,0.7-0.3,1.4-1,1.5c-2.2,0.5-4.5,1.1-6.7,1.7C188.5,17.6,188.3,17.6,188.2,17.6z M304.4,15.8
			c-0.1,0-0.2,0-0.3,0c-2.2-0.5-4.5-1-6.7-1.4c-0.7-0.1-1.2-0.8-1-1.5c0.1-0.7,0.8-1.2,1.5-1c2.3,0.5,4.5,0.9,6.8,1.5
			c0.7,0.2,1.1,0.9,1,1.5C305.5,15.4,305,15.8,304.4,15.8z M201.7,14.5c-0.6,0-1.1-0.4-1.3-1c-0.1-0.7,0.3-1.4,1-1.5
			c2.3-0.5,4.5-0.9,6.8-1.3c0.7-0.1,1.4,0.3,1.5,1.1c0.1,0.7-0.3,1.4-1.1,1.5c-2.2,0.4-4.5,0.8-6.7,1.3
			C201.8,14.4,201.8,14.5,201.7,14.5z M290.9,13.1c-0.1,0-0.1,0-0.2,0c-2.2-0.4-4.5-0.7-6.8-1.1c-0.7-0.1-1.2-0.8-1.1-1.5
			c0.1-0.7,0.8-1.2,1.5-1.1c2.3,0.3,4.6,0.7,6.9,1.1c0.7,0.1,1.2,0.8,1.1,1.5C292,12.6,291.5,13.1,290.9,13.1z M215.3,12.1
			c-0.6,0-1.2-0.5-1.3-1.1c-0.1-0.7,0.4-1.4,1.1-1.5c2.3-0.3,4.6-0.6,6.9-0.9c0.7-0.1,1.3,0.4,1.4,1.1c0.1,0.7-0.4,1.3-1.1,1.4
			c-2.2,0.3-4.5,0.6-6.8,0.9C215.4,12.1,215.3,12.1,215.3,12.1z M277.2,11.1c0,0-0.1,0-0.1,0c-2.3-0.3-4.6-0.5-6.8-0.7
			c-0.7-0.1-1.2-0.7-1.2-1.4c0.1-0.7,0.7-1.2,1.4-1.2c2.3,0.2,4.6,0.4,6.9,0.7c0.7,0.1,1.2,0.7,1.1,1.4
			C278.4,10.7,277.9,11.1,277.2,11.1z M229,10.5c-0.7,0-1.2-0.5-1.3-1.2c-0.1-0.7,0.5-1.3,1.2-1.4c2.3-0.2,4.6-0.4,6.9-0.5
			c0.7,0,1.3,0.5,1.4,1.2c0,0.7-0.5,1.3-1.2,1.4c-2.3,0.1-4.6,0.3-6.8,0.5C229.1,10.5,229,10.5,229,10.5z M263.5,10
			C263.4,10,263.4,10,263.5,10c-2.4-0.1-4.7-0.2-6.9-0.3c-0.7,0-1.3-0.6-1.3-1.3c0-0.7,0.6-1.3,1.3-1.3c2.3,0.1,4.6,0.2,6.9,0.3
			c0.7,0,1.3,0.6,1.2,1.4C264.7,9.5,264.1,10,263.5,10z M242.8,9.7c-0.7,0-1.3-0.6-1.3-1.3c0-0.7,0.5-1.3,1.3-1.3
			c2.3-0.1,4.6-0.1,6.9-0.1c0,0,0,0,0,0c0.7,0,1.3,0.6,1.3,1.3c0,0.7-0.6,1.3-1.3,1.3C247.4,9.6,245.1,9.7,242.8,9.7
			C242.8,9.7,242.8,9.7,242.8,9.7z"/>
	</g>
</g>
</svg>
