<?xml version="1.0" encoding="utf-8"?>
<!-- Generator: Adobe Illustrator 22.1.0, SVG Export Plug-In . SVG Version: 6.00 Build 0)  -->
<svg version="1.1" id="Layer_1" xmlns="http://www.w3.org/2000/svg" xmlns:xlink="http://www.w3.org/1999/xlink" x="0px" y="0px"
	 viewBox="0 0 500 500" style="enable-background:new 0 0 500 500;" xml:space="preserve">
<style type="text/css">
	.st0{clip-path:url(#SVGID_2_);fill:#FCE3C3;}
	.st1{clip-path:url(#SVGID_2_);}
	.st2{fill:#FFCFCA;}
	.st3{fill:#FCB9B4;}
	.st4{fill:#9B612D;}
	.st5{fill:#3A374C;}
	.st6{fill:#F9BFBB;}
	.st7{fill:#D55454;}
	.st8{fill:#F37C7C;}
	.st9{fill:#FFFFFF;}
	.st10{fill:#999999;}
	.st11{fill:#B53434;}
	.st12{fill:#24404C;}
	.st13{fill:#F7B2B0;}
	.st14{fill:#FBB03B;}
	.st15{fill:#F9A12D;}
	.st16{fill:#31314D;}
	.st17{fill:#22223A;}
</style>
<g>
	<g>
		<defs>
			<circle id="SVGID_1_" cx="250.3" cy="250.4" r="226.7"/>
		</defs>
		<clipPath id="SVGID_2_">
			<use xlink:href="#SVGID_1_"  style="overflow:visible;"/>
		</clipPath>
		<circle class="st0" cx="250.3" cy="250.4" r="226.7"/>
		<g class="st1">
			<g>
				<path class="st2" d="M252.5,1145.2c0.7,2.6,1.5,5.4,1,7.9c-2.6,4.5-8.7,5.6-13.2,6c-0.1,0-0.2,0-0.3,0l-32.1,1.4
					c-19.6-0.4-39.3-1.4-58.9-1c-4.4,0.1-9,0.2-13-1.7c-4-1.9-6.9-6.7-5.4-10.8c0,0,0,0,0,0c2-2.3,5-3.7,7.2-4.7
					c3.2-1.4,6-2.7,8.5-3.9c2.4-1.1,5.1-2.4,8.2-4c1.5-0.6,3-1.3,4.7-2c0,0,0,0,0.1,0c0.5-0.2,1-0.4,1.4-0.6l0,0
					c14.2-6.1,32-14.4,43.1-20.1l-2.3-48.6l-2.7-57.2l49.9,0.3l-4.7,58.5l-0.4,4.6l-3.3,40.9l-0.1,1.8c1.3,3.2,3.6,8.5,5.1,12.4
					c0.6,1.4,1,2.5,1.3,3.4c0.2,0.5,0.3,0.9,0.5,1.4C249.2,1135,251.2,1140.7,252.5,1145.2z"/>
				<path class="st3" d="M198.9,1005.9l49.9,0.3l-4.7,58.5c-14.2-0.1-28.4-0.6-42.5-1.6L198.9,1005.9z"/>
				<path class="st4" d="M254,1152.1c-0.2,0.4-0.3,0.7-0.5,1.1c-2.6,4.5-8.7,5.6-13.2,6c-0.1,0-0.2,0-0.3,0l-100.5,4.4
					c-1.3-0.2-2.7-0.5-4-1.1c-4.6-1.9-8.5-7.1-6.8-12.3c0.4-1.2,1-2.2,1.8-3.1c0,0,0,0,0,0c2-2.3,5-3.7,7.2-4.7
					c3.2-1.4,6-2.7,8.5-3.9c2.4-1.1,5.1-2.4,8.2-4c0.9-0.4,1.8-0.9,2.7-1.4l1.9-1l0,0.3l0.2,1.8c0.1,1,0.2,1.9,0.5,3
					c0.1,0.6,0.3,1.2,0.6,1.6c0.5,0.6,1.4,0.8,2.4,1c5.4,1.1,11.2,1.5,17.9,1.1c7.5-0.4,15.1-1.6,21.9-2.7c9.4-1.5,19-3.1,28-6.6
					c5.1-2,10-4.6,14.1-6.9l0.6-0.3l0.8-0.5l0.6,1.5c2.3,5.6,4.7,11.3,6.2,15.7C254.3,1144.8,255.5,1148.5,254,1152.1z"/>
				<path class="st2" d="M465.5,1101.6c1.8,2,3.6,4.3,4.3,6.8c-0.5,5.2-5.5,8.7-9.4,11c-0.1,0-0.1,0.1-0.2,0.1l-28.6,14.8
					c-18,7.8-36.3,15.2-53.9,23.8c-4,1.9-8.1,4-12.5,3.9c-4.4-0.1-9.1-3.1-9.4-7.6c0,0,0,0,0,0c0.9-2.9,3-5.4,4.6-7.3
					c2.3-2.6,4.3-5,6.1-7.1c1.7-2,3.6-4.4,5.8-7c1.1-1.2,2.2-2.5,3.4-3.8c0,0,0,0,0.1-0.1c0.3-0.4,0.7-0.8,1-1.2l0,0
					c10.3-11.5,23-26.5,30.7-36.3l-22.5-43.1l-26.5-50.8l45.4-20.7l20.3,55.1l1.6,4.4l14.2,38.5l0.6,1.7c2.5,2.4,6.8,6.2,9.9,9.1
					c1.1,1,2,1.9,2.6,2.5c0.4,0.3,0.7,0.7,1,1C458.3,1093.7,462.5,1098.1,465.5,1101.6z"/>
				<path class="st3" d="M358.4,997.7l45.4-20.7l20.3,55.1c-12.9,5.8-26,11.4-39.2,16.4L358.4,997.7z"/>
				<path class="st4" d="M469.8,1107.2c0,0.4,0,0.8,0,1.2c-0.5,5.2-5.5,8.7-9.4,11c-0.1,0-0.1,0.1-0.2,0.1l-89.4,46.2
					c-1.3,0.4-2.6,0.6-4,0.7c-4.9,0.2-10.7-2.9-11.3-8.3c-0.1-1.3,0-2.5,0.3-3.6c0,0,0,0,0,0c0.9-2.9,3-5.4,4.6-7.3
					c2.3-2.6,4.3-5,6.1-7.1c1.7-2,3.6-4.4,5.8-7c0.6-0.8,1.3-1.6,1.9-2.4l1.3-1.7l0.2,0.3l0.9,1.6c0.5,0.8,1,1.7,1.7,2.6
					c0.4,0.5,0.8,1,1.2,1.2c0.6,0.3,1.6,0.1,2.6-0.1c5.3-1.2,10.8-3.4,16.7-6.5c6.6-3.5,13-7.8,18.7-11.7c7.8-5.3,16-10.8,22.7-17.8
					c3.8-4,7.1-8.4,9.9-12.2l0.4-0.6l0.6-0.8l1.2,1.1c4.4,4.1,9,8.3,12.3,11.6C467.1,1100.4,469.7,1103.4,469.8,1107.2z"/>
				<path class="st2" d="M339.6,359.5c0,0.8,0,1.6-0.1,2.3c-0.2,6.6-0.5,13.3-1,20c-1.1,14.2-2.9,28.5-5.3,42.9
					c-5.1,31.5-12.7,63.1-19.9,93.1c-4.3,2.9-11.5,7.5-16.5,9.2c-42.8,14.4-70.9,11.6-115.4,3.7c-6.4-25.8-9.8-52.3-11.5-78.8
					c-1.9-28.9-3.7-57.8-3.5-86.7c0.9-2.9,1.8-5.7,2.8-8.6c0.2-0.5,0.4-1,0.6-1.6c0.4-1,0.8-2,1.2-3c1.1-2.7,2.2-5.4,3.3-8
					c1.6-3.6,3.2-7,5-10.5c6.8-7.9,14.1-15.2,21.9-22.1c8.4-7.4,17.6-14.4,28.3-17.7c7.4-2.3,15.2-2.7,22.9-2.4
					c4.8,0.2,9.6,0.8,14.3,1.7c17.6,3.4,34.3,11.2,48.3,22.4c4.4,3.5,8.5,7.4,12.2,11.6c0.7,0.7,1.3,1.5,2,2.3
					c3.9,4.6,7.5,9.6,9.1,15.4C339.7,349.6,339.7,354.6,339.6,359.5z"/>
				<path class="st5" d="M314.9,134.4c-2.3-3.2-4.7-6.4-7.3-9.4c-5.3-6.2-11.7-11.7-18.7-16.1c-26.1-16.6-61.4-13.9-83.8,7.8
					c-10.4,10.1-17.2,23.4-21.5,37.2c-7.9,24.9-9.9,51.3-10.5,77.2c-0.1,6.5-0.2,13-0.3,19.5c0,1.9-1,17.5,0.3,18
					c4.5,1.8,9.1,3.3,13.7,4.8c24.9,7.9,50.9,13.1,77,12c26-1,52.1-8.5,73.2-24c0.9-7.2,1.3-14.1,1.3-21.1
					c0.1-21.1,0.9-42.6-4.1-63.2C330.6,161.9,324,147.3,314.9,134.4z"/>
				<polygon class="st2" points="282.6,222.5 282.9,246.1 283.6,299.5 222.3,303.3 223.9,272.1 225.2,244.5 				"/>
				<path class="st3" d="M282.6,222.5l0.3,23.6c-6.5,6.4-13.5,12.2-21.3,16.9c-11.3,6.7-24.7,10.7-37.7,9.2l1.4-27.6L282.6,222.5z"
					/>
				<path class="st2" d="M307.4,185.9L307.4,185.9c-2.8,13.6-8.2,26.7-15.5,37.8c-11.8,17.9-31.4,34-53.5,35.8
					c-11.3,0.9-22.7-2.8-30.9-10.7c-2-1.9-3.8-4.1-5.4-6.4c-14.7-21.3-16.9-49.6-10.3-75.1c2.8-11,7.3-21.5,13.1-30.6
					c6.3-10,15.5-18.6,26-24.5c17.4-9.7,38.5-11.7,56,1.2c7.9,5.8,13.7,14.2,17.3,23.4c0.1,0.3,0.3,0.7,0.4,1
					C310.2,152.7,310.7,169.6,307.4,185.9z"/>
				<path class="st3" d="M236.2,122c-0.5,5.5-3.2,10.5-6.3,15c-0.7,1-1.4,2-2.1,2.9c-9.1,11.9-21.4,21.3-35.3,26.9
					c-0.2,0.1-0.4,0.2-0.7,0.3c2.8-11,7.3-21.5,13.1-30.7c6.3-10,15.5-18.7,26.1-24.6c1.2,0.5,2.3,1.1,3.1,2.1
					c1.1,1.2,1.7,2.7,2,4.3C236.3,119.5,236.3,120.8,236.2,122z"/>
				<path class="st3" d="M307.4,185.9L307.4,185.9c-4.7,3.5-9.3,7.1-14.9,8.7c-2.8,0.8-5.7,1.1-8.6,1.1c-8.8,0-17.6-2.4-25.2-7
					c-10.7-6.4-18.7-16.9-24-28.2c-3-6.5-5.3-13.4-7.1-20.3c-1.4-5.2-2.5-10.4-3.5-15.7c2.8-4,7.1-5.2,11.8-6
					c0.3-0.1,0.6-0.1,0.9-0.2c17.6-2.9,35.9,0.8,51.8,8.8c5.4,2.7,10.6,6,15.5,9.6c0.1,0.3,0.3,0.7,0.4,1
					C310.2,152.7,310.7,169.6,307.4,185.9z"/>
				<path class="st2" d="M490.3,453.1c-25,0.6-82.5-33.3-106.3-45.5c-4.5-2.3-12.9-7-22.7-12.5c-7.2-4.1-15.2-8.7-22.8-13.2
					c-13.2-7.7-25.3-15.1-30.6-18.8c-4.2-2.9-8.5-6.3-12.6-9.9c-14.4-12.8-27.1-29.6-29.1-48.3c-0.1-1-0.1-8,0.6-11.7
					c0.3-1.4,0.7-2.4,1.2-2.3c42.6,3.2,82.6,21.8,119.9,42.6c12,6.7,18.5,11.4,28.3,17.8c2.1,1.4,4.3,2.8,6.8,4.4
					c0,0,0.1,0.1,0.1,0.1c-0.1-0.3-0.2-0.5-0.3-0.8c-1.5-3.7-2.9-7.6-4.1-11.2c-1.3-3.7-2.4-7.1-3.3-10c-2.4-7.1-5.2-16.8-5.2-16.8
					s-8.9-23.8-10.1-24.3c-3-1.2-5.8-2.7-8.5-4.5c-3.3-2.2-5.6-5.1-8.7-7.6c-5.2-4.3-11.4-7.6-16.9-11.5c-1.7-1.2-3.5-2.5-4.5-4.4
					c0-0.1-0.1-0.1-0.1-0.2c-0.9-1.8-0.9-4.3,0.7-5.7c1.2-1.1,2.9-1.3,4.5-1c2.7,0.5,5.4,2,7.8,3.4c1.5,0.9,3.1,2,4.8,2.5
					c2.6,0.8,1.5-1.3,0.6-2.9c-0.9-1.7-2-3.4-3.2-5c-2.4-3.1-5.1-5.9-7.6-9c0,0-16.9-20.4-16.9-20.4c-1.7-2-0.5-5.5,2-6.3
					c3.4-1,5.8,3.2,7.7,5.2c3.3,3.4,6.6,6.7,9.9,10c2.4,2.4,4.7,4.8,7.1,7.1c1.4,1.4,2.3,3.3,3.7,4.8c0.5,0.5,1.9,2.1,2.8,1.6
					c1-0.5-0.1-2.1-0.4-2.8c-0.7-1.7-1.4-3.3-2.2-5c-1.5-3.2-3.1-6.3-4.7-9.4c-3.3-6.3-6.7-12.6-9.3-19.3c-0.1-0.3-0.2-0.6-0.2-0.8
					c-0.9-2,0.2-4.7,2.3-5.4c4-1.3,6.1,4.3,7.7,6.9c2.5,4.2,4.9,8.5,7.5,12.7c1.9,3.1,3.8,6.3,5.7,9.4c0.7,1.1,2.6,6.9,4.5,6.2
					c1.7-0.5-0.5-4.9-0.7-6c-0.5-2.5-1.1-4.9-1.6-7.4c-1.1-4.9-2.4-9.8-3.7-14.6c-0.1-0.5-0.2-0.9-0.2-1.3c-0.4-1.4-0.9-2.7-1.3-4.1
					c-0.8-2.4,1.2-5,3.8-4.9c3.7,0.1,4.2,4.8,5.1,7.5c1.4,4.3,2.7,8.6,4,12.9c0.9,3,1.8,6.1,2.7,9.2c0.5,1.6,1.9,8.9,4.9,6.8
					c0.6-0.4,0.5-1.9,0.6-2.5c0.1-1.9-0.2-3.8-0.3-5.8c-0.3-5.1-0.5-10.3-0.7-15.5c-0.1-2.8,3.1-4.8,5.6-3.6
					c3.7,1.9,2.4,9.1,2.5,12.4c0.1,5.3,0.4,10.6,0.9,15.8c0.1,0.9,0.2,1.8,0.5,2.7c0.4,1.1,1.1,2.1,1.7,3c0,0,0,0,0,0
					c3.6,5.6,5.7,12.1,6.6,18.6c0.4,3.3,0.5,6.6,0.3,10c-0.2,3.4-1.6,9.7-1.6,9.7s2.5,3.9,3.6,5.4c1.3,1.7,2.5,3.5,3.7,5.3
					c2.6,3.6,5.1,7.3,7.7,10.9c8.9,12.6,18,25,26.5,38c21.8,33.5,30.7,50.6,40.3,73.6C512.2,430.5,508.3,452.6,490.3,453.1z"/>
				<path class="st3" d="M361.3,395.1c-7.2-4.1-15.2-8.7-22.8-13.2c-1.1,14.2-2.9,28.5-5.3,42.9c-10.2-0.3-20.5-0.8-30.7-1.9
					c-6.5-0.7-13.5-1.9-17.8-6.8c-3.1-3.5-4.1-8.3-4.5-13c-1-14.5,4.1-28.8,10.7-41.7c1.4-2.8,2.9-5.5,4.4-8.2
					c5.6-10,11.6-19.8,16.2-30.2c1.1-2.5,2.2-5.1,3.6-7.4c1.6-2.6,3.5-4.9,6.2-6.2l2,0.6c1.2,5.7,2.6,11.5,4.1,17.2
					c3,11.6,6.8,23,11.7,33.8c0.1,0.3,0.3,0.6,0.4,0.9C345.1,373.9,352.3,385.3,361.3,395.1z"/>
				<path class="st6" d="M419.9,267c-0.6-3.8-1.5-7.7-3.9-10.8c-2.4-3-6.5-5-10.2-4c-1.9,0.5-3.4,1.7-5.2,2.6
					c-4.4,2-9.9,1.5-13.6,4.7c-0.5,0.4-0.9,1-1.1,1.6c-0.3,1.2,0.6,2.4,1.5,3.3c1.2,1.3,2.5,2.7,4.3,3.1c1.4,0.3,2.9-0.2,4.3-0.3
					c3.6-0.4,7.1,0.9,10.3,2.4c1.7,0.8,3.4,1.7,4.9,2.9c3.1,2.2,5.6,5.2,8.1,8.2c0.3,0.4,0.5,0.8,0.6,1.3
					C420.7,277,420.7,272,419.9,267z"/>
				<path class="st5" d="M293.9,117c-7.8-6.1-16.7-10.5-26.5-12.8c-5.3-1.3-10.7-2-16.1-2.2c-6.9-0.2-10.8,2.3-14.1,8.3
					c-2.6,4.6-3.8,9.9-4.1,15.2c-0.1,1.6-0.1,3.3,0,5c1,16.3,9.9,33.9,19.7,43.1c8,7.4,18.2,12.6,28.7,15.1
					c10.6,2.5,23.7,3,33.5-2.4c9.3-5.1,10.5-15.7,7.9-25.1c-3.2-11.7-10.2-23.6-17.8-32.9C301.9,124,298,120.2,293.9,117z"/>
				<path class="st5" d="M252.7,109.8c-0.3-1.2-0.6-2.3-1.3-3.3c-1.5-2.3-4.4-3.2-7.2-3.5c-9.6-0.9-18.6,4.8-26.3,10.6
					c-4.8,3.6-9.5,7.4-13.2,12.2c-2.5,3.2-4.6,6.8-6.4,10.5c-5.6,11.2-9.6,23.3-11.7,35.7l1.2,7.1c1.1-12.9,5.6-26,15.1-34.6
					c12.3-11.1,30.1-12.8,46.2-16.6c1.1-0.3,2.2-0.6,2.9-1.4c0.6-0.6,0.8-1.5,0.9-2.3C253.8,119.4,253.8,114.5,252.7,109.8z"/>
				<path class="st2" d="M316,197.3c-2-4.8-6.9-8.2-13.1-8.3c-7.1-0.2-12.6,5.8-17.1,11.2c0,0-8.7,32.9-8.7,32.9
					c-0.2,0.9,8.5,0.6,9.5,0.4c3.5-0.8,7.1-2.6,10.1-4.4c6.4-3.7,11.9-8.9,15.9-15C315.9,209.2,318.4,203,316,197.3z"/>
				<path class="st5" d="M236.9,104.8c0.1,1.4,0.2,2.7,0.1,4.1c0,0.5,0,0.9-0.1,1.4c-0.3,5.2-1.7,10.4-3.9,15.1
					c-0.7,1.5-1.5,3-2.4,4.5c-0.2,0.3-0.4,0.7-0.7,1c-4.8,7.4-11.7,13.4-19.1,18c-3.9,2.4-8,4.5-12.4,5.5c-0.9,0.2-1.9,0.3-2.8,0.4
					c-0.1,0-0.2,0-0.3,0c-1,0.1-2,0.1-3,0c-2.3-0.1-4.6-0.7-6.8-1.7c1.4-4.3,2.9-8.5,4.8-12.5c8.7-19.3,23.1-32.8,40.7-39.1
					c1.9,0.3,3.8,0.7,5.6,1.3C236.7,103.5,236.8,104.1,236.9,104.8z"/>
				<g>
					<g>
						<g>
							<path class="st7" d="M242.8,217.8c0.3,3.5-0.2,6.8-1.3,9.8c-0.2,0.6-0.5,1.3-0.8,1.8c-2.5,5.2-7,8.9-12.5,9.4
								c-4.3,0.4-8.4-1.3-11.6-4.4c-0.2-0.2-0.5-0.5-0.7-0.8c-3-3.3-5.1-7.8-5.5-13c-0.1-0.6-0.1-1.2-0.1-1.8l32.3-2.8
								C242.7,216.6,242.8,217.2,242.8,217.8z"/>
						</g>
					</g>
					<g>
						<g>
							<path class="st8" d="M240.8,229.4c-2.5,5.2-7,8.9-12.5,9.4c-4.3,0.4-8.4-1.3-11.6-4.4c0.6-1,1.2-1.8,2-2.7
								c2.6-2.8,6.5-4.6,10.9-5c3.3-0.3,6.5,0.3,9.1,1.6C239.5,228.6,240.1,229,240.8,229.4z"/>
						</g>
					</g>
					<g>
						<g>
							<path class="st9" d="M238.4,216.3c-0.6,0.8-1.3,1.6-2.1,2.3c-2.6,2.2-6.2,3.8-10.2,4.1c-4.3,0.4-8.3-0.7-11.3-2.7
								c-0.7-0.5-1.3-1-1.9-1.5L238.4,216.3z"/>
						</g>
					</g>
				</g>
				<g>
					<g>
						<path class="st10" d="M169.8,196.3c3.6,13.6,17.5,21.8,31.1,18.2c12.7-3.3,20.6-15.7,18.8-28.3l7.1-0.7
							c-0.2,2.8,0.1,5.6,0.8,8.5c3.8,14.3,18.5,23,32.8,19.2c14.3-3.8,23-18.5,19.2-32.8s-18.5-23-32.8-19.2
							c-3.2,0.8-6.1,2.3-8.7,4.1l-30.8,2.6c-5.6-3.3-12.5-4.4-19.3-2.7C174.4,168.7,166.2,182.7,169.8,196.3z M229,193.6
							c-3.6-13.6,4.6-27.6,18.2-31.1c13.6-3.6,27.6,4.6,31.1,18.2c3.6,13.6-4.6,27.6-18.2,31.1C246.5,215.4,232.5,207.2,229,193.6z
							 M219.5,184.8c-0.1-0.5-0.2-1-0.3-1.4c-0.1-0.3-0.2-0.6-0.3-0.9l8.5-0.7c-0.2,0.8-0.3,1.5-0.4,2.3L219.5,184.8z M209.2,169
							l26.9-2.3c-4.2,3.6-7.1,8.3-8.5,13.6l-9.2,0.8C216.6,176.1,213.3,172,209.2,169z M171.1,195.9c-3.4-12.9,4.4-26.1,17.2-29.4
							c12.9-3.4,26.1,4.4,29.4,17.2c3.4,12.9-4.4,26.1-17.2,29.4C187.7,216.5,174.5,208.8,171.1,195.9z"/>
					</g>
				</g>
				<g>
					<g>
						<path class="st11" d="M227.2,206.9c-0.8-1-2.1-1.6-3.5-1.6c-1.4-0.1-2.8,0.6-3.7,1.7c-0.9,1.1-1.3,2.7-0.7,4
							c0.5,1.3,1.7,2.3,3,2.3c-1.1-0.6-1.8-1.6-2-2.6c-0.2-1,0.1-2.1,0.8-2.8c0.6-0.8,1.6-1.4,2.7-1.5
							C224.9,206.2,226,206.4,227.2,206.9z"/>
					</g>
				</g>
				<g>
					<g>
						<path class="st12" d="M247.9,173.8c0.3-0.1,0.5-0.4,0.5-0.7c0-0.4-0.3-0.7-0.7-0.7l-10.2,0.5c-0.4,0-0.7,0.3-0.7,0.7
							c0,0.4,0.3,0.7,0.7,0.7l10.2-0.5C247.8,173.9,247.9,173.9,247.9,173.8z"/>
					</g>
				</g>
				<g>
					<g>
						<path class="st12" d="M210.8,177.3c0.3-0.1,0.5-0.4,0.5-0.7c0-0.4-0.4-0.7-0.7-0.6l-9.6,0.7c-0.4,0-0.7,0.4-0.6,0.7
							c0,0.4,0.4,0.7,0.7,0.6l9.6-0.7C210.7,177.3,210.7,177.3,210.8,177.3z"/>
					</g>
				</g>
				<g>
					<g>
						<path class="st3" d="M237,192c-0.1,0-0.3,0-0.4-0.1c-0.5-0.2-0.7-0.8-0.5-1.3c1.2-2.6,3.6-4.4,6.5-4.8
							c2.3-0.3,5.4,0.9,7.4,2.9c0.4,0.4,0.4,1,0,1.4c-0.4,0.4-1,0.4-1.4,0c-1.6-1.6-4-2.6-5.7-2.4c-2.2,0.3-4.1,1.7-5,3.7
							C237.7,191.8,237.4,192,237,192z"/>
					</g>
					<g>
						<path class="st3" d="M201.6,193.2c-0.2,0-0.4-0.1-0.6-0.2c-0.4-0.3-0.5-0.9-0.2-1.4c1.7-2.3,4.5-3.9,6.9-3.9c0,0,0,0,0,0
							c2.9,0,5.6,1.5,7.1,3.8c0.3,0.5,0.2,1.1-0.3,1.3c-0.5,0.3-1.1,0.2-1.3-0.3c-1.2-1.8-3.2-2.9-5.5-3c-1.7,0-4,1.3-5.3,3.2
							C202.2,193.1,201.9,193.2,201.6,193.2z"/>
					</g>
				</g>
				<g>
					<g>
						<path class="st12" d="M236.4,190.7c-0.1,0-0.3,0-0.4-0.1c-0.5-0.2-0.7-0.8-0.5-1.3c1.2-2.6,3.6-4.4,6.5-4.8
							c2.3-0.3,5.4,0.9,7.4,2.9c0.4,0.4,0.4,1,0,1.4c-0.4,0.4-1,0.4-1.4,0c-1.6-1.6-4-2.6-5.7-2.4c-2.2,0.3-4.1,1.7-5,3.7
							C237.1,190.5,236.7,190.7,236.4,190.7z"/>
					</g>
					<g>
						<path class="st12" d="M201,191.9c-0.2,0-0.4-0.1-0.6-0.2c-0.4-0.3-0.5-0.9-0.2-1.4c1.7-2.3,4.5-3.9,6.9-3.9c0,0,0,0,0,0
							c2.9,0,5.6,1.5,7.1,3.8c0.3,0.5,0.2,1.1-0.3,1.3c-0.5,0.3-1.1,0.2-1.3-0.3c-1.2-1.8-3.2-2.9-5.5-3c-1.7,0-4,1.3-5.3,3.2
							C201.6,191.8,201.3,191.9,201,191.9z"/>
					</g>
				</g>
				<g>
					<path class="st13" d="M17.9,681.4c-0.2,1.8-0.1,3.6-0.1,5.5c0.1,4.9,0.4,9.7,0.5,14.6c0,2.1,0,4.2-0.6,6.3
						c-0.6,2-1.9,3.9-3.8,4.9c-1.9,0.9-4.5,0.6-5.9-1c-1.2-1.4-1.2-3.5-1.1-5.3c0.1-2.4,0.1-4.9,0.2-7.3c0.1-3.3,0.2-6.6,0.5-9.9
						c0.5-6.7,1.8-13.6,6-18.8c1.3-1.7,7.7-5.9,7.7-1.1c0,1.9-1.5,3.9-2.1,5.7C18.5,677,18,679.2,17.9,681.4z"/>
				</g>
				<g>
					<path class="st6" d="M14,684.5c-0.2,1.8-0.1,3.6-0.1,5.5c0.1,4.9,0.4,9.7,0.5,14.6c0,2.1,0,4.2-0.6,6.3c-0.6,2-1.9,3.9-3.8,4.9
						c-1.9,0.9-4.5,0.6-5.9-1c-1.2-1.4-1.2-3.5-1.1-5.3c0.1-2.4,0.1-4.9,0.2-7.3c0.1-3.3,0.2-6.6,0.5-9.9c0.5-6.7,1.8-13.6,6-18.8
						c1.3-1.7,7.7-5.9,7.7-1.1c0,1.9-1.5,3.9-2.1,5.7C14.6,680.1,14.2,682.3,14,684.5z"/>
				</g>
				<path class="st2" d="M243.8,324.6c-0.4,0.5-0.9,1-1.4,1.5c-8.2,8.6-20.5,15.2-29.2,21.3c-11.2,7.8-18.2,15.7-24.5,27.6
					c-1.3,2.4-2.5,4.8-3.6,7.2c-0.8,1.7-1.6,3.5-2.4,5.2c-4.2,9.3-7.8,19.1-11.2,29c-6.2,18.1-11.6,36.7-18.2,53.6
					c-7.9,20.5-16.9,40.2-27.9,59.3c-10.7,18.8-22.1,37.1-34.1,55.1c-6,9-12.2,17.9-18.5,26.6c-2.2,3-8.3,11.9-12.1,17.1
					c-0.8,1.1-1.5,2.1-2.1,2.7l-0.1,0.2v0c0.3,4,0,9.1-1.3,17.8c-0.7,4.7-1.4,9.3-2.6,13.9c-1.9,7.2-6.5,13.2-9.6,19.9
					c-0.7,1.4-1.3,2.8-2.3,4.1c-4.5,5.7-9.8-0.6-9.6-5.8c0-0.5,0.1-1,0.2-1.4c0.5-2.8,2-5.4,3.3-7.9c0.7-1.5,1.4-3,1.8-4.6
					c0.3-1.4,0.9-3.2-0.3-4.3c-1.1-1-3.3-1.3-4.7-1.1c-1.7,0.2-3.2,1.1-4.5,2.2c-1,0.8-1.9,1.7-2.7,2.7c-2.2,2.4-4.2,5-6.3,7.4
					c-3,3.4-5.3,7-6.4,11.4c-1.1,4.5-1.2,9.1-1.6,13.7c-0.4,4.9-0.6,11.6-5,14.8c-2,1.5-4.9,0.1-5.6-2c-0.4-1.2-0.4-2.5-0.3-3.8
					c0.4-8.1,0.6-16.2,2.1-24.2c1.5-7.5,5-14.6,8.4-21.5c5-10.1,27.3-44.7,27.3-44.7c0.2-0.3,9.6-22.1,15.9-35.8
					c4.8-10.3,8.8-18.2,13.3-28.6c8.8-20.4,20.3-46.2,27.8-67.1c0.6-1.7,1.2-3.4,1.7-5.1c0.6-1.9,1.2-3.9,1.8-5.8
					c4.7-16,6.8-30.6,10.7-48.1c4.1-18.5,8.5-36.9,12.7-55.3c6.6-29.4,18.6-46.8,28.8-53c14-8.6,28.1-15.5,42.9-20.7
					c1.2-0.4,2.5-0.9,3.7-1.3c5.6-1.8,11.3-3.5,17.1-4.8c1-0.2,2.1-0.5,3.1-0.7c6.7-1.4,13.5-2.6,20.5-3.4c2.6-0.3,5,1.1,7.1,3.2
					c2.4,2.5,4.2,6,4.9,9C253,310.1,249.7,318,243.8,324.6z"/>
				<path class="st3" d="M283,393.5c-13.8,13.4-32.4,21.2-51.5,23.4c-5.6,0.6-11.4,0.8-16.9-0.3c-14.3-2.9-25.8-14.4-31.3-27.9
					c-0.2-0.4-0.4-0.9-0.5-1.3c-0.4-1-0.7-2-1-3c-3.9-12.4-3.7-25.9-1.4-38.7c1.1-6.1,2.6-12,4.4-17.9c2.4-8.1,5.2-16,7.8-24
					c0.6-1.8,1.2-3.7,1.9-5.5c1.2-0.4,2.5-0.9,3.7-1.3c5.6-1.8,11.3-3.5,17.1-4.8c0.3,2.5,0.8,5,1.6,7.4c0.8,2.6,1.9,5,3.2,7.4
					c4.6,8.3,12,15,20.8,18.4c0.5,0.2,1.1,0.4,1.6,0.6c0.7,0.2,1.5,0.5,2.2,0.7c6.9,1.8,14.1,1.7,21.2,1.3
					c13.4-0.8,27.4-3.2,37.7-11.7c-1.5,8.4,0.6,17.1,0.9,25.7C305.3,361.1,296.8,380.2,283,393.5z"/>
				<g>
					<path class="st14" d="M326.7,301.5c1.5,15.4,1.5,31.1,3.2,46.4c2.4,22.7,7.4,45,10.8,67.6c1.9,12.8,3,26,2.8,39.1
						c-0.1,10.1-0.9,20.1-2.5,29.9c-45,22-97.5,28.2-146.5,17.4c-5-1.1-10-2.4-14.9-4.2c-7.4-2.7-13.9-6.6-21.5-9
						c-0.3-21.6-0.6-43.3,0.7-64.8c0.7-12.7,2-25.3,4-37.8c5.4-32.7,15.8-56.6,20.5-89.4c3-0.6,7.8-2.9,10.9-3.5
						c5.7-1.1,11.5-2.8,17.6-3.3c-0.2,8.9,1.3,17.9,5.6,25.7c4.8,8.7,13.2,15.6,23.1,17c4.6,0.7,9.3,0.1,13.8-0.7
						c8.4-1.6,16.8-4.5,23.2-10.2c5.9-5.3,9.6-12.5,12.5-19.9c1.9-4.9,2.8-7.4,4.1-12.5c3.3,0.9,14.5,4.7,16.3,5.7
						C311.6,295.7,325.5,300.8,326.7,301.5z"/>
					<path class="st15" d="M343.5,454.6c-0.1,10.1-0.9,20.1-2.5,29.9c-45,22-97.5,28.2-146.5,17.4c-5-1.1-10-2.4-14.9-4.2
						c-7.4-2.7-13.9-6.6-21.5-9c-0.3-21.6-0.6-43.3,0.7-64.8c3.9,5.5,8.5,10.3,14.4,13.5c9,5,19.8,5.5,30.1,4.8
						c10.3-0.7,20.5-2.6,30.8-2c18.7,1.1,35.8,10.2,54.1,14.4c8.2,1.9,16.6,2.8,24.9,2.9C323.3,457.8,333.5,456.8,343.5,454.6z"/>
				</g>
				<path class="st16" d="M277.8,702.9c-1,14.5-1.8,29.1-2.2,43.6c-1.8,54-0.5,108.2-0.8,162.3c-0.3,45.2-1.8,90.3-7.4,135.2
					c-1.4,11.1-81.2,10.3-83,1.2c-17.9-95-31.5-190.8-38.9-287.5c-2.7-34.8-7.5-69.2-7.3-104.1c0.2-51.8,19.1-105.7,37.5-152.5
					c17.4,6,37.7,12.9,54.8,14.7c14.4,1.5,32.5,1.5,50.9-2.6C287.8,576.7,282.4,639.3,277.8,702.9z"/>
				<path class="st17" d="M274.8,910.7c-36.2-61.1-55.3-135.2-54.1-208.6c0.7-42.5,9.7-82.1,20.5-122c1.4,56,12.7,110.6,31.5,162.7
					c0.9,2.6,1.9,5.2,2.9,7.8C273.8,803.9,275.1,857.4,274.8,910.7z"/>
				<path class="st16" d="M434.1,1015c-16.6-49-33.2-98-49.8-146.9c-2.2-6.6-5.8-12.9-10.1-19.3c4.2-49.2,9.2-90.9,10.2-140.3
					c1-50.1,2.6-75.6-16.8-128.6c-7.9-21.5-33.6-62.7-49.1-83.4c-21.5,8.9-51,18.7-75.6,21.3c-9.8,73.3-4.6,147.4,0.5,221.2
					c1.2,17.6,2.9,35.3,6.2,52.7c3.2,16.5,7.9,32.8,13.2,48.7c23.8,72,57.8,141.1,103.4,201.3c12.4-0.3,25.9-2.6,37.5-7.2
					C415.4,1030,425.1,1024.7,434.1,1015z"/>
				<g>
					<path class="st6" d="M28.9,663.9c0.6-0.9,1.3-1.8,2-2.6c1.3-1.5,2.8-2.9,4.7-3.6c1.9-0.6,4.2-0.4,5.5,1.1
						c1.1,1.2,1.3,3.1,1.1,4.7c-0.6,4-3.3,7.4-5.7,10.7c-1.2,1.7-2.4,3.5-3.2,5.4c0.5-2.8,2-5.4,3.3-7.9c0.7-1.5,1.4-3,1.8-4.6
						c0.3-1.4,0.9-3.2-0.3-4.3c-1.1-1-3.3-1.3-4.7-1.1C31.7,661.9,30.3,662.8,28.9,663.9z"/>
				</g>
				<path class="st3" d="M111.2,486.9c-3.8-3.2-8.6-5.2-13.6-5.8c0.6-1.9,1.2-3.9,1.8-5.8c1.8,0.7,3.4,1.7,5.2,2.9
					C107.8,480.5,109.9,483.3,111.2,486.9z"/>
				<path class="st6" d="M60.8,628.1c-0.8,1.1-1.5,2.1-2.1,2.7l-0.1,0.2v0c-1.8-2-4.3-3.4-7-3.7C54.6,626.8,57.9,627.1,60.8,628.1z"
					/>
				<path class="st3" d="M435.5,382.8c-3.7-3.8-7.9-9.3-10.5-14c-3.2-5.7-6.1-11.6-8.9-17.6c2.1,1.4,4.3,2.8,6.8,4.4
					C425.6,365.4,429.3,374.9,435.5,382.8z"/>
			</g>
		</g>
	</g>
	<g>
		<path class="st14" d="M250.1,493c-0.7,0-1.3-0.6-1.3-1.3s0.6-1.3,1.3-1.3c2.3,0,4.6,0,6.9-0.1c0.7-0.1,1.3,0.5,1.3,1.3
			c0,0.7-0.5,1.3-1.3,1.3C254.7,492.9,252.4,493,250.1,493z M243.2,492.9C243.2,492.9,243.2,492.9,243.2,492.9
			c-2.3-0.1-4.7-0.2-7-0.3c-0.7,0-1.3-0.6-1.2-1.4c0-0.7,0.6-1.3,1.4-1.2c2.3,0.1,4.6,0.2,6.9,0.3c0.7,0,1.3,0.6,1.3,1.3
			C244.5,492.3,243.9,492.9,243.2,492.9z M263.9,492.6c-0.7,0-1.2-0.5-1.3-1.2c0-0.7,0.5-1.3,1.2-1.4c2.3-0.1,4.6-0.3,6.8-0.5
			c0.7-0.1,1.3,0.5,1.4,1.2c0.1,0.7-0.5,1.3-1.2,1.4C268.6,492.3,266.3,492.4,263.9,492.6C264,492.6,263.9,492.6,263.9,492.6z
			 M229.4,492.1c0,0-0.1,0-0.1,0c-2.3-0.2-4.6-0.4-6.9-0.7c-0.7-0.1-1.2-0.7-1.1-1.4c0.1-0.7,0.7-1.2,1.4-1.1
			c2.3,0.3,4.6,0.5,6.8,0.7c0.7,0.1,1.2,0.7,1.2,1.4C230.7,491.6,230.1,492.1,229.4,492.1z M277.7,491.4c-0.6,0-1.2-0.5-1.3-1.1
			c-0.1-0.7,0.4-1.3,1.1-1.4c2.3-0.3,4.5-0.6,6.8-0.9c0.7-0.1,1.4,0.4,1.5,1.1c0.1,0.7-0.4,1.4-1.1,1.5c-2.3,0.3-4.6,0.6-6.9,0.9
			C277.8,491.4,277.7,491.4,277.7,491.4z M215.7,490.5c-0.1,0-0.1,0-0.2,0c-2.3-0.3-4.6-0.7-6.9-1.1c-0.7-0.1-1.2-0.8-1.1-1.5
			c0.1-0.7,0.8-1.2,1.5-1.1c2.2,0.4,4.5,0.7,6.8,1.1c0.7,0.1,1.2,0.8,1.1,1.5C216.9,490.1,216.4,490.5,215.7,490.5z M291.3,489.4
			c-0.6,0-1.2-0.4-1.3-1.1c-0.1-0.7,0.4-1.4,1.1-1.5c2.2-0.4,4.5-0.8,6.7-1.3c0.7-0.1,1.4,0.3,1.5,1c0.1,0.7-0.3,1.4-1,1.5
			c-2.3,0.5-4.6,0.9-6.8,1.3C291.5,489.4,291.4,489.4,291.3,489.4z M202.1,488.2c-0.1,0-0.2,0-0.3,0c-2.3-0.5-4.5-0.9-6.8-1.5
			c-0.7-0.2-1.1-0.9-1-1.5c0.2-0.7,0.8-1.1,1.5-1c2.2,0.5,4.5,1,6.7,1.4c0.7,0.1,1.2,0.8,1,1.5C203.3,487.8,202.7,488.2,202.1,488.2
			z M304.8,486.7c-0.6,0-1.1-0.4-1.3-1c-0.2-0.7,0.3-1.4,1-1.5c2.2-0.5,4.4-1.1,6.7-1.6c0.7-0.2,1.4,0.2,1.6,0.9
			c0.2,0.7-0.2,1.4-0.9,1.6c-2.2,0.6-4.5,1.1-6.7,1.7C305,486.7,304.9,486.7,304.8,486.7z M188.7,485.1c-0.1,0-0.2,0-0.3,0
			c-2.2-0.6-4.5-1.2-6.7-1.9c-0.7-0.2-1.1-0.9-0.9-1.6c0.2-0.7,0.9-1.1,1.6-0.9c2.2,0.6,4.4,1.3,6.6,1.8c0.7,0.2,1.1,0.9,0.9,1.6
			C189.8,484.7,189.3,485.1,188.7,485.1z M318.2,483.2c-0.6,0-1.1-0.4-1.2-0.9c-0.2-0.7,0.2-1.4,0.9-1.6c2.2-0.6,4.4-1.3,6.6-2
			c0.7-0.2,1.4,0.2,1.6,0.8c0.2,0.7-0.2,1.4-0.8,1.6c-2.2,0.7-4.4,1.4-6.6,2C318.4,483.2,318.3,483.2,318.2,483.2z M175.4,481.2
			c-0.1,0-0.3,0-0.4-0.1c-2.2-0.7-4.4-1.5-6.6-2.2c-0.7-0.2-1-1-0.8-1.6c0.2-0.7,1-1,1.6-0.8c2.2,0.8,4.3,1.5,6.5,2.2
			c0.7,0.2,1,0.9,0.8,1.6C176.5,480.9,176,481.2,175.4,481.2z M331.3,478.9c-0.5,0-1-0.3-1.2-0.9c-0.2-0.7,0.1-1.4,0.8-1.6
			c2.1-0.8,4.3-1.6,6.4-2.4c0.7-0.3,1.4,0.1,1.7,0.7c0.3,0.7-0.1,1.4-0.7,1.7c-2.2,0.8-4.3,1.7-6.5,2.4
			C331.6,478.9,331.5,478.9,331.3,478.9z M162.4,476.6c-0.2,0-0.3,0-0.5-0.1c-2.1-0.8-4.3-1.7-6.4-2.6c-0.7-0.3-1-1-0.7-1.7
			c0.3-0.7,1-1,1.7-0.7c2.1,0.9,4.3,1.8,6.4,2.6c0.7,0.3,1,1,0.7,1.7C163.4,476.3,162.9,476.6,162.4,476.6z M344.2,473.9
			c-0.5,0-1-0.3-1.2-0.8c-0.3-0.7,0-1.4,0.7-1.7c2.1-0.9,4.2-1.8,6.3-2.8c0.6-0.3,1.4,0,1.7,0.6c0.3,0.6,0,1.4-0.6,1.7
			c-2.1,1-4.2,1.9-6.3,2.8C344.5,473.9,344.3,473.9,344.2,473.9z M149.6,471.2c-0.2,0-0.4,0-0.5-0.1c-2.1-1-4.2-2-6.3-3
			c-0.6-0.3-0.9-1.1-0.6-1.7c0.3-0.6,1.1-0.9,1.7-0.6c2.1,1,4.1,2,6.2,2.9c0.6,0.3,0.9,1.1,0.6,1.7
			C150.6,470.9,150.1,471.2,149.6,471.2z M356.7,468.2c-0.5,0-0.9-0.3-1.2-0.7c-0.3-0.6-0.1-1.4,0.6-1.7c2-1,4.1-2.1,6.1-3.1
			c0.6-0.3,1.4-0.1,1.7,0.5c0.3,0.6,0.1,1.4-0.5,1.7c-2,1.1-4.1,2.1-6.2,3.1C357,468.2,356.9,468.2,356.7,468.2z M137.2,465.1
			c-0.2,0-0.4,0-0.6-0.1c-2-1.1-4.1-2.2-6.1-3.3c-0.6-0.4-0.8-1.1-0.5-1.8c0.4-0.6,1.1-0.8,1.8-0.5c2,1.1,4,2.2,6,3.3
			c0.6,0.3,0.9,1.1,0.5,1.7C138.2,464.8,137.7,465.1,137.2,465.1z M368.8,461.8c-0.4,0-0.9-0.2-1.1-0.7c-0.4-0.6-0.1-1.4,0.5-1.8
			c2-1.1,4-2.3,5.9-3.5c0.6-0.4,1.4-0.2,1.8,0.4c0.4,0.6,0.2,1.4-0.4,1.8c-2,1.2-4,2.4-6,3.5C369.3,461.7,369,461.8,368.8,461.8z
			 M125.2,458.3c-0.2,0-0.5-0.1-0.7-0.2c-2-1.2-3.9-2.4-5.9-3.7c-0.6-0.4-0.8-1.2-0.4-1.8c0.4-0.6,1.2-0.8,1.8-0.4
			c1.9,1.2,3.9,2.5,5.8,3.6c0.6,0.4,0.8,1.2,0.4,1.8C126.1,458.1,125.6,458.3,125.2,458.3z M380.6,454.6c-0.4,0-0.8-0.2-1.1-0.6
			c-0.4-0.6-0.2-1.4,0.4-1.8c1.9-1.2,3.8-2.5,5.7-3.8c0.6-0.4,1.4-0.3,1.8,0.3c0.4,0.6,0.3,1.4-0.3,1.8c-1.9,1.3-3.9,2.6-5.8,3.8
			C381.1,454.6,380.9,454.6,380.6,454.6z M113.6,450.8c-0.3,0-0.5-0.1-0.7-0.2c-1.9-1.3-3.8-2.6-5.7-4c-0.6-0.4-0.7-1.2-0.3-1.8
			c0.4-0.6,1.2-0.7,1.8-0.3c1.9,1.3,3.7,2.7,5.6,4c0.6,0.4,0.7,1.2,0.3,1.8C114.4,450.6,114,450.8,113.6,450.8z M392,446.9
			c-0.4,0-0.8-0.2-1-0.5c-0.4-0.6-0.3-1.4,0.3-1.8c1.8-1.3,3.7-2.7,5.5-4.1c0.6-0.4,1.4-0.3,1.8,0.2c0.4,0.6,0.3,1.4-0.2,1.8
			c-1.8,1.4-3.7,2.8-5.5,4.2C392.5,446.8,392.3,446.9,392,446.9z M102.4,442.7c-0.3,0-0.6-0.1-0.8-0.3c-1.8-1.4-3.7-2.9-5.4-4.3
			c-0.6-0.5-0.6-1.3-0.2-1.8c0.5-0.6,1.3-0.6,1.8-0.2c1.8,1.4,3.6,2.9,5.4,4.3c0.6,0.4,0.7,1.2,0.2,1.8
			C103.2,442.5,102.8,442.7,102.4,442.7z M402.9,438.4c-0.4,0-0.7-0.2-1-0.5c-0.5-0.6-0.4-1.4,0.2-1.8c1.8-1.4,3.5-2.9,5.2-4.4
			c0.5-0.5,1.4-0.4,1.8,0.1c0.5,0.5,0.4,1.4-0.1,1.8c-1.7,1.5-3.5,3-5.3,4.5C403.5,438.3,403.2,438.4,402.9,438.4z M91.7,433.9
			c-0.3,0-0.6-0.1-0.8-0.3c-1.7-1.5-3.5-3.1-5.2-4.6c-0.5-0.5-0.6-1.3-0.1-1.8c0.5-0.5,1.3-0.6,1.8-0.1c1.7,1.5,3.4,3.1,5.1,4.6
			c0.5,0.5,0.6,1.3,0.1,1.8C92.5,433.8,92.1,433.9,91.7,433.9z M413.3,429.4c-0.3,0-0.7-0.1-1-0.4c-0.5-0.5-0.4-1.3,0.1-1.8
			c1.7-1.5,3.4-3.1,5-4.7c0.5-0.5,1.3-0.5,1.8,0c0.5,0.5,0.5,1.3,0,1.8c-1.7,1.6-3.4,3.2-5,4.8C414,429.3,413.6,429.4,413.3,429.4z
			 M81.6,424.6c-0.3,0-0.6-0.1-0.9-0.4c-1.6-1.6-3.3-3.2-4.9-4.9c-0.5-0.5-0.5-1.3,0-1.8c0.5-0.5,1.3-0.5,1.8,0
			c1.6,1.6,3.2,3.3,4.9,4.9c0.5,0.5,0.5,1.3,0,1.8C82.2,424.5,81.9,424.6,81.6,424.6z M423.2,419.8c-0.3,0-0.6-0.1-0.9-0.4
			c-0.5-0.5-0.5-1.3,0-1.8c1.6-1.6,3.2-3.3,4.7-5c0.5-0.5,1.3-0.6,1.8-0.1c0.5,0.5,0.6,1.3,0.1,1.8c-1.6,1.7-3.2,3.4-4.8,5
			C423.9,419.7,423.6,419.8,423.2,419.8z M72,414.7c-0.3,0-0.7-0.1-0.9-0.4c-1.5-1.7-3.1-3.4-4.6-5.2c-0.5-0.5-0.4-1.4,0.1-1.8
			c0.5-0.5,1.4-0.4,1.8,0.1c1.5,1.7,3,3.5,4.6,5.1c0.5,0.5,0.4,1.3-0.1,1.8C72.6,414.6,72.3,414.7,72,414.7z M432.6,409.6
			c-0.3,0-0.6-0.1-0.8-0.3c-0.5-0.5-0.6-1.3-0.1-1.8c1.5-1.7,3-3.5,4.4-5.2c0.5-0.6,1.3-0.6,1.8-0.2c0.6,0.5,0.6,1.3,0.2,1.8
			c-1.5,1.8-3,3.6-4.5,5.3C433.3,409.5,432.9,409.6,432.6,409.6z M62.9,404.3c-0.4,0-0.7-0.2-1-0.5c-1.5-1.8-2.9-3.6-4.3-5.4
			c-0.4-0.6-0.3-1.4,0.2-1.8c0.6-0.4,1.4-0.3,1.8,0.2c1.4,1.8,2.8,3.6,4.3,5.4c0.5,0.6,0.4,1.4-0.2,1.8
			C63.5,404.2,63.2,404.3,62.9,404.3z M441.3,399c-0.3,0-0.6-0.1-0.8-0.3c-0.6-0.4-0.7-1.2-0.2-1.8c1.4-1.8,2.8-3.6,4.1-5.5
			c0.4-0.6,1.2-0.7,1.8-0.3c0.6,0.4,0.7,1.2,0.3,1.8c-1.4,1.9-2.8,3.7-4.2,5.6C442.1,398.8,441.7,399,441.3,399z M54.5,393.4
			c-0.4,0-0.8-0.2-1-0.5c-1.3-1.8-2.7-3.7-4-5.7c-0.4-0.6-0.3-1.4,0.3-1.8c0.6-0.4,1.4-0.3,1.8,0.3c1.3,1.9,2.6,3.8,4,5.6
			c0.4,0.6,0.3,1.4-0.3,1.8C55,393.3,54.8,393.4,54.5,393.4z M449.5,387.8c-0.3,0-0.5-0.1-0.7-0.2c-0.6-0.4-0.7-1.2-0.3-1.8
			c1.3-1.9,2.6-3.8,3.8-5.7c0.4-0.6,1.2-0.8,1.8-0.4c0.6,0.4,0.8,1.2,0.4,1.8c-1.2,1.9-2.5,3.9-3.8,5.8
			C450.3,387.6,449.9,387.8,449.5,387.8z M46.7,382c-0.4,0-0.8-0.2-1.1-0.6c-1.2-1.9-2.5-3.9-3.7-5.9c-0.4-0.6-0.2-1.4,0.4-1.8
			c0.6-0.4,1.4-0.2,1.8,0.4c1.2,1.9,2.4,3.9,3.6,5.8c0.4,0.6,0.2,1.4-0.4,1.8C47.2,381.9,46.9,382,46.7,382z M456.9,376.2
			c-0.2,0-0.5-0.1-0.7-0.2c-0.6-0.4-0.8-1.2-0.4-1.8c1.2-2,2.3-3.9,3.5-5.9c0.4-0.6,1.1-0.8,1.8-0.5c0.6,0.4,0.8,1.1,0.5,1.8
			c-1.1,2-2.3,4-3.5,6C457.8,376,457.4,376.2,456.9,376.2z M39.6,370.2c-0.4,0-0.9-0.2-1.1-0.7c-1.1-2-2.3-4-3.3-6.1
			c-0.3-0.6-0.1-1.4,0.5-1.7c0.6-0.3,1.4-0.1,1.7,0.5c1.1,2,2.2,4,3.3,6c0.4,0.6,0.1,1.4-0.5,1.8C40,370.2,39.8,370.2,39.6,370.2z
			 M463.7,364.1c-0.2,0-0.4,0-0.6-0.1c-0.6-0.3-0.9-1.1-0.5-1.7c1.1-2,2.1-4.1,3.1-6.1c0.3-0.6,1.1-0.9,1.7-0.6
			c0.6,0.3,0.9,1.1,0.6,1.7c-1,2.1-2.1,4.1-3.2,6.2C464.7,363.9,464.2,364.1,463.7,364.1z M33.1,358.1c-0.5,0-0.9-0.3-1.2-0.7
			c-1-2-2-4.2-3-6.2c-0.3-0.6,0-1.4,0.6-1.7c0.6-0.3,1.4,0,1.7,0.6c1,2.1,1.9,4.2,2.9,6.2c0.3,0.6,0.1,1.4-0.6,1.7
			C33.5,358,33.3,358.1,33.1,358.1z M469.9,351.7c-0.2,0-0.4,0-0.5-0.1c-0.6-0.3-0.9-1.1-0.6-1.7c1-2.1,1.9-4.2,2.8-6.3
			c0.3-0.7,1-1,1.7-0.7c0.7,0.3,1,1,0.7,1.7c-0.9,2.1-1.8,4.3-2.8,6.4C470.8,351.5,470.4,351.7,469.9,351.7z M27.4,345.5
			c-0.5,0-1-0.3-1.2-0.8c-0.9-2.1-1.8-4.3-2.6-6.4c-0.3-0.7,0.1-1.4,0.7-1.7c0.7-0.3,1.4,0.1,1.7,0.7c0.8,2.1,1.7,4.2,2.6,6.3
			c0.3,0.7,0,1.4-0.7,1.7C27.7,345.5,27.6,345.5,27.4,345.5z M475.3,339c-0.2,0-0.3,0-0.5-0.1c-0.7-0.3-1-1-0.7-1.7
			c0.8-2.1,1.6-4.3,2.4-6.5c0.2-0.7,1-1,1.6-0.8c0.7,0.2,1,1,0.8,1.6c-0.8,2.2-1.6,4.4-2.4,6.5C476.3,338.7,475.8,339,475.3,339z
			 M22.4,332.7c-0.5,0-1-0.3-1.2-0.9c-0.8-2.2-1.5-4.4-2.2-6.6c-0.2-0.7,0.2-1.4,0.8-1.6c0.7-0.2,1.4,0.2,1.6,0.8
			c0.7,2.2,1.4,4.3,2.2,6.5c0.2,0.7-0.1,1.4-0.8,1.6C22.7,332.7,22.5,332.7,22.4,332.7z M479.9,326c-0.1,0-0.3,0-0.4-0.1
			c-0.7-0.2-1-0.9-0.8-1.6c0.7-2.2,1.4-4.4,2-6.6c0.2-0.7,0.9-1.1,1.6-0.9c0.7,0.2,1.1,0.9,0.9,1.6c-0.7,2.2-1.3,4.4-2,6.6
			C481,325.6,480.5,326,479.9,326z M18.1,319.6c-0.6,0-1.1-0.4-1.2-0.9c-0.7-2.2-1.3-4.5-1.9-6.7c-0.2-0.7,0.2-1.4,0.9-1.6
			c0.7-0.2,1.4,0.2,1.6,0.9c0.6,2.2,1.2,4.4,1.8,6.6c0.2,0.7-0.2,1.4-0.9,1.6C18.4,319.6,18.2,319.6,18.1,319.6z M483.8,312.7
			c-0.1,0-0.2,0-0.3,0c-0.7-0.2-1.1-0.9-0.9-1.6c0.6-2.2,1.1-4.4,1.6-6.7c0.2-0.7,0.9-1.1,1.5-1c0.7,0.2,1.1,0.9,1,1.5
			c-0.5,2.2-1.1,4.5-1.7,6.7C484.9,312.3,484.4,312.7,483.8,312.7z M14.6,306.2c-0.6,0-1.1-0.4-1.3-1c-0.5-2.2-1-4.5-1.5-6.8
			c-0.1-0.7,0.3-1.4,1-1.5c0.7-0.1,1.4,0.3,1.5,1c0.5,2.2,0.9,4.5,1.5,6.7c0.2,0.7-0.3,1.4-1,1.5C14.8,306.2,14.7,306.2,14.6,306.2z
			 M486.9,299.3c-0.1,0-0.2,0-0.3,0c-0.7-0.1-1.2-0.8-1-1.5c0.4-2.2,0.9-4.5,1.3-6.7c0.1-0.7,0.8-1.2,1.5-1.1
			c0.7,0.1,1.2,0.8,1.1,1.5c-0.4,2.3-0.8,4.6-1.3,6.8C488,298.9,487.5,299.3,486.9,299.3z M11.9,292.7c-0.6,0-1.2-0.4-1.3-1.1
			c-0.4-2.3-0.8-4.6-1.1-6.9c-0.1-0.7,0.4-1.4,1.1-1.5c0.7-0.1,1.4,0.4,1.5,1.1c0.3,2.2,0.7,4.5,1.1,6.8c0.1,0.7-0.4,1.4-1.1,1.5
			C12,292.7,11.9,292.7,11.9,292.7z M489.2,285.7c-0.1,0-0.1,0-0.2,0c-0.7-0.1-1.2-0.8-1.1-1.5c0.3-2.3,0.6-4.6,0.9-6.8
			c0.1-0.7,0.7-1.2,1.4-1.1c0.7,0.1,1.2,0.7,1.1,1.4c-0.3,2.3-0.6,4.6-0.9,6.9C490.4,285.2,489.9,285.7,489.2,285.7z M9.9,279.1
			c-0.6,0-1.2-0.5-1.3-1.1c-0.3-2.3-0.5-4.6-0.7-6.9c-0.1-0.7,0.5-1.3,1.2-1.4c0.7-0.1,1.3,0.5,1.4,1.2c0.2,2.3,0.4,4.6,0.7,6.8
			c0.1,0.7-0.4,1.3-1.1,1.4C10,279.1,10,279.1,9.9,279.1z M490.8,272c0,0-0.1,0-0.1,0c-0.7-0.1-1.2-0.7-1.2-1.4
			c0.2-2.3,0.4-4.6,0.5-6.8c0-0.7,0.7-1.2,1.4-1.2c0.7,0,1.3,0.6,1.2,1.4c-0.1,2.3-0.3,4.6-0.5,6.9C492,271.5,491.5,272,490.8,272z
			 M8.7,265.3c-0.7,0-1.2-0.5-1.3-1.2c-0.1-2.3-0.2-4.6-0.3-6.9c0-0.7,0.5-1.3,1.3-1.3c0,0,0,0,0,0c0.7,0,1.3,0.6,1.3,1.3
			c0.1,2.3,0.2,4.6,0.3,6.9C10.1,264.7,9.5,265.3,8.7,265.3C8.8,265.3,8.8,265.3,8.7,265.3z M491.6,258.2
			C491.6,258.2,491.5,258.2,491.6,258.2c-0.7,0-1.3-0.6-1.3-1.3c0.1-2.3,0.1-4.6,0.1-6.9v-0.5c0-0.7,0.6-1.3,1.3-1.3
			c0.7,0,1.3,0.6,1.3,1.3v0.5c0,2.3,0,4.6-0.1,6.9C492.8,257.6,492.3,258.2,491.6,258.2z M8.3,251.5c-0.7,0-1.3-0.6-1.3-1.3V250
			c0-2.2,0-4.5,0.1-6.7c0-0.7,0.6-1.3,1.3-1.3c0.7,0,1.3,0.6,1.3,1.3c-0.1,2.2-0.1,4.4-0.1,6.6v0.2C9.6,250.9,9,251.5,8.3,251.5z
			 M491.6,243.9c-0.7,0-1.3-0.6-1.3-1.3c-0.1-2.3-0.2-4.6-0.3-6.9c0-0.7,0.5-1.3,1.2-1.4c0.7-0.1,1.3,0.5,1.4,1.2
			c0.1,2.3,0.2,4.6,0.3,6.9C492.9,243.3,492.3,243.9,491.6,243.9C491.6,243.9,491.6,243.9,491.6,243.9z M8.7,237.7
			C8.7,237.7,8.7,237.7,8.7,237.7c-0.8,0-1.3-0.7-1.3-1.4c0.1-2.3,0.3-4.6,0.5-6.9c0.1-0.7,0.7-1.2,1.4-1.2c0.7,0.1,1.2,0.7,1.2,1.4
			c-0.2,2.3-0.3,4.6-0.5,6.8C10,237.2,9.4,237.7,8.7,237.7z M490.8,230.2c-0.7,0-1.2-0.5-1.3-1.2c-0.2-2.3-0.4-4.6-0.7-6.8
			c-0.1-0.7,0.4-1.3,1.1-1.4c0.7-0.1,1.3,0.4,1.4,1.1c0.3,2.3,0.5,4.6,0.7,6.9c0.1,0.7-0.5,1.3-1.2,1.4
			C490.8,230.2,490.8,230.2,490.8,230.2z M9.9,224c0,0-0.1,0-0.1,0c-0.7-0.1-1.2-0.7-1.1-1.4c0.3-2.3,0.6-4.6,0.9-6.9
			c0.1-0.7,0.8-1.2,1.5-1.1c0.7,0.1,1.2,0.8,1.1,1.5c-0.3,2.3-0.6,4.5-0.9,6.8C11.1,223.5,10.5,224,9.9,224z M489.2,216.5
			c-0.6,0-1.2-0.5-1.3-1.1c-0.3-2.3-0.7-4.5-1.1-6.8c-0.1-0.7,0.3-1.4,1-1.5c0.7-0.1,1.4,0.3,1.5,1c0.4,2.3,0.8,4.6,1.1,6.9
			c0.1,0.7-0.4,1.4-1.1,1.5C489.3,216.4,489.2,216.5,489.2,216.5z M11.8,210.3c-0.1,0-0.1,0-0.2,0c-0.7-0.1-1.2-0.8-1.1-1.5
			c0.4-2.3,0.8-4.6,1.3-6.8c0.1-0.7,0.8-1.1,1.5-1c0.7,0.1,1.2,0.8,1,1.5c-0.4,2.2-0.9,4.5-1.3,6.7C13,209.9,12.4,210.3,11.8,210.3z
			 M486.8,202.9c-0.6,0-1.1-0.4-1.3-1c-0.5-2.2-0.9-4.5-1.5-6.7c-0.2-0.7,0.3-1.4,1-1.5c0.7-0.2,1.4,0.3,1.5,1
			c0.5,2.3,1,4.5,1.5,6.8c0.1,0.7-0.3,1.4-1,1.5C487,202.8,486.9,202.9,486.8,202.9z M14.5,196.8c-0.1,0-0.2,0-0.3,0
			c-0.7-0.2-1.1-0.9-1-1.5c0.5-2.2,1.1-4.5,1.7-6.7c0.2-0.7,0.9-1.1,1.6-0.9c0.7,0.2,1.1,0.9,0.9,1.6c-0.6,2.2-1.1,4.5-1.6,6.7
			C15.6,196.4,15.1,196.8,14.5,196.8z M483.7,189.4c-0.6,0-1.1-0.4-1.2-1c-0.6-2.2-1.2-4.4-1.8-6.6c-0.2-0.7,0.2-1.4,0.9-1.6
			c0.7-0.2,1.4,0.2,1.6,0.9c0.7,2.2,1.3,4.4,1.9,6.7c0.2,0.7-0.2,1.4-0.9,1.6C483.9,189.4,483.8,189.4,483.7,189.4z M18,183.4
			c-0.1,0-0.2,0-0.4-0.1c-0.7-0.2-1.1-0.9-0.9-1.6c0.6-2.2,1.3-4.4,2-6.6c0.2-0.7,0.9-1,1.6-0.8c0.7,0.2,1,0.9,0.8,1.6
			c-0.7,2.2-1.4,4.4-2,6.6C19.1,183.1,18.6,183.4,18,183.4z M479.8,176.2c-0.5,0-1-0.3-1.2-0.9c-0.7-2.2-1.5-4.3-2.2-6.5
			c-0.2-0.7,0.1-1.4,0.8-1.7c0.7-0.2,1.4,0.1,1.7,0.8c0.8,2.2,1.5,4.4,2.2,6.6c0.2,0.7-0.1,1.4-0.8,1.6
			C480,176.2,479.9,176.2,479.8,176.2z M22.2,170.3c-0.1,0-0.3,0-0.4-0.1c-0.7-0.2-1-1-0.8-1.6c0.8-2.2,1.6-4.4,2.4-6.5
			c0.3-0.7,1-1,1.7-0.7c0.7,0.3,1,1,0.7,1.7c-0.8,2.1-1.6,4.3-2.4,6.5C23.3,169.9,22.8,170.3,22.2,170.3z M475.1,163.2
			c-0.5,0-1-0.3-1.2-0.8c-0.8-2.1-1.7-4.2-2.6-6.3c-0.3-0.7,0-1.4,0.7-1.7c0.7-0.3,1.4,0,1.7,0.7c0.9,2.1,1.8,4.3,2.6,6.4
			c0.3,0.7-0.1,1.4-0.7,1.7C475.4,163.2,475.3,163.2,475.1,163.2z M27.3,157.4c-0.2,0-0.3,0-0.5-0.1c-0.7-0.3-1-1-0.7-1.7
			c0.9-2.1,1.8-4.3,2.8-6.4c0.3-0.6,1.1-0.9,1.7-0.6c0.6,0.3,0.9,1.1,0.6,1.7c-0.9,2.1-1.9,4.2-2.8,6.3
			C28.2,157.1,27.8,157.4,27.3,157.4z M469.7,150.5c-0.5,0-1-0.3-1.2-0.8c-0.9-2.1-1.9-4.1-2.9-6.2c-0.3-0.6-0.1-1.4,0.6-1.7
			c0.6-0.3,1.4-0.1,1.7,0.6c1,2.1,2,4.2,3,6.2c0.3,0.6,0,1.4-0.6,1.7C470.1,150.5,469.9,150.5,469.7,150.5z M33,144.8
			c-0.2,0-0.4,0-0.6-0.1c-0.6-0.3-0.9-1.1-0.6-1.7c1-2.1,2.1-4.2,3.2-6.2c0.3-0.6,1.1-0.9,1.7-0.5c0.6,0.3,0.9,1.1,0.5,1.7
			c-1.1,2-2.1,4.1-3.1,6.1C33.9,144.5,33.5,144.8,33,144.8z M463.6,138.2c-0.5,0-0.9-0.2-1.1-0.7c-1.1-2-2.2-4-3.3-6
			c-0.4-0.6-0.1-1.4,0.5-1.8c0.6-0.4,1.4-0.1,1.8,0.5c1.1,2,2.2,4,3.3,6.1c0.3,0.6,0.1,1.4-0.5,1.7
			C464,138.1,463.8,138.2,463.6,138.2z M39.5,132.6c-0.2,0-0.4-0.1-0.6-0.2c-0.6-0.4-0.8-1.1-0.5-1.8c1.1-2,2.3-4,3.5-6
			c0.4-0.6,1.2-0.8,1.8-0.4c0.6,0.4,0.8,1.2,0.4,1.8c-1.2,1.9-2.3,3.9-3.5,5.9C40.3,132.3,39.9,132.6,39.5,132.6z M456.8,126.2
			c-0.4,0-0.9-0.2-1.1-0.6c-1.2-1.9-2.4-3.9-3.6-5.8c-0.4-0.6-0.2-1.4,0.4-1.8c0.6-0.4,1.4-0.2,1.8,0.4c1.2,1.9,2.5,3.9,3.7,5.9
			c0.4,0.6,0.2,1.4-0.4,1.8C457.3,126.2,457.1,126.2,456.8,126.2z M46.6,120.7c-0.2,0-0.5-0.1-0.7-0.2c-0.6-0.4-0.8-1.2-0.4-1.8
			c1.3-1.9,2.5-3.9,3.8-5.8c0.4-0.6,1.2-0.7,1.8-0.3c0.6,0.4,0.7,1.2,0.3,1.8c-1.3,1.9-2.6,3.8-3.8,5.7
			C47.4,120.5,47,120.7,46.6,120.7z M449.4,114.6c-0.4,0-0.8-0.2-1.1-0.6c-1.3-1.9-2.6-3.8-4-5.6c-0.4-0.6-0.3-1.4,0.3-1.8
			c0.6-0.4,1.4-0.3,1.8,0.3c1.4,1.9,2.7,3.8,4,5.7c0.4,0.6,0.3,1.4-0.3,1.8C449.9,114.6,449.6,114.6,449.4,114.6z M54.4,109.3
			c-0.3,0-0.5-0.1-0.8-0.2c-0.6-0.4-0.7-1.2-0.3-1.8c1.4-1.9,2.8-3.7,4.2-5.6c0.4-0.6,1.2-0.7,1.8-0.2c0.6,0.4,0.7,1.2,0.2,1.8
			c-1.4,1.8-2.8,3.6-4.1,5.5C55.2,109.1,54.8,109.3,54.4,109.3z M441.2,103.5c-0.4,0-0.8-0.2-1-0.5c-1.4-1.8-2.8-3.6-4.3-5.4
			c-0.5-0.6-0.4-1.4,0.2-1.8c0.5-0.5,1.4-0.4,1.8,0.2c1.5,1.8,2.9,3.6,4.3,5.4c0.4,0.6,0.3,1.4-0.2,1.8
			C441.8,103.4,441.5,103.5,441.2,103.5z M62.8,98.4c-0.3,0-0.6-0.1-0.8-0.3c-0.6-0.5-0.6-1.3-0.2-1.8c1.4-1.8,3-3.6,4.5-5.3
			c0.5-0.5,1.3-0.6,1.8-0.1c0.5,0.5,0.6,1.3,0.1,1.8c-1.5,1.7-3,3.5-4.4,5.3C63.6,98.2,63.2,98.4,62.8,98.4z M432.5,92.8
			c-0.4,0-0.7-0.2-1-0.4c-1.5-1.7-3-3.4-4.6-5.1c-0.5-0.5-0.4-1.3,0.1-1.8c0.5-0.5,1.3-0.4,1.8,0.1c1.6,1.7,3.1,3.4,4.6,5.2
			c0.5,0.5,0.4,1.4-0.1,1.8C433.1,92.7,432.8,92.8,432.5,92.8z M71.9,88c-0.3,0-0.6-0.1-0.9-0.3c-0.5-0.5-0.6-1.3-0.1-1.8
			c1.6-1.7,3.2-3.4,4.8-5c0.5-0.5,1.3-0.5,1.8,0c0.5,0.5,0.5,1.3,0,1.8c-1.6,1.6-3.2,3.3-4.7,5C72.6,87.8,72.2,88,71.9,88z
			 M423.1,82.7c-0.3,0-0.7-0.1-0.9-0.4c-1.6-1.6-3.2-3.3-4.9-4.8c-0.5-0.5-0.5-1.3,0-1.8c0.5-0.5,1.3-0.5,1.8,0
			c1.6,1.6,3.3,3.2,4.9,4.9c0.5,0.5,0.5,1.3,0,1.8C423.8,82.6,423.5,82.7,423.1,82.7z M81.5,78.1c-0.3,0-0.7-0.1-0.9-0.4
			c-0.5-0.5-0.5-1.3,0-1.8c1.6-1.6,3.3-3.2,5-4.8c0.5-0.5,1.3-0.4,1.8,0.1c0.5,0.5,0.4,1.3-0.1,1.8c-1.7,1.5-3.4,3.1-5,4.7
			C82.1,77.9,81.8,78.1,81.5,78.1z M413.2,73.1c-0.3,0-0.6-0.1-0.9-0.3c-1.7-1.5-3.4-3.1-5.1-4.6c-0.5-0.5-0.6-1.3-0.1-1.8
			c0.5-0.5,1.3-0.6,1.8-0.1c1.8,1.5,3.5,3.1,5.2,4.6c0.5,0.5,0.6,1.3,0.1,1.8C413.9,72.9,413.6,73.1,413.2,73.1z M91.6,68.7
			c-0.4,0-0.7-0.2-1-0.4c-0.5-0.5-0.4-1.4,0.1-1.8c1.7-1.5,3.5-3,5.3-4.5c0.6-0.5,1.4-0.4,1.8,0.2c0.5,0.6,0.4,1.4-0.2,1.8
			c-1.8,1.4-3.5,2.9-5.2,4.4C92.2,68.6,91.9,68.7,91.6,68.7z M402.8,64.1c-0.3,0-0.6-0.1-0.8-0.3c-1.8-1.4-3.6-2.9-5.4-4.3
			c-0.6-0.4-0.7-1.2-0.2-1.8c0.4-0.6,1.2-0.7,1.8-0.2c1.8,1.4,3.7,2.9,5.4,4.3c0.6,0.5,0.6,1.3,0.2,1.8
			C403.5,63.9,403.2,64.1,402.8,64.1z M102.3,60c-0.4,0-0.8-0.2-1-0.5c-0.4-0.6-0.3-1.4,0.2-1.8c1.8-1.4,3.7-2.8,5.5-4.2
			c0.6-0.4,1.4-0.3,1.8,0.3c0.4,0.6,0.3,1.4-0.3,1.8c-1.8,1.3-3.7,2.7-5.5,4.1C102.9,59.9,102.6,60,102.3,60z M391.9,55.6
			c-0.3,0-0.5-0.1-0.8-0.2c-1.8-1.3-3.7-2.7-5.6-4c-0.6-0.4-0.7-1.2-0.3-1.8c0.4-0.6,1.2-0.7,1.8-0.3c1.9,1.3,3.8,2.7,5.7,4
			c0.6,0.4,0.7,1.2,0.3,1.8C392.7,55.4,392.3,55.6,391.9,55.6z M113.5,51.9c-0.4,0-0.8-0.2-1.1-0.6c-0.4-0.6-0.3-1.4,0.3-1.8
			c1.9-1.3,3.8-2.6,5.8-3.8c0.6-0.4,1.4-0.2,1.8,0.4c0.4,0.6,0.2,1.4-0.4,1.8c-1.9,1.2-3.8,2.5-5.7,3.8
			C114,51.8,113.7,51.9,113.5,51.9z M380.5,47.8c-0.2,0-0.5-0.1-0.7-0.2c-1.9-1.2-3.9-2.5-5.8-3.6c-0.6-0.4-0.8-1.2-0.4-1.8
			c0.4-0.6,1.2-0.8,1.8-0.4c2,1.2,3.9,2.4,5.9,3.7c0.6,0.4,0.8,1.2,0.4,1.8C381.3,47.6,380.9,47.8,380.5,47.8z M125,44.4
			c-0.4,0-0.9-0.2-1.1-0.6c-0.4-0.6-0.2-1.4,0.4-1.8c2-1.2,4-2.4,6-3.5c0.6-0.4,1.4-0.1,1.8,0.5c0.4,0.6,0.1,1.4-0.5,1.8
			c-2,1.1-4,2.3-5.9,3.5C125.5,44.3,125.3,44.4,125,44.4z M368.6,40.7c-0.2,0-0.4-0.1-0.6-0.2c-2-1.1-4-2.2-6-3.3
			c-0.6-0.3-0.9-1.1-0.5-1.7c0.3-0.6,1.1-0.9,1.7-0.5c2,1.1,4.1,2.2,6.1,3.3c0.6,0.4,0.8,1.1,0.5,1.8
			C369.5,40.5,369.1,40.7,368.6,40.7z M137,37.6c-0.5,0-0.9-0.2-1.1-0.7c-0.3-0.6-0.1-1.4,0.5-1.7c2-1.1,4.1-2.1,6.2-3.2
			c0.6-0.3,1.4-0.1,1.7,0.6c0.3,0.6,0.1,1.4-0.6,1.7c-2,1-4.1,2-6.1,3.1C137.4,37.6,137.2,37.6,137,37.6z M356.4,34.2
			c-0.2,0-0.4,0-0.6-0.1c-2.1-1-4.2-2-6.2-2.9c-0.6-0.3-0.9-1.1-0.6-1.7c0.3-0.6,1.1-0.9,1.7-0.6c2.1,1,4.2,2,6.3,3
			c0.6,0.3,0.9,1.1,0.6,1.7C357.3,34,356.9,34.2,356.4,34.2z M149.3,31.5c-0.5,0-1-0.3-1.2-0.8c-0.3-0.6,0-1.4,0.6-1.7
			c2.1-1,4.2-1.9,6.3-2.8c0.7-0.3,1.4,0,1.7,0.7c0.3,0.7,0,1.4-0.7,1.7c-2.1,0.9-4.2,1.8-6.3,2.8C149.7,31.5,149.5,31.5,149.3,31.5z
			 M343.8,28.5c-0.2,0-0.3,0-0.5-0.1c-2.1-0.9-4.3-1.8-6.4-2.6c-0.7-0.3-1-1-0.7-1.7c0.3-0.7,1-1,1.7-0.7c2.1,0.8,4.3,1.7,6.4,2.6
			c0.7,0.3,1,1,0.7,1.7C344.8,28.2,344.3,28.5,343.8,28.5z M162,26.1c-0.5,0-1-0.3-1.2-0.8c-0.3-0.7,0.1-1.4,0.7-1.7
			c2.1-0.8,4.3-1.7,6.5-2.4c0.7-0.2,1.4,0.1,1.6,0.8c0.2,0.7-0.1,1.4-0.8,1.6c-2.1,0.8-4.3,1.6-6.4,2.4
			C162.3,26.1,162.2,26.1,162,26.1z M330.9,23.5c-0.1,0-0.3,0-0.4-0.1c-2.1-0.8-4.3-1.5-6.5-2.2c-0.7-0.2-1-0.9-0.8-1.6
			c0.2-0.7,0.9-1,1.6-0.8c2.2,0.7,4.4,1.5,6.6,2.2c0.7,0.2,1,1,0.8,1.6C331.9,23.2,331.4,23.5,330.9,23.5z M175,21.5
			c-0.5,0-1-0.3-1.2-0.9c-0.2-0.7,0.1-1.4,0.8-1.6c2.2-0.7,4.4-1.4,6.6-2.1c0.7-0.2,1.4,0.2,1.6,0.9c0.2,0.7-0.2,1.4-0.9,1.6
			c-2.2,0.6-4.4,1.3-6.6,2C175.3,21.5,175.1,21.5,175,21.5z M317.8,19.2c-0.1,0-0.2,0-0.4-0.1c-2.2-0.6-4.4-1.3-6.6-1.8
			c-0.7-0.2-1.1-0.9-0.9-1.6c0.2-0.7,0.9-1.1,1.6-0.9c2.2,0.6,4.5,1.2,6.7,1.8c0.7,0.2,1.1,0.9,0.9,1.6
			C318.8,18.9,318.3,19.2,317.8,19.2z M188.2,17.6c-0.6,0-1.1-0.4-1.2-1c-0.2-0.7,0.2-1.4,0.9-1.6c2.2-0.6,4.5-1.2,6.7-1.7
			c0.7-0.2,1.4,0.3,1.5,1c0.2,0.7-0.3,1.4-1,1.5c-2.2,0.5-4.5,1.1-6.7,1.7C188.5,17.6,188.3,17.6,188.2,17.6z M304.4,15.8
			c-0.1,0-0.2,0-0.3,0c-2.2-0.5-4.5-1-6.7-1.4c-0.7-0.1-1.2-0.8-1-1.5c0.1-0.7,0.8-1.2,1.5-1c2.3,0.5,4.5,0.9,6.8,1.5
			c0.7,0.2,1.1,0.9,1,1.5C305.5,15.4,305,15.8,304.4,15.8z M201.7,14.5c-0.6,0-1.1-0.4-1.3-1c-0.1-0.7,0.3-1.4,1-1.5
			c2.2-0.5,4.5-0.9,6.8-1.3c0.7-0.1,1.4,0.4,1.5,1.1c0.1,0.7-0.3,1.4-1.1,1.5c-2.3,0.4-4.5,0.8-6.7,1.3
			C201.8,14.4,201.8,14.5,201.7,14.5z M290.9,13.1c-0.1,0-0.1,0-0.2,0c-2.2-0.4-4.5-0.7-6.8-1.1c-0.7-0.1-1.2-0.8-1.1-1.5
			c0.1-0.7,0.8-1.2,1.5-1.1c2.3,0.3,4.6,0.7,6.9,1.1c0.7,0.1,1.2,0.8,1.1,1.5C292,12.6,291.5,13.1,290.9,13.1z M215.3,12.1
			c-0.6,0-1.2-0.5-1.3-1.1c-0.1-0.7,0.4-1.4,1.1-1.5c2.3-0.3,4.6-0.6,6.9-0.9c0.7-0.1,1.3,0.4,1.4,1.1c0.1,0.7-0.4,1.3-1.1,1.4
			c-2.2,0.3-4.5,0.6-6.8,0.9C215.4,12.1,215.3,12.1,215.3,12.1z M277.2,11.1c0,0-0.1,0-0.1,0c-2.3-0.3-4.6-0.5-6.8-0.7
			c-0.7-0.1-1.2-0.7-1.2-1.4c0.1-0.7,0.7-1.2,1.4-1.2c2.3,0.2,4.6,0.4,6.9,0.7c0.7,0.1,1.2,0.7,1.1,1.4
			C278.4,10.7,277.9,11.1,277.2,11.1z M229,10.5c-0.7,0-1.2-0.5-1.3-1.2c-0.1-0.7,0.5-1.3,1.2-1.4c2.3-0.2,4.6-0.4,6.9-0.5
			c0.7,0,1.3,0.5,1.4,1.2c0,0.7-0.5,1.3-1.2,1.4c-2.3,0.1-4.6,0.3-6.8,0.5C229.1,10.5,229,10.5,229,10.5z M263.5,10
			C263.4,10,263.4,10,263.5,10c-2.4-0.1-4.7-0.2-6.9-0.3c-0.7,0-1.3-0.6-1.3-1.3c0-0.7,0.6-1.3,1.3-1.3c2.3,0.1,4.6,0.2,6.9,0.3
			c0.7,0,1.3,0.6,1.2,1.4C264.7,9.5,264.1,10,263.5,10z M242.8,9.7c-0.7,0-1.3-0.6-1.3-1.3c0-0.7,0.5-1.3,1.3-1.3
			c2.3-0.1,4.6-0.1,6.9-0.1c0,0,0,0,0,0c0.7,0,1.3,0.6,1.3,1.3c0,0.7-0.6,1.3-1.3,1.3C247.4,9.6,245.1,9.7,242.8,9.7
			C242.8,9.7,242.8,9.7,242.8,9.7z"/>
	</g>
</g>
</svg>
