<?xml version="1.0" encoding="utf-8"?>
<!-- Generator: Adobe Illustrator 22.1.0, SVG Export Plug-In . SVG Version: 6.00 Build 0)  -->
<svg version="1.1" id="Layer_1" xmlns="http://www.w3.org/2000/svg" xmlns:xlink="http://www.w3.org/1999/xlink" x="0px" y="0px"
	 viewBox="0 0 500 500" style="enable-background:new 0 0 500 500;" xml:space="preserve">
<style type="text/css">
	.st0{clip-path:url(#SVGID_2_);fill:#FCE3C3;}
	.st1{clip-path:url(#SVGID_2_);}
	.st2{fill:#F4B9B8;}
	.st3{fill:#F9BFBB;}
	.st4{fill:#FFCFCA;}
	.st5{fill:#C69C6D;}
	.st6{fill:#363740;}
	.st7{fill:#282930;}
	.st8{fill:#D23A64;}
	.st9{fill:#C6305F;}
	.st10{fill:#32334C;}
	.st11{fill:#1F3C49;}
	.st12{fill:#FFFFFF;}
	.st13{fill:#D55454;}
	.st14{fill:#F37C7C;}
	.st15{fill:#FBB03B;}
</style>
<g>
	<g>
		<defs>
			<circle id="SVGID_1_" cx="250.1" cy="250.1" r="226.7"/>
		</defs>
		<clipPath id="SVGID_2_">
			<use xlink:href="#SVGID_1_"  style="overflow:visible;"/>
		</clipPath>
		<circle class="st0" cx="250.1" cy="250.1" r="226.7"/>
		<g class="st1">
			<g>
				<g>
					<path class="st2" d="M-59.7,829.6c-1,2.2-1.8,4.5-2.6,6.8c-2.1,6.2-4,12.4-6.1,18.6c-0.9,2.7-1.9,5.3-3.6,7.6
						c-1.7,2.3-4.1,4.1-6.9,4.4c-2.8,0.3-5.9-1.2-6.8-3.9c-0.8-2.3,0.1-4.9,1-7.2c1.2-3,2.4-6,3.6-9.1c1.6-4.1,3.2-8.2,5.1-12.2
						c3.7-8.1,8.4-16.2,16-20.9c2.4-1.5,12.2-4,10.1,2.1c-0.8,2.3-3.6,4.3-5.1,6.2C-56.9,824.4-58.4,826.9-59.7,829.6z"/>
				</g>
				<g>
					<path class="st3" d="M-65.9,831.8c-1,2.2-1.8,4.5-2.6,6.8c-2.1,6.2-4,12.4-6.1,18.6c-0.9,2.7-1.9,5.3-3.6,7.6
						c-1.7,2.3-4.1,4.1-6.9,4.4c-2.8,0.3-5.9-1.2-6.8-3.9c-0.8-2.3,0.1-4.9,1-7.2c1.2-3,2.4-6,3.6-9.1c1.6-4.1,3.2-8.2,5.1-12.2
						c3.7-8.1,8.4-16.2,16-20.9c2.4-1.5,12.2-4,10.1,2.1c-0.8,2.3-3.6,4.3-5.1,6.2C-63.1,826.6-64.6,829.1-65.9,831.8z"/>
				</g>
				<g>
					<path class="st4" d="M6.6,769.8c-5.9-1.9-11.9-3.4-18-4.1c-3.2-0.4-6.3-0.7-9.4-1.3c0.9,2.4,1.4,4,1.1,4.5
						c-1.1,1.8-2.8,3.1-4.5,4.3c-0.2,0.1-0.4,0.3-0.5,0.4C-37,782.4-48,792.5-58.8,803c-7.3,7.1-14.9,14.4-20.1,23.2
						c-5.6,9.3-9.5,19.4-13.7,29.4c-0.6,1.6-1.3,3.2-1.3,4.9c0,3,2.8,6.1,6,5.1c6.8-2.1,10.2-10.4,12.9-16.4
						c2.5-5.6,4.8-11.3,8.2-16.4c3.4-5,7.9-8.4,13.1-11.4c3.8-2.1,7.4-4.4,11.2-6.5c1.5-0.8,3-1.6,4.5-2.1c2.1-0.8,4.3-1.2,6.5-0.7
						c1.8,0.4,4.4,1.6,5.3,3.4c0.9,2-0.6,3.9-1.6,5.5c-1.2,1.9-2.7,3.5-4.3,5c-2.7,2.6-5.8,5.1-7.6,8.5c-0.3,0.6-0.6,1.1-0.9,1.7
						c-2.6,6.5,1.1,16.7,9.2,11.6c1.7-1.1,3.2-2.6,4.6-4.1c7-7,15.4-12.5,21-20.6c3.6-5.2,6.6-10.7,9.5-16.3
						c10.2-19.1,10.7-24.5,11.9-33.7C12.7,771.8,9.7,770.8,6.6,769.8z"/>
				</g>
				<g>
					<path class="st3" d="M-38,812.6c1.2-0.9,2.4-1.7,3.7-2.4c2.3-1.3,4.8-2.4,7.4-2.3c2.6,0,5.4,1.5,6.3,3.9
						c0.8,2.1,0.2,4.4-0.8,6.4c-2.6,4.8-7.4,7.8-11.9,10.8c-2.3,1.6-4.6,3.3-6.4,5.3c1.9-3.3,4.9-5.8,7.6-8.5c1.6-1.5,3.1-3.1,4.3-5
						c1-1.6,2.6-3.5,1.6-5.5c-0.9-1.8-3.5-3-5.3-3.4C-33.7,811.5-35.9,811.9-38,812.6z"/>
				</g>
			</g>
			<g>
				<g>
					<path class="st2" d="M461.7,877c-1,2.2-2.3,4.3-3.5,6.4c-3.4,5.6-7,11-10.3,16.6c-1.4,2.4-2.8,4.9-3.5,7.6
						c-0.7,2.7-0.5,5.8,1.1,8.1c1.6,2.3,4.7,3.7,7.3,2.7c2.3-0.9,3.7-3.2,4.8-5.4c1.5-2.9,3.1-5.7,4.6-8.6c2.1-3.9,4.2-7.7,6.1-11.7
						c3.9-8,7-16.9,5.7-25.7c-0.4-2.8-4.8-11.9-8-6.4c-1.3,2.1-0.9,5.5-1.5,7.9C463.9,871.5,463,874.3,461.7,877z"/>
				</g>
				<g>
					<path class="st3" d="M464,883.2c-1,2.2-2.3,4.3-3.5,6.4c-3.4,5.6-7,11-10.3,16.6c-1.4,2.4-2.8,4.9-3.5,7.6s-0.5,5.8,1.1,8.1
						s4.7,3.7,7.3,2.7c2.3-0.9,3.7-3.2,4.8-5.4c1.5-2.9,3.1-5.7,4.6-8.6c2.1-3.9,4.2-7.7,6.1-11.7c3.9-8,7-16.9,5.7-25.7
						c-0.4-2.8-4.8-11.9-8-6.4c-1.3,2.1-0.9,5.5-1.5,7.9C466.3,877.7,465.3,880.5,464,883.2z"/>
				</g>
				<g>
					<path class="st4" d="M464.9,787.8c5.2,3.3,10.2,6.9,14.7,11.1c2.4,2.2,4.6,4.4,7.1,6.4c-2.4,0.8-4,1.5-4.2,2.1
						c-0.7,2-0.6,4.1-0.4,6.2c0,0.2,0,0.4,0.1,0.7c1.2,15,0.5,30-0.6,45c-0.7,10.1-1.4,20.7-4.8,30.3c-3.6,10.2-8.7,19.8-13.7,29.4
						c-0.8,1.5-1.6,3-2.9,4.2c-2.3,2-6.5,1.7-7.7-1.3c-2.8-6.6,1.4-14.5,4.2-20.4c2.6-5.5,5.6-10.9,7.3-16.8
						c1.7-5.8,1.4-11.5,0.3-17.3c-0.8-4.2-1.4-8.5-2.3-12.7c-0.3-1.6-0.7-3.3-1.3-4.9c-0.8-2.1-1.9-4.1-3.6-5.5
						c-1.5-1.2-4.1-2.3-6-1.8c-2.1,0.5-2.6,3-3.2,4.8c-0.7,2.1-0.9,4.3-1.1,6.5c-0.3,3.8-0.2,7.7-1.6,11.3c-0.2,0.6-0.5,1.2-0.8,1.8
						c-3.3,6.1-13.5,9.9-14.8,0.4c-0.3-2-0.1-4.1,0.1-6.2c0.9-9.8-0.3-19.8,2.3-29.4c1.7-6.1,4-11.9,6.3-17.8
						c8-20.1,11.9-24,18.2-30.8C459.4,784.4,462.1,786,464.9,787.8z"/>
				</g>
				<g>
					<path class="st3" d="M460.8,849.5c-0.1-1.5-0.3-2.9-0.5-4.4c-0.5-2.6-1.3-5.2-3-7.2c-1.7-2-4.6-3.2-7.1-2.3
						c-2.1,0.7-3.5,2.7-4.3,4.7c-2,5-1.2,10.7-0.6,16.1c0.3,2.8,0.4,5.6,0.1,8.4c1.3-3.6,1.3-7.5,1.6-11.3c0.2-2.2,0.4-4.4,1.1-6.5
						c0.6-1.8,1.1-4.2,3.2-4.8c1.9-0.5,4.6,0.7,6,1.8C458.9,845.4,460,847.4,460.8,849.5z"/>
				</g>
			</g>
			<polygon class="st4" points="297.2,1474.5 294.6,1404.3 355.1,1406.9 354.3,1480.7 309.5,1502.6 			"/>
			<path class="st5" d="M372.4,1510.5c-1.6-6.4-5.2-12-7.9-18c-0.9-1.9-8.2-19.6-9.3-19.5l-1.4,0.2l-45.5,6.6l-11.1-15.3l-1.5-2.1
				c-7.8,3.9-15.7,7.9-23.5,11.8c-15.6,7.9-31.2,15.7-46.7,23.6c-11.5,5.8-23.1,11.6-34.6,17.5c-2.9,1.5-5.1,4.2-5.7,7.3
				c-0.6,3.2,2.5,9.6,7.3,10.7c9.1,2.1,21.4,2.7,30.6,3.1c18.6,0.7,35.3-0.1,53.9,0c18.5,0.1,35.7-0.7,53.9-1.8
				c7.2-0.4,14.5-0.9,22-1.3c0.4,0,0.7,0,1.1-0.1c4.9-0.3,12.2-1.1,16-4.5C374.8,1524.2,373.8,1516.3,372.4,1510.5z"/>
			<polygon class="st4" points="90,1474.5 87.3,1404.3 147.9,1406.9 147,1480.7 102.3,1502.6 			"/>
			<path class="st6" d="M345.5,637.2l-69.4,267.5l-22.9,41.3L240,969.7l-22.4,40.3l-40.3,72.6l-25.9,358.5h-65
				c-6.1-36.9-46.1-215.7-41.8-366.2c2-71.6,30.8-144.6,58.5-263.9c17.1-73.8,62.4-187.5,62.4-187.5l44.8,3.4L345.5,637.2z"/>
			<path class="st7" d="M267.7,823.5l-9.2,100.6l-4.5,18.7l-0.7,3.1l-10.8,45l-2.4-21.3l-22.4,40.3c0.1-55.5,2.9-111,8.5-166.3
				c1.7-17.4,3.7-34.8,6-52.1C244,802.3,255.9,812.8,267.7,823.5z"/>
			<path class="st6" d="M358.7,1441.2l-66.7-0.9L242.4,991l-2.4-21.3l-13.9-125.9l-23.8-215.7l8-1.1l135.2-19.4
				c0,0,40.5,63.6,53.8,156.1C428.6,967.3,358.7,1441.2,358.7,1441.2z"/>
			<path class="st8" d="M206.7,324.3c-0.4-5.6-5.3-10.1-11.1-8.5c-34.9,9.6-71,25.9-87.3,60.4c-6.4,13.5-8.6,28.5-11.7,43
				c-3.5,16.2-6.7,32.5-9.7,48.8C83,488.7,80,509.4,77,530.2c-2.7,18.9-2.2,42.1-10.9,59.1C49.9,621,33,653.2,16.4,685.1
				c-8.5,16.3-17,32.7-25.4,49.1c-4.1,8-8.2,16-12.2,24c-2,3.9-5.4,8.5-3.3,13c4.1,8.8,16,13.6,23.8,18.7c2.3,1.5,4.6,3,7.3,3.8
				c12,3.4,22.2-16.1,27.9-23.7c9.8-12.9,19.4-26,28.9-39.2c20.9-29.1,42.4-58.7,60.7-89.9c7.2-12.3,15-24.8,20.8-37.8
				c13.8-30.8,18.9-64.8,30.1-96.6c11.8-33.6,26.3-67.5,30.3-103.2C208,377.1,208.6,350.6,206.7,324.3z"/>
			<path class="st8" d="M486,809c-11.3,2.9-48.7-0.9-50-1.8c-6.1-3.7-6.5-202.3-15.8-218.6c-5.1-9-25.1-41.9-45.7-76.7
				c-19.4-32.9-39.2-67.4-47.4-84.9c-15.3-32.7-8.8-110-6.5-118.6c21.2,5.4,35.6,11.7,37.1,12.3c0.1,0,0.1,0.1,0.1,0.1
				c14.2,6.5,31.5,18.8,38.6,25.5c48.3,44.8,93.7,184.2,101.4,221.8C507,613.2,494,806.9,486,809z"/>
			<path class="st9" d="M408.7,746.6c-25.1,18.8-302.9,20.2-302.9,7c0-50.2,11.3-107,14.9-157.2c3.1-42.7,13.5-177.3,14.9-201.1
				c1-16.5,3.5-55.3,3.5-55.3s24.8-14.9,37.8-21.1c17.9-8.5,36.2-13.8,55.6-16.7c32.3-4.9,64.4,0.1,88,6.1
				c21.2,5.4,35.6,11.7,37.1,12.3c0.1,0,0.1,0.1,0.1,0.1s-13.4,5.8-16.7,27.2c-14,91.3,33.3,163.2,33.3,163.2s12.9,79.2,20.2,119.5
				C399.3,656.3,412.2,744,408.7,746.6z"/>
			<path class="st10" d="M184.6,150.3c1.9-7.2,5-13.8,9.1-19.1c11-14.1,29.5-24.5,47.8-21.9c16.6,2.4,31.4,9.2,40.1,24.1
				c9.1,15.7,8.8,36.8-2.1,51.5c-6.5,8.8-15.4,15.9-25.4,20.5c-3,1.4-6.1,2.5-9.2,3.4c-16.8,4.6-38.8,2.6-51.6-10.4
				C181.3,186.2,180.4,166.2,184.6,150.3z"/>
			<g>
				<g>
					<g>
						<path class="st4" d="M287.6,220.3c-0.8,4.5-1.6,9-2.4,13.6c-0.1,0.3-0.1,0.5-0.1,0.8c0,0.1,0,0.2-0.1,0.4
							c-1.1,6-2.1,12-2.9,18c-0.3,2.4-0.5,4.8-0.7,7.3c-0.2,2.7-0.3,5.5-0.3,8.2c-0.1,5.2,0.1,10.4,0.2,15.7
							c0.2,6.4,0.4,12.7,0.6,19.1c-3.7,4.1-9,9.2-14.6,13.7c-10.9,3-23.6,5-34.6,5.4c-7.5-4.4-14.1-10.7-13-16.6l0.3-22.9l0-3.8
							l0-9.9l0.1-14.2c4.9-1.2,9.4-3.4,14-5.6c15-7.3,29.9-14.9,44.5-23c0.4-0.2,0.8-0.4,1.1-0.6
							C282.7,224.2,285.1,222.8,287.6,220.3z"/>
					</g>
					<g>
						<path class="st3" d="M220,282.9c16.9-4.4,33.1-11.1,47.9-20.4c4.7-2.9,9.6-6.1,14.2-9.5c0.7-6,1.8-12,2.9-18
							c0.9-4.9,1.8-9.8,2.6-14.7c-2.8,2.7-5.5,4.2-9,6.1c-14.6,8.1-29.5,15.6-44.5,23c-4.5,2.2-9.1,4.4-14,5.6L220,282.9z"/>
					</g>
					<g>
						<path class="st4" d="M186.7,238.4c3.2,9.3,7.9,17.8,16.1,23.6c7.2,5.1,16.1,7.9,25,8c9.8,0.1,19.4-2.8,28-7.6
							c4.3-2.4,8.3-5.2,12-8.4c6.5-5.6,12-12.1,16.8-19.1c7.9-11.4,14.4-24.5,18-38.2c4.1-15.5,4.6-31.7-1-47.1
							c-2.3-6.3-5.6-12.1-9.8-17.3c-17.6-21.9-49.7-27.3-73.5-12.3c-12.4,7.8-22,20.1-27.5,33.6c-1.7,4.3-3.3,8.7-4.6,13.2
							C179.4,189.9,178.7,215.5,186.7,238.4z"/>
					</g>
					<g>
						<g>
							<path class="st4" d="M277.8,230.7c7.4,5.8,18,7.3,26.6,3.7c7.3-3,13.1-9.6,15.2-17.3c0.4-1.4,0.7-2.8,0.8-4.2
								c0.3-2.5,0.1-5.1-0.6-7.5c-1.8-6-7.6-10.5-13.8-11.2c-6.2-0.7-12.7,2.1-16.7,6.9l-4.5,11.4L277.8,230.7z"/>
						</g>
					</g>
				</g>
				<g>
					<path class="st11" d="M236.4,198.9c1.2,0.1,3-1.7,3.7-4.6c0.3-1.5,0.3-3.1-0.2-4.2c-0.2-0.4-0.6-1.4-1.3-1.5c0,0-0.1,0-0.1,0
						c-1.2-0.1-3,1.7-3.7,4.6c-0.3,1.5-0.3,3.1,0.2,4.2c0.2,0.4,0.6,1.4,1.3,1.5C236.4,198.9,236.4,198.9,236.4,198.9z"/>
					<path class="st11" d="M199.8,193.4c1,0.1,2.9-1.5,3.5-4.5c0.3-1.5,0.3-3-0.2-4.1c-0.3-0.8-0.8-1.3-1.3-1.5c0,0-0.1,0-0.1,0
						c-1-0.1-2.9,1.5-3.5,4.5c-0.3,1.5-0.3,3,0.2,4.1c0.3,0.8,0.8,1.3,1.3,1.5C199.7,193.4,199.7,193.4,199.8,193.4L199.8,193.4z"/>
					<path class="st11" d="M217.9,201.1c-0.9-1.1-2.5-1.7-4.1-1.5c-1.6,0.2-3.1,1.2-3.9,2.6c-0.8,1.4-1,3.2-0.4,4.7
						c0.6,1.5,1.8,2.6,3.2,2.9c-0.9-1.1-1.4-2.2-1.6-3.3c-0.2-1.1,0.1-2.2,0.6-3.1c0.6-0.9,1.3-1.7,2.4-2.1
						C215.3,200.9,216.5,200.7,217.9,201.1z"/>
				</g>
				<g>
					<path class="st11" d="M247.6,175.9c0.2-0.1,0.4-0.2,0.5-0.5c0.2-0.4,0-0.9-0.4-1.1c-3.2-1.4-7-1.4-10.2-0.1
						c-0.4,0.2-0.6,0.7-0.5,1.1c0.2,0.4,0.7,0.6,1.1,0.5c2.8-1.2,6-1.2,8.8,0.1C247.2,175.9,247.4,175.9,247.6,175.9z"/>
				</g>
				<g>
					<path class="st11" d="M210.8,170.3c0.2,0,0.4-0.1,0.5-0.3c0.3-0.4,0.2-0.9-0.2-1.2c-2.5-1.9-5.8-2.8-8.9-2.3
						c-0.5,0.1-0.8,0.5-0.7,1c0.1,0.5,0.5,0.8,1,0.7c2.6-0.4,5.5,0.3,7.6,1.9C210.3,170.3,210.5,170.3,210.8,170.3z"/>
				</g>
				<path class="st12" d="M237.6,190.4c1.8-0.3,2.2,2.5,0.4,2.8C236.2,193.5,235.8,190.7,237.6,190.4z"/>
				<path class="st12" d="M200.4,184.8c1.8-0.3,2.2,2.5,0.4,2.8C199,187.9,198.5,185.1,200.4,184.8z"/>
				<g>
					<path class="st13" d="M197.8,214.7c-0.2,3.7,0.6,7.2,2.2,10.1c2.5,4.7,7,7.9,12.3,8.2c5.4,0.3,10.3-2.6,13.2-7.2
						c1.8-2.7,2.9-6,3.1-9.5c0-0.1,0-0.3,0-0.4l-30.8-1.6C197.8,214.4,197.8,214.6,197.8,214.7z"/>
					<path class="st12" d="M199.1,214.4c3.3,3.8,8.2,6.4,13.8,6.7c5.6,0.3,10.8-1.7,14.4-5.2L199.1,214.4z"/>
					<path class="st14" d="M200,224.8c2.5,4.7,7,7.9,12.3,8.2c5.4,0.3,10.3-2.6,13.2-7.2c-5.2-1.4-10.6-2.1-16-2
						C206.3,223.9,203.2,224.2,200,224.8z"/>
				</g>
				<path class="st3" d="M234.1,211.4c-0.5,4.7,4.2,9,10.6,9.7c6.3,0.7,11.9-2.6,12.4-7.2c0.5-4.7-4.2-9-10.6-9.7
					C240.1,203.5,234.6,206.7,234.1,211.4z"/>
				
					<ellipse transform="matrix(0.1069 -0.9943 0.9943 0.1069 -27.4985 370.7951)" class="st3" cx="192.6" cy="200.7" rx="5.7" ry="7.8"/>
			</g>
			<path class="st10" d="M184.8,130.7c-1.1-11.8,17-24.6,50.9-30.5c26.1-4.6,61,4.4,78.9,23.7c10.6,11.4,17,26.8,15.6,42.4
				c-1.1,12.7-6.7,25.2-11.8,36.8c-3.7-7.3-14.2-10.1-22.1-7.5c-4.7,1.5-8.5,4.5-11.5,8.2c-0.1-14.8-3.9-29.2-3.9-44
				c-0.1,0.3-24.6-3-26.3-3.2c-14.2-1.8-28.3-3.6-42-7.6c-5.9-1.7-11.6-3.7-17.3-5.9C191.1,141.3,185.1,134.2,184.8,130.7z"/>
			<path d="M305.7,193.3l-2.3,0l-19.3-0.3l-11.2-0.2l-14.8-0.2c0-0.2,0-0.3,0-0.5c-0.9-9.6-9.5-16.7-19.2-15.8
				c-6.8,0.7-12.3,5.1-14.6,11.1l-6.5-0.9c0-0.6,0-1.3-0.1-1.9c-0.9-9.6-9.5-16.7-19.2-15.8c-5.7,0.6-10.5,3.8-13.3,8.4l-0.3-2.3
				c-0.1-0.4-0.3-0.6-0.7-0.7c-0.1,0-0.2,0-0.3,0c-0.5,0.1-0.8,0.5-0.7,1l0.3,2.3l0.4,2.5c-0.1,0.2-0.1,0.3-0.2,0.5
				c-0.8,2.3-1.2,4.9-0.9,7.5c0.3,3.5,1.6,6.6,3.6,9.1c3.1,4,7.9,6.5,13.1,6.7c0.1,0,0.2,0,0.2,0c0.7,0,1.4,0,2.2-0.1
				c7.6-0.7,13.6-6.2,15.3-13.3l6,0.9c-0.2,1.3-0.2,2.7-0.1,4.1c0.7,6.8,5.2,12.4,11.2,14.7c0.6,0.2,1.2,0.4,1.7,0.6
				c2,0.5,4.1,0.7,6.3,0.5c4.1-0.4,7.7-2.2,10.5-4.8c0.1-0.1,0.2-0.2,0.3-0.3c3-3.1,4.9-7.3,5.1-11.8l12.9,0.2l13.2,0.2l14.4,0.2
				l0.3,0l4,0.1l2.7,0l0.1,0c0.1,0,0.2,0,0.3-0.1c0.3-0.1,0.5-0.4,0.5-0.7c0,0,0-0.1,0-0.1C306.6,193.7,306.2,193.3,305.7,193.3z
				 M201.8,201.9c-0.5,0-1,0.1-1.5,0.1c-1.2,0-2.4-0.1-3.5-0.4c-3.6-0.8-6.7-2.8-8.9-5.6c-1.8-2.3-3-5.1-3.3-8.3
				c-0.1-1.4-0.1-2.7,0.1-4c0,0,0,0,0,0c1.1-6.9,6.8-12.5,14.1-13.2c8.7-0.8,16.4,5.5,17.3,14.2C216.8,193.3,210.5,201,201.8,201.9z
				 M223.7,189.5l-6-0.9c0-0.2,0.1-0.3,0.1-0.5l6.1,0.9C223.7,189.2,223.7,189.4,223.7,189.5z M251.2,205.5c-2.4,2.2-5.5,3.6-9,4
				c-2.5,0.2-4.9-0.1-7.1-0.9c-5.5-2-9.6-7.1-10.2-13.3c-0.8-8.7,5.5-16.4,14.2-17.3c8.7-0.8,16.4,5.5,17.3,14.2
				C256.9,197.4,254.9,202.2,251.2,205.5z"/>
			<path class="st8" d="M290.1,306.7c-0.6,6.1-12.2,11-26.8,14c-11.1,2.3-23.9,3.4-34.9,3c-10.2-0.3-18.8-1.9-23.2-5.1
				c-4.3-3.1-2.8-40.3,12.1-39c0.3,0,0.8,0,1.5,0c3.9-0.1,13.3-1.3,23.9-2.5c13.2-1.6,28.4-3.4,37.7-3.8c4.7-0.2,7.9-0.1,8.5,0.5
				C293.8,278.5,291,296.6,290.1,306.7z"/>
			<path class="st5" d="M165.2,1510.5c-1.6-6.4-5.2-12-7.9-18c-0.9-1.9-8.2-19.6-9.3-19.5l-1.4,0.2l-45.5,6.6L90,1464.5l-1.5-2.1
				c-7.8,3.9-15.7,7.9-23.5,11.8c-15.6,7.9-31.2,15.7-46.7,23.6c-11.5,5.8-23.1,11.6-34.6,17.5c-2.9,1.5-5.1,4.2-5.7,7.3
				c-0.6,3.2,2.5,9.6,7.3,10.7c9.1,2.1,21.4,2.7,30.6,3.1c18.6,0.7,35.3-0.1,53.9,0c18.5,0.1,35.7-0.7,53.9-1.8
				c7.2-0.4,14.5-0.9,22-1.3c0.4,0,0.7,0,1.1-0.1c4.9-0.3,12.2-1.1,16-4.5C167.6,1524.2,166.6,1516.3,165.2,1510.5z"/>
		</g>
	</g>
	<g>
		<path class="st15" d="M250.1,493c-0.7,0-1.3-0.6-1.3-1.3s0.6-1.3,1.3-1.3c2.3,0,4.6,0,6.9-0.1c0.7-0.1,1.3,0.5,1.3,1.3
			c0,0.7-0.5,1.3-1.3,1.3C254.7,492.9,252.4,493,250.1,493z M243.2,492.9C243.2,492.9,243.2,492.9,243.2,492.9
			c-2.3-0.1-4.7-0.2-7-0.3c-0.7,0-1.3-0.6-1.2-1.4c0-0.7,0.6-1.2,1.4-1.2c2.3,0.1,4.6,0.2,6.9,0.3c0.7,0,1.3,0.6,1.3,1.3
			C244.5,492.3,243.9,492.9,243.2,492.9z M263.9,492.6c-0.7,0-1.2-0.5-1.3-1.2c0-0.7,0.5-1.3,1.2-1.4c2.3-0.1,4.6-0.3,6.8-0.5
			c0.7-0.1,1.3,0.5,1.4,1.2c0.1,0.7-0.5,1.3-1.2,1.4C268.6,492.3,266.3,492.4,263.9,492.6C264,492.6,263.9,492.6,263.9,492.6z
			 M229.4,492.1c0,0-0.1,0-0.1,0c-2.3-0.2-4.6-0.4-6.9-0.7c-0.7-0.1-1.2-0.7-1.1-1.4c0.1-0.7,0.7-1.2,1.4-1.1
			c2.3,0.3,4.6,0.5,6.8,0.7c0.7,0.1,1.2,0.7,1.2,1.4C230.7,491.6,230.1,492.1,229.4,492.1z M277.7,491.4c-0.6,0-1.2-0.5-1.3-1.1
			c-0.1-0.7,0.4-1.3,1.1-1.4c2.3-0.3,4.5-0.6,6.8-0.9c0.7-0.1,1.4,0.4,1.5,1.1c0.1,0.7-0.4,1.4-1.1,1.5c-2.3,0.3-4.6,0.6-6.9,0.9
			C277.8,491.4,277.7,491.4,277.7,491.4z M215.7,490.5c-0.1,0-0.1,0-0.2,0c-2.3-0.3-4.6-0.7-6.9-1.1c-0.7-0.1-1.2-0.8-1.1-1.5
			c0.1-0.7,0.8-1.2,1.5-1.1c2.2,0.4,4.5,0.7,6.8,1.1c0.7,0.1,1.2,0.8,1.1,1.5C216.9,490.1,216.4,490.5,215.7,490.5z M291.3,489.4
			c-0.6,0-1.2-0.4-1.3-1.1c-0.1-0.7,0.4-1.4,1.1-1.5c2.2-0.4,4.5-0.8,6.7-1.3c0.7-0.1,1.4,0.3,1.5,1c0.1,0.7-0.3,1.4-1,1.5
			c-2.3,0.5-4.6,0.9-6.8,1.3C291.5,489.4,291.4,489.4,291.3,489.4z M202.1,488.2c-0.1,0-0.2,0-0.3,0c-2.3-0.5-4.5-0.9-6.8-1.5
			c-0.7-0.2-1.1-0.9-1-1.5c0.2-0.7,0.9-1.1,1.5-1c2.2,0.5,4.5,1,6.7,1.4c0.7,0.1,1.2,0.8,1,1.5C203.3,487.8,202.7,488.2,202.1,488.2
			z M304.8,486.7c-0.6,0-1.1-0.4-1.3-1c-0.2-0.7,0.3-1.4,1-1.5c2.2-0.5,4.4-1.1,6.7-1.6c0.7-0.2,1.4,0.2,1.6,0.9
			c0.2,0.7-0.2,1.4-0.9,1.6c-2.2,0.6-4.5,1.1-6.7,1.7C305,486.7,304.9,486.7,304.8,486.7z M188.7,485.1c-0.1,0-0.2,0-0.3,0
			c-2.2-0.6-4.5-1.2-6.7-1.9c-0.7-0.2-1.1-0.9-0.9-1.6c0.2-0.7,0.9-1.1,1.6-0.9c2.2,0.6,4.4,1.3,6.6,1.8c0.7,0.2,1.1,0.9,0.9,1.6
			C189.8,484.7,189.3,485.1,188.7,485.1z M318.2,483.2c-0.6,0-1.1-0.4-1.2-0.9c-0.2-0.7,0.2-1.4,0.9-1.6c2.2-0.6,4.4-1.3,6.6-2
			c0.7-0.2,1.4,0.2,1.6,0.8c0.2,0.7-0.2,1.4-0.8,1.6c-2.2,0.7-4.4,1.4-6.6,2C318.4,483.2,318.3,483.2,318.2,483.2z M175.4,481.2
			c-0.1,0-0.3,0-0.4-0.1c-2.2-0.7-4.4-1.5-6.6-2.2c-0.7-0.2-1-1-0.8-1.6c0.2-0.7,1-1,1.6-0.8c2.2,0.8,4.3,1.5,6.5,2.2
			c0.7,0.2,1,0.9,0.8,1.6C176.5,480.9,176,481.2,175.4,481.2z M331.3,478.9c-0.5,0-1-0.3-1.2-0.9c-0.2-0.7,0.1-1.4,0.8-1.6
			c2.1-0.8,4.3-1.6,6.4-2.4c0.7-0.3,1.4,0.1,1.7,0.7c0.3,0.7-0.1,1.4-0.7,1.7c-2.2,0.8-4.3,1.7-6.5,2.4
			C331.6,478.9,331.5,478.9,331.3,478.9z M162.4,476.6c-0.2,0-0.3,0-0.5-0.1c-2.1-0.8-4.3-1.7-6.4-2.6c-0.7-0.3-1-1-0.7-1.7
			c0.3-0.7,1-1,1.7-0.7c2.1,0.9,4.3,1.8,6.4,2.6c0.7,0.3,1,1,0.7,1.7C163.4,476.3,162.9,476.6,162.4,476.6z M344.1,473.9
			c-0.5,0-1-0.3-1.2-0.8c-0.3-0.7,0-1.4,0.7-1.7c2.1-0.9,4.2-1.8,6.3-2.8c0.6-0.3,1.4,0,1.7,0.6c0.3,0.6,0,1.4-0.6,1.7
			c-2.1,1-4.2,1.9-6.3,2.8C344.5,473.9,344.3,473.9,344.1,473.9z M149.6,471.2c-0.2,0-0.4,0-0.5-0.1c-2.1-1-4.2-2-6.3-3
			c-0.6-0.3-0.9-1.1-0.6-1.7c0.3-0.6,1.1-0.9,1.7-0.6c2.1,1,4.1,2,6.2,2.9c0.6,0.3,0.9,1.1,0.6,1.7
			C150.6,470.9,150.1,471.2,149.6,471.2z M356.7,468.2c-0.5,0-0.9-0.3-1.2-0.7c-0.3-0.6-0.1-1.4,0.6-1.7c2-1,4.1-2.1,6.1-3.1
			c0.6-0.3,1.4-0.1,1.7,0.5c0.3,0.6,0.1,1.4-0.5,1.7c-2,1.1-4.1,2.1-6.2,3.1C357,468.2,356.9,468.2,356.7,468.2z M137.2,465.1
			c-0.2,0-0.4,0-0.6-0.1c-2-1.1-4.1-2.2-6.1-3.3c-0.6-0.4-0.8-1.1-0.5-1.8c0.4-0.6,1.1-0.8,1.8-0.5c2,1.1,4,2.2,6,3.3
			c0.6,0.3,0.9,1.1,0.5,1.7C138.2,464.8,137.7,465.1,137.2,465.1z M368.8,461.8c-0.4,0-0.9-0.2-1.1-0.7c-0.4-0.6-0.1-1.4,0.5-1.8
			c2-1.1,4-2.3,5.9-3.5c0.6-0.4,1.4-0.2,1.8,0.4c0.4,0.6,0.2,1.4-0.4,1.8c-2,1.2-4,2.4-6,3.5C369.3,461.7,369,461.8,368.8,461.8z
			 M125.2,458.3c-0.2,0-0.5-0.1-0.7-0.2c-2-1.2-3.9-2.4-5.9-3.7c-0.6-0.4-0.8-1.2-0.4-1.8c0.4-0.6,1.2-0.8,1.8-0.4
			c1.9,1.2,3.9,2.5,5.8,3.6c0.6,0.4,0.8,1.2,0.4,1.8C126.1,458.1,125.6,458.3,125.2,458.3z M380.6,454.6c-0.4,0-0.8-0.2-1.1-0.6
			c-0.4-0.6-0.2-1.4,0.4-1.8c1.9-1.2,3.8-2.5,5.7-3.8c0.6-0.4,1.4-0.3,1.8,0.3c0.4,0.6,0.3,1.4-0.3,1.8c-1.9,1.3-3.8,2.6-5.8,3.8
			C381.1,454.6,380.9,454.6,380.6,454.6z M113.6,450.8c-0.3,0-0.5-0.1-0.7-0.2c-1.9-1.3-3.8-2.6-5.7-4c-0.6-0.4-0.7-1.2-0.3-1.8
			c0.4-0.6,1.2-0.7,1.8-0.3c1.9,1.4,3.7,2.7,5.6,4c0.6,0.4,0.7,1.2,0.3,1.8C114.4,450.6,114,450.8,113.6,450.8z M392,446.9
			c-0.4,0-0.8-0.2-1-0.5c-0.4-0.6-0.3-1.4,0.3-1.8c1.8-1.3,3.7-2.7,5.5-4.1c0.6-0.4,1.4-0.3,1.8,0.2c0.4,0.6,0.3,1.4-0.2,1.8
			c-1.8,1.4-3.7,2.8-5.5,4.2C392.5,446.8,392.3,446.9,392,446.9z M102.4,442.7c-0.3,0-0.6-0.1-0.8-0.3c-1.8-1.4-3.6-2.9-5.4-4.3
			c-0.6-0.5-0.6-1.3-0.2-1.8c0.5-0.6,1.3-0.6,1.8-0.2c1.8,1.4,3.6,2.9,5.4,4.3c0.6,0.4,0.7,1.2,0.2,1.8
			C103.2,442.5,102.8,442.7,102.4,442.7z M402.9,438.4c-0.4,0-0.7-0.2-1-0.5c-0.5-0.6-0.4-1.4,0.2-1.8c1.8-1.4,3.5-2.9,5.2-4.4
			c0.5-0.5,1.4-0.4,1.8,0.1c0.5,0.5,0.4,1.4-0.1,1.8c-1.7,1.5-3.5,3-5.3,4.5C403.5,438.3,403.2,438.4,402.9,438.4z M91.7,433.9
			c-0.3,0-0.6-0.1-0.8-0.3c-1.7-1.5-3.5-3.1-5.2-4.6c-0.5-0.5-0.6-1.3-0.1-1.8c0.5-0.5,1.3-0.6,1.8-0.1c1.7,1.5,3.4,3.1,5.1,4.6
			c0.5,0.5,0.6,1.3,0.1,1.8C92.5,433.8,92.1,433.9,91.7,433.9z M413.3,429.4c-0.3,0-0.7-0.1-1-0.4c-0.5-0.5-0.4-1.3,0.1-1.8
			c1.7-1.5,3.4-3.1,5-4.7c0.5-0.5,1.3-0.5,1.8,0c0.5,0.5,0.5,1.3,0,1.8c-1.7,1.6-3.4,3.2-5,4.8C414,429.3,413.6,429.4,413.3,429.4z
			 M81.6,424.6c-0.3,0-0.6-0.1-0.9-0.4c-1.6-1.6-3.3-3.2-4.9-4.9c-0.5-0.5-0.5-1.3,0-1.8c0.5-0.5,1.3-0.5,1.8,0
			c1.6,1.6,3.2,3.3,4.9,4.9c0.5,0.5,0.5,1.3,0,1.8C82.2,424.5,81.9,424.6,81.6,424.6z M423.2,419.8c-0.3,0-0.6-0.1-0.9-0.4
			c-0.5-0.5-0.5-1.3,0-1.8c1.6-1.6,3.2-3.3,4.7-5c0.5-0.5,1.3-0.6,1.8-0.1c0.5,0.5,0.6,1.3,0.1,1.8c-1.6,1.7-3.2,3.4-4.8,5
			C423.9,419.7,423.6,419.8,423.2,419.8z M72,414.7c-0.3,0-0.7-0.1-1-0.4c-1.5-1.7-3.1-3.4-4.6-5.2c-0.5-0.5-0.4-1.4,0.1-1.8
			c0.5-0.5,1.4-0.4,1.8,0.1c1.5,1.7,3,3.5,4.6,5.1c0.5,0.5,0.4,1.3-0.1,1.8C72.6,414.6,72.3,414.7,72,414.7z M432.6,409.6
			c-0.3,0-0.6-0.1-0.8-0.3c-0.5-0.5-0.6-1.3-0.1-1.8c1.5-1.7,3-3.5,4.4-5.2c0.5-0.6,1.3-0.6,1.8-0.2c0.6,0.5,0.6,1.3,0.2,1.8
			c-1.5,1.8-3,3.6-4.5,5.3C433.3,409.5,432.9,409.6,432.6,409.6z M62.9,404.3c-0.4,0-0.7-0.2-1-0.5c-1.4-1.8-2.9-3.6-4.3-5.4
			c-0.4-0.6-0.3-1.4,0.2-1.8c0.6-0.4,1.4-0.3,1.8,0.2c1.4,1.8,2.8,3.6,4.3,5.4c0.5,0.6,0.4,1.4-0.2,1.8
			C63.5,404.2,63.2,404.3,62.9,404.3z M441.3,399c-0.3,0-0.6-0.1-0.8-0.3c-0.6-0.4-0.7-1.2-0.2-1.8c1.4-1.8,2.8-3.7,4.1-5.5
			c0.4-0.6,1.2-0.7,1.8-0.3c0.6,0.4,0.7,1.2,0.3,1.8c-1.4,1.9-2.8,3.7-4.2,5.6C442.1,398.8,441.7,399,441.3,399z M54.5,393.4
			c-0.4,0-0.8-0.2-1-0.5c-1.4-1.9-2.7-3.8-4-5.7c-0.4-0.6-0.3-1.4,0.3-1.8c0.6-0.4,1.4-0.3,1.8,0.3c1.3,1.9,2.6,3.8,4,5.6
			c0.4,0.6,0.3,1.4-0.3,1.8C55,393.3,54.8,393.4,54.5,393.4z M449.5,387.8c-0.3,0-0.5-0.1-0.7-0.2c-0.6-0.4-0.7-1.2-0.3-1.8
			c1.3-1.9,2.6-3.8,3.8-5.7c0.4-0.6,1.2-0.8,1.8-0.4c0.6,0.4,0.8,1.2,0.4,1.8c-1.2,1.9-2.5,3.9-3.8,5.8
			C450.3,387.6,449.9,387.8,449.5,387.8z M46.7,382c-0.4,0-0.8-0.2-1.1-0.6c-1.2-1.9-2.5-3.9-3.7-5.9c-0.4-0.6-0.2-1.4,0.4-1.8
			c0.6-0.4,1.4-0.2,1.8,0.4c1.2,1.9,2.4,3.9,3.6,5.8c0.4,0.6,0.2,1.4-0.4,1.8C47.2,381.9,46.9,382,46.7,382z M456.9,376.2
			c-0.2,0-0.5-0.1-0.7-0.2c-0.6-0.4-0.8-1.2-0.4-1.8c1.2-2,2.3-3.9,3.5-5.9c0.4-0.6,1.1-0.8,1.8-0.5c0.6,0.4,0.8,1.1,0.5,1.8
			c-1.1,2-2.3,4-3.5,6C457.8,376,457.4,376.2,456.9,376.2z M39.6,370.2c-0.4,0-0.9-0.2-1.1-0.7c-1.1-2-2.3-4-3.3-6.1
			c-0.3-0.6-0.1-1.4,0.5-1.7c0.6-0.3,1.4-0.1,1.7,0.5c1.1,2,2.2,4,3.3,6c0.4,0.6,0.1,1.4-0.5,1.8C40,370.2,39.8,370.2,39.6,370.2z
			 M463.7,364.1c-0.2,0-0.4,0-0.6-0.1c-0.6-0.3-0.9-1.1-0.5-1.7c1.1-2,2.1-4.1,3.1-6.1c0.3-0.6,1.1-0.9,1.7-0.6
			c0.6,0.3,0.9,1.1,0.6,1.7c-1,2.1-2.1,4.2-3.2,6.2C464.7,363.9,464.2,364.1,463.7,364.1z M33.1,358.1c-0.5,0-0.9-0.3-1.2-0.7
			c-1-2-2-4.2-3-6.2c-0.3-0.6,0-1.4,0.6-1.7c0.6-0.3,1.4,0,1.7,0.6c1,2.1,1.9,4.2,2.9,6.2c0.3,0.6,0.1,1.4-0.6,1.7
			C33.5,358,33.3,358.1,33.1,358.1z M469.9,351.7c-0.2,0-0.4,0-0.5-0.1c-0.6-0.3-0.9-1.1-0.6-1.7c0.9-2.1,1.9-4.2,2.8-6.3
			c0.3-0.7,1-1,1.7-0.7c0.7,0.3,1,1,0.7,1.7c-0.9,2.1-1.8,4.3-2.8,6.4C470.8,351.5,470.4,351.7,469.9,351.7z M27.4,345.5
			c-0.5,0-1-0.3-1.2-0.8c-0.9-2.1-1.8-4.3-2.6-6.4c-0.3-0.7,0.1-1.4,0.7-1.7c0.7-0.3,1.4,0.1,1.7,0.7c0.8,2.1,1.7,4.2,2.6,6.3
			c0.3,0.7,0,1.4-0.7,1.7C27.7,345.5,27.6,345.5,27.4,345.5z M475.3,339c-0.2,0-0.3,0-0.5-0.1c-0.7-0.3-1-1-0.7-1.7
			c0.8-2.1,1.6-4.3,2.4-6.4c0.2-0.7,1-1,1.6-0.8c0.7,0.2,1,1,0.8,1.6c-0.8,2.2-1.6,4.4-2.4,6.5C476.3,338.7,475.8,339,475.3,339z
			 M22.4,332.7c-0.5,0-1-0.3-1.2-0.9c-0.8-2.2-1.5-4.4-2.2-6.6c-0.2-0.7,0.1-1.4,0.8-1.6c0.7-0.2,1.4,0.1,1.6,0.8
			c0.7,2.2,1.5,4.4,2.2,6.5c0.2,0.7-0.1,1.4-0.8,1.6C22.7,332.7,22.5,332.7,22.4,332.7z M479.9,326c-0.1,0-0.3,0-0.4-0.1
			c-0.7-0.2-1-0.9-0.8-1.6c0.7-2.2,1.4-4.4,2-6.6c0.2-0.7,0.9-1.1,1.6-0.9c0.7,0.2,1.1,0.9,0.9,1.6c-0.6,2.2-1.3,4.4-2,6.6
			C481,325.6,480.5,326,479.9,326z M18.1,319.6c-0.6,0-1.1-0.4-1.2-0.9c-0.7-2.2-1.3-4.5-1.9-6.7c-0.2-0.7,0.2-1.4,0.9-1.6
			c0.7-0.2,1.4,0.2,1.6,0.9c0.6,2.2,1.2,4.4,1.8,6.6c0.2,0.7-0.2,1.4-0.9,1.6C18.4,319.6,18.2,319.6,18.1,319.6z M483.8,312.7
			c-0.1,0-0.2,0-0.3,0c-0.7-0.2-1.1-0.9-0.9-1.6c0.6-2.2,1.1-4.4,1.6-6.7c0.2-0.7,0.9-1.1,1.5-1c0.7,0.2,1.1,0.9,1,1.5
			c-0.5,2.2-1.1,4.5-1.7,6.7C484.9,312.3,484.4,312.7,483.8,312.7z M14.6,306.2c-0.6,0-1.1-0.4-1.3-1c-0.5-2.2-1-4.5-1.5-6.8
			c-0.1-0.7,0.3-1.4,1-1.5c0.7-0.1,1.4,0.3,1.5,1c0.5,2.2,0.9,4.5,1.5,6.7c0.2,0.7-0.3,1.4-1,1.5C14.8,306.2,14.7,306.2,14.6,306.2z
			 M486.9,299.3c-0.1,0-0.2,0-0.3,0c-0.7-0.1-1.2-0.8-1-1.5c0.5-2.2,0.9-4.5,1.3-6.7c0.1-0.7,0.8-1.2,1.5-1.1
			c0.7,0.1,1.2,0.8,1.1,1.5c-0.4,2.3-0.8,4.6-1.3,6.8C488,298.9,487.5,299.3,486.9,299.3z M11.9,292.7c-0.6,0-1.2-0.4-1.3-1.1
			c-0.4-2.3-0.8-4.6-1.1-6.9c-0.1-0.7,0.4-1.4,1.1-1.5c0.7-0.1,1.4,0.4,1.5,1.1c0.3,2.3,0.7,4.5,1.1,6.8c0.1,0.7-0.3,1.4-1.1,1.5
			C12,292.7,11.9,292.7,11.9,292.7z M489.2,285.7c-0.1,0-0.1,0-0.2,0c-0.7-0.1-1.2-0.8-1.1-1.5c0.3-2.2,0.6-4.5,0.9-6.8
			c0.1-0.7,0.7-1.2,1.4-1.1c0.7,0.1,1.2,0.7,1.1,1.4c-0.3,2.3-0.6,4.6-0.9,6.9C490.4,285.2,489.9,285.7,489.2,285.7z M9.9,279.1
			c-0.6,0-1.2-0.5-1.3-1.1c-0.3-2.3-0.5-4.6-0.7-6.9c-0.1-0.7,0.5-1.3,1.2-1.4c0.7-0.1,1.3,0.5,1.4,1.2c0.2,2.3,0.4,4.6,0.7,6.8
			c0.1,0.7-0.4,1.3-1.1,1.4C10,279.1,10,279.1,9.9,279.1z M490.8,272c0,0-0.1,0-0.1,0c-0.7-0.1-1.2-0.7-1.2-1.4
			c0.2-2.3,0.4-4.6,0.5-6.8c0-0.7,0.7-1.2,1.4-1.2c0.7,0,1.3,0.6,1.2,1.4c-0.1,2.3-0.3,4.6-0.5,6.9C492,271.5,491.5,272,490.8,272z
			 M8.7,265.3c-0.7,0-1.2-0.5-1.3-1.2c-0.1-2.3-0.2-4.6-0.3-6.9c0-0.7,0.5-1.3,1.3-1.3c0.7-0.1,1.3,0.5,1.3,1.3
			c0.1,2.3,0.2,4.6,0.3,6.9C10.1,264.7,9.5,265.3,8.7,265.3C8.8,265.3,8.8,265.3,8.7,265.3z M491.6,258.2
			C491.6,258.2,491.5,258.2,491.6,258.2c-0.7,0-1.3-0.6-1.3-1.3c0.1-2.3,0.1-4.6,0.1-6.9l0-0.4c0-0.7,0.6-1.3,1.3-1.3c0,0,0,0,0,0
			c0.7,0,1.3,0.6,1.3,1.3l0,0.5c0,2.3,0,4.6-0.1,6.9C492.8,257.6,492.3,258.2,491.6,258.2z M8.3,251.5c-0.7,0-1.3-0.6-1.3-1.3l0-0.2
			c0-2.2,0-4.5,0.1-6.7c0-0.7,0.6-1.3,1.3-1.3c0.7,0,1.3,0.6,1.3,1.3c-0.1,2.2-0.1,4.4-0.1,6.6l0,0.2C9.6,250.9,9,251.5,8.3,251.5z
			 M491.6,243.9c-0.7,0-1.3-0.6-1.3-1.3c-0.1-2.3-0.2-4.6-0.3-6.9c0-0.7,0.5-1.3,1.2-1.4c0.7,0,1.3,0.5,1.4,1.2
			c0.1,2.3,0.2,4.6,0.3,6.9C492.9,243.3,492.3,243.9,491.6,243.9C491.6,243.9,491.6,243.9,491.6,243.9z M8.7,237.7
			C8.7,237.7,8.7,237.7,8.7,237.7c-0.8,0-1.3-0.7-1.3-1.4c0.1-2.3,0.3-4.6,0.5-6.9c0.1-0.7,0.7-1.2,1.4-1.2c0.7,0.1,1.2,0.7,1.2,1.4
			c-0.2,2.3-0.3,4.6-0.5,6.8C10,237.2,9.4,237.7,8.7,237.7z M490.8,230.2c-0.7,0-1.2-0.5-1.3-1.2c-0.2-2.3-0.4-4.6-0.7-6.8
			c-0.1-0.7,0.4-1.3,1.1-1.4c0.7-0.1,1.3,0.4,1.4,1.1c0.3,2.3,0.5,4.6,0.7,6.9c0.1,0.7-0.5,1.3-1.2,1.4
			C490.8,230.2,490.8,230.2,490.8,230.2z M9.9,224c0,0-0.1,0-0.1,0c-0.7-0.1-1.2-0.7-1.1-1.4c0.3-2.3,0.6-4.6,0.9-6.9
			c0.1-0.7,0.8-1.2,1.5-1.1c0.7,0.1,1.2,0.8,1.1,1.5c-0.3,2.2-0.6,4.5-0.9,6.8C11.1,223.5,10.5,224,9.9,224z M489.2,216.5
			c-0.6,0-1.2-0.5-1.3-1.1c-0.3-2.3-0.7-4.5-1.1-6.8c-0.1-0.7,0.3-1.4,1.1-1.5c0.7-0.1,1.4,0.3,1.5,1c0.4,2.3,0.8,4.6,1.1,6.9
			c0.1,0.7-0.4,1.4-1.1,1.5C489.3,216.4,489.2,216.5,489.2,216.5z M11.8,210.3c-0.1,0-0.1,0-0.2,0c-0.7-0.1-1.2-0.8-1.1-1.5
			c0.4-2.3,0.8-4.6,1.3-6.8c0.1-0.7,0.8-1.1,1.5-1c0.7,0.1,1.2,0.8,1,1.5c-0.4,2.2-0.9,4.5-1.3,6.7C13,209.9,12.4,210.3,11.8,210.3z
			 M486.8,202.9c-0.6,0-1.1-0.4-1.3-1c-0.5-2.2-0.9-4.5-1.5-6.7c-0.2-0.7,0.3-1.4,1-1.5c0.7-0.2,1.4,0.3,1.5,1
			c0.5,2.2,1,4.5,1.5,6.8c0.1,0.7-0.3,1.4-1,1.5C487,202.9,486.9,202.9,486.8,202.9z M14.5,196.8c-0.1,0-0.2,0-0.3,0
			c-0.7-0.2-1.1-0.9-1-1.5c0.5-2.3,1.1-4.5,1.7-6.7c0.2-0.7,0.9-1.1,1.6-0.9c0.7,0.2,1.1,0.9,0.9,1.6c-0.6,2.2-1.1,4.4-1.6,6.7
			C15.6,196.4,15.1,196.8,14.5,196.8z M483.7,189.4c-0.6,0-1.1-0.4-1.2-1c-0.6-2.2-1.2-4.4-1.8-6.6c-0.2-0.7,0.2-1.4,0.9-1.6
			c0.7-0.2,1.4,0.2,1.6,0.9c0.7,2.2,1.3,4.5,1.9,6.7c0.2,0.7-0.2,1.4-0.9,1.6C483.9,189.4,483.8,189.4,483.7,189.4z M18,183.4
			c-0.1,0-0.2,0-0.4-0.1c-0.7-0.2-1.1-0.9-0.9-1.6c0.6-2.2,1.3-4.4,2-6.6c0.2-0.7,0.9-1,1.6-0.8c0.7,0.2,1,0.9,0.8,1.6
			c-0.7,2.2-1.4,4.4-2,6.6C19.1,183.1,18.6,183.4,18,183.4z M479.8,176.2c-0.5,0-1-0.3-1.2-0.9c-0.7-2.2-1.5-4.4-2.2-6.5
			c-0.2-0.7,0.1-1.4,0.8-1.7c0.7-0.2,1.4,0.1,1.6,0.8c0.8,2.2,1.5,4.4,2.2,6.6c0.2,0.7-0.1,1.4-0.8,1.6
			C480,176.2,479.9,176.2,479.8,176.2z M22.2,170.3c-0.1,0-0.3,0-0.4-0.1c-0.7-0.2-1-1-0.8-1.6c0.8-2.2,1.6-4.4,2.4-6.5
			c0.3-0.7,1-1,1.7-0.7c0.7,0.3,1,1,0.7,1.7c-0.8,2.1-1.6,4.3-2.4,6.5C23.3,169.9,22.8,170.3,22.2,170.3z M475.1,163.2
			c-0.5,0-1-0.3-1.2-0.8c-0.8-2.1-1.7-4.2-2.6-6.3c-0.3-0.7,0-1.4,0.7-1.7c0.7-0.3,1.4,0,1.7,0.7c0.9,2.1,1.8,4.3,2.6,6.4
			c0.3,0.7-0.1,1.4-0.7,1.7C475.4,163.2,475.3,163.2,475.1,163.2z M27.3,157.4c-0.2,0-0.3,0-0.5-0.1c-0.7-0.3-1-1-0.7-1.7
			c0.9-2.1,1.8-4.3,2.8-6.4c0.3-0.6,1.1-0.9,1.7-0.6c0.6,0.3,0.9,1.1,0.6,1.7c-1,2.1-1.9,4.2-2.8,6.3
			C28.2,157.1,27.8,157.4,27.3,157.4z M469.7,150.5c-0.5,0-1-0.3-1.2-0.8c-1-2.1-1.9-4.1-2.9-6.2c-0.3-0.6-0.1-1.4,0.6-1.7
			c0.6-0.3,1.4-0.1,1.7,0.6c1,2.1,2,4.2,3,6.2c0.3,0.6,0,1.4-0.6,1.7C470.1,150.5,469.9,150.5,469.7,150.5z M33,144.8
			c-0.2,0-0.4,0-0.6-0.1c-0.6-0.3-0.9-1.1-0.6-1.7c1-2.1,2.1-4.2,3.2-6.2c0.3-0.6,1.1-0.9,1.7-0.5c0.6,0.3,0.9,1.1,0.5,1.7
			c-1.1,2-2.1,4.1-3.1,6.1C33.9,144.5,33.5,144.8,33,144.8z M463.6,138.2c-0.5,0-0.9-0.2-1.1-0.7c-1.1-2-2.2-4-3.3-6
			c-0.4-0.6-0.1-1.4,0.5-1.8c0.6-0.4,1.4-0.1,1.8,0.5c1.1,2,2.2,4,3.3,6.1c0.3,0.6,0.1,1.4-0.5,1.7
			C464,138.1,463.8,138.2,463.6,138.2z M39.5,132.6c-0.2,0-0.4-0.1-0.6-0.2c-0.6-0.4-0.8-1.1-0.5-1.8c1.1-2,2.3-4,3.5-6
			c0.4-0.6,1.2-0.8,1.8-0.4c0.6,0.4,0.8,1.2,0.4,1.8c-1.2,1.9-2.3,3.9-3.5,5.9C40.3,132.3,39.9,132.6,39.5,132.6z M456.8,126.2
			c-0.4,0-0.9-0.2-1.1-0.6c-1.2-1.9-2.4-3.9-3.6-5.8c-0.4-0.6-0.2-1.4,0.4-1.8c0.6-0.4,1.4-0.2,1.8,0.4c1.2,1.9,2.5,3.9,3.7,5.9
			c0.4,0.6,0.2,1.4-0.4,1.8C457.3,126.2,457.1,126.2,456.8,126.2z M46.6,120.7c-0.2,0-0.5-0.1-0.7-0.2c-0.6-0.4-0.8-1.2-0.4-1.8
			c1.2-1.9,2.5-3.9,3.8-5.8c0.4-0.6,1.2-0.7,1.8-0.3c0.6,0.4,0.7,1.2,0.3,1.8c-1.3,1.9-2.6,3.8-3.8,5.7
			C47.4,120.5,47,120.7,46.6,120.7z M449.4,114.6c-0.4,0-0.8-0.2-1.1-0.6c-1.3-1.9-2.6-3.8-4-5.6c-0.4-0.6-0.3-1.4,0.3-1.8
			c0.6-0.4,1.4-0.3,1.8,0.3c1.3,1.8,2.7,3.7,4,5.7c0.4,0.6,0.3,1.4-0.3,1.8C449.9,114.6,449.6,114.6,449.4,114.6z M54.4,109.3
			c-0.3,0-0.5-0.1-0.8-0.2c-0.6-0.4-0.7-1.2-0.3-1.8c1.4-1.9,2.8-3.7,4.2-5.6c0.4-0.6,1.2-0.7,1.8-0.2c0.6,0.4,0.7,1.2,0.2,1.8
			c-1.4,1.8-2.8,3.7-4.1,5.5C55.2,109.1,54.8,109.3,54.4,109.3z M441.2,103.5c-0.4,0-0.8-0.2-1-0.5c-1.4-1.8-2.8-3.6-4.3-5.4
			c-0.5-0.6-0.4-1.4,0.2-1.8c0.6-0.5,1.4-0.4,1.8,0.2c1.5,1.8,2.9,3.6,4.3,5.4c0.4,0.6,0.3,1.4-0.2,1.8
			C441.8,103.4,441.5,103.5,441.2,103.5z M62.8,98.4c-0.3,0-0.6-0.1-0.8-0.3c-0.6-0.5-0.6-1.3-0.2-1.8c1.5-1.8,3-3.6,4.5-5.3
			c0.5-0.5,1.3-0.6,1.8-0.1c0.5,0.5,0.6,1.3,0.1,1.8c-1.5,1.7-3,3.5-4.4,5.3C63.6,98.2,63.2,98.4,62.8,98.4z M432.5,92.9
			c-0.4,0-0.7-0.2-1-0.4c-1.5-1.7-3-3.4-4.6-5.1c-0.5-0.5-0.4-1.3,0.1-1.8c0.5-0.5,1.3-0.4,1.8,0.1c1.6,1.7,3.1,3.4,4.6,5.2
			c0.5,0.5,0.4,1.4-0.1,1.8C433.1,92.7,432.8,92.9,432.5,92.9z M71.9,88c-0.3,0-0.6-0.1-0.9-0.3c-0.5-0.5-0.6-1.3-0.1-1.8
			c1.6-1.7,3.2-3.4,4.8-5c0.5-0.5,1.3-0.5,1.8,0c0.5,0.5,0.5,1.3,0,1.8c-1.6,1.6-3.2,3.3-4.7,5C72.6,87.8,72.2,88,71.9,88z
			 M423.1,82.7c-0.3,0-0.7-0.1-0.9-0.4c-1.6-1.6-3.2-3.3-4.9-4.8c-0.5-0.5-0.5-1.3,0-1.8c0.5-0.5,1.3-0.5,1.8,0
			c1.6,1.6,3.3,3.2,4.9,4.9c0.5,0.5,0.5,1.3,0,1.8C423.8,82.6,423.5,82.7,423.1,82.7z M81.5,78.1c-0.3,0-0.7-0.1-0.9-0.4
			c-0.5-0.5-0.5-1.3,0-1.8c1.7-1.6,3.4-3.2,5-4.8c0.5-0.5,1.3-0.4,1.8,0.1c0.5,0.5,0.4,1.3-0.1,1.8c-1.7,1.5-3.3,3.1-5,4.7
			C82.1,77.9,81.8,78.1,81.5,78.1z M413.2,73.1c-0.3,0-0.6-0.1-0.9-0.3c-1.7-1.5-3.4-3.1-5.1-4.6c-0.5-0.5-0.6-1.3-0.1-1.8
			c0.5-0.5,1.3-0.6,1.8-0.1c1.7,1.5,3.5,3.1,5.2,4.6c0.5,0.5,0.6,1.3,0.1,1.8C413.9,72.9,413.6,73.1,413.2,73.1z M91.6,68.7
			c-0.4,0-0.7-0.2-1-0.4c-0.5-0.5-0.4-1.4,0.1-1.8c1.7-1.5,3.5-3,5.3-4.5c0.6-0.5,1.4-0.4,1.8,0.2c0.5,0.6,0.4,1.4-0.2,1.8
			c-1.8,1.4-3.5,2.9-5.2,4.4C92.2,68.6,91.9,68.7,91.6,68.7z M402.8,64.1c-0.3,0-0.6-0.1-0.8-0.3c-1.8-1.4-3.6-2.9-5.4-4.3
			c-0.6-0.4-0.7-1.2-0.2-1.8c0.4-0.6,1.2-0.7,1.8-0.2c1.8,1.4,3.7,2.9,5.4,4.3c0.6,0.5,0.6,1.3,0.2,1.8
			C403.5,63.9,403.2,64.1,402.8,64.1z M102.3,60c-0.4,0-0.8-0.2-1-0.5c-0.4-0.6-0.3-1.4,0.2-1.8c1.8-1.4,3.7-2.8,5.5-4.2
			c0.6-0.4,1.4-0.3,1.8,0.3c0.4,0.6,0.3,1.4-0.3,1.8c-1.8,1.3-3.7,2.7-5.5,4.1C102.9,59.9,102.6,60,102.3,60z M391.9,55.6
			c-0.3,0-0.5-0.1-0.8-0.2c-1.8-1.3-3.7-2.7-5.6-4c-0.6-0.4-0.7-1.2-0.3-1.8c0.4-0.6,1.2-0.7,1.8-0.3c1.9,1.3,3.8,2.7,5.7,4
			c0.6,0.4,0.7,1.2,0.3,1.8C392.7,55.4,392.3,55.6,391.9,55.6z M113.5,51.9c-0.4,0-0.8-0.2-1.1-0.6c-0.4-0.6-0.3-1.4,0.3-1.8
			c1.9-1.3,3.8-2.6,5.8-3.8c0.6-0.4,1.4-0.2,1.8,0.4c0.4,0.6,0.2,1.4-0.4,1.8c-1.9,1.2-3.8,2.5-5.7,3.8
			C114,51.8,113.7,51.9,113.5,51.9z M380.5,47.8c-0.2,0-0.5-0.1-0.7-0.2c-1.9-1.2-3.9-2.5-5.8-3.6c-0.6-0.4-0.8-1.2-0.4-1.8
			c0.4-0.6,1.2-0.8,1.8-0.4c2,1.2,3.9,2.4,5.9,3.7c0.6,0.4,0.8,1.2,0.4,1.8C381.3,47.6,380.9,47.8,380.5,47.8z M125,44.4
			c-0.4,0-0.9-0.2-1.1-0.6c-0.4-0.6-0.2-1.4,0.4-1.8c2-1.2,4-2.4,6-3.5c0.6-0.4,1.4-0.1,1.8,0.5c0.4,0.6,0.1,1.4-0.5,1.8
			c-2,1.1-4,2.3-5.9,3.5C125.5,44.3,125.3,44.4,125,44.4z M368.6,40.7c-0.2,0-0.4-0.1-0.6-0.2c-2-1.1-4-2.2-6-3.3
			c-0.6-0.3-0.9-1.1-0.5-1.7c0.3-0.6,1.1-0.9,1.7-0.5c2,1.1,4.1,2.2,6.1,3.3c0.6,0.4,0.8,1.1,0.5,1.8
			C369.5,40.5,369.1,40.7,368.6,40.7z M137,37.6c-0.5,0-0.9-0.2-1.1-0.7c-0.3-0.6-0.1-1.4,0.5-1.7c2-1.1,4.1-2.1,6.2-3.2
			c0.6-0.3,1.4-0.1,1.7,0.6c0.3,0.6,0.1,1.4-0.6,1.7c-2,1-4.1,2-6.1,3.1C137.4,37.6,137.2,37.6,137,37.6z M356.4,34.2
			c-0.2,0-0.4,0-0.6-0.1c-2.1-1-4.2-2-6.2-2.9c-0.6-0.3-0.9-1.1-0.6-1.7c0.3-0.6,1.1-0.9,1.7-0.6c2.1,1,4.2,2,6.3,3
			c0.6,0.3,0.9,1.1,0.6,1.7C357.3,34,356.9,34.2,356.4,34.2z M149.3,31.5c-0.5,0-1-0.3-1.2-0.8c-0.3-0.6,0-1.4,0.6-1.7
			c2.1-1,4.2-1.9,6.3-2.8c0.7-0.3,1.4,0,1.7,0.7c0.3,0.7,0,1.4-0.7,1.7c-2.1,0.9-4.2,1.8-6.3,2.8C149.7,31.5,149.5,31.5,149.3,31.5z
			 M343.8,28.5c-0.2,0-0.3,0-0.5-0.1c-2.1-0.9-4.3-1.8-6.4-2.6c-0.7-0.3-1-1-0.7-1.7c0.3-0.7,1-1,1.7-0.7c2.1,0.8,4.3,1.7,6.4,2.6
			c0.7,0.3,1,1,0.7,1.7C344.8,28.2,344.3,28.5,343.8,28.5z M162,26.1c-0.5,0-1-0.3-1.2-0.8c-0.3-0.7,0.1-1.4,0.7-1.7
			c2.1-0.8,4.3-1.7,6.5-2.4c0.7-0.2,1.4,0.1,1.6,0.8c0.2,0.7-0.1,1.4-0.8,1.6c-2.1,0.8-4.3,1.6-6.4,2.4
			C162.3,26.1,162.2,26.1,162,26.1z M330.9,23.5c-0.1,0-0.3,0-0.4-0.1c-2.1-0.8-4.3-1.5-6.5-2.2c-0.7-0.2-1.1-0.9-0.8-1.6
			c0.2-0.7,0.9-1,1.6-0.8c2.2,0.7,4.4,1.5,6.6,2.2c0.7,0.2,1,1,0.8,1.6C331.9,23.2,331.4,23.5,330.9,23.5z M175,21.5
			c-0.5,0-1-0.3-1.2-0.9c-0.2-0.7,0.1-1.4,0.8-1.6c2.2-0.7,4.4-1.4,6.6-2.1c0.7-0.2,1.4,0.2,1.6,0.9c0.2,0.7-0.2,1.4-0.9,1.6
			c-2.2,0.6-4.4,1.3-6.6,2C175.3,21.5,175.1,21.5,175,21.5z M317.8,19.2c-0.1,0-0.2,0-0.4-0.1c-2.2-0.6-4.4-1.3-6.6-1.8
			c-0.7-0.2-1.1-0.9-0.9-1.6c0.2-0.7,0.9-1.1,1.6-0.9c2.2,0.6,4.5,1.2,6.7,1.8c0.7,0.2,1.1,0.9,0.9,1.6
			C318.8,18.9,318.3,19.2,317.8,19.2z M188.2,17.6c-0.6,0-1.1-0.4-1.2-1c-0.2-0.7,0.2-1.4,0.9-1.6c2.2-0.6,4.5-1.2,6.7-1.7
			c0.7-0.2,1.4,0.3,1.5,1c0.2,0.7-0.3,1.4-1,1.5c-2.2,0.5-4.5,1.1-6.7,1.7C188.5,17.6,188.3,17.6,188.2,17.6z M304.4,15.8
			c-0.1,0-0.2,0-0.3,0c-2.2-0.5-4.5-1-6.7-1.4c-0.7-0.1-1.2-0.8-1-1.5c0.1-0.7,0.8-1.2,1.5-1c2.3,0.5,4.5,0.9,6.8,1.5
			c0.7,0.2,1.1,0.9,1,1.5C305.5,15.4,305,15.8,304.4,15.8z M201.7,14.5c-0.6,0-1.1-0.4-1.3-1c-0.1-0.7,0.3-1.4,1-1.5
			c2.3-0.5,4.5-0.9,6.8-1.3c0.7-0.1,1.4,0.3,1.5,1.1c0.1,0.7-0.3,1.4-1.1,1.5c-2.2,0.4-4.5,0.8-6.7,1.3
			C201.8,14.4,201.8,14.5,201.7,14.5z M290.9,13.1c-0.1,0-0.1,0-0.2,0c-2.2-0.4-4.5-0.7-6.8-1.1c-0.7-0.1-1.2-0.8-1.1-1.5
			c0.1-0.7,0.7-1.2,1.5-1.1c2.3,0.3,4.6,0.7,6.9,1.1c0.7,0.1,1.2,0.8,1.1,1.5C292,12.6,291.5,13.1,290.9,13.1z M215.3,12.1
			c-0.6,0-1.2-0.5-1.3-1.1c-0.1-0.7,0.4-1.4,1.1-1.5c2.3-0.3,4.6-0.6,6.9-0.9c0.7-0.1,1.3,0.4,1.4,1.1c0.1,0.7-0.4,1.3-1.1,1.4
			c-2.2,0.3-4.5,0.6-6.8,0.9C215.4,12.1,215.3,12.1,215.3,12.1z M277.2,11.1c0,0-0.1,0-0.1,0c-2.3-0.3-4.6-0.5-6.8-0.7
			c-0.7-0.1-1.2-0.7-1.2-1.4c0.1-0.7,0.7-1.2,1.4-1.2c2.3,0.2,4.6,0.4,6.9,0.7c0.7,0.1,1.2,0.7,1.1,1.4
			C278.4,10.7,277.9,11.1,277.2,11.1z M229,10.5c-0.7,0-1.2-0.5-1.3-1.2c-0.1-0.7,0.5-1.3,1.2-1.4c2.3-0.2,4.6-0.4,6.9-0.5
			c0.7,0,1.3,0.5,1.4,1.2c0,0.7-0.5,1.3-1.2,1.4c-2.3,0.1-4.6,0.3-6.8,0.5C229.1,10.5,229,10.5,229,10.5z M263.5,10
			C263.4,10,263.4,10,263.5,10c-2.4-0.1-4.7-0.2-6.9-0.3c-0.7,0-1.3-0.6-1.3-1.3c0-0.7,0.6-1.3,1.3-1.3c0,0,0,0,0,0
			c2.3,0.1,4.6,0.2,6.9,0.3c0.7,0,1.3,0.6,1.2,1.4C264.7,9.5,264.1,10,263.5,10z M242.8,9.7c-0.7,0-1.3-0.6-1.3-1.3
			c0-0.7,0.5-1.3,1.3-1.3c2.3-0.1,4.6-0.1,6.9-0.1c0,0,0,0,0,0c0.7,0,1.3,0.6,1.3,1.3c0,0.7-0.6,1.3-1.3,1.3
			C247.4,9.6,245.1,9.7,242.8,9.7C242.8,9.7,242.8,9.7,242.8,9.7z"/>
	</g>
</g>
</svg>
