<?xml version="1.0" encoding="utf-8"?>
<!-- Generator: Adobe Illustrator 22.1.0, SVG Export Plug-In . SVG Version: 6.00 Build 0)  -->
<svg version="1.1" id="Layer_1" xmlns="http://www.w3.org/2000/svg" xmlns:xlink="http://www.w3.org/1999/xlink" x="0px" y="0px"
	 viewBox="0 0 500 500" style="enable-background:new 0 0 500 500;" xml:space="preserve">
<style type="text/css">
	.st0{clip-path:url(#SVGID_2_);fill:#FCE3C3;}
	.st1{clip-path:url(#SVGID_2_);}
	.st2{fill:#603813;}
	.st3{fill:#F4B9B8;}
	.st4{fill:#F9BFBB;}
	.st5{fill:#FFCFCA;}
	.st6{fill:#1E1D59;}
	.st7{fill:#151544;}
	.st8{fill:#363740;}
	.st9{fill:#FFFFFF;}
	.st10{fill:#ACDDD9;}
	.st11{fill:#C69C6D;}
	.st12{fill:#C15252;}
	.st13{fill:#AF4646;}
	.st14{fill:#1F3C49;}
	.st15{fill:#D55454;}
	.st16{fill:#F37C7C;}
	.st17{fill:#99A4CE;}
	.st18{fill:#FBB03B;}
</style>
<g>
	<g>
		<defs>
			<circle id="SVGID_1_" cx="250.1" cy="250" r="226.7"/>
		</defs>
		<clipPath id="SVGID_2_">
			<use xlink:href="#SVGID_1_"  style="overflow:visible;"/>
		</clipPath>
		<circle class="st0" cx="250.1" cy="250" r="226.7"/>
		<g class="st1">
			<g>
				
					<ellipse transform="matrix(0.9881 -0.1539 0.1539 0.9881 -22.8061 43.2722)" class="st2" cx="268" cy="168.9" rx="42.5" ry="54"/>
				<g>
					<g>
						<path class="st3" d="M-68.9,893.1c0,2.9,0.3,5.8,0.6,8.7c0.8,7.8,2,15.5,2.8,23.3c0.3,3.4,0.6,6.8-0.1,10.1
							c-0.7,3.3-2.4,6.5-5.3,8.3c-2.9,1.7-7,1.6-9.3-0.8c-2.1-2.1-2.3-5.4-2.5-8.3c-0.2-3.9-0.4-7.8-0.7-11.7
							c-0.3-5.3-0.6-10.5-0.6-15.8c-0.1-10.7,0.9-21.9,6.8-30.8c1.9-2.8,11.3-10.5,12-2.8c0.3,3-1.8,6.5-2.5,9.4
							C-68.5,886-68.9,889.5-68.9,893.1z"/>
					</g>
					<g>
						<path class="st4" d="M-74.5,898.6c0,2.9,0.3,5.8,0.6,8.7c0.8,7.8,2,15.5,2.8,23.3c0.3,3.4,0.6,6.8-0.1,10.1s-2.4,6.5-5.3,8.3
							c-2.9,1.7-7,1.6-9.3-0.8c-2.1-2.1-2.3-5.4-2.5-8.3c-0.2-3.9-0.4-7.8-0.7-11.7c-0.3-5.3-0.6-10.5-0.6-15.8
							c-0.1-10.7,0.9-21.9,6.8-30.8c1.9-2.8,11.3-10.5,12-2.8c0.3,3-1.8,6.5-2.5,9.4C-74.1,891.5-74.5,895-74.5,898.6z"/>
					</g>
					<g>
						<path class="st5" d="M-27,794.4c-7.3,0.9-14.6,2.3-21.6,4.6c-3.7,1.2-7.3,2.4-10.9,3.3c2.2,2.1,3.5,3.7,3.5,4.4
							c-0.2,2.5-1.4,4.8-2.7,7c-0.1,0.2-0.3,0.5-0.4,0.7c-8.9,15.8-15.7,32.3-22.2,49.2c-4.4,11.4-8.9,23.2-10.2,35.4
							c-1.3,12.9-0.6,25.9,0,38.9c0.1,2,0.2,4.1,1,6c1.5,3.3,6.2,5.2,9.1,2.5c6.4-5.8,5.8-16.5,5.8-24.4c-0.1-7.3-0.6-14.7,0.6-22
							c1.1-7.2,4.3-13.2,8.5-19c3-4.2,5.8-8.5,8.9-12.7c1.2-1.6,2.4-3.2,3.9-4.6c1.9-1.9,4.1-3.5,6.7-4.1c2.2-0.5,5.6-0.5,7.5,1.1
							c2,1.7,1.3,4.6,1,6.8c-0.3,2.6-1.2,5.2-2.1,7.6c-1.6,4.2-3.7,8.5-4,13.1c-0.1,0.8-0.1,1.5,0,2.3c0.4,8.3,9.6,17.6,15.9,7.9
							c1.3-2.1,2.2-4.4,3-6.8c4-11.1,10.4-21.4,12.4-33.1c1.3-7.5,1.7-15,2.1-22.6c1.5-25.9-0.8-32.1-4.1-42.7
							C-19.3,793.5-23.2,793.9-27,794.4z"/>
					</g>
					<g>
						<path class="st4" d="M-53.9,863.6c0.9-1.5,1.8-3,2.8-4.5c1.8-2.6,4-5,6.9-6.3c2.9-1.3,6.6-1.1,8.8,1.1
							c1.9,1.8,2.4,4.7,2.3,7.4c-0.4,6.5-4.2,12.2-7.5,17.8c-1.7,2.9-3.3,5.9-4.3,9.1c0.4-4.5,2.4-8.8,4-13.1c0.9-2.5,1.8-5,2.1-7.6
							c0.3-2.2,1-5.2-1-6.8c-1.9-1.5-5.3-1.6-7.5-1.1C-49.8,860.1-52,861.7-53.9,863.6z"/>
					</g>
				</g>
				<polygon class="st5" points="70.3,1642.3 71.5,1540 149.7,1537.7 136,1649.4 84.9,1674.4 				"/>
				<path class="st6" d="M280.5,677.9c0,0-15.3,124.6-27.5,204.8c-2.9,18.7-5.6,34.9-7.9,46.7c-7.7,39.4-16.7,97.2-25.9,162.4
					c-29.7,211.6-61.7,502.2-61.7,502.2H56.7c0,0-12.8-548.3,12.1-736c5.3-39.7,17.4-180.1,17.4-180.1H280.5z"/>
				<path class="st7" d="M253,882.7c-2.9,18.7-5.6,34.9-7.9,46.7c-7.7,39.4-16.7,97.2-25.9,162.4c-18.8-22.9-30.5-55.2-30.5-91.1
					C188.8,946.3,215.6,900.1,253,882.7z"/>
				<path class="st6" d="M377.1,677.5c0,0,12.1,140.4,17.4,180.1c24.9,187.7-14.7,735.3-14.7,735.3l-99.6,4.6
					c0,0-34.4-503.4-67.2-670.4c-12.2-62-30.2-249.5-30.2-249.5H377.1z"/>
				<g>
					<path class="st8" d="M9.4,789.3c0,0-1.7,10.4-4.9,20.8c-0.3,1.1-0.7,2.2-1,3.3c-1.2,3.5-2.5,6.9-4,9.7c-0.6,1.1-1.1,2.1-1.8,3
						c-1.4,2.2-3,3.8-4.7,4.5c-7.9,3.3-51.6-17.4-53.8-22.5c-0.8-1.8-1.1-4.4-1-7.4c0-1.2,0.1-2.5,0.3-3.9c0.4-3.3,1.1-6.9,1.9-10.5
						c0.3-1.2,0.6-2.4,0.9-3.6c2.7-10.2,6.1-19.2,6.1-19.2L9.4,789.3z"/>
					<g>
						<path class="st9" d="M4.6,810c-0.3,1.1-0.7,2.2-1,3.3c-2.1-0.7-4.3-1.4-6.4-2.1c-12.1-4-24.1-8.5-35.7-13.9
							c-5.8-2.7-11.5-5.6-17-8.8c-1.3-0.7-2.6-1.5-3.9-2.2c0.3-1.2,0.6-2.4,0.9-3.6c2.6,1.6,5.3,3.1,7.9,4.6
							C-33.2,797-14.4,804,4.6,810z"/>
						<path class="st9" d="M-0.4,823.1c-0.6,1.1-1.1,2.1-1.8,3c-1.5-0.5-2.9-0.9-4.4-1.4c-19-6.2-38.2-13.3-55.1-24
							c0-1.2,0.1-2.5,0.3-3.9c1.5,0.9,2.9,1.9,4.4,2.7c11.2,6.7,23.2,11.8,35.4,16.3C-14.6,818.4-7.5,820.8-0.4,823.1z"/>
					</g>
				</g>
				<polygon points="194.5,296.9 279.6,300.3 255.3,350.7 202.6,348.6 				"/>
				<path class="st5" d="M639.9,498.9c-1.7,0.2-4.2-0.1-5.7,0.7c-2.1,1.2-4,4-5.7,5.7c-4.7,4.8-9.6,9.4-14.3,14.2
					c-1.3,1.3-2.6,2.7-3.8,4c-10.8-12.3-21.5-24.7-32.1-37.2c11.5-8.8,20.4-15.4,24.3-18.2c1.9-1.3,3.8-2.7,5.8-4
					c0.4-5.3,1.3-10.6,2.7-15.8c1.8-6.3,5.1-11.5,7.5-17.6c4.1-10.5,6.1-21.8,9.4-32.6c1-3.3,2.2-6.8,4.6-9.3
					c0.1-0.1,0.2-0.2,0.3-0.3c2.4-2.3,6.3-3.5,9.3-1.9c2.3,1.3,3.5,3.9,3.8,6.5c0.5,4.6-0.5,9.6-1.4,14c-0.6,2.9-1.5,5.9-1.5,8.9
					c0,4.5,2.8,1.6,4.9-0.5c2.3-2.4,4.3-5,6.1-7.7c3.7-5.3,6.8-11.1,10.2-16.5c0,0,23.5-37.1,23.5-37.1c2.3-3.7,8.4-3.6,10.9-0.1
					c3.4,4.8-2.1,10.7-4.2,14.9c-3.6,6.9-7.2,13.8-10.7,20.7c-2.5,5-5.1,9.9-7.6,14.9c-1.5,2.9-4.1,5.4-5.6,8.3
					c-0.6,1.1-2.4,4-1.1,5.2c1.3,1.3,3.3-1.2,4.3-2c2.3-1.9,4.5-3.9,6.7-6c4.2-4,8.3-8.1,12.4-12.3c8.3-8.5,16.4-17.1,25.7-24.5
					c0.4-0.3,0.8-0.6,1.2-0.8c2.7-2.5,7.4-2.1,9.6,0.9c4.1,5.6-3.7,11.9-7,15.7c-5.3,6.2-10.9,12.1-16.2,18.3
					c-4,4.6-8,9.2-11.9,13.8c-1.4,1.6-9.5,7.5-7.5,10.3c1.7,2.4,7.6-3.3,9.1-4.1c3.6-2.1,7.2-4.2,10.8-6.4
					c7.1-4.3,14.2-8.8,21.1-13.4c0.6-0.4,1.3-0.7,2-0.9c1.9-1.4,3.8-2.8,5.7-4.2c3.4-2.5,8.5-0.7,9.7,3.4c1.7,5.9-5.3,9.1-9.1,11.9
					c-6,4.4-12.1,8.7-18.3,13c-4.3,3-8.7,6-13.1,9c-2.3,1.6-13.1,7.7-8.2,11.2c1,0.7,3.3-0.2,4.3-0.4c3.1-0.8,6-2.2,9-3.4
					c8-3.1,16-6.1,24-9c4.4-1.6,9.2,2.3,8.5,7c-1,6.8-13.1,8.4-18.3,10.2c-8.3,2.9-16.5,6-24.5,9.5c-1.4,0.6-2.8,1.2-4,2.1
					c-1.5,1.2-2.7,2.8-3.9,4.3c-11.1,13.7-28.2,23-45.4,26.5C644.2,498.3,642,498.7,639.9,498.9z"/>
				<path class="st10" d="M75.4,810.8c26.8,20.2,320.4,17.7,320.2,3.2c-0.5-35.1-5.9-73-10.9-110.2c-2.9-21-5.6-41.7-7.2-61.5
					c-3.9-46.7-17-193.7-18.8-219.7c-1.2-17-4.2-55.4-4.5-60c-2.2-1.5-4.4-3-6.6-4.4c-0.1,0-0.1-0.1-0.2-0.1c-1.6-1-3.5-2.1-5.6-3.3
					c0,0,0,0,0,0c-8.7-5.1-20.2-11.6-27.8-15.2c-19-9-38.5-14.5-59-17.5c-34.2-4.9-68,1-92.9,8c-22.3,6.2-37.4,13.3-39,14
					c-0.1,0-0.1,0.1-0.1,0.1s14.2,6.1,18,29.5c16.2,99.7-32.7,179-32.7,179s-12.4,86.8-19.6,131C84,711.9,71.7,808,75.4,810.8z"/>
				<g>
					<path class="st5" d="M193.1,249.8c0.9,5.2,1.8,10.3,2.8,15.5c0.1,0.3,0.1,0.6,0.2,0.9c0,0.1,0.1,0.3,0.1,0.4
						c1.2,6.8,2.4,13.7,3.3,20.5c0.3,2.8,0.6,5.5,0.8,8.3c0.2,3.1,0.3,6.2,0.4,9.3c0.1,6-0.1,11.9-0.3,17.9
						c-0.1,3.4-0.2,6.7-0.2,10.1c0,3.9-1.7,8.1-0.1,11.9c2,4.8,6.6,7.3,10.6,10.1c4.4,3.1,9.2,5.6,14.2,7.4c9.8,3.7,21,5.1,31.2,1.9
						c19.5-6,14.3-27.4,14.3-42.9c0,0,0-4.3,0-4.3l0-11.4l-0.1-16.2c-5.6-1.4-10.8-3.9-16-6.4c-17.1-8.4-34.2-17-50.9-26.2
						c-0.4-0.2-0.9-0.5-1.3-0.7C198.7,254.2,196,252.6,193.1,249.8z"/>
				</g>
				<g>
					<path class="st4" d="M270.3,321.2c-19.3-5-37.9-12.7-54.7-23.3c-5.4-3.3-10.9-6.9-16.2-10.8c-0.8-6.9-2.1-13.7-3.3-20.5
						c-1-5.6-2-11.2-3-16.8c3.2,3.1,6.3,4.8,10.3,7c16.7,9.2,33.7,17.8,50.9,26.2c5.2,2.5,10.4,5,16,6.4L270.3,321.2z"/>
				</g>
				<g>
					<g>
						<path class="st5" d="M203.4,254c-8.8,6.1-20.9,7.2-30.6,2.6c-8.2-3.9-14.3-11.8-16.3-20.6c-0.4-1.6-0.6-3.2-0.7-4.9
							c-0.1-2.9,0.2-5.8,1.2-8.6c2.5-6.7,9.3-11.5,16.4-11.9c7.1-0.5,14.3,3.2,18.6,8.9l4.4,13.3L203.4,254z"/>
					</g>
				</g>
				<polygon class="st5" points="360.8,1642.4 363.8,1562.1 294.6,1565.1 295.6,1649.4 346.7,1674.4 				"/>
				<path class="st11" d="M274.9,1683.4c1.8-7.3,5.9-13.8,9-20.6c1-2.2,9.4-22.3,10.7-22.2l1.6,0.2l51.9,7.5l12.7-17.5l1.8-2.4
					c8.9,4.5,17.9,9,26.8,13.5c17.8,9,35.6,17.9,53.4,26.9c13.2,6.6,26.4,13.3,39.5,19.9c3.3,1.7,5.8,4.8,6.5,8.4
					c0.7,3.7-2.9,10.9-8.3,12.2c-10.4,2.4-24.4,3.1-34.9,3.6c-21.2,0.8-40.4-0.2-61.6,0c-21.1,0.1-40.8-0.8-61.5-2
					c-8.2-0.5-16.5-1-25.1-1.5c-0.4,0-0.8-0.1-1.3-0.1c-5.7-0.3-14-1.2-18.3-5.2C272.1,1699.1,273.2,1690,274.9,1683.4z"/>
				<path class="st11" d="M156.7,1683.4c-1.8-7.3-5.9-13.8-9-20.6c-1-2.2-9.4-22.3-10.7-22.2l-1.6,0.2l-51.9,7.5l-12.7-17.5
					l-1.8-2.4c-8.9,4.5-17.9,9-26.8,13.5c-17.8,9-35.6,17.9-53.4,26.9c-13.2,6.6-26.4,13.3-39.5,19.9c-3.3,1.7-5.8,4.8-6.5,8.4
					c-0.7,3.7,2.9,10.9,8.3,12.2c10.4,2.4,24.4,3.1,34.9,3.6c21.2,0.8,40.4-0.2,61.6,0c21.1,0.1,40.8-0.8,61.5-2
					c8.2-0.5,16.5-1,25.1-1.5c0.4,0,0.8-0.1,1.3-0.1c5.7-0.3,14-1.2,18.3-5.2C159.5,1699.1,158.4,1690,156.7,1683.4z"/>
				<g>
					<path class="st8" d="M205.5,847.9c0,0-0.6,12.4-2.9,23.4c-0.2,1.1-0.5,2.3-0.7,3.3c-0.7,2.9-1.5,5.5-2.5,7.7
						c-0.6,1.2-1.1,2.3-1.8,3.1c-0.4,0.6-0.9,1.1-1.4,1.4c-3.9,3.1-53-7.4-78.6-17.2c-23.3-8.9-59.8-22.7-61.3-29.4
						c-0.3-1.4-0.4-3.1-0.3-5c0-1.2,0.2-2.5,0.3-3.8v0c0.3-2.3,0.7-4.9,1.2-7.5c0.2-1.2,0.5-2.4,0.8-3.6c2.4-10.9,5.9-21.5,5.9-21.5
						L205.5,847.9z"/>
					<g>
						<path class="st9" d="M199.3,882.3c-0.6,1.2-1.1,2.3-1.8,3.1c-7.4-1.7-14.8-3.5-22.1-5.4c-26-6.8-51.6-15.1-76.7-24.7
							c-12.5-4.7-24.9-9.6-36.4-16.4c-2.1-1.3-4.2-2.5-6.4-3.7c0-1.2,0.2-2.5,0.3-3.8c4.3,2.4,8.4,5,12.7,7.4
							c11.4,6.4,24,10.7,36.2,15.3c12.4,4.6,24.8,8.9,37.4,12.8C161.3,872.8,180.2,878,199.3,882.3z"/>
						<path class="st9" d="M202.6,871.3c-0.2,1.1-0.5,2.3-0.7,3.3c-8.5-1.9-16.9-3.9-25.3-6.1c-26-6.8-51.6-15.1-76.7-24.7
							c-12.5-4.7-24.9-9.6-36.4-16.4c-2-1.2-4-2.3-6-3.5c0.2-1.2,0.5-2.4,0.8-3.6c4,2.3,7.9,4.7,11.9,6.9
							c11.4,6.4,24,10.7,36.2,15.3c12.4,4.6,24.8,8.9,37.4,12.8C163.1,861.6,182.8,866.9,202.6,871.3z"/>
					</g>
				</g>
				<path class="st12" d="M206,861.5c-9.2,13.8-104.2-27.2-135.7-40.2c-23.9-9.9-15.2-24.1-12.6-42.5
					c7.5-54.5,16.7-101.3,25.7-151.5c3.4-19.1,6.8-38.7,10.1-59.4c0.1-0.9,0.3-1.7,0.4-2.5c-4,13.3-11.3,40.6-14.4,50.1
					c-17.2,54-44.8,181.7-73.6,186.3c-5,0.8-59.6-18.4-62.1-25.3C-73.4,728.1-19.9,551-11.3,529.1c14.9-37.9,62.2-135.6,74.7-151.8
					c24.1-31,102.5-49.3,106.4-50.4c11.3-3.2,22.7-6.1,34.2-8.6c11.4,26.9,14.1,53.4,17,82.5C236.5,556,213.3,850.6,206,861.5z"/>
				<g>
					<polygon class="st8" points="231.3,352.1 230.5,356.4 229.7,360.9 228.3,368.2 227.4,372.6 225.1,384.8 224.3,389 221.4,404.5 
						173.8,325.6 177.1,321 179.4,317.9 183.4,312.3 185.6,309.2 189,304.5 191.2,301.4 194.5,296.9 					"/>
					<g>
						<path class="st9" d="M230.5,356.4l-0.8,4.5c-7.5-9.5-14.8-19.1-21.9-28.8c-6.6-8.9-13.5-17.8-18.7-27.6l2.2-3.1
							c2.6,5.1,5.8,9.9,9.1,14.7C210.1,329.8,220.2,343.2,230.5,356.4z"/>
						<path class="st9" d="M228.3,368.2l-0.8,4.4c-8.5-10-16.8-20.1-24.7-30.6c-7.1-9.4-13.8-19.2-19.3-29.7l2.3-3.1
							c2.6,5,5.4,9.9,8.4,14.6c8.3,12.9,18.1,24.9,27.8,36.8C224,363.2,226.1,365.7,228.3,368.2z"/>
						<path class="st9" d="M225.1,384.8l-0.8,4.2c-9.9-10.7-18.9-22.2-27.2-34.2c-4.8-7.1-9.4-14.4-13.6-21.8
							c-2.1-3.8-4.2-7.6-6.2-11.4c-0.1-0.2-0.2-0.3-0.3-0.5l2.3-3.2c0.6,1.1,1.2,2.3,1.7,3.4c2.2,4.3,4.5,8.5,6.9,12.7
							c8.5,14.7,18.3,28.7,29.2,41.8C219.8,378.8,222.5,381.8,225.1,384.8z"/>
					</g>
				</g>
				<path class="st13" d="M101.4,591.2c-5,12.2-10.9,24.6-18,36c3.4-19.1,6.8-38.7,10.1-59.4c2.1-4.7,22.6-51.9,28.6-100.8
					C124.4,526.8,111.7,565.9,101.4,591.2z"/>
				<g>
					<path class="st8" d="M608.2,529.6c0,0,9-4.4,17.7-10.1c0.9-0.6,1.8-1.2,2.7-1.8c2.9-2,5.6-4.2,7.8-6.3c0.8-0.8,1.6-1.6,2.3-2.4
						c1.6-1.9,2.6-3.8,2.8-5.5c0.9-8.1-29.9-42.5-35.2-43.2c-1.9-0.3-4.3,0.2-7,1.1c-1.1,0.4-2.3,0.8-3.4,1.3
						c-2.9,1.3-6,2.9-9.1,4.6c-1,0.6-2,1.2-3,1.8c-8.6,5.2-15.9,10.8-15.9,10.8L608.2,529.6z"/>
					<g>
						<path class="st9" d="M625.9,519.5c0.9-0.6,1.8-1.2,2.7-1.8c-1.2-1.8-2.4-3.5-3.6-5.3c-7-10-14.3-19.8-22.4-28.9
							c-4-4.6-8.3-9-12.7-13.2c-1-1-2-2-3.1-2.9c-1,0.6-2,1.2-3,1.8c2.2,1.9,4.3,4,6.4,6C603.8,488.5,615.3,503.7,625.9,519.5z"/>
						<path class="st9" d="M636.5,511.3c0.8-0.8,1.6-1.6,2.3-2.4c-0.8-1.2-1.6-2.4-2.5-3.6c-10.8-15.7-22.5-31.3-36.9-43.9
							c-1.1,0.4-2.3,0.8-3.4,1.3c1.3,1.1,2.5,2.2,3.7,3.3c9.2,8.4,17.1,18,24.5,27.9C628.4,499.6,632.5,505.4,636.5,511.3z"/>
					</g>
				</g>
				<g>
					<path class="st8" d="M267.3,847.9c0,0,0.6,12.4,2.9,23.4c0.2,1.1,0.5,2.3,0.7,3.3c0.7,2.9,1.5,5.5,2.5,7.7
						c0.6,1.2,1.1,2.3,1.8,3.1c0.4,0.6,0.9,1.1,1.4,1.4c3.9,3.1,53-7.4,78.6-17.2c23.3-8.9,59.8-22.7,61.3-29.4
						c0.3-1.4,0.4-3.1,0.3-5c0-1.2-0.2-2.5-0.3-3.8v0c-0.3-2.3-0.7-4.9-1.2-7.5c-0.2-1.2-0.5-2.4-0.8-3.6
						c-2.4-10.9-5.9-21.5-5.9-21.5L267.3,847.9z"/>
					<g>
						<path class="st9" d="M273.5,882.3c0.6,1.2,1.1,2.3,1.8,3.1c7.4-1.7,14.8-3.5,22.1-5.4c26-6.8,51.6-15.1,76.7-24.7
							c12.5-4.7,24.9-9.6,36.4-16.4c2.1-1.3,4.2-2.5,6.4-3.7c0-1.2-0.2-2.5-0.3-3.8c-4.3,2.4-8.4,5-12.7,7.4
							c-11.4,6.4-24,10.7-36.2,15.3c-12.4,4.6-24.8,8.9-37.4,12.8C311.5,872.8,292.6,878,273.5,882.3z"/>
						<path class="st9" d="M270.2,871.3c0.2,1.1,0.5,2.3,0.7,3.3c8.5-1.9,16.9-3.9,25.3-6.1c26-6.8,51.6-15.1,76.7-24.7
							c12.5-4.7,24.9-9.6,36.4-16.4c2-1.2,4-2.3,6-3.5c-0.2-1.2-0.5-2.4-0.8-3.6c-4,2.3-7.9,4.7-11.9,6.9
							c-11.4,6.4-24,10.7-36.2,15.3c-12.4,4.6-24.8,8.9-37.4,12.8C309.7,861.6,290,866.9,270.2,871.3z"/>
					</g>
				</g>
				<path class="st12" d="M621.2,526.8c-21,29.4-175.7,196.6-223.1,98.9c-0.7-1.4-1.5-3.6-2.5-6.3c-5.1-14.2-13.3-43-16.7-54.2
					c0.1,0.9,0.3,1.7,0.4,2.5c0.3,1.7,0.5,3.3,0.8,5c3,18.8,6.2,36.8,9.3,54.4c9,50.1,18.1,97,25.7,151.5
					c2.6,18.5,11.2,32.7-12.6,42.5c-31.5,13-126.5,54-135.7,40.2c-4.6-6.9-0.9-129.3-4.4-256.4c-2-73.5-16.3-147.4-10.6-204.2
					c2.9-29.1,5.7-55.6,17-82.5c11.5,2.6,22.9,5.4,34.2,8.6c3.9,1.1,82.2,19.3,106.4,50.4c12.6,16.2,66.9,150.6,66.9,150.6
					s46.5-34.7,102.3-58.6C586.7,465.9,626.9,518.8,621.2,526.8z"/>
				<g>
					<polygon class="st8" points="241.4,352.1 242.3,356.4 243.1,360.9 244.5,368.2 245.4,372.6 247.7,384.8 248.5,389 251.4,404.5 
						298.9,325.6 295.6,321 293.4,317.9 289.4,312.3 287.1,309.2 283.8,304.5 281.5,301.4 278.2,296.9 					"/>
					<g>
						<path class="st9" d="M242.3,356.4l0.8,4.5c7.5-9.5,14.8-19.1,21.9-28.8c6.6-8.9,13.5-17.8,18.7-27.6l-2.2-3.1
							c-2.6,5.1-5.8,9.9-9.1,14.7C262.7,329.8,252.6,343.2,242.3,356.4z"/>
						<path class="st9" d="M244.5,368.2l0.8,4.4c8.5-10,16.8-20.1,24.7-30.6c7.1-9.4,13.8-19.2,19.3-29.7l-2.3-3.1
							c-2.6,5-5.4,9.9-8.4,14.6c-8.3,12.9-18.1,24.9-27.8,36.8C248.8,363.2,246.7,365.7,244.5,368.2z"/>
						<path class="st9" d="M247.7,384.8l0.8,4.2c9.9-10.7,18.9-22.2,27.2-34.2c4.8-7.1,9.4-14.4,13.6-21.8c2.1-3.8,4.2-7.6,6.2-11.4
							c0.1-0.2,0.2-0.3,0.3-0.5l-2.3-3.2c-0.6,1.1-1.2,2.3-1.7,3.4c-2.2,4.3-4.5,8.5-6.9,12.7c-8.5,14.7-18.3,28.7-29.2,41.8
							C252.9,378.8,250.3,381.8,247.7,384.8z"/>
					</g>
				</g>
				<g>
					<path class="st5" d="M303.4,269.6c-4.3,10.4-10.1,19.8-19.8,25.9c-8.6,5.4-18.9,8-29,7.6c-11.2-0.5-21.9-4.4-31.4-10.4
						c-4.7-3-9.2-6.5-13.2-10.3c-7-6.7-12.9-14.6-18-22.8c-8.3-13.5-14.9-28.8-18.2-44.7c-3.8-17.9-3.2-36.5,4.1-53.7
						c3-7,7.1-13.5,12.2-19.2c21.5-23.9,58.4-28,84.6-9.5c13.7,9.7,23.9,24.2,29.3,40c1.7,5,3.2,10.1,4.4,15.3
						C314.7,214.8,313.8,244.1,303.4,269.6z"/>
				</g>
				<g>
					<g>
						<g>
							<path class="st14" d="M249.1,221.6c-1.4,0.1-3.3-2.2-3.9-5.5c-0.3-1.8-0.1-3.5,0.5-4.8c0.2-0.5,0.8-1.5,1.6-1.7
								c0,0,0.1,0,0.1,0c1.4-0.1,3.3,2.2,3.9,5.5c0.3,1.8,0.1,3.5-0.5,4.8c-0.2,0.5-0.8,1.5-1.6,1.7
								C249.2,221.6,249.1,221.6,249.1,221.6z"/>
							<path class="st14" d="M291.2,217.5c-1.2,0.1-3.2-1.9-3.7-5.3c-0.3-1.7-0.1-3.4,0.5-4.7c0.4-0.9,1-1.5,1.5-1.6
								c0,0,0.1,0,0.1,0c1.2-0.1,3.2,1.9,3.7,5.3c0.3,1.7,0.1,3.4-0.5,4.7c-0.4,0.9-1,1.5-1.5,1.6
								C291.3,217.5,291.3,217.5,291.2,217.5L291.2,217.5z"/>
							<path class="st14" d="M270.1,225.2c1.1-1.2,3-1.7,4.7-1.4c1.8,0.3,3.4,1.6,4.3,3.2c0.9,1.6,1,3.7,0.2,5.3
								c-0.7,1.6-2.2,2.9-3.9,3.1c1.1-1.1,1.8-2.4,2-3.7c0.2-1.3,0-2.5-0.5-3.6c-0.6-1.1-1.4-2-2.6-2.5
								C273.1,225.1,271.7,224.9,270.1,225.2z"/>
						</g>
						<g>
							<path class="st14" d="M250.4,191.3c-2-1-4.2-1.6-6.5-1.7c-2.4-0.1-4.8,0.2-6.9,1.1c-1.7,0.7-2.5,2.6-1.9,4.2
								c0.3,0.9,1,1.5,1.8,1.9c0.3,0.1,0.7,0.2,1,0.2c0.5,0,0.9,0,1.4-0.2c1.3-0.5,2.8-0.7,4.2-0.7c1.4,0.1,2.8,0.4,4,1
								c0.4,0.2,0.8,0.3,1.3,0.3c1.3,0.1,2.5-0.6,3.1-1.8C252.7,194,252,192.1,250.4,191.3z"/>
							<path class="st14" d="M290.6,184.4c-0.8-0.2-1.5-0.3-2.3-0.3c-3.5-0.2-7,0.8-9.8,2.7c-1.5,1-1.9,3.1-0.9,4.6
								c0.4,0.7,1.1,1.1,1.9,1.3c0.2,0.1,0.4,0.1,0.7,0.1c0.7,0,1.4-0.2,2-0.6c1.6-1.1,3.7-1.7,5.7-1.6c0.5,0,0.9,0.1,1.3,0.2
								c0.2,0,0.3,0.1,0.5,0.1c1.6,0.1,3-1,3.4-2.6C293.5,186.6,292.4,184.8,290.6,184.4z"/>
						</g>
						<path class="st9" d="M248.3,211.8c-2.1-0.4-2.7,2.8-0.7,3.2C249.7,215.5,250.3,212.3,248.3,211.8z"/>
						<path class="st9" d="M291.1,207.7c-2.1-0.4-2.7,2.8-0.7,3.2C292.5,211.3,293.2,208.1,291.1,207.7z"/>
						<g>
							<path class="st15" d="M295.7,241.4c0.6,5.7-0.4,11.1-2.7,15.7c-3.5,7.4-10.2,12.7-18.2,13.5c-8.2,0.8-15.9-3.2-20.9-10
								c-2.9-4-4.9-8.9-5.4-14.4c0-0.2,0-0.4,0-0.6l47.1-4.8C295.6,241,295.6,241.2,295.7,241.4z"/>
							<path class="st9" d="M293.7,241c-4.7,6.1-12.1,10.4-20.7,11.3c-8.6,0.9-16.7-1.9-22.6-6.9L293.7,241z"/>
							<path class="st16" d="M293,257.1c-3.5,7.4-10.2,12.7-18.2,13.5c-8.2,0.8-15.9-3.2-20.9-10c7.9-2.6,16.1-4,24.4-4.3
								C283.2,256.1,288.1,256.4,293,257.1z"/>
						</g>
					</g>
					<g>
						<path class="st4" d="M246.4,234.6c0.3,5.4-5.4,10-12.7,10.4c-7.3,0.4-13.4-3.6-13.7-9c-0.3-5.4,5.4-10,12.7-10.4
							C240,225.2,246.2,229.2,246.4,234.6z"/>
						<path class="st4" d="M307.8,225.8c0.2,3.6-3.6,6.8-8.5,7c-4.9,0.3-9.1-2.5-9.2-6.1c-0.2-3.6,3.6-6.8,8.5-7
							C303.5,219.5,307.6,222.2,307.8,225.8z"/>
					</g>
				</g>
				<path class="st13" d="M395.6,619.5c-5.1-14.2-13.3-43-16.7-54.2c0.1,0.9,0.3,1.7,0.4,2.5c0.3,1.7,0.5,3.3,0.8,5l-1.5-8.1
					l-8.3-124.9c0,0,26.3,117.9,26.7,157.9C396.9,601.9,396.3,610.7,395.6,619.5z"/>
				<polygon class="st17" points="49.6,1549.2 49.6,1597.4 163.5,1599.8 168.1,1551.6 				"/>
				<polygon class="st17" points="271.6,1554.3 273.9,1602.1 386.4,1599.5 391.2,1549.2 				"/>
				<path class="st2" d="M169.5,147.2c-2.1-8.3,0.6-17.6,6-23.9c5.4-6.3,13.1-10,21.1-11.3c7.9-1.3,16-0.4,23.9,1.2
					c7.6,1.5,15.2,3.7,22.9,3.3c9.4-0.6,18.6-5.4,24.8-13c5.9-7.2,18.6-6.2,26.2-1.1c7.7,5.1,15.2,13.9,16.8,23.5
					c1.5,9.1,0.7,24.4-13.7,32.8c-16.9,9.9-69.9,6.4-77.1,6.2c-7.2-0.2-14.9,1.7-19.6,7.5c-9.4,11.5-11.2,28.7-11.9,44.1
					c-5.5-3.1-10.8-4.4-17.1-4.4c-2.7,0-5.7,0.2-9.1,2.7c-5.9-11.5-9.4-23.8-12.1-36.5c-1.3-6.3-2.3-12.9-1.5-19.3
					c0.3-2.4,0.9-4.9,2.2-6.9c2-3,5.4-4.7,8.8-5.1C163.7,146.3,166.2,146.2,169.5,147.2z"/>
			</g>
		</g>
	</g>
	<g>
		<path class="st18" d="M250.1,493c-0.7,0-1.3-0.6-1.3-1.3c0-0.7,0.6-1.3,1.3-1.3c2.3,0,4.6,0,6.9-0.1c0.7,0,1.3,0.5,1.3,1.3
			c0,0.7-0.5,1.3-1.3,1.3C254.7,492.9,252.4,493,250.1,493z M243.2,492.9C243.2,492.9,243.2,492.9,243.2,492.9
			c-2.3-0.1-4.7-0.2-7-0.3c-0.7,0-1.3-0.6-1.2-1.4c0-0.7,0.6-1.3,1.4-1.2c2.3,0.1,4.6,0.2,6.9,0.3c0.7,0,1.3,0.6,1.3,1.3
			C244.5,492.3,243.9,492.9,243.2,492.9z M263.9,492.6c-0.7,0-1.2-0.5-1.3-1.2c0-0.7,0.5-1.3,1.2-1.4c2.3-0.1,4.6-0.3,6.8-0.5
			c0.7-0.1,1.3,0.5,1.4,1.2c0.1,0.7-0.5,1.3-1.2,1.4C268.6,492.3,266.3,492.4,263.9,492.6C264,492.6,263.9,492.6,263.9,492.6z
			 M229.4,492.1c0,0-0.1,0-0.1,0c-2.3-0.2-4.6-0.4-6.9-0.7c-0.7-0.1-1.2-0.7-1.1-1.4c0.1-0.7,0.7-1.2,1.4-1.1
			c2.3,0.3,4.6,0.5,6.8,0.7c0.7,0.1,1.2,0.7,1.2,1.4C230.7,491.6,230.1,492.1,229.4,492.1z M277.7,491.4c-0.6,0-1.2-0.5-1.3-1.1
			c-0.1-0.7,0.4-1.3,1.1-1.4c2.3-0.3,4.5-0.6,6.8-0.9c0.7-0.1,1.4,0.4,1.5,1.1c0.1,0.7-0.4,1.4-1.1,1.5c-2.3,0.3-4.6,0.6-6.9,0.9
			C277.8,491.4,277.7,491.4,277.7,491.4z M215.7,490.5c-0.1,0-0.1,0-0.2,0c-2.3-0.3-4.6-0.7-6.9-1.1c-0.7-0.1-1.2-0.8-1.1-1.5
			c0.1-0.7,0.8-1.2,1.5-1.1c2.2,0.4,4.5,0.7,6.8,1.1c0.7,0.1,1.2,0.8,1.1,1.5C216.9,490.1,216.4,490.5,215.7,490.5z M291.3,489.4
			c-0.6,0-1.2-0.4-1.3-1.1c-0.1-0.7,0.4-1.4,1.1-1.5c2.2-0.4,4.5-0.8,6.7-1.3c0.7-0.1,1.4,0.3,1.5,1c0.1,0.7-0.3,1.4-1,1.5
			c-2.3,0.5-4.6,0.9-6.8,1.3C291.5,489.4,291.4,489.4,291.3,489.4z M202.1,488.2c-0.1,0-0.2,0-0.3,0c-2.3-0.5-4.5-0.9-6.8-1.5
			c-0.7-0.2-1.1-0.9-1-1.5c0.2-0.7,0.9-1.1,1.5-1c2.2,0.5,4.5,1,6.7,1.4c0.7,0.1,1.2,0.8,1,1.5C203.3,487.8,202.7,488.2,202.1,488.2
			z M304.8,486.7c-0.6,0-1.1-0.4-1.3-1c-0.2-0.7,0.3-1.4,1-1.5c2.2-0.5,4.5-1.1,6.7-1.6c0.7-0.2,1.4,0.2,1.6,0.9
			c0.2,0.7-0.2,1.4-0.9,1.6c-2.2,0.6-4.5,1.1-6.7,1.7C305,486.7,304.9,486.7,304.8,486.7z M188.7,485.1c-0.1,0-0.2,0-0.3,0
			c-2.2-0.6-4.5-1.2-6.7-1.9c-0.7-0.2-1.1-0.9-0.9-1.6c0.2-0.7,0.9-1.1,1.6-0.9c2.2,0.6,4.4,1.3,6.6,1.8c0.7,0.2,1.1,0.9,0.9,1.6
			C189.8,484.7,189.3,485.1,188.7,485.1z M318.2,483.2c-0.6,0-1.1-0.4-1.2-0.9c-0.2-0.7,0.2-1.4,0.9-1.6c2.2-0.6,4.4-1.3,6.6-2
			c0.7-0.2,1.4,0.1,1.6,0.8c0.2,0.7-0.2,1.4-0.8,1.6c-2.2,0.7-4.4,1.4-6.6,2C318.4,483.2,318.3,483.2,318.2,483.2z M175.4,481.2
			c-0.1,0-0.3,0-0.4-0.1c-2.2-0.7-4.4-1.5-6.6-2.2c-0.7-0.2-1-1-0.8-1.6c0.2-0.7,1-1,1.6-0.8c2.1,0.8,4.3,1.5,6.5,2.2
			c0.7,0.2,1,0.9,0.8,1.6C176.5,480.9,176,481.2,175.4,481.2z M331.3,478.9c-0.5,0-1-0.3-1.2-0.9c-0.2-0.7,0.1-1.4,0.8-1.6
			c2.1-0.8,4.3-1.6,6.4-2.4c0.7-0.3,1.4,0.1,1.7,0.7c0.3,0.7-0.1,1.4-0.7,1.7c-2.1,0.8-4.3,1.7-6.5,2.4
			C331.6,478.9,331.5,478.9,331.3,478.9z M162.4,476.6c-0.2,0-0.3,0-0.5-0.1c-2.2-0.8-4.3-1.7-6.4-2.6c-0.7-0.3-1-1-0.7-1.7
			c0.3-0.7,1-1,1.7-0.7c2.1,0.9,4.2,1.8,6.4,2.6c0.7,0.3,1,1,0.7,1.7C163.4,476.3,162.9,476.6,162.4,476.6z M344.2,473.9
			c-0.5,0-1-0.3-1.2-0.8c-0.3-0.7,0-1.4,0.7-1.7c2.1-0.9,4.2-1.8,6.3-2.8c0.6-0.3,1.4,0,1.7,0.6c0.3,0.6,0,1.4-0.6,1.7
			c-2.1,1-4.2,1.9-6.3,2.8C344.5,473.9,344.3,473.9,344.2,473.9z M149.6,471.2c-0.2,0-0.4,0-0.5-0.1c-2.1-1-4.2-2-6.3-3
			c-0.6-0.3-0.9-1.1-0.6-1.7c0.3-0.6,1.1-0.9,1.7-0.6c2,1,4.1,2,6.2,2.9c0.6,0.3,0.9,1.1,0.6,1.7
			C150.6,470.9,150.1,471.2,149.6,471.2z M356.7,468.2c-0.5,0-0.9-0.3-1.2-0.7c-0.3-0.6-0.1-1.4,0.6-1.7c2-1,4.1-2.1,6.1-3.1
			c0.6-0.3,1.4-0.1,1.7,0.5c0.3,0.6,0.1,1.4-0.5,1.7c-2,1.1-4.1,2.1-6.2,3.1C357,468.2,356.9,468.2,356.7,468.2z M137.2,465.1
			c-0.2,0-0.4,0-0.6-0.1c-2-1.1-4.1-2.2-6.1-3.3c-0.6-0.4-0.8-1.1-0.5-1.8c0.4-0.6,1.1-0.8,1.8-0.5c2,1.1,4,2.2,6,3.3
			c0.6,0.3,0.9,1.1,0.5,1.7C138.2,464.8,137.7,465.1,137.2,465.1z M368.8,461.8c-0.4,0-0.9-0.2-1.1-0.7c-0.4-0.6-0.1-1.4,0.5-1.8
			c2-1.1,4-2.3,5.9-3.5c0.6-0.4,1.4-0.2,1.8,0.4c0.4,0.6,0.2,1.4-0.4,1.8c-2,1.2-4,2.4-6,3.5C369.3,461.7,369,461.8,368.8,461.8z
			 M125.2,458.3c-0.2,0-0.5-0.1-0.7-0.2c-2-1.2-4-2.4-5.9-3.7c-0.6-0.4-0.8-1.2-0.4-1.8c0.4-0.6,1.2-0.8,1.8-0.4
			c1.9,1.2,3.9,2.5,5.8,3.6c0.6,0.4,0.8,1.2,0.4,1.8C126.1,458.1,125.6,458.3,125.2,458.3z M380.6,454.6c-0.4,0-0.8-0.2-1.1-0.6
			c-0.4-0.6-0.2-1.4,0.4-1.8c1.9-1.2,3.8-2.5,5.7-3.8c0.6-0.4,1.4-0.3,1.8,0.3c0.4,0.6,0.3,1.4-0.3,1.8c-1.9,1.3-3.8,2.6-5.8,3.8
			C381.1,454.6,380.9,454.6,380.6,454.6z M113.6,450.8c-0.3,0-0.5-0.1-0.7-0.2c-1.9-1.3-3.8-2.6-5.7-4c-0.6-0.4-0.7-1.2-0.3-1.8
			c0.4-0.6,1.2-0.7,1.8-0.3c1.8,1.3,3.7,2.7,5.6,4c0.6,0.4,0.7,1.2,0.3,1.8C114.4,450.6,114,450.8,113.6,450.8z M392,446.9
			c-0.4,0-0.8-0.2-1-0.5c-0.4-0.6-0.3-1.4,0.3-1.8c1.8-1.3,3.7-2.7,5.5-4.1c0.6-0.4,1.4-0.3,1.8,0.2c0.4,0.6,0.3,1.4-0.2,1.8
			c-1.8,1.4-3.7,2.8-5.5,4.2C392.5,446.8,392.3,446.9,392,446.9z M102.4,442.7c-0.3,0-0.6-0.1-0.8-0.3c-1.8-1.4-3.6-2.9-5.4-4.3
			c-0.6-0.5-0.6-1.3-0.2-1.8c0.5-0.6,1.3-0.6,1.8-0.2c1.8,1.4,3.6,2.9,5.4,4.3c0.6,0.4,0.7,1.2,0.2,1.8
			C103.2,442.5,102.8,442.7,102.4,442.7z M402.9,438.4c-0.4,0-0.7-0.2-1-0.5c-0.5-0.6-0.4-1.4,0.2-1.8c1.8-1.4,3.5-2.9,5.2-4.4
			c0.5-0.5,1.4-0.4,1.8,0.1c0.5,0.5,0.4,1.4-0.1,1.8c-1.7,1.5-3.5,3-5.3,4.5C403.5,438.3,403.2,438.4,402.9,438.4z M91.7,433.9
			c-0.3,0-0.6-0.1-0.8-0.3c-1.7-1.5-3.5-3.1-5.2-4.6c-0.5-0.5-0.6-1.3-0.1-1.8c0.5-0.5,1.3-0.6,1.8-0.1c1.7,1.5,3.4,3.1,5.1,4.6
			c0.5,0.5,0.6,1.3,0.1,1.8C92.5,433.8,92.1,433.9,91.7,433.9z M413.3,429.4c-0.3,0-0.7-0.1-1-0.4c-0.5-0.5-0.4-1.3,0.1-1.8
			c1.7-1.5,3.4-3.1,5-4.7c0.5-0.5,1.3-0.5,1.8,0c0.5,0.5,0.5,1.3,0,1.8c-1.6,1.6-3.3,3.2-5,4.8C414,429.3,413.6,429.4,413.3,429.4z
			 M81.6,424.6c-0.3,0-0.6-0.1-0.9-0.4c-1.7-1.6-3.3-3.3-4.9-4.9c-0.5-0.5-0.5-1.3,0-1.8c0.5-0.5,1.3-0.5,1.8,0
			c1.6,1.6,3.2,3.3,4.9,4.9c0.5,0.5,0.5,1.3,0,1.8C82.2,424.5,81.9,424.6,81.6,424.6z M423.2,419.8c-0.3,0-0.6-0.1-0.9-0.4
			c-0.5-0.5-0.5-1.3,0-1.8c1.6-1.6,3.2-3.3,4.7-5c0.5-0.5,1.3-0.6,1.8-0.1c0.5,0.5,0.6,1.3,0.1,1.8c-1.6,1.7-3.2,3.4-4.8,5
			C423.9,419.7,423.6,419.8,423.2,419.8z M72,414.7c-0.3,0-0.7-0.1-1-0.4c-1.6-1.7-3.1-3.4-4.6-5.2c-0.5-0.5-0.4-1.4,0.1-1.8
			c0.5-0.5,1.4-0.4,1.8,0.1c1.5,1.7,3,3.4,4.6,5.1c0.5,0.5,0.4,1.3-0.1,1.8C72.6,414.6,72.3,414.7,72,414.7z M432.6,409.6
			c-0.3,0-0.6-0.1-0.8-0.3c-0.5-0.5-0.6-1.3-0.1-1.8c1.5-1.7,3-3.5,4.4-5.2c0.5-0.6,1.3-0.6,1.8-0.2c0.6,0.5,0.6,1.3,0.2,1.8
			c-1.5,1.8-3,3.6-4.5,5.3C433.3,409.5,432.9,409.6,432.6,409.6z M62.9,404.3c-0.4,0-0.7-0.2-1-0.5c-1.5-1.8-2.9-3.6-4.3-5.4
			c-0.4-0.6-0.3-1.4,0.2-1.8c0.6-0.4,1.4-0.3,1.8,0.2c1.4,1.8,2.8,3.6,4.3,5.4c0.5,0.6,0.4,1.4-0.2,1.8
			C63.5,404.2,63.2,404.3,62.9,404.3z M441.3,399c-0.3,0-0.6-0.1-0.8-0.3c-0.6-0.4-0.7-1.2-0.2-1.8c1.4-1.8,2.8-3.7,4.1-5.5
			c0.4-0.6,1.2-0.7,1.8-0.3c0.6,0.4,0.7,1.2,0.3,1.8c-1.4,1.9-2.8,3.7-4.2,5.6C442.1,398.8,441.7,399,441.3,399z M54.5,393.4
			c-0.4,0-0.8-0.2-1-0.5c-1.4-1.9-2.7-3.8-4-5.7c-0.4-0.6-0.3-1.4,0.3-1.8c0.6-0.4,1.4-0.3,1.8,0.3c1.3,1.9,2.6,3.8,4,5.6
			c0.4,0.6,0.3,1.4-0.3,1.8C55,393.3,54.8,393.4,54.5,393.4z M449.5,387.8c-0.3,0-0.5-0.1-0.7-0.2c-0.6-0.4-0.7-1.2-0.3-1.8
			c1.3-1.9,2.6-3.8,3.8-5.7c0.4-0.6,1.2-0.8,1.8-0.4c0.6,0.4,0.8,1.2,0.4,1.8c-1.2,1.9-2.5,3.9-3.8,5.8
			C450.3,387.6,449.9,387.8,449.5,387.8z M46.7,382c-0.4,0-0.8-0.2-1.1-0.6c-1.2-1.9-2.5-3.9-3.7-5.9c-0.4-0.6-0.2-1.4,0.4-1.8
			c0.6-0.4,1.4-0.2,1.8,0.4c1.2,1.9,2.4,3.9,3.6,5.8c0.4,0.6,0.2,1.4-0.4,1.8C47.2,381.9,46.9,382,46.7,382z M456.9,376.2
			c-0.2,0-0.5-0.1-0.7-0.2c-0.6-0.4-0.8-1.2-0.4-1.8c1.2-1.9,2.3-3.9,3.5-5.9c0.4-0.6,1.1-0.8,1.8-0.5c0.6,0.4,0.8,1.1,0.5,1.8
			c-1.1,2-2.3,4-3.5,6C457.8,376,457.4,376.2,456.9,376.2z M39.6,370.2c-0.4,0-0.9-0.2-1.1-0.7c-1.1-2-2.3-4-3.3-6.1
			c-0.3-0.6-0.1-1.4,0.5-1.7c0.6-0.3,1.4-0.1,1.7,0.5c1.1,2,2.2,4,3.3,6c0.4,0.6,0.1,1.4-0.5,1.8C40,370.2,39.8,370.2,39.6,370.2z
			 M463.7,364.1c-0.2,0-0.4,0-0.6-0.2c-0.6-0.3-0.9-1.1-0.5-1.7c1.1-2,2.1-4.1,3.1-6.1c0.3-0.6,1.1-0.9,1.7-0.6
			c0.6,0.3,0.9,1.1,0.6,1.7c-1,2.1-2.1,4.2-3.2,6.2C464.7,363.9,464.2,364.1,463.7,364.1z M33.1,358.1c-0.5,0-0.9-0.3-1.2-0.7
			c-1-2.1-2-4.2-3-6.2c-0.3-0.6,0-1.4,0.6-1.7c0.6-0.3,1.4,0,1.7,0.6c0.9,2.1,1.9,4.1,2.9,6.2c0.3,0.6,0.1,1.4-0.6,1.7
			C33.5,358,33.3,358.1,33.1,358.1z M469.9,351.7c-0.2,0-0.4,0-0.5-0.1c-0.6-0.3-0.9-1.1-0.6-1.7c0.9-2.1,1.9-4.2,2.8-6.3
			c0.3-0.7,1-1,1.7-0.7c0.7,0.3,1,1,0.7,1.7c-0.9,2.1-1.8,4.3-2.8,6.4C470.8,351.5,470.4,351.7,469.9,351.7z M27.4,345.5
			c-0.5,0-1-0.3-1.2-0.8c-0.9-2.1-1.8-4.3-2.6-6.4c-0.3-0.7,0.1-1.4,0.7-1.7c0.7-0.3,1.4,0.1,1.7,0.7c0.8,2.1,1.7,4.2,2.6,6.3
			c0.3,0.7,0,1.4-0.7,1.7C27.7,345.5,27.6,345.5,27.4,345.5z M475.3,339c-0.2,0-0.3,0-0.5-0.1c-0.7-0.3-1-1-0.7-1.7
			c0.8-2.1,1.6-4.3,2.4-6.4c0.2-0.7,1-1,1.6-0.8c0.7,0.2,1,1,0.8,1.6c-0.8,2.2-1.6,4.4-2.4,6.5C476.3,338.7,475.8,339,475.3,339z
			 M22.4,332.7c-0.5,0-1-0.3-1.2-0.9c-0.8-2.2-1.5-4.4-2.2-6.6c-0.2-0.7,0.1-1.4,0.8-1.6c0.7-0.2,1.4,0.1,1.6,0.8
			c0.7,2.2,1.5,4.4,2.2,6.5c0.2,0.7-0.1,1.4-0.8,1.6C22.7,332.7,22.5,332.7,22.4,332.7z M479.9,326c-0.1,0-0.3,0-0.4-0.1
			c-0.7-0.2-1-0.9-0.8-1.6c0.7-2.2,1.4-4.4,2-6.6c0.2-0.7,0.9-1.1,1.6-0.9c0.7,0.2,1.1,0.9,0.9,1.6c-0.6,2.2-1.3,4.4-2,6.6
			C481,325.6,480.5,326,479.9,326z M18.1,319.6c-0.6,0-1.1-0.4-1.2-0.9c-0.6-2.2-1.3-4.5-1.9-6.7c-0.2-0.7,0.2-1.4,0.9-1.6
			c0.7-0.2,1.4,0.2,1.6,0.9c0.6,2.2,1.2,4.4,1.8,6.6c0.2,0.7-0.2,1.4-0.9,1.6C18.4,319.6,18.2,319.6,18.1,319.6z M483.8,312.7
			c-0.1,0-0.2,0-0.3,0c-0.7-0.2-1.1-0.9-0.9-1.6c0.6-2.2,1.1-4.4,1.6-6.7c0.2-0.7,0.9-1.1,1.5-1c0.7,0.2,1.1,0.9,1,1.5
			c-0.5,2.2-1.1,4.5-1.7,6.7C484.9,312.3,484.4,312.7,483.8,312.7z M14.6,306.2c-0.6,0-1.1-0.4-1.3-1c-0.5-2.2-1-4.5-1.5-6.8
			c-0.1-0.7,0.3-1.4,1-1.5c0.7-0.1,1.4,0.3,1.5,1c0.5,2.2,0.9,4.5,1.5,6.7c0.2,0.7-0.3,1.4-1,1.5C14.8,306.2,14.7,306.2,14.6,306.2z
			 M486.9,299.3c-0.1,0-0.2,0-0.3,0c-0.7-0.1-1.2-0.8-1-1.5c0.5-2.2,0.9-4.5,1.3-6.7c0.1-0.7,0.8-1.2,1.5-1.1
			c0.7,0.1,1.2,0.8,1.1,1.5c-0.4,2.3-0.8,4.6-1.3,6.8C488,298.9,487.5,299.3,486.9,299.3z M11.9,292.7c-0.6,0-1.2-0.4-1.3-1.1
			c-0.4-2.3-0.8-4.6-1.1-6.9c-0.1-0.7,0.4-1.4,1.1-1.5c0.7-0.1,1.4,0.4,1.5,1.1c0.3,2.3,0.7,4.5,1.1,6.8c0.1,0.7-0.3,1.4-1.1,1.5
			C12,292.7,11.9,292.7,11.9,292.7z M489.2,285.7c-0.1,0-0.1,0-0.2,0c-0.7-0.1-1.2-0.8-1.1-1.5c0.3-2.3,0.6-4.5,0.9-6.8
			c0.1-0.7,0.7-1.2,1.4-1.1c0.7,0.1,1.2,0.7,1.1,1.4c-0.3,2.3-0.6,4.6-0.9,6.9C490.4,285.2,489.9,285.7,489.2,285.7z M9.9,279.1
			c-0.6,0-1.2-0.5-1.3-1.1c-0.3-2.3-0.5-4.6-0.7-6.9c-0.1-0.7,0.5-1.3,1.2-1.4c0.7-0.1,1.3,0.5,1.4,1.2c0.2,2.3,0.4,4.6,0.7,6.8
			c0.1,0.7-0.4,1.3-1.1,1.4C10,279.1,10,279.1,9.9,279.1z M490.8,272c0,0-0.1,0-0.1,0c-0.7-0.1-1.2-0.7-1.2-1.4
			c0.2-2.3,0.4-4.6,0.5-6.8c0-0.7,0.6-1.3,1.4-1.2c0.7,0,1.3,0.6,1.2,1.4c-0.1,2.3-0.3,4.6-0.5,6.9C492,271.5,491.5,272,490.8,272z
			 M8.7,265.3c-0.7,0-1.2-0.5-1.3-1.2c-0.1-2.3-0.2-4.6-0.3-6.9c0-0.7,0.5-1.3,1.3-1.3c0.7,0,1.3,0.5,1.3,1.3
			c0.1,2.3,0.2,4.6,0.3,6.9C10.1,264.7,9.5,265.3,8.7,265.3C8.8,265.3,8.8,265.3,8.7,265.3z M491.6,258.2
			C491.6,258.2,491.5,258.2,491.6,258.2c-0.7,0-1.3-0.6-1.3-1.3c0.1-2.3,0.1-4.6,0.1-6.9l0-0.4c0-0.7,0.6-1.3,1.3-1.3
			c0.7,0,1.3,0.6,1.3,1.3l0,0.5c0,2.3,0,4.6-0.1,6.9C492.8,257.6,492.3,258.2,491.6,258.2z M8.3,251.5c-0.7,0-1.3-0.6-1.3-1.3V250
			c0-2.2,0-4.5,0.1-6.7c0-0.7,0.7-1.3,1.3-1.3c0.7,0,1.3,0.6,1.3,1.3c-0.1,2.2-0.1,4.4-0.1,6.6v0.2C9.6,250.9,9,251.5,8.3,251.5z
			 M491.6,243.9c-0.7,0-1.3-0.6-1.3-1.3c-0.1-2.3-0.2-4.6-0.3-6.9c0-0.7,0.5-1.3,1.2-1.4c0.7,0,1.3,0.5,1.4,1.2
			c0.1,2.3,0.2,4.6,0.3,6.9C492.9,243.3,492.3,243.9,491.6,243.9C491.6,243.9,491.6,243.9,491.6,243.9z M8.7,237.7
			C8.7,237.7,8.7,237.7,8.7,237.7c-0.8,0-1.3-0.6-1.3-1.4c0.1-2.3,0.3-4.6,0.5-6.9c0.1-0.7,0.7-1.2,1.4-1.2c0.7,0.1,1.2,0.7,1.2,1.4
			c-0.2,2.3-0.3,4.6-0.5,6.8C10,237.2,9.4,237.7,8.7,237.7z M490.8,230.2c-0.7,0-1.2-0.5-1.3-1.2c-0.2-2.3-0.4-4.6-0.7-6.8
			c-0.1-0.7,0.4-1.3,1.1-1.4c0.7-0.1,1.3,0.4,1.4,1.1c0.3,2.3,0.5,4.6,0.7,6.9c0.1,0.7-0.5,1.3-1.2,1.4
			C490.8,230.2,490.8,230.2,490.8,230.2z M9.9,224c0,0-0.1,0-0.1,0c-0.7-0.1-1.2-0.7-1.1-1.4c0.3-2.3,0.6-4.6,0.9-6.9
			c0.1-0.7,0.7-1.2,1.5-1.1c0.7,0.1,1.2,0.8,1.1,1.5c-0.3,2.2-0.6,4.5-0.9,6.8C11.1,223.5,10.5,224,9.9,224z M489.2,216.5
			c-0.6,0-1.2-0.5-1.3-1.1c-0.3-2.3-0.7-4.5-1.1-6.8c-0.1-0.7,0.3-1.4,1.1-1.5c0.7-0.1,1.4,0.3,1.5,1.1c0.4,2.3,0.8,4.6,1.1,6.9
			c0.1,0.7-0.4,1.4-1.1,1.5C489.3,216.4,489.2,216.5,489.2,216.5z M11.8,210.3c-0.1,0-0.1,0-0.2,0c-0.7-0.1-1.2-0.8-1.1-1.5
			c0.4-2.3,0.8-4.6,1.3-6.8c0.1-0.7,0.8-1.1,1.5-1c0.7,0.1,1.2,0.8,1,1.5c-0.4,2.2-0.9,4.5-1.3,6.7C13,209.9,12.4,210.3,11.8,210.3z
			 M486.8,202.9c-0.6,0-1.1-0.4-1.3-1c-0.5-2.2-0.9-4.5-1.5-6.7c-0.2-0.7,0.3-1.4,1-1.6c0.7-0.2,1.4,0.3,1.5,1
			c0.5,2.2,1,4.5,1.5,6.8c0.1,0.7-0.3,1.4-1,1.5C487,202.8,486.9,202.9,486.8,202.9z M14.5,196.8c-0.1,0-0.2,0-0.3,0
			c-0.7-0.2-1.1-0.9-1-1.5c0.5-2.3,1.1-4.5,1.7-6.7c0.2-0.7,0.9-1.1,1.6-0.9c0.7,0.2,1.1,0.9,0.9,1.6c-0.6,2.2-1.1,4.4-1.6,6.7
			C15.6,196.4,15.1,196.8,14.5,196.8z M483.7,189.4c-0.6,0-1.1-0.4-1.2-1c-0.6-2.2-1.2-4.4-1.8-6.6c-0.2-0.7,0.2-1.4,0.9-1.6
			c0.7-0.2,1.4,0.2,1.6,0.9c0.7,2.2,1.3,4.5,1.9,6.7c0.2,0.7-0.2,1.4-0.9,1.6C483.9,189.4,483.8,189.4,483.7,189.4z M18,183.4
			c-0.1,0-0.2,0-0.4-0.1c-0.7-0.2-1.1-0.9-0.9-1.6c0.6-2.2,1.3-4.4,2-6.6c0.2-0.7,0.9-1,1.6-0.8c0.7,0.2,1,0.9,0.8,1.6
			c-0.7,2.2-1.4,4.4-2,6.6C19.1,183.1,18.6,183.4,18,183.4z M479.8,176.2c-0.5,0-1-0.3-1.2-0.9c-0.7-2.2-1.5-4.3-2.2-6.5
			c-0.2-0.7,0.1-1.4,0.8-1.6c0.7-0.2,1.4,0.1,1.6,0.8c0.8,2.2,1.5,4.4,2.2,6.6c0.2,0.7-0.1,1.4-0.8,1.6
			C480,176.2,479.9,176.2,479.8,176.2z M22.2,170.3c-0.1,0-0.3,0-0.4-0.1c-0.7-0.2-1-1-0.8-1.6c0.8-2.2,1.6-4.4,2.4-6.5
			c0.3-0.7,1-1,1.7-0.7c0.7,0.3,1,1,0.7,1.7c-0.8,2.1-1.6,4.3-2.4,6.5C23.3,169.9,22.8,170.3,22.2,170.3z M475.1,163.2
			c-0.5,0-1-0.3-1.2-0.8c-0.8-2.1-1.7-4.2-2.6-6.3c-0.3-0.7,0-1.4,0.7-1.7c0.7-0.3,1.4,0,1.7,0.7c0.9,2.1,1.8,4.3,2.6,6.4
			c0.3,0.7-0.1,1.4-0.7,1.7C475.4,163.2,475.3,163.2,475.1,163.2z M27.3,157.4c-0.2,0-0.3,0-0.5-0.1c-0.7-0.3-1-1-0.7-1.7
			c0.9-2.1,1.8-4.3,2.8-6.4c0.3-0.6,1.1-0.9,1.7-0.6c0.6,0.3,0.9,1.1,0.6,1.7c-0.9,2.1-1.9,4.2-2.8,6.3
			C28.2,157.1,27.8,157.4,27.3,157.4z M469.7,150.5c-0.5,0-1-0.3-1.2-0.8c-1-2.1-1.9-4.1-2.9-6.2c-0.3-0.6-0.1-1.4,0.6-1.7
			c0.6-0.3,1.4-0.1,1.7,0.6c1,2.1,2,4.2,3,6.2c0.3,0.6,0,1.4-0.6,1.7C470.1,150.5,469.9,150.5,469.7,150.5z M33,144.8
			c-0.2,0-0.4,0-0.6-0.1c-0.6-0.3-0.9-1.1-0.6-1.7c1-2.1,2.1-4.2,3.2-6.2c0.3-0.6,1.1-0.9,1.7-0.5c0.6,0.3,0.9,1.1,0.5,1.7
			c-1.1,2-2.1,4.1-3.1,6.1C33.9,144.5,33.5,144.8,33,144.8z M463.6,138.2c-0.5,0-0.9-0.2-1.1-0.7c-1.1-2-2.2-4-3.3-6
			c-0.4-0.6-0.1-1.4,0.5-1.8c0.6-0.4,1.4-0.1,1.8,0.5c1.1,2,2.3,4,3.3,6.1c0.3,0.6,0.1,1.4-0.5,1.7
			C464,138.1,463.8,138.2,463.6,138.2z M39.5,132.6c-0.2,0-0.4-0.1-0.6-0.2c-0.6-0.4-0.8-1.1-0.5-1.8c1.1-2,2.3-4,3.5-6
			c0.4-0.6,1.2-0.8,1.8-0.4c0.6,0.4,0.8,1.2,0.4,1.8c-1.2,2-2.3,4-3.5,5.9C40.3,132.3,39.9,132.6,39.5,132.6z M456.8,126.2
			c-0.4,0-0.9-0.2-1.1-0.6c-1.2-1.9-2.4-3.9-3.6-5.8c-0.4-0.6-0.2-1.4,0.4-1.8c0.6-0.4,1.4-0.2,1.8,0.4c1.2,1.9,2.5,3.9,3.7,5.9
			c0.4,0.6,0.2,1.4-0.4,1.8C457.3,126.2,457.1,126.2,456.8,126.2z M46.6,120.7c-0.2,0-0.5-0.1-0.7-0.2c-0.6-0.4-0.8-1.2-0.4-1.8
			c1.2-1.9,2.5-3.9,3.8-5.8c0.4-0.6,1.2-0.7,1.8-0.3c0.6,0.4,0.7,1.2,0.3,1.8c-1.3,1.9-2.6,3.8-3.8,5.7
			C47.4,120.5,47,120.7,46.6,120.7z M449.4,114.6c-0.4,0-0.8-0.2-1.1-0.6c-1.3-1.9-2.6-3.8-4-5.6c-0.4-0.6-0.3-1.4,0.3-1.8
			c0.6-0.4,1.4-0.3,1.8,0.3c1.4,1.9,2.7,3.8,4,5.7c0.4,0.6,0.3,1.4-0.3,1.8C449.9,114.6,449.6,114.6,449.4,114.6z M54.4,109.3
			c-0.3,0-0.5-0.1-0.8-0.2c-0.6-0.4-0.7-1.2-0.3-1.8c1.4-1.9,2.8-3.7,4.2-5.6c0.4-0.6,1.2-0.7,1.8-0.2c0.6,0.4,0.7,1.2,0.2,1.8
			c-1.4,1.8-2.8,3.7-4.1,5.5C55.2,109.1,54.8,109.3,54.4,109.3z M441.2,103.5c-0.4,0-0.8-0.2-1-0.5c-1.4-1.8-2.8-3.6-4.3-5.4
			c-0.5-0.6-0.4-1.4,0.2-1.8c0.6-0.5,1.4-0.4,1.8,0.2c1.5,1.8,2.9,3.6,4.3,5.4c0.4,0.6,0.3,1.4-0.2,1.8
			C441.8,103.4,441.5,103.5,441.2,103.5z M62.8,98.4c-0.3,0-0.6-0.1-0.8-0.3c-0.6-0.5-0.6-1.3-0.2-1.8c1.5-1.8,3-3.6,4.5-5.3
			c0.5-0.5,1.3-0.6,1.8-0.1c0.5,0.5,0.6,1.3,0.1,1.8c-1.5,1.7-3,3.5-4.4,5.3C63.6,98.2,63.2,98.4,62.8,98.4z M432.5,92.9
			c-0.4,0-0.7-0.2-1-0.4c-1.5-1.7-3-3.4-4.6-5.1c-0.5-0.5-0.4-1.3,0.1-1.8c0.5-0.5,1.3-0.4,1.8,0.1c1.6,1.7,3.1,3.4,4.6,5.2
			c0.5,0.5,0.4,1.4-0.1,1.8C433.1,92.7,432.8,92.9,432.5,92.9z M71.9,88c-0.3,0-0.6-0.1-0.9-0.3c-0.5-0.5-0.6-1.3-0.1-1.8
			c1.6-1.7,3.2-3.4,4.8-5c0.5-0.5,1.3-0.5,1.8,0c0.5,0.5,0.5,1.3,0,1.8c-1.6,1.6-3.2,3.3-4.7,5C72.6,87.8,72.2,88,71.9,88z
			 M423.1,82.7c-0.3,0-0.7-0.1-0.9-0.4c-1.6-1.6-3.2-3.3-4.9-4.8c-0.5-0.5-0.5-1.3,0-1.8c0.5-0.5,1.3-0.5,1.8,0
			c1.6,1.6,3.3,3.2,4.9,4.9c0.5,0.5,0.5,1.3,0,1.8C423.8,82.6,423.5,82.7,423.1,82.7z M81.5,78.1c-0.3,0-0.7-0.1-0.9-0.4
			c-0.5-0.5-0.5-1.3,0-1.8c1.6-1.6,3.3-3.2,5-4.8c0.5-0.5,1.3-0.4,1.8,0.1c0.5,0.5,0.4,1.3-0.1,1.8c-1.7,1.5-3.4,3.1-5,4.7
			C82.1,77.9,81.8,78.1,81.5,78.1z M413.2,73.1c-0.3,0-0.6-0.1-0.9-0.3c-1.7-1.5-3.4-3.1-5.1-4.6c-0.5-0.5-0.6-1.3-0.1-1.8
			c0.5-0.5,1.3-0.6,1.8-0.1c1.7,1.5,3.5,3.1,5.2,4.6c0.5,0.5,0.6,1.3,0.1,1.8C413.9,72.9,413.6,73.1,413.2,73.1z M91.6,68.7
			c-0.4,0-0.7-0.2-1-0.4c-0.5-0.5-0.4-1.4,0.1-1.8c1.7-1.5,3.5-3,5.3-4.5c0.6-0.5,1.4-0.4,1.8,0.2c0.5,0.6,0.4,1.4-0.2,1.8
			c-1.8,1.4-3.5,2.9-5.2,4.4C92.2,68.6,91.9,68.7,91.6,68.7z M402.8,64.1c-0.3,0-0.6-0.1-0.8-0.3c-1.8-1.4-3.6-2.9-5.4-4.3
			c-0.6-0.4-0.7-1.2-0.2-1.8c0.4-0.6,1.2-0.7,1.8-0.2c1.8,1.4,3.7,2.9,5.4,4.3c0.6,0.5,0.6,1.3,0.2,1.8
			C403.5,63.9,403.2,64.1,402.8,64.1z M102.3,60c-0.4,0-0.8-0.2-1-0.5c-0.4-0.6-0.3-1.4,0.2-1.8c1.8-1.4,3.7-2.8,5.5-4.2
			c0.6-0.4,1.4-0.3,1.8,0.3c0.4,0.6,0.3,1.4-0.3,1.8c-1.8,1.3-3.7,2.7-5.5,4.1C102.9,59.9,102.6,60,102.3,60z M391.9,55.6
			c-0.3,0-0.5-0.1-0.8-0.2c-1.8-1.3-3.7-2.7-5.6-4c-0.6-0.4-0.7-1.2-0.3-1.8c0.4-0.6,1.2-0.7,1.8-0.3c1.9,1.3,3.8,2.6,5.7,4
			c0.6,0.4,0.7,1.2,0.3,1.8C392.7,55.4,392.3,55.6,391.9,55.6z M113.5,51.9c-0.4,0-0.8-0.2-1.1-0.6c-0.4-0.6-0.3-1.4,0.3-1.8
			c1.9-1.3,3.8-2.6,5.8-3.8c0.6-0.4,1.4-0.2,1.8,0.4c0.4,0.6,0.2,1.4-0.4,1.8c-1.9,1.2-3.8,2.5-5.7,3.8
			C114,51.8,113.7,51.9,113.5,51.9z M380.5,47.8c-0.2,0-0.5-0.1-0.7-0.2c-1.9-1.2-3.9-2.5-5.8-3.6c-0.6-0.4-0.8-1.2-0.4-1.8
			c0.4-0.6,1.2-0.8,1.8-0.4c2,1.2,4,2.4,5.9,3.7c0.6,0.4,0.8,1.2,0.4,1.8C381.3,47.6,380.9,47.8,380.5,47.8z M125,44.4
			c-0.4,0-0.9-0.2-1.1-0.6c-0.4-0.6-0.2-1.4,0.4-1.8c2-1.2,4-2.4,6-3.5c0.6-0.4,1.4-0.1,1.8,0.5c0.4,0.6,0.1,1.4-0.5,1.8
			c-2,1.1-4,2.3-5.9,3.5C125.5,44.3,125.3,44.4,125,44.4z M368.6,40.7c-0.2,0-0.4-0.1-0.6-0.2c-2-1.1-4-2.2-6-3.3
			c-0.6-0.3-0.9-1.1-0.5-1.7c0.3-0.6,1.1-0.9,1.7-0.5c2,1.1,4.1,2.2,6.1,3.3c0.6,0.3,0.8,1.1,0.5,1.8
			C369.5,40.5,369.1,40.7,368.6,40.7z M137,37.6c-0.5,0-0.9-0.2-1.1-0.7c-0.3-0.6-0.1-1.4,0.5-1.7c2-1.1,4.1-2.1,6.2-3.2
			c0.6-0.3,1.4-0.1,1.7,0.6c0.3,0.6,0.1,1.4-0.6,1.7c-2,1-4.1,2.1-6.1,3.1C137.4,37.6,137.2,37.6,137,37.6z M356.4,34.2
			c-0.2,0-0.4,0-0.6-0.1c-2-1-4.1-2-6.2-2.9c-0.6-0.3-0.9-1.1-0.6-1.7c0.3-0.6,1.1-0.9,1.7-0.6c2.1,1,4.2,2,6.3,3
			c0.6,0.3,0.9,1.1,0.6,1.7C357.3,34,356.9,34.2,356.4,34.2z M149.3,31.5c-0.5,0-1-0.3-1.2-0.8c-0.3-0.6,0-1.4,0.6-1.7
			c2.1-1,4.2-1.9,6.3-2.8c0.7-0.3,1.4,0,1.7,0.7c0.3,0.7,0,1.4-0.7,1.7c-2.1,0.9-4.2,1.8-6.3,2.8C149.7,31.5,149.5,31.5,149.3,31.5z
			 M343.8,28.5c-0.2,0-0.3,0-0.5-0.1c-2.1-0.9-4.3-1.8-6.4-2.6c-0.7-0.3-1-1-0.7-1.7c0.3-0.7,1-1,1.7-0.7c2.2,0.8,4.3,1.7,6.4,2.6
			c0.7,0.3,1,1,0.7,1.7C344.8,28.2,344.3,28.5,343.8,28.5z M162,26.1c-0.5,0-1-0.3-1.2-0.8c-0.3-0.7,0.1-1.4,0.7-1.7
			c2.1-0.8,4.3-1.7,6.5-2.4c0.7-0.2,1.4,0.1,1.6,0.8c0.2,0.7-0.1,1.4-0.8,1.6c-2.1,0.8-4.3,1.6-6.4,2.4
			C162.3,26.1,162.2,26.1,162,26.1z M330.9,23.5c-0.1,0-0.3,0-0.4-0.1c-2.2-0.8-4.3-1.5-6.5-2.2c-0.7-0.2-1.1-0.9-0.8-1.6
			c0.2-0.7,0.9-1.1,1.6-0.8c2.2,0.7,4.4,1.5,6.6,2.2c0.7,0.2,1,1,0.8,1.6C331.9,23.2,331.4,23.5,330.9,23.5z M175,21.5
			c-0.5,0-1-0.3-1.2-0.9c-0.2-0.7,0.1-1.4,0.8-1.6c2.2-0.7,4.4-1.4,6.6-2.1c0.7-0.2,1.4,0.2,1.6,0.9c0.2,0.7-0.2,1.4-0.9,1.6
			c-2.2,0.6-4.4,1.3-6.6,2C175.3,21.5,175.1,21.5,175,21.5z M317.8,19.3c-0.1,0-0.2,0-0.4-0.1c-2.2-0.6-4.4-1.2-6.6-1.8
			c-0.7-0.2-1.1-0.9-0.9-1.6c0.2-0.7,0.9-1.1,1.6-0.9c2.2,0.6,4.5,1.2,6.7,1.8c0.7,0.2,1.1,0.9,0.9,1.6
			C318.8,18.9,318.3,19.3,317.8,19.3z M188.2,17.6c-0.6,0-1.1-0.4-1.2-1c-0.2-0.7,0.2-1.4,0.9-1.6c2.2-0.6,4.5-1.1,6.7-1.7
			c0.7-0.2,1.4,0.3,1.5,1c0.2,0.7-0.3,1.4-1,1.5c-2.2,0.5-4.5,1.1-6.7,1.7C188.5,17.6,188.3,17.6,188.2,17.6z M304.4,15.8
			c-0.1,0-0.2,0-0.3,0c-2.2-0.5-4.5-1-6.7-1.4c-0.7-0.1-1.2-0.8-1-1.5c0.1-0.7,0.8-1.2,1.5-1c2.3,0.4,4.5,0.9,6.8,1.5
			c0.7,0.2,1.1,0.9,1,1.5C305.5,15.4,305,15.8,304.4,15.8z M201.7,14.5c-0.6,0-1.1-0.4-1.3-1c-0.1-0.7,0.3-1.4,1-1.5
			c2.3-0.5,4.6-0.9,6.8-1.3c0.7-0.1,1.4,0.3,1.5,1.1c0.1,0.7-0.3,1.4-1.1,1.5c-2.2,0.4-4.5,0.8-6.7,1.3
			C201.8,14.4,201.8,14.5,201.7,14.5z M290.9,13.1c-0.1,0-0.1,0-0.2,0c-2.2-0.4-4.5-0.7-6.8-1.1c-0.7-0.1-1.2-0.8-1.1-1.5
			c0.1-0.7,0.8-1.2,1.5-1.1c2.3,0.3,4.6,0.7,6.9,1.1c0.7,0.1,1.2,0.8,1.1,1.5C292,12.6,291.5,13.1,290.9,13.1z M215.3,12.1
			c-0.6,0-1.2-0.5-1.3-1.1c-0.1-0.7,0.4-1.4,1.1-1.5c2.3-0.3,4.6-0.6,6.9-0.9c0.7-0.1,1.3,0.4,1.4,1.1c0.1,0.7-0.4,1.3-1.1,1.4
			c-2.3,0.3-4.6,0.6-6.8,0.9C215.4,12.1,215.3,12.1,215.3,12.1z M277.2,11.1c0,0-0.1,0-0.1,0c-2.3-0.3-4.6-0.5-6.8-0.7
			c-0.7-0.1-1.2-0.7-1.2-1.4c0.1-0.7,0.7-1.2,1.4-1.2c2.3,0.2,4.6,0.4,6.9,0.7c0.7,0.1,1.2,0.7,1.1,1.4
			C278.4,10.7,277.9,11.1,277.2,11.1z M229,10.5c-0.7,0-1.2-0.5-1.3-1.2c-0.1-0.7,0.5-1.3,1.2-1.4c2.3-0.2,4.6-0.4,6.9-0.5
			c0.7,0,1.3,0.5,1.4,1.2c0,0.7-0.5,1.3-1.2,1.4c-2.3,0.1-4.6,0.3-6.8,0.5C229.1,10.5,229,10.5,229,10.5z M263.5,10
			C263.4,10,263.4,10,263.5,10c-2.3-0.1-4.6-0.2-6.9-0.3c-0.7,0-1.3-0.6-1.3-1.3c0-0.7,0.6-1.3,1.3-1.3c2.3,0.1,4.6,0.2,6.9,0.3
			c0.7,0,1.3,0.6,1.2,1.4C264.7,9.5,264.1,10,263.5,10z M242.8,9.7c-0.7,0-1.3-0.6-1.3-1.3c0-0.7,0.5-1.3,1.3-1.3
			c2.3-0.1,4.6-0.1,6.9-0.1c0,0,0,0,0,0c0.7,0,1.3,0.6,1.3,1.3c0,0.7-0.6,1.3-1.3,1.3C247.4,9.6,245.1,9.7,242.8,9.7
			C242.8,9.7,242.8,9.7,242.8,9.7z"/>
	</g>
</g>
</svg>
