<?xml version="1.0" encoding="utf-8"?>
<!-- Generator: Adobe Illustrator 22.1.0, SVG Export Plug-In . SVG Version: 6.00 Build 0)  -->
<svg version="1.1" id="Layer_1" xmlns="http://www.w3.org/2000/svg" xmlns:xlink="http://www.w3.org/1999/xlink" x="0px" y="0px"
	 viewBox="0 0 500 500" style="enable-background:new 0 0 500 500;" xml:space="preserve">
<style type="text/css">
	.st0{clip-path:url(#SVGID_2_);fill:#FCE3C3;}
	.st1{clip-path:url(#SVGID_2_);}
	.st2{fill:#F4B9B8;}
	.st3{fill:#F9BFBB;}
	.st4{fill:#FFCFCA;}
	.st5{fill:#602826;}
	.st6{fill:#345668;}
	.st7{fill:#97C6B7;}
	.st8{fill:#83B2A3;}
	.st9{fill:#BADDD4;}
	.st10{fill:#FD7064;}
	.st11{fill:#F95850;}
	.st12{fill:#1F3C49;}
	.st13{fill:#EA5353;}
	.st14{fill:#FF948F;}
	.st15{fill:#FFFFFF;}
	.st16{fill:#FBB03B;}
</style>
<g>
	<g>
		<defs>
			<circle id="SVGID_1_" cx="250.1" cy="250.1" r="226.7"/>
		</defs>
		<clipPath id="SVGID_2_">
			<use xlink:href="#SVGID_1_"  style="overflow:visible;"/>
		</clipPath>
		<circle class="st0" cx="250.1" cy="250.1" r="226.7"/>
		<g class="st1">
			<g>
				<g>
					<g>
						<path class="st2" d="M497.5,812.4c0.2,2.3,0.2,4.6,0.2,6.8c-0.1,6.1-0.4,12.2-0.5,18.3c0,2.6,0,5.3,0.8,7.9
							c0.8,2.5,2.3,4.9,4.7,6.1c2.4,1.2,5.6,0.8,7.2-1.3c1.5-1.8,1.4-4.4,1.4-6.7c-0.1-3-0.2-6.1-0.3-9.1c-0.1-4.1-0.3-8.2-0.6-12.3
							c-0.7-8.3-2.3-17-7.5-23.6c-1.6-2.1-9.5-7.4-9.5-1.4c0,2.3,1.9,4.9,2.6,7.1C496.7,806.9,497.2,809.7,497.5,812.4z"/>
					</g>
					<g>
						<path class="st3" d="M502.3,816.3c0.2,2.3,0.2,4.6,0.2,6.8c-0.1,6.1-0.4,12.2-0.5,18.3c0,2.6,0,5.3,0.8,7.9
							c0.8,2.5,2.3,4.9,4.7,6.1c2.4,1.2,5.6,0.8,7.2-1.3c1.5-1.8,1.4-4.4,1.4-6.7c-0.1-3-0.2-6.1-0.3-9.1c-0.1-4.1-0.3-8.2-0.6-12.3
							c-0.7-8.3-2.3-17-7.5-23.6c-1.6-2.1-9.5-7.4-9.5-1.4c0,2.3,1.9,4.9,2.6,7.1C501.5,810.8,502,813.5,502.3,816.3z"/>
					</g>
					<g>
						<path class="st4" d="M442.5,732.2c0.7-3.5,11.4-6.2,16.1-13c15,8.8,40.3,56.8,46.5,69.5c4.2,8.6,8.6,17.4,10.4,26.9
							c1.9,10,2.3,20.1,2.8,30.3c0.1,1.6,0.2,3.2-0.4,4.7c-0.9,2.7-4.4,4.5-6.9,2.6c-5.4-4-5.7-12.4-6.2-18.6
							c-0.5-5.7-0.6-11.5-2-17.1c-1.4-5.5-4.3-9.9-7.9-14.2c-2.6-3.1-5.1-6.2-7.9-9.3c-1-1.2-2.1-2.3-3.3-3.3
							c-1.6-1.4-3.4-2.4-5.5-2.7c-1.7-0.2-4.4,0-5.8,1.4c-1.4,1.4-0.7,3.7-0.3,5.4c0.4,2,1.3,3.9,2.2,5.8c1.5,3.2,3.5,6.4,4.1,9.9
							c0.1,0.6,0.2,1.2,0.2,1.8c0.2,6.5-6.3,14.4-11.8,7.3c-1.2-1.5-2-3.3-2.8-5.1c-3.9-8.4-9.6-15.9-12-24.9
							c-1.5-5.7-2.4-11.6-3.3-17.4C445.3,749.9,440.4,742.5,442.5,732.2z"/>
					</g>
					<g>
						<path class="st3" d="M483.7,790.5c-0.8-1.1-1.6-2.2-2.5-3.3c-1.6-1.9-3.5-3.6-5.8-4.4c-2.3-0.8-5.2-0.4-6.8,1.5
							c-1.4,1.6-1.6,3.8-1.3,5.9c0.7,5,4.1,9.2,7.1,13.3c1.5,2.1,3,4.3,4,6.8c-0.6-3.5-2.5-6.7-4.1-9.9c-0.9-1.9-1.8-3.8-2.2-5.8
							c-0.4-1.7-1.1-3.9,0.3-5.4c1.3-1.3,4-1.6,5.8-1.4C480.3,788.1,482.1,789.2,483.7,790.5z"/>
					</g>
				</g>
				<path class="st4" d="M466.8,1442.1l-10.9-8l-8.1-69.9c0,0-61.9,9.9-61.9,10.8c0,0.9,6.3,65.4,6.3,65.4l-4.5,17.9l45.7,3.6
					l26-6.3L466.8,1442.1z"/>
				<polygon class="st4" points="153.8,1459.6 151,1391.8 222,1391 208.9,1456.6 185.6,1478.6 				"/>
				<path class="st5" d="M234.8,1504.5c-1.8-5.8-20.9-39.5-25.5-47.9c-9.3,4-18.4,6.2-28.5,6.2c-9.3,0-19.6-0.9-27.1-6.5
					c-4.7,6.7-10.5,15.8-14.9,23.2c-4,6.7-9.5,13.7-12.4,21.2c-2.8,7.6-1.6,16.3,4.5,21.3c20,16.5,76.2,20.6,100.3,2.3
					C238.4,1518.7,236.1,1508.4,234.8,1504.5z"/>
				<g>
					<path class="st6" d="M334.9,337.5c-7.4,39.2-15.3,78.2-20.4,117.8c-4.8,37.5-9.4,75.1-15.3,112.4c-30.7,0.7-61.4-0.6-92.1-3
						c-30.5-2.4-60.7-6.6-89.4-17.8c-15.2-5.9-29.9-13.2-43.9-21.6c13.7-19.9,22.1-42.9,31.3-65.1c9.8-23.8,18.2-48.2,25.3-73
						c15.3-54.1,21.4-108.3,25-164.1c2.1-31.8,11.2-65.2,32.6-89.6c21.5-24.5,57.5-38.5,89.1-26.6c19.5,7.4,35.4,22.7,46.1,40.7
						c5.1,8.5,9,17.7,12,27.1c0.8,2.5,1.6,5.1,2.2,7.6c2.2,8,3.8,16.2,4.9,24.4c1.8,12.8,2.6,25.6,2.7,38.4
						C345,276,340.6,307,334.9,337.5z"/>
				</g>
				<g>
					<path class="st4" d="M309.2,343.9c-4.2,3.3-9.7,4.6-14.9,5.7c-6.3,1.4-12.6,2.8-19.1,3.3c-12.6,0.9-24.4-2.2-36.8-4.9
						c-0.6-7.2-1.2-14.5-1.9-21.7c-0.8-9.1-1.6-18.1-3.2-27.1c-0.5-2.7-1.1-5.5-1.8-8.2c-1.6-6.7-3.6-13.4-5.6-20
						c-1.6-5.5-3.3-10.9-4.9-16.4c3.6,2.7,6.8,4,11,5.8c17.7,7.3,35.6,13.9,53.6,20.3c5.4,1.9,10.9,3.8,16.6,4.5l3.7,31.6
						L309.2,343.9z"/>
				</g>
				<g>
					<path class="st3" d="M306,316.8c-19.7-2.7-39.1-8.3-57.1-16.9c-5.7-2.7-11.7-5.6-17.4-8.9c-1.6-6.7-3.6-13.4-5.6-20
						c-1.6-5.5-3.3-10.9-4.9-16.4c3.6,2.7,6.8,4,11,5.8c17.7,7.3,35.6,13.9,53.6,20.3c5.4,1.9,10.9,3.8,16.6,4.5L306,316.8z"/>
				</g>
				<g>
					<path class="st4" d="M336.2,265.9c-3.1,10.8-7.9,20.8-16.8,28c-7.9,6.3-17.9,10.1-28,10.8c-11.2,0.8-22.3-1.9-32.4-6.8
						c-5-2.4-9.8-5.4-14.3-8.8c-7.7-5.9-14.5-13-20.5-20.7c-9.7-12.5-18.1-27-23.1-42.4c-5.8-17.4-7.3-35.9-2-53.8
						c2.1-7.3,5.5-14.2,10-20.4c18.7-26.2,54.9-34.4,83.1-18.9c14.7,8.1,26.5,21.4,33.6,36.4c2.3,4.8,4.3,9.7,6.1,14.7
						C341.3,210.1,343.8,239.3,336.2,265.9z"/>
				</g>
				<g>
					<g>
						<path class="st7" d="M478.7,725.6c-3.6-8-9.3-14.9-15.5-21.1c-1.8-1.8-3.7-3.6-6-4.7c-6.2-2.9-13.7,2.6-18.8,5.8
							c-6.2,3.9-11.9,8.6-16.8,13.9c-1.6,1.8-3.3,3.8-3.5,6.2c-0.3,3,1.6,5.7,3.5,8.1c4.2,5.5,8.5,11,12.7,16.5
							c1.4,1.8,2.8,3.6,4.8,4.6c2.2,1,4.8,0.9,7.2,0.5c10.4-1.4,20.5-5.1,29.4-10.7c1.9-1.2,3.8-2.6,4.9-4.5c1.7-3,1-6.8,0-10.1
							C479.9,728.5,479.4,727.1,478.7,725.6z"/>
					</g>
					<g>
						<g>
							<g>
								<path class="st8" d="M443.1,753.3c-0.2,0-0.3,0-0.4-0.1c-1.6-1.1-2.9-2.5-4.1-4l-0.4-0.5c-2.6-3-5.4-5.8-8.4-8.4
									c-0.3-0.3-0.4-0.8-0.1-1.1c0.3-0.3,0.8-0.4,1.1-0.1c3,2.7,5.9,5.6,8.5,8.6l0.4,0.5c1.1,1.3,2.3,2.7,3.7,3.7
									c0.4,0.3,0.5,0.8,0.2,1.1C443.6,753.2,443.3,753.4,443.1,753.3z"/>
							</g>
						</g>
						<g>
							<g>
								<path class="st8" d="M449.3,751.7c-0.2,0-0.4-0.1-0.6-0.2c-1.2-1.1-2.2-2.4-3.3-3.7c-2.4-2.9-4.9-5.9-6.8-9.3
									c-0.2-0.4-0.8-1.5-0.2-2.4c0.2-0.3,0.6-0.4,1-0.2c0.4,0.2,0.5,0.7,0.4,1.1c0,0-0.1,0.2,0.3,0.7c1.9,3.2,4.3,6.2,6.6,9
									c1,1.2,2,2.5,3.1,3.5c0.3,0.3,0.3,0.8,0,1.1C449.7,751.7,449.5,751.7,449.3,751.7z"/>
							</g>
						</g>
						<g>
							<g>
								<path class="st8" d="M456.5,749.7c-0.3,0-0.5-0.1-0.7-0.4c-2-3.2-4.5-6.2-7.3-8.8c-0.5-0.5-1-0.9-1.5-1.4
									c-1.7-1.5-3.4-3.1-4.7-5c-0.3-0.4-0.2-0.9,0.2-1.1c0.4-0.3,0.9-0.2,1.1,0.2c1.2,1.8,2.8,3.2,4.5,4.7c0.5,0.5,1,0.9,1.5,1.4
									c2.9,2.7,5.4,5.8,7.5,9.1c0.2,0.4,0.1,0.9-0.2,1.1C456.8,749.6,456.6,749.7,456.5,749.7z"/>
							</g>
						</g>
						<g>
							<g>
								<path class="st8" d="M463.8,748.1c-0.2,0-0.5-0.1-0.6-0.3c-4.7-5.9-9.9-11.6-15.4-16.9c-0.3-0.3-0.3-0.8,0-1.1
									c0.3-0.3,0.8-0.3,1.1,0c5.6,5.3,10.8,11,15.6,17c0.3,0.3,0.2,0.9-0.1,1.1C464.2,748.1,464,748.1,463.8,748.1z"/>
							</g>
						</g>
						<g>
							<g>
								<path class="st8" d="M469.8,744.2c-0.2,0-0.5-0.1-0.6-0.3c-4.5-5.8-9.7-10.9-15.6-15.2c-0.4-0.3-0.4-0.8-0.2-1.1
									c0.3-0.4,0.8-0.4,1.1-0.2c6,4.4,11.4,9.6,15.9,15.5c0.3,0.4,0.2,0.9-0.1,1.1C470.2,744.1,470,744.2,469.8,744.2z"/>
							</g>
						</g>
						<g>
							<g>
								<path class="st8" d="M476.5,740.5c-0.2,0-0.3-0.1-0.5-0.2c-2.2-1.8-4-4-5.8-6.1c-0.5-0.7-1.1-1.3-1.6-2
									c-2.9-3.4-6.3-6.5-9.9-9.2c-0.4-0.3-0.4-0.8-0.2-1.1c0.3-0.4,0.8-0.4,1.1-0.2c3.7,2.8,7.2,6,10.2,9.5c0.6,0.7,1.1,1.3,1.7,2
									c1.7,2.1,3.4,4.2,5.5,5.9c0.4,0.3,0.4,0.8,0.1,1.1C477,740.4,476.7,740.5,476.5,740.5z"/>
							</g>
						</g>
						<g>
							<g>
								<path class="st8" d="M477.4,729.3c-0.2,0-0.4-0.1-0.6-0.2l-12.5-12.4c-0.3-0.3-0.3-0.8,0-1.1c0.3-0.3,0.8-0.3,1.1,0
									l12.5,12.4c0.3,0.3,0.3,0.8,0,1.1C477.9,729.2,477.7,729.3,477.4,729.3z"/>
							</g>
						</g>
					</g>
				</g>
				<path class="st6" d="M335.1,174.6c-8.8-13.1-17.7-26.7-29.4-37.1c-10.5-9.3-23.4-15.6-37.4-16.9c-26.5-2.4-57.5,7.6-74.3,29.1
					c-8.5,10.8-12.4,24.4-12.9,37.8c-0.6,13.5,2.2,25.4,5.6,38.5c25.6-2.4,48-18.7,61.2-39.1c9.9-15.2,15.2-32.5,18-50.3
					c7.9,10.3,16.7,19.9,27,27.7c12.9,9.8,28.3,16.8,44.5,17.9C336.6,179.7,335.9,177.2,335.1,174.6z"/>
				<path class="st9" d="M434.2,635.8c-8.3-11.8-26.3-34.7-26.3-34.7s11.2-149.6-19.6-213.4c-19.6-20.2-38.6-38.4-66.6-43.7
					c-20.5,34.4-26.7,65.4-30.1,105.2c-4.5,52.9-5.8,108.7,18.1,156.1c6.6,13.1,15,25.3,23.5,37.2c22.5,31.6,47.8,62,76,89.2
					c7.6,7.3,19,9,28.3,4l27.1-14.5c8.9-4.7,12.2-15.8,7.4-24.6C460.1,674.8,448.1,655.6,434.2,635.8z"/>
				<g>
					<path class="st7" d="M385.3,643.3c-0.5-0.9-1.1-1.7-1.6-2.6c-0.3-0.4-0.8-0.6-1.2-0.3c-0.4,0.3-0.6,0.8-0.3,1.2
						c0.5,0.9,1.1,1.8,1.6,2.7c0.7,1.2,1.5,2.3,2.2,3.4c0.2,0.3,0.5,0.4,0.7,0.4c0.2,0,0.3,0,0.5-0.1c0.4-0.3,0.5-0.8,0.3-1.2
						C386.8,645.6,386.1,644.4,385.3,643.3z"/>
					<path class="st7" d="M371.7,614.9c-0.2-0.5-0.7-0.7-1.2-0.5c-0.5,0.2-0.7,0.7-0.5,1.2c0.8,2.3,1.7,4.5,2.6,6.7
						c0.1,0.3,0.5,0.6,0.8,0.6c0.1,0,0.2,0,0.3-0.1c0.5-0.2,0.7-0.7,0.5-1.2C373.4,619.4,372.5,617.1,371.7,614.9z"/>
					<path class="st7" d="M367.2,601.3c-0.1-0.5-0.6-0.7-1.1-0.6c-0.5,0.1-0.7,0.6-0.6,1.1c0.7,2.4,1.4,4.7,2.2,6.9
						c0.1,0.4,0.5,0.6,0.9,0.6c0.1,0,0.2,0,0.3,0c0.5-0.2,0.7-0.7,0.6-1.1C368.6,605.9,367.9,603.6,367.2,601.3z"/>
					<path class="st7" d="M364.5,591.7c-0.5,0.5-1,0.9-1.5,1.2c0.2,0.7,0.4,1.4,0.5,2c0.1,0.4,0.5,0.7,0.9,0.7c0.1,0,0.2,0,0.2,0
						c0.5-0.1,0.8-0.6,0.6-1.1C365,593.5,364.7,592.6,364.5,591.7z"/>
					<path class="st7" d="M377.1,628c-0.2-0.5-0.7-0.6-1.2-0.4c-0.4,0.2-0.6,0.7-0.4,1.2c1,2.2,2.1,4.4,3.2,6.5
						c0.2,0.3,0.5,0.5,0.8,0.5c0.1,0,0.3,0,0.4-0.1c0.4-0.2,0.6-0.8,0.4-1.2C379.2,632.4,378.2,630.2,377.1,628z"/>
					<path class="st7" d="M435.7,709.1c-0.3-0.4-0.9-0.4-1.3-0.1c-0.4,0.3-0.4,0.9-0.1,1.3c1.5,1.8,3.1,3.7,4.6,5.5
						c0.2,0.2,0.4,0.3,0.7,0.3c0.2,0,0.4-0.1,0.6-0.2c0.4-0.3,0.4-0.9,0.1-1.3C438.7,712.7,437.2,710.9,435.7,709.1z"/>
					<path class="st7" d="M426.5,698c-0.3-0.4-0.9-0.4-1.3-0.1c-0.4,0.3-0.4,0.9-0.1,1.3c1.5,1.9,3,3.7,4.5,5.6
						c0.2,0.2,0.4,0.3,0.7,0.3c0.2,0,0.4-0.1,0.6-0.2c0.4-0.3,0.4-0.9,0.1-1.3C429.6,701.7,428,699.9,426.5,698z"/>
					<path class="st7" d="M391.6,652.6c-0.3-0.4-0.8-0.5-1.3-0.2c-0.4,0.3-0.5,0.8-0.2,1.3c1.4,1.9,2.8,3.9,4.2,5.8
						c0.2,0.2,0.4,0.4,0.7,0.4c0.2,0,0.4-0.1,0.5-0.2c0.4-0.3,0.5-0.9,0.2-1.3C394.4,656.4,393,654.5,391.6,652.6z"/>
					<path class="st7" d="M445.9,721.1l-1-1.1c-0.3-0.4-0.9-0.4-1.3-0.1c-0.4,0.3-0.4,0.9-0.1,1.3l1,1.1c0.2,0.2,0.4,0.3,0.7,0.3
						c0.2,0,0.4-0.1,0.6-0.2C446.2,722.1,446.2,721.5,445.9,721.1z"/>
					<path class="st7" d="M417.6,686.8c-0.3-0.4-0.9-0.5-1.3-0.1c-0.4,0.3-0.5,0.9-0.1,1.3c1.5,1.9,3,3.7,4.5,5.6
						c0.2,0.2,0.4,0.3,0.7,0.3c0.2,0,0.4-0.1,0.6-0.2c0.4-0.3,0.4-0.9,0.1-1.3C420.5,690.6,419.1,688.7,417.6,686.8z"/>
					<path class="st7" d="M400.1,664.1c-0.3-0.4-0.9-0.5-1.3-0.2c-0.4,0.3-0.5,0.9-0.2,1.3c1.4,1.9,2.9,3.8,4.3,5.7
						c0.2,0.2,0.4,0.4,0.7,0.4c0.2,0,0.4-0.1,0.5-0.2c0.4-0.3,0.5-0.9,0.2-1.3C403,667.9,401.5,666,400.1,664.1z"/>
					<path class="st7" d="M408.8,675.5c-0.3-0.4-0.9-0.5-1.3-0.2c-0.4,0.3-0.5,0.9-0.2,1.3c1.5,1.9,2.9,3.8,4.4,5.7
						c0.2,0.2,0.4,0.3,0.7,0.3c0.2,0,0.4-0.1,0.6-0.2c0.4-0.3,0.5-0.9,0.2-1.3C411.7,679.3,410.2,677.4,408.8,675.5z"/>
				</g>
				<path class="st4" d="M363.3,533.7c-8.1,32.1-16.1,64.2-24.2,96.2c-2.9,11.6-7.3,23.1-14,33.1c-20.7,6.4-41.8,12.8-63.5,12.9
					c-11.4,0.1-22.7-1.6-34-3.3c-18.1-2.7-36.4-6.9-52-16.4c-0.9-6.9-1.2-15-1.8-21.9c-2.2-26.2-4.3-52.5-6.5-78.7
					c4.3,2.1,10.2,2.4,14.9,1.9c8.8-1,17.6-2,26.4-2.9c32.1-3.6,64.2-7.2,96.2-10.8c12.2-1.4,24.3-2.7,36.5-4.1
					C350.1,538.7,355.4,537.5,363.3,533.7z"/>
				<path class="st10" d="M460.4,1400.9c0,0-22.5,9.1-49.3,12.9c-26.8,3.8-28.7,0.5-28.7,0.5l-48.8-322c0,0-13.6-35.4-31.9-83.1
					c-1.4-3.7-2.9-7.6-4.4-11.5c-18.4-47.9-40.5-105.7-58.2-152.4c-0.2-0.6-0.4-1.1-0.6-1.6c-18.2-47.8-31.6-83.6-31.5-84.5
					c0.3-2.1,6.7-59.5,9.4-83.3c0.4-4-1.8-18.8,1.1-20c18.8,4.5,43.3,2.9,61.9,0.9c32.3-3.6,52.9-7.2,52.9-7.2s44.7,99.2,62.8,158.7
					c17.9,59.2,46.6,289.6,46.6,289.6L460.4,1400.9z"/>
				<path class="st11" d="M301.7,1009.2c-1.4-3.7-2.9-7.6-4.4-11.5c-18.4-47.9-40.5-105.7-58.2-152.4c-0.2-0.6-0.4-1.1-0.6-1.6
					c6.2-39,13.3-77.9,11.2-117.2c29.7,50.6,40,110.2,44.8,168.7c1.7,21.5,2.8,43,4,64.4C299.3,976.2,300.3,992.7,301.7,1009.2z"/>
				<g>
					<path class="st10" d="M270.3,657.7c-23.3,0.9-32.2,0.2-54.7-5.4c-13.4-3.3-31.4-10.8-42.1-19.7c-17,30.5-41.9,76-47.5,131.8
						c-11.7,115.7,36.5,338.5,36.5,338.5s-15.3,211.2-24,325.9c19.1,7.7,19.1,8.1,40.3,8.1c23,0,24.5,0.3,45.8-7.2l54.8-329.6
						C277.8,957.1,276.4,800.5,270.3,657.7z"/>
				</g>
				<g>
					<g>
						<path class="st7" d="M352.7,568.1c-26.4,2.2-52.9-0.3-79.3-2.6c-16.9-1.5-33.8-3.3-50.6-5.4c-8.6-1.1-17.1-2.2-25.6-3.5
							c-6.5-1-14.7-2.8-21.1-0.3c-13.6,5.3-11.9,30.3-11.5,41.9c0.3,10.2,6.8,14.7,15.6,17.9c45.2,16,94.6,16.7,141.9,9.3
							c7.2-1.1,17.2-1,21.7-7.6c7.2-10.5,12-24.5,16.7-36.3C363.1,574.9,360.9,567.4,352.7,568.1z"/>
					</g>
					<g>
						<g>
							<g>
								<path class="st8" d="M169.3,607.3C169.3,607.3,169.3,607.3,169.3,607.3c-0.5-0.1-0.8-0.5-0.7-0.9l1.1-9.2
									c0.1-0.4,0.5-0.7,0.9-0.7c0.4,0.1,0.8,0.5,0.7,0.9l-1.1,9.2C170.2,607,169.8,607.3,169.3,607.3z"/>
							</g>
						</g>
						<g>
							<g>
								<path class="st8" d="M174.6,612.1c0,0-0.1,0-0.1,0c-0.4-0.1-0.7-0.5-0.6-1c0.8-3.7,1.5-7.4,2.1-11.1
									c0.1-0.4,0.5-0.7,0.9-0.7c0.4,0.1,0.7,0.5,0.7,0.9c-0.7,3.7-1.4,7.5-2.2,11.2C175.4,611.8,175,612.1,174.6,612.1z"/>
							</g>
						</g>
						<g>
							<g>
								<path class="st8" d="M180.9,614.9c0,0-0.1,0-0.1,0c-0.4-0.1-0.7-0.5-0.6-1c0.9-4,1.5-8.1,1.9-12.1c0-0.4,0.4-0.7,0.9-0.7
									c0.4,0,0.8,0.4,0.7,0.9c-0.4,4.1-1.1,8.3-2,12.3C181.7,614.6,181.3,614.9,180.9,614.9z"/>
							</g>
						</g>
						<g>
							<g>
								<path class="st8" d="M186.4,617.1c-0.1,0-0.1,0-0.2,0c-0.4-0.1-0.7-0.6-0.5-1c1.3-4.1,2.4-8.3,3.2-12.5
									c0.1-0.4,0.5-0.7,0.9-0.6c0.4,0.1,0.7,0.5,0.6,0.9c-0.8,4.3-1.9,8.5-3.3,12.7C187.1,616.9,186.8,617.1,186.4,617.1z"/>
							</g>
						</g>
						<g>
							<g>
								<path class="st8" d="M193.4,618.9c0,0-0.1,0-0.1,0c-0.4-0.1-0.7-0.5-0.6-1l2.6-11.6c0.1-0.4,0.5-0.7,1-0.6
									c0.4,0.1,0.7,0.5,0.6,1l-2.6,11.6C194.2,618.7,193.8,618.9,193.4,618.9z"/>
							</g>
						</g>
						<g>
							<g>
								<path class="st8" d="M200.1,620.4C200.1,620.4,200.1,620.4,200.1,620.4c-0.5-0.1-0.8-0.5-0.7-1l2.2-12.1
									c0.1-0.4,0.5-0.7,0.9-0.6c0.4,0.1,0.7,0.5,0.6,0.9l-2.2,12.1C200.9,620.2,200.5,620.5,200.1,620.4z"/>
							</g>
						</g>
						<g>
							<g>
								<path class="st8" d="M206.5,620.5C206.5,620.5,206.5,620.5,206.5,620.5c-0.5-0.1-0.8-0.5-0.7-1c0.7-3.3,1.5-6.7,2.6-9.9
									c0.1-0.4,0.6-0.7,1-0.5c0.4,0.1,0.7,0.6,0.5,1c-1,3.2-1.9,6.5-2.5,9.8C207.3,620.2,206.9,620.5,206.5,620.5z"/>
							</g>
						</g>
						<g>
							<g>
								<path class="st8" d="M212.8,623.7C212.8,623.6,212.8,623.6,212.8,623.7c-0.5-0.1-0.8-0.5-0.7-1l2.6-12.5
									c0.1-0.4,0.5-0.7,1-0.6c0.4,0.1,0.7,0.5,0.6,1l-2.6,12.5C213.6,623.4,213.2,623.7,212.8,623.7z"/>
							</g>
						</g>
						<g>
							<g>
								<path class="st8" d="M218.6,624.7c0,0-0.1,0-0.1,0c-0.4-0.1-0.7-0.5-0.6-1c0.9-3.8,1.7-7.7,2.5-11.6c0.1-0.4,0.5-0.7,1-0.6
									c0.4,0.1,0.7,0.5,0.6,1c-0.8,3.9-1.6,7.8-2.5,11.6C219.4,624.5,219,624.8,218.6,624.7z"/>
							</g>
						</g>
						<g>
							<g>
								<path class="st8" d="M224.9,624.8c-0.4,0-0.8-0.4-0.7-0.8c0.1-2.8,0.9-5.6,1.6-8l0.1-0.3c0.4-1.2,0.7-2.2,0.8-3.4
									c0-0.4,0.4-0.8,0.8-0.8c0.4,0,0.8,0.4,0.8,0.8c-0.1,1.3-0.5,2.6-0.8,3.8l-0.1,0.3c-0.8,2.4-1.5,4.9-1.5,7.5
									C225.8,624.4,225.4,624.8,224.9,624.8C224.9,624.8,224.9,624.8,224.9,624.8z"/>
							</g>
						</g>
						<g>
							<g>
								<path class="st8" d="M230.5,626.1C230.5,626.1,230.5,626.1,230.5,626.1c-0.5-0.1-0.8-0.5-0.7-0.9c0.6-4,1.4-8.1,2.4-12
									c0.1-0.4,0.5-0.7,1-0.6c0.4,0.1,0.7,0.5,0.6,1c-1,3.9-1.8,7.9-2.4,11.9C231.3,625.8,231,626.1,230.5,626.1z"/>
							</g>
						</g>
						<g>
							<g>
								<path class="st8" d="M237.7,626.2c0,0-0.1,0-0.1,0c-0.4-0.1-0.7-0.5-0.6-1c0.7-2.7,1.3-5.5,1.9-8.2c0.2-1.1,0.4-2.2,0.1-3.1
									c-0.1-0.4,0.2-0.9,0.6-1c0.4-0.1,0.9,0.2,1,0.6c0.3,1.3,0.1,2.6-0.1,3.8c-0.5,2.8-1.2,5.6-1.9,8.3
									C238.5,626,238.1,626.2,237.7,626.2z"/>
							</g>
						</g>
						<g>
							<g>
								<path class="st8" d="M244.6,627.5C244.6,627.5,244.6,627.5,244.6,627.5c-0.5-0.1-0.8-0.5-0.7-0.9l1.7-10.1
									c0.1-0.7,0.2-1.4,0.2-2.1c0-0.4,0.4-0.8,0.8-0.8c0.4,0,0.8,0.4,0.8,0.8c0,0.8-0.1,1.6-0.3,2.3l-1.7,10.1
									C245.4,627.2,245,627.5,244.6,627.5z"/>
							</g>
						</g>
						<g>
							<g>
								<path class="st8" d="M250.9,626.8C250.9,626.8,250.9,626.8,250.9,626.8c-0.5-0.1-0.8-0.5-0.7-0.9c0.4-3.9,1.1-7.8,1.9-11.7
									c0.1-0.4,0.5-0.7,1-0.6c0.4,0.1,0.7,0.5,0.6,1c-0.8,3.8-1.4,7.7-1.9,11.5C251.7,626.5,251.3,626.9,250.9,626.8z"/>
							</g>
						</g>
						<g>
							<g>
								<path class="st8" d="M257,627.9c0,0-0.1,0-0.1,0c-0.4-0.1-0.7-0.6-0.6-1c1-4,1.7-8.1,2-12.2c0-0.4,0.4-0.8,0.9-0.8
									c0.4,0,0.8,0.4,0.8,0.9c-0.3,4.2-1,8.4-2,12.5C257.7,627.7,257.4,628,257,627.9z"/>
							</g>
						</g>
						<g>
							<g>
								<path class="st8" d="M263,628.3C263,628.3,263,628.3,263,628.3c-0.5,0-0.8-0.4-0.7-0.9l1.1-11.4c0-0.4,0.4-0.8,0.9-0.7
									c0.4,0,0.8,0.4,0.7,0.9l-1.1,11.4C263.8,628,263.4,628.4,263,628.3z"/>
							</g>
						</g>
						<g>
							<g>
								<path class="st8" d="M269.2,627.3c-0.4,0-0.8-0.4-0.7-0.9l0.7-11.7c0-0.4,0.4-0.8,0.9-0.8c0.4,0,0.8,0.4,0.8,0.9l-0.7,11.7
									C270,627,269.6,627.3,269.2,627.3C269.2,627.3,269.2,627.3,269.2,627.3z"/>
							</g>
						</g>
						<g>
							<g>
								<path class="st8" d="M274.7,628.8C274.7,628.8,274.6,628.8,274.7,628.8c-0.5-0.1-0.8-0.5-0.7-0.9l1.7-13.1
									c0.1-0.4,0.5-0.8,0.9-0.7c0.4,0.1,0.8,0.5,0.7,0.9l-1.7,13.1C275.5,628.5,275.1,628.8,274.7,628.8z"/>
							</g>
						</g>
						<g>
							<g>
								<path class="st8" d="M281.3,625.7C281.3,625.7,281.2,625.7,281.3,625.7c-0.5-0.1-0.8-0.5-0.7-0.9l1.3-10.5
									c0.1-0.4,0.5-0.7,0.9-0.7c0.4,0.1,0.8,0.5,0.7,0.9l-1.3,10.5C282.1,625.5,281.7,625.8,281.3,625.7z"/>
							</g>
						</g>
						<g>
							<g>
								<path class="st8" d="M287.5,626.1C287.5,626.1,287.5,626.1,287.5,626.1c-0.5-0.1-0.8-0.5-0.7-0.9l1.7-11.9
									c0.1-0.4,0.5-0.7,0.9-0.7c0.4,0.1,0.7,0.5,0.7,0.9l-1.7,11.9C288.3,625.9,287.9,626.2,287.5,626.1z"/>
							</g>
						</g>
						<g>
							<g>
								<path class="st8" d="M293.9,625.8c-0.3,0-0.6-0.2-0.7-0.6c-0.2-0.4-0.1-0.8,0-1.1l2.4-10.2c0.1-0.4,0.5-0.7,1-0.6
									c0.4,0.1,0.7,0.5,0.6,1l-2.4,10.2c0,0.1,0,0.2,0,0.2c0.2,0.4-0.1,0.9-0.5,1C294.1,625.8,294,625.8,293.9,625.8z"/>
							</g>
						</g>
						<g>
							<g>
								<path class="st8" d="M301.3,624.7c-0.4,0-0.8-0.4-0.7-0.9c0.3-3.9,0.9-7.7,1.8-11.5c0.1-0.4,0.5-0.7,1-0.6
									c0.4,0.1,0.7,0.5,0.6,1c-0.8,3.7-1.4,7.5-1.7,11.3C302.1,624.4,301.7,624.7,301.3,624.7
									C301.3,624.7,301.3,624.7,301.3,624.7z"/>
							</g>
						</g>
						<g>
							<g>
								<path class="st8" d="M308,623.9C308,623.9,308,623.9,308,623.9c-0.5-0.1-0.8-0.5-0.7-0.9l1.9-11.9c0.1-0.4,0.5-0.8,0.9-0.7
									c0.4,0.1,0.7,0.5,0.7,0.9l-1.9,11.9C308.8,623.6,308.5,623.9,308,623.9z"/>
							</g>
						</g>
						<g>
							<g>
								<path class="st8" d="M314.4,623.8C314.4,623.8,314.4,623.8,314.4,623.8c-0.5-0.1-0.8-0.5-0.7-0.9l1.7-12.5
									c0.1-0.4,0.5-0.8,0.9-0.7c0.4,0.1,0.8,0.5,0.7,0.9l-1.7,12.5C315.3,623.6,314.9,623.9,314.4,623.8z"/>
							</g>
						</g>
						<g>
							<g>
								<path class="st8" d="M320.8,622.5c-0.1,0-0.2,0-0.3-0.1c-0.3-0.1-0.5-0.5-0.4-1l1.7-7.7c0.3-1.3,0.6-2.6,0.5-3.9
									c0-0.4,0.3-0.8,0.8-0.8c0.4,0,0.8,0.3,0.8,0.8c0.1,1.5-0.3,2.9-0.6,4.3l-1.6,7.4c0.1,0.3,0,0.7-0.2,0.9
									C321.3,622.4,321.1,622.5,320.8,622.5z M321.7,621.7L321.7,621.7C321.7,621.7,321.7,621.7,321.7,621.7z"/>
							</g>
						</g>
						<g>
							<g>
								<path class="st8" d="M327.7,622.3C327.7,622.3,327.7,622.3,327.7,622.3c-0.5,0-0.8-0.4-0.7-0.9c0.5-4.4,1.2-8.9,2.2-13.3
									c0.1-0.4,0.5-0.7,1-0.6c0.4,0.1,0.7,0.5,0.6,1c-1,4.3-1.7,8.7-2.1,13.1C328.5,622,328.1,622.3,327.7,622.3z"/>
							</g>
						</g>
						<g>
							<g>
								<path class="st8" d="M333.1,620.8c-0.1,0-0.1,0-0.2,0c-0.4-0.1-0.7-0.5-0.6-1c1-4.4,2.1-8.8,3.3-13.1c0.1-0.4,0.6-0.7,1-0.6
									c0.4,0.1,0.7,0.6,0.6,1c-1.1,4-2.2,8.2-3.1,12.3c0,0.1,0,0.3,0,0.4l-0.2,0.5C333.8,620.6,333.4,620.8,333.1,620.8z"/>
							</g>
						</g>
						<g>
							<g>
								<path class="st8" d="M340.6,616.4c-0.1,0-0.2,0-0.2-0.1c-0.4-0.2-0.6-0.6-0.4-1.1c1.3-3.2,2.5-6.5,3.5-9.9
									c0.1-0.4,0.6-0.7,1-0.5c0.4,0.1,0.7,0.6,0.5,1c-1,3.4-2.2,6.7-3.6,10C341.2,616.2,340.9,616.4,340.6,616.4z"/>
							</g>
						</g>
					</g>
				</g>
				<path class="st4" d="M288.5,750.2c0,0-31.5-13.7-31.5-13.7c-4.6-2-9.4-3.7-14-5.9c-2.3-1.1-4.6-2.3-6.6-3.8
					c-1.9-1.3-4.4-3.2-1-3.7c2.3-0.4,4.7,0,7,0.1c3.5,0.2,7.5,0.3,11-0.7c2-0.6,3.8-1.8,4.6-3.7c0.9-2.5-0.5-5.3-2.6-6.9
					c-0.1-0.1-0.2-0.1-0.2-0.2c-2.2-1.6-5-2.1-7.7-2.4c-8.7-1.3-17.7-1.4-26.2-3.3c-4.9-1.1-9.3-3-14.4-3.6
					c-4.1-0.5-8.3-0.5-12.5-0.2l-5.8-6c0.2-0.3,0.3-0.5,0.3-0.5c-1.8-1.9-3.6-3.8-5.3-5.7c-6.7,11.3-13.3,22.5-20,33.8
					c4.5,3.3,7.4,5.3,7.4,5.2c0,0,0-0.1,0.1-0.2c3.6,15.3,15,30.9,27.8,38.3c1.3,0.8,2.7,1.5,3.8,2.5c0.8,0.8,1.5,1.8,2.1,2.8
					c3.7,5.8,7.1,11.7,10.3,17.8c2,3.8,4.7,12.9,10.1,12.8c3.7,0,6.2-4.2,4.4-7.4c-3.2-5.9-6.5-11.7-9.9-17.4
					c-1.3-2.2-2.7-4.2-3.7-6.5c-0.3-0.7-1.2-2.4-0.8-3.2c2.1-4.2,8.1,3.3,9.6,4.9c2.8,3,5.6,6,8.5,9c4,4.2,8.1,8.4,12.2,12.5
					c2.6,2.6,5.9,7.7,10.2,5.6c3-1.4,3.8-5.6,1.5-7.9c-1.3-1.3-2.6-2.6-3.9-3.9c-0.2-0.5-0.5-1-0.9-1.4c-4.4-4.8-8.7-9.6-12.9-14.6
					c-2.1-2.5-4.1-5-6.2-7.5c-0.9-1.1-5.9-4.9-4.3-6.5c1.9-1.9,7.4,3.6,8.8,4.5c4,2.5,8,5,12.1,7.5c5.4,3.4,10.7,6.9,16,10.3
					c3.4,2.1,9.1,7.4,12.9,3.5c2-2,1.8-5.8-0.5-7.5c-0.2-0.3-0.5-0.5-0.7-0.8c-6.8-6.2-14.5-11.5-22-16.8c-3.7-2.6-7.4-5.2-11-8
					c-1.8-1.4-3.7-2.9-5.4-4.5c-0.7-0.6-2.9-1.9-2.1-3c0.8-1.1,3.3-0.1,4.2,0.2c2.5,0.8,4.7,2.6,7.1,3.3c4.1,1.3,8.3,2.7,12.4,4
					c5.8,1.9,11.5,3.8,17.2,5.8c3.4,1.2,8.6,4.7,12,1.5C292.3,756.2,291.6,751.5,288.5,750.2z"/>
				<g>
					<path class="st7" d="M192.1,691.9c-2.7-3.4-6.7-5.8-10.5-8c-2.9-1.7-5.9-3.2-9-4.5c-0.9-0.4-9.2-3.9-9.6-3.3
						c0,0-23.8,38.4-23.8,38.4c-0.6,1,20.6,14.2,22.4,15.3c2.6,1.6,5.5,3,8.6,2.8c5.2-0.2,9.3-4.3,12.3-8.2
						c5.7-7.3,14.8-16.7,12.3-27.1C194.3,695.3,193.3,693.5,192.1,691.9z"/>
					<path class="st8" d="M170.4,728c-5-3.7-10.2-7.2-15.5-10.4c-1-0.6-1.8,1-0.8,1.6c5.2,3.2,10.2,6.6,15.1,10.2
						C170.2,730,171.4,728.7,170.4,728z"/>
					<path class="st8" d="M175.5,724.4c-5.4-3.9-10.8-7.8-16.3-11.6c-0.9-0.7-2.2,0.6-1.2,1.3c5.4,3.9,10.8,7.8,16.3,11.6
						C175.2,726.4,176.4,725.1,175.5,724.4z"/>
					<path class="st8" d="M188.9,699.7c-5.4-3.9-10.8-7.8-16.3-11.6c-0.9-0.7-2.2,0.6-1.2,1.3c5.4,3.9,10.8,7.8,16.3,11.6
						C188.6,701.7,189.8,700.4,188.9,699.7z"/>
					<path class="st8" d="M181,718c-6.5-3.9-13.1-7.6-19.8-11c-1-0.5-1.9,1.1-0.8,1.6c6.7,3.4,13.3,7.1,19.8,11
						C181.1,720.2,181.9,718.6,181,718z"/>
					<path class="st8" d="M183.8,712c-3.1-2-6.2-4.1-9.3-6.1c-2.9-1.9-5.7-3.9-8.2-6.3c-0.8-0.8-1.9,0.7-1.1,1.4
						c2.5,2.4,5.3,4.4,8.2,6.3c3.1,2.1,6.2,4.1,9.3,6.1C183.7,714,184.8,712.6,183.8,712z"/>
					<path class="st8" d="M192.2,695.5c-3.1-2-6.2-4.1-9.3-6.1c-2.9-1.9-5.7-3.9-8.2-6.3c-0.8-0.8-1.9,0.7-1.1,1.4
						c2.5,2.4,5.3,4.4,8.2,6.3c3.1,2.1,6.2,4.1,9.3,6.1C192.1,697.6,193.1,696.1,192.2,695.5z"/>
					<path class="st8" d="M188,706.4c-6.2-4.1-12.6-7.9-19.2-11.5c-1-0.6-1.9,1-0.8,1.6c6.5,3.6,12.9,7.4,19.2,11.5
						C188.2,708.6,189,707,188,706.4z"/>
				</g>
				<path class="st9" d="M352.6,362.3c-1.5-4-13.6-12.6-13.6-12.6s-72.6-14.6-107-10.3c-17.2,2.2-34.2,6-50.7,11.5
					c-18.1,6-33.9,13.2-48.8,25.2c-15.2,12.3-28.7,26.6-41.4,41.4c-6.2,7.1-12.2,14.4-18.1,21.7c-17.1,21-35.1,42-49.5,65.1
					C2.7,537.5-12.3,580.1,7.7,617.4c12,22.3,31.6,39.5,51,55.3c23,18.7,48.3,35.6,75.3,48.1c7.6,3.5,16.7,0.9,21-6.3
					c5.8-9.5,10.6-19.6,15-29.8c2.7-6.2,2.2-13.3-1.2-19.2c-18.3-32.1-41.1-62.2-69.2-91.5c20.7-19.7,41.2-40.5,57.9-63.5
					c1.6,19.8,2.2,39.7,1.2,59.5c-0.3,5.7-0.6,11.8,2.1,16.8c3.5,6.4,10.9,9.3,17.8,11.5c50.3,16,105,17.9,156.4,6.1
					c10.4-2.4,21.3-5.8,27.8-14.8c5.9-8.2,7.3-18.8,9-28.5c2.8-16.6,4.5-33.3,5.1-50.1C378.6,460.5,370.4,409.6,352.6,362.3z"/>
				<g>
					<path class="st5" d="M542.8,1503.6c-11.5,2-23.8,1.1-35.5,1.1c-33.3,0-66.6-1.6-99.8-3.2c-5.3-0.3-10.7-0.6-15.6-2.7
						c-3.8-1.7-7.1-4.5-9.3-8.1c-1.4-2.1-2.4-4.6-2.6-7.1c-0.1-0.9-0.1-1.8-0.1-2.6c0.2-3.5,1.5-7,2.8-10.3
						c2.4-6.1,3.5-10.6,5.9-16.7c26.4,0,52.7-4.9,78.2-11.9c2.5,1.3,5.1,2.6,7.6,3.9l44.2,22.3c6,3,11.9,6,17.9,9
						c1.4,0.7,2.9,1.4,4.3,2.2c4.2,2.1,10.2,3.5,13.3,7.3c0.7,0.9,1.3,1.9,1.6,3.1C558.3,1498.7,550,1502.4,542.8,1503.6z"/>
				</g>
				<g>
					<g>
						<path class="st7" d="M323.2,336.8c-0.4-1.5-0.9-3.1-1.2-4.6c-1.2-6.1-0.1-13.8-6.8-18c-3.3-2.1-7.3-1.7-11.2-1.8
							c-4.5-0.1-9,0-13.4-0.1c-9.4-0.2-18.8-1.2-28.1-2.8c-4.7-0.9-9.4-1.9-14-3.2c-4.2-1.1-8.4-3-12.7-3.4
							c-3.1-0.3-6.5,0.5-8.3,2.6c-1.2,1.4-1.5,3.1-1.8,4.9c-1.6,8.6-3.1,17.4-1.8,26.1c0.4,2.7,1.2,5.5,3.4,7.5
							c4.9,4.6,15.7,6,22.3,7.4c21.9,4.7,45.3,5.3,65.9-2.3c2.5-0.9,5-2,6.7-3.8C324.7,342.9,324,339.9,323.2,336.8z"/>
					</g>
					<g>
						<g>
							<path class="st8" d="M234.1,345.6c-0.4,0-0.6-0.3-0.7-0.6c-2.3-12.8-2.5-25.8-0.6-38.5c0.1-0.4,0.5-0.6,0.9-0.6c0,0,0,0,0,0
								c0.4,0.1,0.8,0.4,0.7,0.8c-1.9,12.6-1.8,25.4,0.6,38.1c0.1,0.4-0.2,0.7-0.7,0.8C234.2,345.6,234.1,345.6,234.1,345.6z"/>
						</g>
						<g>
							<path class="st8" d="M240.9,348C240.9,348,240.9,348,240.9,348c-0.5-0.1-0.8-0.4-0.7-0.8c0.9-5.8,0.8-11.9,0.6-17.7
								l-0.4-19.4c0-0.6-0.1-0.7-0.2-0.8c-0.4-0.2-0.5-0.7-0.2-1c0.2-0.3,0.7-0.4,1.1-0.2c0.9,0.5,0.9,1.5,0.9,1.9l0.4,19.4
								c0.1,5.9,0.3,12-0.6,17.9C241.8,347.8,241.4,348,240.9,348z"/>
						</g>
						<g>
							<path class="st8" d="M249.4,349.7c-0.4-0.1-0.7-0.4-0.7-0.7c-0.1-12.6,0.3-25.3,1.1-37.8c0-0.4,0.4-0.7,0.9-0.6
								c0.4,0,0.8,0.4,0.8,0.8c-0.8,12.5-1.2,25.2-1.1,37.8C250.3,349.4,249.9,349.7,249.4,349.7
								C249.4,349.7,249.4,349.7,249.4,349.7z"/>
						</g>
						<g>
							<path class="st8" d="M256.3,351.1c-0.4-0.1-0.7-0.4-0.7-0.8c1-12.4,1.2-25,0.6-37.5c0-0.4,0.3-0.7,0.8-0.7
								c0.5,0,0.8,0.3,0.8,0.7c0.6,12.5,0.4,25.2-0.6,37.6C257.1,350.9,256.7,351.2,256.3,351.1
								C256.3,351.1,256.3,351.1,256.3,351.1z"/>
						</g>
						<g>
							<path class="st8" d="M263.9,353.3L263.9,353.3c-0.4-0.1-0.8-0.4-0.7-0.8c0.7-5.6,0.9-11.8,0.6-19.9l0-0.8
								c-0.1-2.8-0.3-5.6,0.1-8.4c0.1-1,0.3-1.9,0.5-2.9c0.4-1.8,0.8-3.6,0.7-5.3c0-0.4,0.3-0.7,0.8-0.7c0.4,0,0.8,0.3,0.8,0.7
								c0.1,1.9-0.3,3.8-0.7,5.6c-0.2,0.9-0.4,1.9-0.5,2.8c-0.4,2.7-0.3,5.5-0.1,8.2l0,0.8c0.4,8.2,0.2,14.4-0.6,20.1
								C264.7,353.1,264.3,353.3,263.9,353.3z"/>
						</g>
						<g>
							<path class="st8" d="M270.5,352.7C270.5,352.7,270.5,352.7,270.5,352.7c-0.5-0.1-0.8-0.4-0.7-0.8c2-11.8,2.7-23.8,2-35.8
								c0-0.4,0.3-0.7,0.8-0.7c0.5,0,0.8,0.3,0.8,0.7c0.7,12.1,0.1,24.2-2,36C271.3,352.5,270.9,352.7,270.5,352.7z"/>
						</g>
						<g>
							<path class="st8" d="M279.4,352.4C279.3,352.4,279.3,352.4,279.4,352.4c-0.5-0.1-0.8-0.4-0.7-0.8c0.5-2.7,0.2-5.6-0.1-8.3
								c-0.1-1.3-0.3-2.6-0.3-4c-0.1-2.9,0.2-5.9,0.4-8.8c0.4-4.8,0.9-9.7-0.5-14.4c-0.1-0.4,0.2-0.7,0.6-0.8c0.4-0.1,0.9,0.2,1,0.5
								c1.4,4.9,1,10,0.5,14.9c-0.3,2.8-0.5,5.8-0.4,8.6c0.1,1.3,0.2,2.6,0.3,3.9c0.3,2.8,0.6,5.8,0,8.6
								C280.2,352.2,279.8,352.5,279.4,352.4z"/>
						</g>
						<g>
							<path class="st8" d="M286.3,351.9c-0.4-0.1-0.7-0.4-0.7-0.8c1.1-11.6,1.4-23.4,1-35.1c0-0.4,0.3-0.7,0.8-0.7
								c0.4,0,0.8,0.3,0.8,0.7c0.4,11.7,0.1,23.6-1,35.2C287.2,351.7,286.8,351.9,286.3,351.9C286.3,351.9,286.3,351.9,286.3,351.9z
								"/>
						</g>
						<g>
							<path class="st8" d="M294.2,350.1c-0.4-0.1-0.8-0.4-0.7-0.8c1.1-10.6,2.3-21.5,0.2-32.2c-0.1-0.4,0.2-0.7,0.7-0.8
								c0.4,0,0.9,0.2,0.9,0.6c2.1,10.9,1,21.9-0.2,32.6C295.1,349.9,294.7,350.2,294.2,350.1C294.2,350.1,294.2,350.1,294.2,350.1z
								"/>
						</g>
						<g>
							<path class="st8" d="M301,351.3c-0.4-0.1-0.7-0.4-0.7-0.7l0.1-33.4c0-0.4,0.4-0.7,0.8-0.7c0.4,0,0.8,0.3,0.8,0.7l-0.1,33.4
								C301.9,351,301.6,351.3,301,351.3C301.1,351.3,301.1,351.3,301,351.3z"/>
						</g>
						<g>
							<path class="st8" d="M309.1,349.2c-0.4-0.1-0.7-0.4-0.7-0.7c0.4-10.4,0.1-20.9-0.8-31.3c0-0.4,0.3-0.7,0.7-0.7
								c0.4,0,0.8,0.3,0.9,0.7c1,10.5,1.3,21,0.8,31.5C310,348.9,309.7,349.2,309.1,349.2C309.2,349.2,309.2,349.2,309.1,349.2z"/>
						</g>
						<g>
							<path class="st8" d="M317,346.1c-0.1,0-0.1,0-0.2,0c-0.4-0.1-0.7-0.5-0.5-0.9c1-2.5,0.5-5.2,0.1-8.1c-0.2-1.3-0.4-2.7-0.5-4
								c-0.1-1.1,0-2.1,0-3.2c0-1,0.1-2.1,0-3.2c-0.2-3.4-1.5-6.8-2.8-10.1c-0.1-0.4,0.1-0.8,0.5-0.9c0.4-0.1,0.9,0.1,1,0.5
								c1.3,3.4,2.6,6.9,2.8,10.5c0.1,1.1,0,2.2,0,3.3c0,1-0.1,2.1,0,3.1c0.1,1.3,0.3,2.6,0.5,3.9c0.5,2.9,1,5.9-0.1,8.7
								C317.7,346,317.4,346.2,317,346.1z"/>
						</g>
					</g>
				</g>
				<g>
					<g>
						<path class="st4" d="M231.8,263.3c-8.1,7.1-20,9.5-30.2,6c-8.6-3-15.6-10.1-18.5-18.7c-0.5-1.6-0.9-3.1-1.2-4.8
							c-0.5-2.9-0.5-5.8,0.2-8.6c1.7-7,7.9-12.4,15-13.7c7.1-1.3,14.6,1.5,19.5,6.7l5.9,12.7L231.8,263.3z"/>
					</g>
				</g>
				<path class="st7" d="M347.7,600.7c4-2.3,8.1-4.3,11.8-6.6c3.7-2.3,7.1-5.1,9.2-8.7c1.1-1.8,1.8-3.8,2.4-5.9
					c0.5-2.1,0.8-4.1,0.5-6.2c-0.2-2.1-0.6-4.4-0.9-6.7c-0.3-2.3-0.6-4.5-0.8-6.8c-0.4-4.5-0.7-9.1-0.8-13.6
					c-0.2-4.5-0.2-9.1-0.1-13.6c0.2-9.1,0.7-18.1,1.2-27.2c1-18.1,2.4-36.2,2-54.3c-0.3-18.1-1.8-36.2-4.5-54.1
					c3,17.9,4.7,36,5.4,54.1c0.7,18.1-0.4,36.3-1.1,54.4c-0.4,9-0.7,18.1-0.7,27.1c0,4.5,0,9,0.3,13.5c0.2,4.5,0.5,9,1.1,13.5
					c0.3,2.2,0.6,4.5,0.9,6.7c0.3,2.2,0.8,4.4,1.1,6.8c0.3,2.4,0.1,4.9-0.5,7.2c-0.5,2.3-1.4,4.6-2.6,6.7c-1.2,2.1-2.7,4.1-4.5,5.7
					c-1.8,1.6-3.7,3.1-5.6,4.3c-3.9,2.5-8,4.5-11.8,6.8L347.7,600.7z"/>
				<path class="st7" d="M157.2,370.6c4.4,3.2,8.1,7.4,11.1,12c3,4.7,5.1,9.8,6.8,15.1c1.7,5.3,2.7,10.7,3.4,16.2
					c0.7,5.4,1,10.9,1.1,16.4c0.1,5.5-0.2,11-0.6,16.4c-0.5,5.5-1.2,10.9-2.3,16.2c-2,10.7-5.3,21.3-10.4,30.9
					c3.7-10.2,6.2-20.7,7.7-31.4c0.7-5.3,1.3-10.7,1.7-16.1c0.4-5.4,0.6-10.7,0.4-16.1c0-5.4-0.3-10.7-0.9-16.1
					c-0.3-2.7-0.6-5.3-1.1-8c-0.5-2.6-1-5.2-1.6-7.8c-0.7-2.6-1.4-5.1-2.4-7.6c-0.4-1.3-1-2.5-1.5-3.7c-0.6-1.2-1.1-2.4-1.7-3.6
					C164.3,378.7,161.1,374.4,157.2,370.6z"/>
				<g>
					<g>
						<path class="st7" d="M223.1,351.1c-0.4,0-0.7-0.2-0.8-0.6c-0.2-0.5,0.1-1,0.5-1.1c1.1-0.4,2.3-0.8,3.4-1.2
							c0.5-0.2,1,0.1,1.1,0.5c0.2,0.5-0.1,1-0.5,1.1c-1.1,0.4-2.3,0.8-3.4,1.2C223.3,351.1,223.2,351.1,223.1,351.1z"/>
					</g>
					<g>
						<path class="st7" d="M144.6,702.1c-0.2,0-0.3,0-0.5-0.1c-2-1.3-4-2.6-6.1-3.9c-0.4-0.3-0.5-0.8-0.3-1.2
							c0.3-0.4,0.8-0.5,1.2-0.3c2,1.3,4,2.6,6.1,3.9c0.4,0.3,0.5,0.8,0.3,1.2C145.2,702,144.9,702.1,144.6,702.1z M132.5,694.3
							c-0.2,0-0.3,0-0.5-0.1c-2-1.3-4-2.7-6-4c-0.4-0.3-0.5-0.8-0.2-1.2c0.3-0.4,0.8-0.5,1.2-0.2c2,1.3,4,2.7,6,4
							c0.4,0.3,0.5,0.8,0.3,1.2C133.1,694.1,132.8,694.3,132.5,694.3z M120.5,686.2c-0.2,0-0.4-0.1-0.5-0.2c-2-1.4-4-2.7-5.9-4.1
							c-0.4-0.3-0.5-0.8-0.2-1.2c0.3-0.4,0.8-0.5,1.2-0.2c2,1.4,3.9,2.7,5.9,4.1c0.4,0.3,0.5,0.8,0.2,1.2
							C121.1,686.1,120.8,686.2,120.5,686.2z M108.7,677.9c-0.2,0-0.4-0.1-0.5-0.2c-2-1.4-3.9-2.8-5.8-4.3c-0.4-0.3-0.5-0.9-0.2-1.3
							c0.3-0.4,0.9-0.5,1.3-0.2c1.9,1.4,3.9,2.9,5.8,4.3c0.4,0.3,0.5,0.9,0.2,1.3C109.2,677.8,109,677.9,108.7,677.9z M97.2,669.3
							c-0.2,0-0.4-0.1-0.5-0.2c-1.9-1.5-3.8-3-5.7-4.5c-0.4-0.3-0.4-0.9-0.1-1.3c0.3-0.4,0.9-0.4,1.3-0.1c1.8,1.5,3.7,3,5.6,4.5
							c0.4,0.3,0.5,0.9,0.2,1.3C97.7,669.2,97.4,669.3,97.2,669.3z M86,660.2c-0.2,0-0.4-0.1-0.6-0.2c-1.9-1.6-3.7-3.2-5.5-4.7
							c-0.4-0.3-0.4-0.9-0.1-1.3c0.3-0.4,0.9-0.4,1.3-0.1c1.8,1.6,3.6,3.1,5.4,4.7c0.4,0.3,0.4,0.9,0.1,1.3
							C86.5,660.1,86.2,660.2,86,660.2z M75.1,650.6c-0.2,0-0.4-0.1-0.6-0.2c-1.8-1.6-3.5-3.2-5.3-4.9c-0.4-0.3-0.4-0.9,0-1.3
							c0.3-0.4,0.9-0.4,1.3,0c1.8,1.6,3.5,3.3,5.3,4.9c0.4,0.3,0.4,0.9,0.1,1.3C75.6,650.6,75.4,650.6,75.1,650.6z M64.6,640.8
							c-0.2,0-0.4-0.1-0.6-0.3c-1.8-1.7-3.5-3.5-5.2-5.1c-0.3-0.4-0.3-0.9,0-1.3c0.4-0.3,0.9-0.3,1.3,0c1.6,1.6,3.3,3.3,5.1,5.1
							c0.4,0.3,0.4,0.9,0,1.3C65.1,640.7,64.8,640.8,64.6,640.8z M54.5,630.5c-0.2,0-0.5-0.1-0.7-0.3c-1.7-1.8-3.3-3.6-4.8-5.4
							c-0.3-0.4-0.3-0.9,0.1-1.3c0.4-0.3,0.9-0.3,1.3,0.1c1.5,1.7,3.1,3.5,4.8,5.4c0.3,0.4,0.3,0.9,0,1.3
							C54.9,630.5,54.7,630.5,54.5,630.5z M45.1,619.6c-0.3,0-0.5-0.1-0.7-0.3c-1.5-2-3-3.9-4.3-5.8c-0.3-0.4-0.2-1,0.2-1.2
							c0.4-0.3,1-0.2,1.2,0.2c1.3,1.9,2.7,3.8,4.2,5.8c0.3,0.4,0.2,1-0.2,1.3C45.5,619.5,45.3,619.6,45.1,619.6z M36.9,607.7
							c-0.3,0-0.6-0.2-0.8-0.4c-1.3-2.1-2.4-4.3-3.5-6.4c-0.2-0.4,0-1,0.4-1.2c0.4-0.2,1,0,1.2,0.4c1,2.1,2.2,4.2,3.4,6.3
							c0.3,0.4,0.1,1-0.3,1.2C37.2,607.7,37.1,607.7,36.9,607.7z M30.6,594.8c-0.4,0-0.7-0.2-0.8-0.6c-0.9-2.3-1.6-4.6-2.2-6.9
							c-0.1-0.5,0.2-1,0.6-1.1c0.5-0.1,1,0.2,1.1,0.6c0.6,2.2,1.3,4.5,2.2,6.8c0.2,0.5-0.1,1-0.5,1.2
							C30.8,594.7,30.7,594.8,30.6,594.8z M27,580.8c-0.4,0-0.8-0.3-0.9-0.8c0-0.3-0.1-0.6-0.1-0.9c-0.3-2.1-0.4-4.2-0.4-6.4
							c0-0.5,0.4-0.9,0.9-0.9c0.5,0,0.9,0.4,0.9,0.9c0,2.1,0.2,4.1,0.4,6.2c0,0.3,0.1,0.6,0.1,0.9c0.1,0.5-0.3,0.9-0.8,1
							C27.1,580.8,27,580.8,27,580.8z M26.8,566.5C26.7,566.5,26.7,566.5,26.8,566.5c-0.6-0.1-0.9-0.5-0.9-1
							c0.2-2.4,0.6-4.8,1.1-7.2c0.1-0.5,0.6-0.8,1.1-0.7c0.5,0.1,0.8,0.6,0.7,1.1c-0.5,2.4-0.9,4.7-1.1,7
							C27.6,566.1,27.2,566.5,26.8,566.5z M29.7,552.4c-0.1,0-0.2,0-0.3,0c-0.5-0.1-0.7-0.6-0.6-1.1c0.7-2.2,1.5-4.6,2.4-6.9
							c0.2-0.5,0.7-0.7,1.2-0.5c0.5,0.2,0.7,0.7,0.5,1.2c-0.9,2.3-1.7,4.6-2.3,6.8C30.4,552.1,30.1,552.4,29.7,552.4z M34.9,538.9
							c-0.1,0-0.3,0-0.4-0.1c-0.5-0.2-0.6-0.7-0.4-1.2c1-2.1,2-4.3,3.2-6.5c0.2-0.4,0.8-0.6,1.2-0.4c0.4,0.2,0.6,0.8,0.4,1.2
							c-1.1,2.2-2.2,4.4-3.1,6.4C35.5,538.7,35.2,538.9,34.9,538.9z M41.5,526.1c-0.1,0-0.3,0-0.4-0.1c-0.4-0.2-0.6-0.8-0.3-1.2
							c1.1-2,2.3-4,3.7-6.2c0.3-0.4,0.8-0.6,1.2-0.3c0.4,0.3,0.6,0.8,0.3,1.2c-1.3,2.2-2.5,4.2-3.6,6.2
							C42.1,525.9,41.8,526.1,41.5,526.1z M48.9,513.7c-0.2,0-0.3,0-0.5-0.1c-0.4-0.3-0.5-0.8-0.3-1.2c1.3-2,2.6-4.1,3.9-6.1
							c0.3-0.4,0.8-0.5,1.2-0.3c0.4,0.3,0.5,0.8,0.3,1.2c-1.3,2-2.6,4-3.9,6.1C49.5,513.6,49.2,513.7,48.9,513.7z M56.7,501.6
							c-0.2,0-0.3,0-0.5-0.1c-0.4-0.3-0.5-0.8-0.3-1.2c1.3-2,2.7-4,4-6c0.3-0.4,0.8-0.5,1.2-0.2c0.4,0.3,0.5,0.8,0.2,1.2
							c-1.3,2-2.7,4-4,6C57.3,501.4,57,501.6,56.7,501.6z M64.8,489.6c-0.2,0-0.4-0.1-0.5-0.2c-0.4-0.3-0.5-0.8-0.2-1.2
							c1.4-2,2.8-3.9,4.2-5.9c0.3-0.4,0.8-0.5,1.3-0.2c0.4,0.3,0.5,0.8,0.2,1.3c-1.4,2-2.8,3.9-4.1,5.9
							C65.4,489.5,65.1,489.6,64.8,489.6z M73.1,477.9c-0.2,0-0.4-0.1-0.5-0.2c-0.4-0.3-0.5-0.9-0.2-1.3c1.4-1.9,2.8-3.9,4.3-5.8
							c0.3-0.4,0.9-0.5,1.3-0.2c0.4,0.3,0.5,0.9,0.2,1.3c-1.4,1.9-2.8,3.9-4.3,5.8C73.7,477.8,73.4,477.9,73.1,477.9z M81.7,466.3
							c-0.2,0-0.4-0.1-0.5-0.2c-0.4-0.3-0.5-0.9-0.2-1.3c1.4-1.9,2.9-3.8,4.4-5.8c0.3-0.4,0.9-0.5,1.3-0.2c0.4,0.3,0.5,0.9,0.2,1.3
							c-1.5,1.9-2.9,3.8-4.4,5.7C82.3,466.2,82,466.3,81.7,466.3z M90.5,454.8c-0.2,0-0.4-0.1-0.5-0.2c-0.4-0.3-0.5-0.9-0.2-1.3
							c1.5-1.9,3-3.8,4.4-5.7c0.3-0.4,0.9-0.5,1.3-0.2c0.4,0.3,0.5,0.9,0.2,1.3c-1.5,1.9-3,3.8-4.4,5.7
							C91,454.7,90.7,454.8,90.5,454.8z M99.4,443.5c-0.2,0-0.4-0.1-0.6-0.2c-0.4-0.3-0.5-0.9-0.1-1.3c1.5-1.9,3-3.8,4.5-5.6
							c0.3-0.4,0.9-0.4,1.3-0.1c0.4,0.3,0.4,0.9,0.1,1.3c-1.5,1.9-3,3.8-4.5,5.6C99.9,443.4,99.6,443.5,99.4,443.5z M108.4,432.2
							c-0.2,0-0.4-0.1-0.6-0.2c-0.4-0.3-0.4-0.9-0.1-1.3c1.5-1.9,3-3.7,4.5-5.6c0.3-0.4,0.9-0.4,1.3-0.1c0.4,0.3,0.4,0.9,0.1,1.3
							c-1.5,1.9-3,3.7-4.5,5.6C108.9,432.1,108.7,432.2,108.4,432.2z M117.5,421c-0.2,0-0.4-0.1-0.6-0.2c-0.4-0.3-0.4-0.9-0.1-1.3
							c1.5-1.9,3-3.7,4.6-5.6c0.3-0.4,0.9-0.4,1.3-0.1c0.4,0.3,0.4,0.9,0.1,1.3c-1.5,1.9-3,3.7-4.6,5.6
							C118,420.9,117.8,421,117.5,421z M126.6,409.9c-0.2,0-0.4-0.1-0.6-0.2c-0.4-0.3-0.4-0.9-0.1-1.3l4.6-5.6
							c0.3-0.4,0.9-0.4,1.3-0.1c0.4,0.3,0.4,0.9,0.1,1.3l-4.6,5.6C127.1,409.8,126.9,409.9,126.6,409.9z M135.8,398.8
							c-0.2,0-0.4-0.1-0.6-0.2c-0.4-0.3-0.4-0.9-0.1-1.3c1.7-2,3.3-3.8,4.8-5.4c0.3-0.4,0.9-0.4,1.3-0.1c0.4,0.3,0.4,0.9,0.1,1.3
							c-1.5,1.6-3,3.4-4.7,5.4C136.3,398.6,136.1,398.8,135.8,398.8z M145.6,388.2c-0.2,0-0.5-0.1-0.6-0.3c-0.3-0.4-0.3-0.9,0-1.3
							c1.8-1.8,3.6-3.4,5.4-4.9c0.4-0.3,0.9-0.3,1.3,0.1c0.3,0.4,0.3,0.9-0.1,1.3c-1.7,1.4-3.5,3.1-5.3,4.8
							C146.1,388.1,145.8,388.2,145.6,388.2z M156.7,379c-0.3,0-0.6-0.1-0.7-0.4c-0.3-0.4-0.2-1,0.2-1.2c1.9-1.3,4-2.6,6.2-3.8
							c0.4-0.2,1-0.1,1.2,0.3c0.2,0.4,0.1,1-0.3,1.2c-2.1,1.2-4.2,2.5-6.1,3.8C157.1,378.9,156.9,379,156.7,379z M169.3,371.9
							c-0.3,0-0.7-0.2-0.8-0.5c-0.2-0.4,0-1,0.4-1.2c2-1,4.2-2,6.6-3c0.5-0.2,1,0,1.2,0.5c0.2,0.5,0,1-0.5,1.2c-2.4,1-4.5,2-6.5,3
							C169.5,371.9,169.4,371.9,169.3,371.9z M182.5,366.2c-0.4,0-0.7-0.2-0.8-0.6c-0.2-0.5,0-1,0.5-1.2c1.6-0.6,3.1-1.2,4.7-1.8
							l2.1-0.8c0.5-0.2,1,0.1,1.2,0.5c0.2,0.5-0.1,1-0.5,1.2l-2.1,0.8c-1.6,0.6-3.1,1.2-4.7,1.8
							C182.7,366.2,182.6,366.2,182.5,366.2z M196,361c-0.4,0-0.7-0.2-0.8-0.6c-0.2-0.5,0.1-1,0.5-1.2c2.3-0.8,4.5-1.7,6.8-2.5
							c0.5-0.2,1,0.1,1.2,0.5c0.2,0.5-0.1,1-0.5,1.2c-2.3,0.8-4.5,1.7-6.8,2.5C196.2,361,196.1,361,196,361z M209.5,356
							c-0.4,0-0.7-0.2-0.8-0.6c-0.2-0.5,0.1-1,0.5-1.1c2.3-0.8,4.5-1.6,6.8-2.5c0.5-0.2,1,0.1,1.1,0.5c0.2,0.5-0.1,1-0.5,1.1
							c-2.3,0.8-4.5,1.6-6.8,2.5C209.7,356,209.6,356,209.5,356z"/>
					</g>
					<g>
						<path class="st7" d="M153.7,708c-0.2,0-0.3,0-0.5-0.1l-3-1.9c-0.4-0.3-0.5-0.8-0.3-1.2c0.3-0.4,0.8-0.5,1.2-0.3l3,1.9
							c0.4,0.3,0.5,0.8,0.3,1.2C154.3,707.8,154,708,153.7,708z"/>
					</g>
				</g>
				<path class="st12" d="M275.8,222.8c-0.8-5-4.2-8.7-7.5-8.1c-3.3,0.6-5.3,5.1-4.4,10.1c0.8,5,4.2,8.7,7.5,8.1
					C274.7,232.3,276.7,227.8,275.8,222.8z"/>
				<path class="st12" d="M321.4,218.3c-0.8-4.9-4.1-8.5-7.3-7.9c-3.2,0.5-5.1,5-4.3,9.9c0.8,4.9,4.1,8.5,7.3,7.9
					C320.3,227.6,322.2,223.2,321.4,218.3z"/>
				<g>
					<path class="st12" d="M257.6,203.3c-0.5,0-1-0.2-1.4-0.7c-0.6-0.8-0.5-1.9,0.3-2.5c4.9-3.9,11.9-4.8,17.6-2.3
						c0.9,0.4,1.3,1.5,0.9,2.4c-0.4,0.9-1.5,1.3-2.4,0.9c-4.5-2-10.1-1.3-13.9,1.8C258.4,203.2,258,203.3,257.6,203.3z"/>
				</g>
				<g>
					<path class="st12" d="M304.6,199.1c-0.5,0-1.1-0.3-1.4-0.7c-0.6-0.8-0.4-1.9,0.4-2.5c4.6-3.4,11.1-4,16.3-1.6
						c0.9,0.4,1.3,1.5,0.8,2.4c-0.4,0.9-1.5,1.3-2.4,0.8c-4-1.9-9.1-1.4-12.6,1.2C305.3,199,304.9,199.1,304.6,199.1z"/>
				</g>
				<path class="st12" d="M293.7,234.9c1.2-1.3,3.2-1.9,5.1-1.6c1.9,0.3,3.7,1.7,4.6,3.5c1,1.7,1.1,4,0.2,5.8
					c-0.8,1.8-2.4,3.1-4.2,3.4c1.2-1.2,1.9-2.6,2.2-4c0.3-1.4,0-2.7-0.6-3.9c-0.6-1.2-1.6-2.1-2.8-2.7
					C296.9,234.8,295.4,234.5,293.7,234.9z"/>
				<g>
					<path class="st13" d="M320.5,252.4l0,0.1c0.9,5.5-0.3,11-3.2,15.4c-3.4,5.3-8.9,9.2-15.7,10.3c-7.3,1.2-14.3-1.1-19.2-5.6
						c-3.5-3.2-6.1-7.6-6.9-12.6l0-0.1L320.5,252.4z"/>
					<path class="st14" d="M317.4,268c-3.4,5.3-8.9,9.2-15.7,10.3c-7.3,1.2-14.3-1.1-19.2-5.6c1.7-1,3.5-1.9,5.3-2.7
						c7-3,14.7-4.8,22.2-3.8C312.6,266.5,315,267.1,317.4,268z"/>
					<path class="st15" d="M316.4,253.1c-0.5,0.6-1.1,1.1-1.6,1.6c-8.4,7.8-24.9,12.6-34.3,4.4L316.4,253.1z"/>
				</g>
				<path class="st15" d="M271.2,220c-2.8,0-2.8,4.3,0,4.3C274,224.3,274,220,271.2,220z"/>
				<path class="st15" d="M317,215.2c-2.8,0-2.8,4.3,0,4.3C319.8,219.5,319.8,215.2,317,215.2z"/>
			</g>
		</g>
	</g>
	<g>
		<path class="st16" d="M250.1,493c-0.7,0-1.3-0.6-1.3-1.3c0-0.7,0.6-1.3,1.3-1.3c2.3,0,4.6,0,6.9-0.1c0.7,0,1.3,0.5,1.3,1.3
			c0,0.7-0.5,1.3-1.3,1.3C254.7,492.9,252.4,493,250.1,493z M243.2,492.9C243.2,492.9,243.2,492.9,243.2,492.9
			c-2.3-0.1-4.7-0.2-7-0.3c-0.7,0-1.3-0.6-1.2-1.4c0-0.7,0.6-1.3,1.4-1.2c2.3,0.1,4.6,0.2,6.9,0.3c0.7,0,1.3,0.6,1.3,1.3
			C244.5,492.3,243.9,492.9,243.2,492.9z M263.9,492.6c-0.7,0-1.2-0.5-1.3-1.2c0-0.7,0.5-1.3,1.2-1.4c2.3-0.1,4.6-0.3,6.8-0.5
			c0.7-0.1,1.3,0.5,1.4,1.2c0.1,0.7-0.5,1.3-1.2,1.4C268.6,492.3,266.3,492.4,263.9,492.6C264,492.6,263.9,492.6,263.9,492.6z
			 M229.4,492.1c0,0-0.1,0-0.1,0c-2.3-0.2-4.6-0.4-6.9-0.7c-0.7-0.1-1.2-0.7-1.1-1.4c0.1-0.7,0.7-1.2,1.4-1.1
			c2.3,0.3,4.6,0.5,6.8,0.7c0.7,0.1,1.2,0.7,1.2,1.4C230.7,491.6,230.1,492.1,229.4,492.1z M277.7,491.4c-0.6,0-1.2-0.5-1.3-1.1
			c-0.1-0.7,0.4-1.3,1.1-1.4c2.3-0.3,4.5-0.6,6.8-0.9c0.7-0.1,1.4,0.4,1.5,1.1s-0.4,1.4-1.1,1.5c-2.3,0.3-4.6,0.6-6.9,0.9
			C277.8,491.4,277.7,491.4,277.7,491.4z M215.7,490.5c-0.1,0-0.1,0-0.2,0c-2.3-0.3-4.6-0.7-6.9-1.1c-0.7-0.1-1.2-0.8-1.1-1.5
			c0.1-0.7,0.8-1.2,1.5-1.1c2.2,0.4,4.5,0.7,6.8,1.1c0.7,0.1,1.2,0.8,1.1,1.5C216.9,490.1,216.4,490.5,215.7,490.5z M291.3,489.4
			c-0.6,0-1.2-0.4-1.3-1.1c-0.1-0.7,0.4-1.4,1.1-1.5c2.2-0.4,4.5-0.8,6.7-1.3c0.7-0.1,1.4,0.3,1.5,1c0.1,0.7-0.3,1.4-1,1.5
			c-2.3,0.5-4.6,0.9-6.8,1.3C291.5,489.4,291.4,489.4,291.3,489.4z M202.1,488.2c-0.1,0-0.2,0-0.3,0c-2.3-0.5-4.5-0.9-6.8-1.5
			c-0.7-0.2-1.1-0.9-1-1.5c0.2-0.7,0.9-1.1,1.5-1c2.2,0.5,4.5,1,6.7,1.4c0.7,0.1,1.2,0.8,1,1.5C203.3,487.8,202.7,488.2,202.1,488.2
			z M304.8,486.7c-0.6,0-1.1-0.4-1.3-1c-0.2-0.7,0.3-1.4,1-1.5c2.2-0.5,4.5-1.1,6.7-1.6c0.7-0.2,1.4,0.2,1.6,0.9
			c0.2,0.7-0.2,1.4-0.9,1.6c-2.2,0.6-4.5,1.1-6.7,1.7C305,486.7,304.9,486.7,304.8,486.7z M188.7,485.1c-0.1,0-0.2,0-0.3,0
			c-2.2-0.6-4.5-1.2-6.7-1.9c-0.7-0.2-1.1-0.9-0.9-1.6c0.2-0.7,0.9-1.1,1.6-0.9c2.2,0.6,4.4,1.3,6.6,1.8c0.7,0.2,1.1,0.9,0.9,1.6
			C189.8,484.7,189.3,485.1,188.7,485.1z M318.2,483.2c-0.6,0-1.1-0.4-1.2-0.9c-0.2-0.7,0.2-1.4,0.9-1.6c2.2-0.6,4.4-1.3,6.6-2
			c0.7-0.2,1.4,0.1,1.6,0.8c0.2,0.7-0.2,1.4-0.8,1.6c-2.2,0.7-4.4,1.4-6.6,2C318.4,483.2,318.3,483.2,318.2,483.2z M175.4,481.2
			c-0.1,0-0.3,0-0.4-0.1c-2.2-0.7-4.4-1.5-6.6-2.2c-0.7-0.2-1-1-0.8-1.6c0.2-0.7,1-1,1.6-0.8c2.1,0.8,4.3,1.5,6.5,2.2
			c0.7,0.2,1,0.9,0.8,1.6C176.5,480.9,176,481.2,175.4,481.2z M331.3,478.9c-0.5,0-1-0.3-1.2-0.9c-0.2-0.7,0.1-1.4,0.8-1.6
			c2.1-0.8,4.3-1.6,6.4-2.4c0.7-0.3,1.4,0.1,1.7,0.7c0.3,0.7-0.1,1.4-0.7,1.7c-2.1,0.8-4.3,1.7-6.5,2.4
			C331.6,478.9,331.5,478.9,331.3,478.9z M162.4,476.6c-0.2,0-0.3,0-0.5-0.1c-2.2-0.8-4.3-1.7-6.4-2.6c-0.7-0.3-1-1-0.7-1.7
			c0.3-0.7,1-1,1.7-0.7c2.1,0.9,4.2,1.8,6.4,2.6c0.7,0.3,1,1,0.7,1.7C163.4,476.3,162.9,476.6,162.4,476.6z M344.1,473.9
			c-0.5,0-1-0.3-1.2-0.8c-0.3-0.7,0-1.4,0.7-1.7c2.1-0.9,4.2-1.8,6.3-2.8c0.6-0.3,1.4,0,1.7,0.6c0.3,0.6,0,1.4-0.6,1.7
			c-2.1,1-4.2,1.9-6.3,2.8C344.5,473.9,344.3,473.9,344.1,473.9z M149.6,471.2c-0.2,0-0.4,0-0.5-0.1c-2.1-1-4.2-2-6.3-3
			c-0.6-0.3-0.9-1.1-0.6-1.7c0.3-0.6,1.1-0.9,1.7-0.6c2,1,4.1,2,6.2,2.9c0.6,0.3,0.9,1.1,0.6,1.7
			C150.6,470.9,150.1,471.2,149.6,471.2z M356.7,468.2c-0.5,0-0.9-0.3-1.2-0.7c-0.3-0.6-0.1-1.4,0.6-1.7c2-1,4.1-2.1,6.1-3.1
			c0.6-0.3,1.4-0.1,1.7,0.5c0.3,0.6,0.1,1.4-0.5,1.7c-2,1.1-4.1,2.1-6.2,3.1C357,468.2,356.9,468.2,356.7,468.2z M137.2,465.1
			c-0.2,0-0.4,0-0.6-0.1c-2-1.1-4.1-2.2-6.1-3.3c-0.6-0.4-0.8-1.1-0.5-1.8c0.4-0.6,1.1-0.8,1.8-0.5c2,1.1,4,2.2,6,3.3
			c0.6,0.3,0.9,1.1,0.5,1.7C138.2,464.8,137.7,465.1,137.2,465.1z M368.8,461.8c-0.4,0-0.9-0.2-1.1-0.7c-0.4-0.6-0.1-1.4,0.5-1.8
			c2-1.1,4-2.3,5.9-3.5c0.6-0.4,1.4-0.2,1.8,0.4c0.4,0.6,0.2,1.4-0.4,1.8c-2,1.2-4,2.4-6,3.5C369.3,461.7,369,461.8,368.8,461.8z
			 M125.2,458.3c-0.2,0-0.5-0.1-0.7-0.2c-2-1.2-4-2.4-5.9-3.7c-0.6-0.4-0.8-1.2-0.4-1.8c0.4-0.6,1.2-0.8,1.8-0.4
			c1.9,1.2,3.9,2.5,5.8,3.6c0.6,0.4,0.8,1.2,0.4,1.8C126.1,458.1,125.6,458.3,125.2,458.3z M380.6,454.6c-0.4,0-0.8-0.2-1.1-0.6
			c-0.4-0.6-0.2-1.4,0.4-1.8c1.9-1.2,3.8-2.5,5.7-3.8c0.6-0.4,1.4-0.3,1.8,0.3c0.4,0.6,0.3,1.4-0.3,1.8c-1.9,1.3-3.8,2.6-5.8,3.8
			C381.1,454.6,380.9,454.6,380.6,454.6z M113.6,450.8c-0.3,0-0.5-0.1-0.7-0.2c-1.9-1.3-3.8-2.6-5.7-4c-0.6-0.4-0.7-1.2-0.3-1.8
			c0.4-0.6,1.2-0.7,1.8-0.3c1.8,1.3,3.7,2.7,5.6,4c0.6,0.4,0.7,1.2,0.3,1.8C114.4,450.6,114,450.8,113.6,450.8z M392,446.9
			c-0.4,0-0.8-0.2-1-0.5c-0.4-0.6-0.3-1.4,0.3-1.8c1.8-1.3,3.7-2.7,5.5-4.1c0.6-0.4,1.4-0.3,1.8,0.2c0.4,0.6,0.3,1.4-0.2,1.8
			c-1.8,1.4-3.7,2.8-5.5,4.2C392.5,446.8,392.3,446.9,392,446.9z M102.4,442.7c-0.3,0-0.6-0.1-0.8-0.3c-1.8-1.4-3.6-2.9-5.4-4.3
			c-0.6-0.5-0.6-1.3-0.2-1.8c0.5-0.6,1.3-0.6,1.8-0.2c1.8,1.4,3.6,2.9,5.4,4.3c0.6,0.4,0.7,1.2,0.2,1.8
			C103.2,442.5,102.8,442.7,102.4,442.7z M402.9,438.4c-0.4,0-0.7-0.2-1-0.5c-0.5-0.6-0.4-1.4,0.2-1.8c1.8-1.4,3.5-2.9,5.2-4.4
			c0.5-0.5,1.4-0.4,1.8,0.1c0.5,0.5,0.4,1.4-0.1,1.8c-1.7,1.5-3.5,3-5.3,4.5C403.5,438.3,403.2,438.4,402.9,438.4z M91.7,433.9
			c-0.3,0-0.6-0.1-0.8-0.3c-1.7-1.5-3.5-3.1-5.2-4.6c-0.5-0.5-0.6-1.3-0.1-1.8c0.5-0.5,1.3-0.6,1.8-0.1c1.7,1.5,3.4,3.1,5.1,4.6
			c0.5,0.5,0.6,1.3,0.1,1.8C92.5,433.8,92.1,433.9,91.7,433.9z M413.3,429.4c-0.3,0-0.7-0.1-1-0.4c-0.5-0.5-0.4-1.3,0.1-1.8
			c1.7-1.5,3.4-3.1,5-4.7c0.5-0.5,1.3-0.5,1.8,0c0.5,0.5,0.5,1.3,0,1.8c-1.6,1.6-3.3,3.2-5,4.8C414,429.3,413.6,429.4,413.3,429.4z
			 M81.6,424.6c-0.3,0-0.6-0.1-0.9-0.4c-1.7-1.6-3.3-3.3-4.9-4.9c-0.5-0.5-0.5-1.3,0-1.8c0.5-0.5,1.3-0.5,1.8,0
			c1.6,1.6,3.2,3.3,4.9,4.9c0.5,0.5,0.5,1.3,0,1.8C82.2,424.5,81.9,424.6,81.6,424.6z M423.2,419.8c-0.3,0-0.6-0.1-0.9-0.4
			c-0.5-0.5-0.5-1.3,0-1.8c1.6-1.6,3.2-3.3,4.7-5c0.5-0.5,1.3-0.6,1.8-0.1c0.5,0.5,0.6,1.3,0.1,1.8c-1.6,1.7-3.2,3.4-4.8,5
			C423.9,419.7,423.6,419.8,423.2,419.8z M72,414.7c-0.3,0-0.7-0.1-1-0.4c-1.6-1.7-3.1-3.4-4.6-5.2c-0.5-0.5-0.4-1.4,0.1-1.8
			c0.5-0.5,1.4-0.4,1.8,0.1c1.5,1.7,3,3.4,4.6,5.1c0.5,0.5,0.4,1.3-0.1,1.8C72.6,414.6,72.3,414.7,72,414.7z M432.6,409.6
			c-0.3,0-0.6-0.1-0.8-0.3c-0.5-0.5-0.6-1.3-0.1-1.8c1.5-1.7,3-3.5,4.4-5.2c0.5-0.6,1.3-0.6,1.8-0.2c0.6,0.5,0.6,1.3,0.2,1.8
			c-1.5,1.8-3,3.6-4.5,5.3C433.3,409.5,432.9,409.6,432.6,409.6z M62.9,404.3c-0.4,0-0.7-0.2-1-0.5c-1.5-1.8-2.9-3.6-4.3-5.4
			c-0.4-0.6-0.3-1.4,0.2-1.8c0.6-0.4,1.4-0.3,1.8,0.2c1.4,1.8,2.8,3.6,4.3,5.4c0.5,0.6,0.4,1.4-0.2,1.8
			C63.5,404.2,63.2,404.3,62.9,404.3z M441.3,399c-0.3,0-0.6-0.1-0.8-0.3c-0.6-0.4-0.7-1.2-0.2-1.8c1.4-1.8,2.8-3.7,4.1-5.5
			c0.4-0.6,1.2-0.7,1.8-0.3c0.6,0.4,0.7,1.2,0.3,1.8c-1.4,1.9-2.8,3.7-4.2,5.6C442.1,398.8,441.7,399,441.3,399z M54.5,393.4
			c-0.4,0-0.8-0.2-1-0.5c-1.4-1.9-2.7-3.8-4-5.7c-0.4-0.6-0.3-1.4,0.3-1.8c0.6-0.4,1.4-0.3,1.8,0.3c1.3,1.9,2.6,3.8,4,5.6
			c0.4,0.6,0.3,1.4-0.3,1.8C55,393.3,54.8,393.4,54.5,393.4z M449.5,387.8c-0.3,0-0.5-0.1-0.7-0.2c-0.6-0.4-0.7-1.2-0.3-1.8
			c1.3-1.9,2.6-3.8,3.8-5.7c0.4-0.6,1.2-0.8,1.8-0.4c0.6,0.4,0.8,1.2,0.4,1.8c-1.2,1.9-2.5,3.9-3.8,5.8
			C450.3,387.6,449.9,387.8,449.5,387.8z M46.7,382c-0.4,0-0.8-0.2-1.1-0.6c-1.2-1.9-2.5-3.9-3.7-5.9c-0.4-0.6-0.2-1.4,0.4-1.8
			c0.6-0.4,1.4-0.2,1.8,0.4c1.2,1.9,2.4,3.9,3.6,5.8c0.4,0.6,0.2,1.4-0.4,1.8C47.2,381.9,46.9,382,46.7,382z M456.9,376.2
			c-0.2,0-0.5-0.1-0.7-0.2c-0.6-0.4-0.8-1.2-0.4-1.8c1.2-1.9,2.3-3.9,3.5-5.9c0.4-0.6,1.1-0.8,1.8-0.5c0.6,0.4,0.8,1.1,0.5,1.8
			c-1.1,2-2.3,4-3.5,6C457.8,376,457.4,376.2,456.9,376.2z M39.6,370.2c-0.4,0-0.9-0.2-1.1-0.7c-1.1-2-2.3-4-3.3-6.1
			c-0.3-0.6-0.1-1.4,0.5-1.7c0.6-0.3,1.4-0.1,1.7,0.5c1.1,2,2.2,4,3.3,6c0.4,0.6,0.1,1.4-0.5,1.8C40,370.2,39.8,370.2,39.6,370.2z
			 M463.7,364.1c-0.2,0-0.4,0-0.6-0.2c-0.6-0.3-0.9-1.1-0.5-1.7c1.1-2,2.1-4.1,3.1-6.1c0.3-0.6,1.1-0.9,1.7-0.6
			c0.6,0.3,0.9,1.1,0.6,1.7c-1,2.1-2.1,4.2-3.2,6.2C464.7,363.9,464.2,364.1,463.7,364.1z M33.1,358.1c-0.5,0-0.9-0.3-1.2-0.7
			c-1-2.1-2-4.2-3-6.2c-0.3-0.6,0-1.4,0.6-1.7c0.6-0.3,1.4,0,1.7,0.6c0.9,2.1,1.9,4.1,2.9,6.2c0.3,0.6,0.1,1.4-0.6,1.7
			C33.5,358,33.3,358.1,33.1,358.1z M469.9,351.7c-0.2,0-0.4,0-0.5-0.1c-0.6-0.3-0.9-1.1-0.6-1.7c0.9-2.1,1.9-4.2,2.8-6.3
			c0.3-0.7,1-1,1.7-0.7c0.7,0.3,1,1,0.7,1.7c-0.9,2.1-1.8,4.3-2.8,6.4C470.8,351.5,470.4,351.7,469.9,351.7z M27.4,345.5
			c-0.5,0-1-0.3-1.2-0.8c-0.9-2.1-1.8-4.3-2.6-6.4c-0.3-0.7,0.1-1.4,0.7-1.7c0.7-0.3,1.4,0.1,1.7,0.7c0.8,2.1,1.7,4.2,2.6,6.3
			c0.3,0.7,0,1.4-0.7,1.7C27.7,345.5,27.6,345.5,27.4,345.5z M475.3,339c-0.2,0-0.3,0-0.5-0.1c-0.7-0.3-1-1-0.7-1.7
			c0.8-2.1,1.6-4.3,2.4-6.4c0.2-0.7,1-1,1.6-0.8c0.7,0.2,1,1,0.8,1.6c-0.8,2.2-1.6,4.4-2.4,6.5C476.3,338.7,475.8,339,475.3,339z
			 M22.4,332.7c-0.5,0-1-0.3-1.2-0.9c-0.8-2.2-1.5-4.4-2.2-6.6c-0.2-0.7,0.1-1.4,0.8-1.6c0.7-0.2,1.4,0.1,1.6,0.8
			c0.7,2.2,1.5,4.4,2.2,6.5c0.2,0.7-0.1,1.4-0.8,1.6C22.7,332.7,22.5,332.7,22.4,332.7z M479.9,326c-0.1,0-0.3,0-0.4-0.1
			c-0.7-0.2-1-0.9-0.8-1.6c0.7-2.2,1.4-4.4,2-6.6c0.2-0.7,0.9-1.1,1.6-0.9c0.7,0.2,1.1,0.9,0.9,1.6c-0.6,2.2-1.3,4.4-2,6.6
			C481,325.6,480.5,326,479.9,326z M18.1,319.6c-0.6,0-1.1-0.4-1.2-0.9c-0.6-2.2-1.3-4.5-1.9-6.7c-0.2-0.7,0.2-1.4,0.9-1.6
			c0.7-0.2,1.4,0.2,1.6,0.9c0.6,2.2,1.2,4.4,1.8,6.6c0.2,0.7-0.2,1.4-0.9,1.6C18.4,319.6,18.2,319.6,18.1,319.6z M483.8,312.7
			c-0.1,0-0.2,0-0.3,0c-0.7-0.2-1.1-0.9-0.9-1.6c0.6-2.2,1.1-4.4,1.6-6.7c0.2-0.7,0.9-1.1,1.5-1c0.7,0.2,1.1,0.9,1,1.5
			c-0.5,2.2-1.1,4.5-1.7,6.7C484.9,312.3,484.4,312.7,483.8,312.7z M14.6,306.2c-0.6,0-1.1-0.4-1.3-1c-0.5-2.2-1-4.5-1.5-6.8
			c-0.1-0.7,0.3-1.4,1-1.5c0.7-0.1,1.4,0.3,1.5,1c0.5,2.2,0.9,4.5,1.5,6.7c0.2,0.7-0.3,1.4-1,1.5C14.8,306.2,14.7,306.2,14.6,306.2z
			 M486.9,299.3c-0.1,0-0.2,0-0.3,0c-0.7-0.1-1.2-0.8-1-1.5c0.5-2.2,0.9-4.5,1.3-6.7c0.1-0.7,0.8-1.2,1.5-1.1
			c0.7,0.1,1.2,0.8,1.1,1.5c-0.4,2.3-0.8,4.6-1.3,6.8C488,298.9,487.5,299.3,486.9,299.3z M11.9,292.7c-0.6,0-1.2-0.4-1.3-1.1
			c-0.4-2.3-0.8-4.6-1.1-6.9c-0.1-0.7,0.4-1.4,1.1-1.5c0.7-0.1,1.4,0.4,1.5,1.1c0.3,2.3,0.7,4.5,1.1,6.8c0.1,0.7-0.3,1.4-1.1,1.5
			C12,292.7,11.9,292.7,11.9,292.7z M489.2,285.7c-0.1,0-0.1,0-0.2,0c-0.7-0.1-1.2-0.8-1.1-1.5c0.3-2.3,0.6-4.5,0.9-6.8
			c0.1-0.7,0.7-1.2,1.4-1.1c0.7,0.1,1.2,0.7,1.1,1.4c-0.3,2.3-0.6,4.6-0.9,6.9C490.4,285.2,489.9,285.7,489.2,285.7z M9.9,279.1
			c-0.6,0-1.2-0.5-1.3-1.1c-0.3-2.3-0.5-4.6-0.7-6.9c-0.1-0.7,0.5-1.3,1.2-1.4c0.7-0.1,1.3,0.5,1.4,1.2c0.2,2.3,0.4,4.6,0.7,6.8
			c0.1,0.7-0.4,1.3-1.1,1.4C10,279.1,10,279.1,9.9,279.1z M490.8,272c0,0-0.1,0-0.1,0c-0.7-0.1-1.2-0.7-1.2-1.4
			c0.2-2.3,0.4-4.6,0.5-6.8c0-0.7,0.7-1.3,1.4-1.2c0.7,0,1.3,0.6,1.2,1.4c-0.1,2.3-0.3,4.6-0.5,6.9C492,271.5,491.5,272,490.8,272z
			 M8.7,265.3c-0.7,0-1.2-0.5-1.3-1.2c-0.1-2.3-0.2-4.6-0.3-6.9c0-0.7,0.5-1.3,1.3-1.3c0.7,0,1.3,0.5,1.3,1.3
			c0.1,2.3,0.2,4.6,0.3,6.9C10.1,264.7,9.5,265.3,8.7,265.3C8.8,265.3,8.8,265.3,8.7,265.3z M491.6,258.2
			C491.6,258.2,491.5,258.2,491.6,258.2c-0.7,0-1.3-0.6-1.3-1.3c0.1-2.3,0.1-4.6,0.1-6.9l0-0.4c0-0.7,0.6-1.3,1.3-1.3c0,0,0,0,0,0
			c0.7,0,1.3,0.6,1.3,1.3l0,0.5c0,2.3,0,4.6-0.1,6.9C492.8,257.6,492.3,258.2,491.6,258.2z M8.3,251.5c-0.7,0-1.3-0.6-1.3-1.3V250
			c0-2.2,0-4.5,0.1-6.7c0-0.7,0.6-1.3,1.3-1.3c0.7,0,1.3,0.6,1.3,1.3c-0.1,2.2-0.1,4.4-0.1,6.6v0.2C9.6,250.9,9,251.5,8.3,251.5z
			 M491.6,243.9c-0.7,0-1.3-0.6-1.3-1.3c-0.1-2.3-0.2-4.6-0.3-6.9c0-0.7,0.5-1.3,1.2-1.4c0.7,0,1.3,0.5,1.4,1.2
			c0.1,2.3,0.2,4.6,0.3,6.9C492.9,243.3,492.3,243.9,491.6,243.9C491.6,243.9,491.6,243.9,491.6,243.9z M8.7,237.7
			C8.7,237.7,8.7,237.7,8.7,237.7c-0.8,0-1.3-0.6-1.3-1.4c0.1-2.3,0.3-4.6,0.5-6.9c0.1-0.7,0.7-1.2,1.4-1.2c0.7,0.1,1.2,0.7,1.2,1.4
			c-0.2,2.3-0.3,4.6-0.5,6.8C10,237.2,9.4,237.7,8.7,237.7z M490.8,230.2c-0.7,0-1.2-0.5-1.3-1.2c-0.2-2.3-0.4-4.6-0.7-6.8
			c-0.1-0.7,0.4-1.3,1.1-1.4c0.7-0.1,1.3,0.4,1.4,1.1c0.3,2.3,0.5,4.6,0.7,6.9c0.1,0.7-0.5,1.3-1.2,1.4
			C490.8,230.2,490.8,230.2,490.8,230.2z M9.9,224c0,0-0.1,0-0.1,0c-0.7-0.1-1.2-0.7-1.1-1.4c0.3-2.3,0.6-4.6,0.9-6.9
			c0.1-0.7,0.7-1.2,1.5-1.1c0.7,0.1,1.2,0.8,1.1,1.5c-0.3,2.2-0.6,4.5-0.9,6.8C11.1,223.5,10.5,224,9.9,224z M489.2,216.5
			c-0.6,0-1.2-0.5-1.3-1.1c-0.3-2.3-0.7-4.5-1.1-6.8c-0.1-0.7,0.3-1.4,1.1-1.5c0.7-0.1,1.4,0.3,1.5,1.1c0.4,2.3,0.8,4.6,1.1,6.9
			c0.1,0.7-0.4,1.4-1.1,1.5C489.3,216.4,489.2,216.5,489.2,216.5z M11.8,210.3c-0.1,0-0.1,0-0.2,0c-0.7-0.1-1.2-0.8-1.1-1.5
			c0.4-2.3,0.8-4.6,1.3-6.8c0.1-0.7,0.8-1.1,1.5-1c0.7,0.1,1.2,0.8,1,1.5c-0.4,2.2-0.9,4.5-1.3,6.7C13,209.9,12.4,210.3,11.8,210.3z
			 M486.8,202.9c-0.6,0-1.1-0.4-1.3-1c-0.5-2.2-0.9-4.5-1.5-6.7c-0.2-0.7,0.3-1.4,1-1.6c0.7-0.2,1.4,0.3,1.5,1
			c0.5,2.2,1,4.5,1.5,6.8c0.1,0.7-0.3,1.4-1,1.5C487,202.8,486.9,202.9,486.8,202.9z M14.5,196.8c-0.1,0-0.2,0-0.3,0
			c-0.7-0.2-1.1-0.9-1-1.5c0.5-2.3,1.1-4.5,1.7-6.7c0.2-0.7,0.9-1.1,1.6-0.9c0.7,0.2,1.1,0.9,0.9,1.6c-0.6,2.2-1.1,4.4-1.6,6.7
			C15.6,196.4,15.1,196.8,14.5,196.8z M483.7,189.4c-0.6,0-1.1-0.4-1.2-1c-0.6-2.2-1.2-4.4-1.8-6.6c-0.2-0.7,0.2-1.4,0.9-1.6
			c0.7-0.2,1.4,0.2,1.6,0.9c0.7,2.2,1.3,4.5,1.9,6.7c0.2,0.7-0.2,1.4-0.9,1.6C483.9,189.4,483.8,189.4,483.7,189.4z M18,183.4
			c-0.1,0-0.2,0-0.4-0.1c-0.7-0.2-1.1-0.9-0.9-1.6c0.6-2.2,1.3-4.4,2-6.6c0.2-0.7,0.9-1,1.6-0.8c0.7,0.2,1,0.9,0.8,1.6
			c-0.7,2.2-1.4,4.4-2,6.6C19.1,183.1,18.6,183.4,18,183.4z M479.8,176.2c-0.5,0-1-0.3-1.2-0.9c-0.7-2.2-1.5-4.3-2.2-6.5
			c-0.2-0.7,0.1-1.4,0.8-1.6c0.7-0.2,1.4,0.1,1.6,0.8c0.8,2.2,1.5,4.4,2.2,6.6c0.2,0.7-0.1,1.4-0.8,1.6
			C480,176.2,479.9,176.2,479.8,176.2z M22.2,170.3c-0.1,0-0.3,0-0.4-0.1c-0.7-0.2-1-1-0.8-1.6c0.8-2.2,1.6-4.4,2.4-6.5
			c0.3-0.7,1-1,1.7-0.7c0.7,0.3,1,1,0.7,1.7c-0.8,2.1-1.6,4.3-2.4,6.5C23.3,169.9,22.8,170.3,22.2,170.3z M475.1,163.2
			c-0.5,0-1-0.3-1.2-0.8c-0.8-2.1-1.7-4.2-2.6-6.3c-0.3-0.7,0-1.4,0.7-1.7c0.7-0.3,1.4,0,1.7,0.7c0.9,2.1,1.8,4.3,2.6,6.4
			c0.3,0.7-0.1,1.4-0.7,1.7C475.4,163.2,475.3,163.2,475.1,163.2z M27.3,157.4c-0.2,0-0.3,0-0.5-0.1c-0.7-0.3-1-1-0.7-1.7
			c0.9-2.1,1.8-4.3,2.8-6.4c0.3-0.6,1.1-0.9,1.7-0.6c0.6,0.3,0.9,1.1,0.6,1.7c-0.9,2.1-1.9,4.2-2.8,6.3
			C28.2,157.1,27.8,157.4,27.3,157.4z M469.7,150.5c-0.5,0-1-0.3-1.2-0.8c-1-2.1-1.9-4.1-2.9-6.2c-0.3-0.6-0.1-1.4,0.6-1.7
			c0.6-0.3,1.4-0.1,1.7,0.6c1,2.1,2,4.2,3,6.2c0.3,0.6,0,1.4-0.6,1.7C470.1,150.5,469.9,150.5,469.7,150.5z M33,144.8
			c-0.2,0-0.4,0-0.6-0.1c-0.6-0.3-0.9-1.1-0.6-1.7c1-2.1,2.1-4.2,3.2-6.2c0.3-0.6,1.1-0.9,1.7-0.5c0.6,0.3,0.9,1.1,0.5,1.7
			c-1.1,2-2.1,4.1-3.1,6.1C33.9,144.5,33.5,144.8,33,144.8z M463.6,138.2c-0.5,0-0.9-0.2-1.1-0.7c-1.1-2-2.2-4-3.3-6
			c-0.4-0.6-0.1-1.4,0.5-1.8c0.6-0.4,1.4-0.1,1.8,0.5c1.1,2,2.3,4,3.3,6.1c0.3,0.6,0.1,1.4-0.5,1.7
			C464,138.1,463.8,138.2,463.6,138.2z M39.5,132.6c-0.2,0-0.4-0.1-0.6-0.2c-0.6-0.4-0.8-1.1-0.5-1.8c1.1-2,2.3-4,3.5-6
			c0.4-0.6,1.2-0.8,1.8-0.4c0.6,0.4,0.8,1.2,0.4,1.8c-1.2,2-2.3,4-3.5,5.9C40.3,132.3,39.9,132.6,39.5,132.6z M456.8,126.2
			c-0.4,0-0.9-0.2-1.1-0.6c-1.2-1.9-2.4-3.9-3.6-5.8c-0.4-0.6-0.2-1.4,0.4-1.8c0.6-0.4,1.4-0.2,1.8,0.4c1.2,1.9,2.5,3.9,3.7,5.9
			c0.4,0.6,0.2,1.4-0.4,1.8C457.3,126.2,457.1,126.2,456.8,126.2z M46.6,120.7c-0.2,0-0.5-0.1-0.7-0.2c-0.6-0.4-0.8-1.2-0.4-1.8
			c1.2-1.9,2.5-3.9,3.8-5.8c0.4-0.6,1.2-0.7,1.8-0.3c0.6,0.4,0.7,1.2,0.3,1.8c-1.3,1.9-2.6,3.8-3.8,5.7
			C47.4,120.5,47,120.7,46.6,120.7z M449.4,114.6c-0.4,0-0.8-0.2-1.1-0.6c-1.3-1.9-2.6-3.8-4-5.6c-0.4-0.6-0.3-1.4,0.3-1.8
			c0.6-0.4,1.4-0.3,1.8,0.3c1.4,1.9,2.7,3.8,4,5.7c0.4,0.6,0.3,1.4-0.3,1.8C449.9,114.6,449.6,114.6,449.4,114.6z M54.4,109.3
			c-0.3,0-0.5-0.1-0.8-0.2c-0.6-0.4-0.7-1.2-0.3-1.8c1.4-1.9,2.8-3.7,4.2-5.6c0.4-0.6,1.2-0.7,1.8-0.2c0.6,0.4,0.7,1.2,0.2,1.8
			c-1.4,1.8-2.8,3.7-4.1,5.5C55.2,109.1,54.8,109.3,54.4,109.3z M441.2,103.5c-0.4,0-0.8-0.2-1-0.5c-1.4-1.8-2.8-3.6-4.3-5.4
			c-0.5-0.6-0.4-1.4,0.2-1.8c0.6-0.5,1.4-0.4,1.8,0.2c1.5,1.8,2.9,3.6,4.3,5.4c0.4,0.6,0.3,1.4-0.2,1.8
			C441.8,103.4,441.5,103.5,441.2,103.5z M62.8,98.4c-0.3,0-0.6-0.1-0.8-0.3c-0.6-0.5-0.6-1.3-0.2-1.8c1.5-1.8,3-3.6,4.5-5.3
			c0.5-0.5,1.3-0.6,1.8-0.1c0.5,0.5,0.6,1.3,0.1,1.8c-1.5,1.7-3,3.5-4.4,5.3C63.6,98.2,63.2,98.4,62.8,98.4z M432.5,92.9
			c-0.4,0-0.7-0.2-1-0.4c-1.5-1.7-3-3.4-4.6-5.1c-0.5-0.5-0.4-1.3,0.1-1.8c0.5-0.5,1.3-0.4,1.8,0.1c1.6,1.7,3.1,3.4,4.6,5.2
			c0.5,0.5,0.4,1.4-0.1,1.8C433.1,92.7,432.8,92.9,432.5,92.9z M71.9,88c-0.3,0-0.6-0.1-0.9-0.3c-0.5-0.5-0.6-1.3-0.1-1.8
			c1.6-1.7,3.2-3.4,4.8-5c0.5-0.5,1.3-0.5,1.8,0c0.5,0.5,0.5,1.3,0,1.8c-1.6,1.6-3.2,3.3-4.7,5C72.6,87.8,72.2,88,71.9,88z
			 M423.1,82.7c-0.3,0-0.7-0.1-0.9-0.4c-1.6-1.6-3.2-3.3-4.9-4.8c-0.5-0.5-0.5-1.3,0-1.8c0.5-0.5,1.3-0.5,1.8,0
			c1.6,1.6,3.3,3.2,4.9,4.9c0.5,0.5,0.5,1.3,0,1.8C423.8,82.6,423.5,82.7,423.1,82.7z M81.5,78.1c-0.3,0-0.7-0.1-0.9-0.4
			c-0.5-0.5-0.5-1.3,0-1.8c1.6-1.6,3.3-3.2,5-4.8c0.5-0.5,1.3-0.4,1.8,0.1c0.5,0.5,0.4,1.3-0.1,1.8c-1.7,1.5-3.4,3.1-5,4.7
			C82.1,77.9,81.8,78.1,81.5,78.1z M413.2,73.1c-0.3,0-0.6-0.1-0.9-0.3c-1.7-1.5-3.4-3.1-5.1-4.6c-0.5-0.5-0.6-1.3-0.1-1.8
			c0.5-0.5,1.3-0.6,1.8-0.1c1.7,1.5,3.5,3.1,5.2,4.6c0.5,0.5,0.6,1.3,0.1,1.8C413.9,72.9,413.6,73.1,413.2,73.1z M91.6,68.7
			c-0.4,0-0.7-0.2-1-0.4c-0.5-0.5-0.4-1.4,0.1-1.8c1.7-1.5,3.5-3,5.3-4.5c0.6-0.5,1.4-0.4,1.8,0.2c0.5,0.6,0.4,1.4-0.2,1.8
			c-1.8,1.4-3.5,2.9-5.2,4.4C92.2,68.6,91.9,68.7,91.6,68.7z M402.8,64.1c-0.3,0-0.6-0.1-0.8-0.3c-1.8-1.4-3.6-2.9-5.4-4.3
			c-0.6-0.4-0.7-1.2-0.2-1.8c0.4-0.6,1.2-0.7,1.8-0.2c1.8,1.4,3.7,2.9,5.4,4.3c0.6,0.5,0.6,1.3,0.2,1.8
			C403.5,63.9,403.2,64.1,402.8,64.1z M102.3,60c-0.4,0-0.8-0.2-1-0.5c-0.4-0.6-0.3-1.4,0.2-1.8c1.8-1.4,3.7-2.8,5.5-4.2
			c0.6-0.4,1.4-0.3,1.8,0.3c0.4,0.6,0.3,1.4-0.3,1.8c-1.8,1.3-3.7,2.7-5.5,4.1C102.9,59.9,102.6,60,102.3,60z M391.9,55.6
			c-0.3,0-0.5-0.1-0.8-0.2c-1.8-1.3-3.7-2.7-5.6-4c-0.6-0.4-0.7-1.2-0.3-1.8c0.4-0.6,1.2-0.7,1.8-0.3c1.9,1.3,3.8,2.6,5.7,4
			c0.6,0.4,0.7,1.2,0.3,1.8C392.7,55.4,392.3,55.6,391.9,55.6z M113.5,51.9c-0.4,0-0.8-0.2-1.1-0.6c-0.4-0.6-0.3-1.4,0.3-1.8
			c1.9-1.3,3.8-2.6,5.8-3.8c0.6-0.4,1.4-0.2,1.8,0.4c0.4,0.6,0.2,1.4-0.4,1.8c-1.9,1.2-3.8,2.5-5.7,3.8
			C114,51.8,113.7,51.9,113.5,51.9z M380.5,47.8c-0.2,0-0.5-0.1-0.7-0.2c-1.9-1.2-3.9-2.5-5.8-3.6c-0.6-0.4-0.8-1.2-0.4-1.8
			c0.4-0.6,1.2-0.8,1.8-0.4c2,1.2,4,2.4,5.9,3.7c0.6,0.4,0.8,1.2,0.4,1.8C381.3,47.6,380.9,47.8,380.5,47.8z M125,44.4
			c-0.4,0-0.9-0.2-1.1-0.6c-0.4-0.6-0.2-1.4,0.4-1.8c2-1.2,4-2.4,6-3.5c0.6-0.4,1.4-0.1,1.8,0.5c0.4,0.6,0.1,1.4-0.5,1.8
			c-2,1.1-4,2.3-5.9,3.5C125.5,44.3,125.3,44.4,125,44.4z M368.6,40.7c-0.2,0-0.4-0.1-0.6-0.2c-2-1.1-4-2.2-6-3.3
			c-0.6-0.3-0.9-1.1-0.5-1.7c0.3-0.6,1.1-0.9,1.7-0.5c2,1.1,4.1,2.2,6.1,3.3c0.6,0.3,0.8,1.1,0.5,1.8
			C369.5,40.5,369.1,40.7,368.6,40.7z M137,37.6c-0.5,0-0.9-0.2-1.1-0.7c-0.3-0.6-0.1-1.4,0.5-1.7c2-1.1,4.1-2.1,6.2-3.2
			c0.6-0.3,1.4-0.1,1.7,0.6c0.3,0.6,0.1,1.4-0.6,1.7c-2,1-4.1,2.1-6.1,3.1C137.4,37.6,137.2,37.6,137,37.6z M356.4,34.2
			c-0.2,0-0.4,0-0.6-0.1c-2-1-4.1-2-6.2-2.9c-0.6-0.3-0.9-1.1-0.6-1.7c0.3-0.6,1.1-0.9,1.7-0.6c2.1,1,4.2,2,6.3,3
			c0.6,0.3,0.9,1.1,0.6,1.7C357.3,34,356.9,34.2,356.4,34.2z M149.3,31.5c-0.5,0-1-0.3-1.2-0.8c-0.3-0.6,0-1.4,0.6-1.7
			c2.1-1,4.2-1.9,6.3-2.8c0.7-0.3,1.4,0,1.7,0.7c0.3,0.7,0,1.4-0.7,1.7c-2.1,0.9-4.2,1.8-6.3,2.8C149.7,31.5,149.5,31.5,149.3,31.5z
			 M343.8,28.5c-0.2,0-0.3,0-0.5-0.1c-2.1-0.9-4.3-1.8-6.4-2.6c-0.7-0.3-1-1-0.7-1.7c0.3-0.7,1-1,1.7-0.7c2.2,0.8,4.3,1.7,6.4,2.6
			c0.7,0.3,1,1,0.7,1.7C344.8,28.2,344.3,28.5,343.8,28.5z M162,26.1c-0.5,0-1-0.3-1.2-0.8c-0.3-0.7,0.1-1.4,0.7-1.7
			c2.1-0.8,4.3-1.7,6.5-2.4c0.7-0.2,1.4,0.1,1.6,0.8c0.2,0.7-0.1,1.4-0.8,1.6c-2.1,0.8-4.3,1.6-6.4,2.4
			C162.3,26.1,162.2,26.1,162,26.1z M330.9,23.5c-0.1,0-0.3,0-0.4-0.1c-2.2-0.8-4.3-1.5-6.5-2.2c-0.7-0.2-1.1-0.9-0.8-1.6
			c0.2-0.7,0.9-1.1,1.6-0.8c2.2,0.7,4.4,1.5,6.6,2.2c0.7,0.2,1,1,0.8,1.6C331.9,23.2,331.4,23.5,330.9,23.5z M175,21.5
			c-0.5,0-1-0.3-1.2-0.9c-0.2-0.7,0.1-1.4,0.8-1.6c2.2-0.7,4.4-1.4,6.6-2.1c0.7-0.2,1.4,0.2,1.6,0.9c0.2,0.7-0.2,1.4-0.9,1.6
			c-2.2,0.6-4.4,1.3-6.6,2C175.3,21.5,175.1,21.5,175,21.5z M317.8,19.3c-0.1,0-0.2,0-0.4-0.1c-2.2-0.6-4.4-1.2-6.6-1.8
			c-0.7-0.2-1.1-0.9-0.9-1.6c0.2-0.7,0.9-1.1,1.6-0.9c2.2,0.6,4.5,1.2,6.7,1.8c0.7,0.2,1.1,0.9,0.9,1.6
			C318.8,18.9,318.3,19.3,317.8,19.3z M188.2,17.6c-0.6,0-1.1-0.4-1.2-1c-0.2-0.7,0.2-1.4,0.9-1.6c2.2-0.6,4.5-1.1,6.7-1.7
			c0.7-0.2,1.4,0.3,1.5,1c0.2,0.7-0.3,1.4-1,1.5c-2.2,0.5-4.5,1.1-6.7,1.7C188.5,17.6,188.3,17.6,188.2,17.6z M304.4,15.8
			c-0.1,0-0.2,0-0.3,0c-2.2-0.5-4.5-1-6.7-1.4c-0.7-0.1-1.2-0.8-1-1.5c0.1-0.7,0.8-1.2,1.5-1c2.3,0.4,4.5,0.9,6.8,1.5
			c0.7,0.2,1.1,0.9,1,1.5C305.5,15.4,305,15.8,304.4,15.8z M201.7,14.5c-0.6,0-1.1-0.4-1.3-1c-0.1-0.7,0.3-1.4,1-1.5
			c2.3-0.5,4.6-0.9,6.8-1.3c0.7-0.1,1.4,0.3,1.5,1.1c0.1,0.7-0.3,1.4-1.1,1.5c-2.2,0.4-4.5,0.8-6.7,1.3
			C201.8,14.4,201.8,14.5,201.7,14.5z M290.9,13.1c-0.1,0-0.1,0-0.2,0c-2.2-0.4-4.5-0.7-6.8-1.1c-0.7-0.1-1.2-0.8-1.1-1.5
			c0.1-0.7,0.8-1.2,1.5-1.1c2.3,0.3,4.6,0.7,6.9,1.1c0.7,0.1,1.2,0.8,1.1,1.5C292,12.6,291.5,13.1,290.9,13.1z M215.3,12.1
			c-0.6,0-1.2-0.5-1.3-1.1c-0.1-0.7,0.4-1.4,1.1-1.5c2.3-0.3,4.6-0.6,6.9-0.9c0.7-0.1,1.3,0.4,1.4,1.1c0.1,0.7-0.4,1.3-1.1,1.4
			c-2.3,0.3-4.6,0.6-6.8,0.9C215.4,12.1,215.3,12.1,215.3,12.1z M277.2,11.1c0,0-0.1,0-0.1,0c-2.3-0.3-4.6-0.5-6.8-0.7
			c-0.7-0.1-1.2-0.7-1.2-1.4c0.1-0.7,0.7-1.2,1.4-1.2c2.3,0.2,4.6,0.4,6.9,0.7c0.7,0.1,1.2,0.7,1.1,1.4
			C278.4,10.7,277.9,11.1,277.2,11.1z M229,10.5c-0.7,0-1.2-0.5-1.3-1.2c-0.1-0.7,0.5-1.3,1.2-1.4c2.3-0.2,4.6-0.4,6.9-0.5
			c0.7,0,1.3,0.5,1.4,1.2c0,0.7-0.5,1.3-1.2,1.4c-2.3,0.1-4.6,0.3-6.8,0.5C229.1,10.5,229,10.5,229,10.5z M263.5,10
			C263.4,10,263.4,10,263.5,10c-2.3-0.1-4.6-0.2-6.9-0.3c-0.7,0-1.3-0.6-1.3-1.3c0-0.7,0.6-1.3,1.3-1.3c2.3,0.1,4.6,0.2,6.9,0.3
			c0.7,0,1.3,0.6,1.2,1.4C264.7,9.5,264.1,10,263.5,10z M242.8,9.7c-0.7,0-1.3-0.6-1.3-1.3c0-0.7,0.5-1.3,1.3-1.3
			c2.3-0.1,4.6-0.1,6.9-0.1c0,0,0,0,0,0c0.7,0,1.3,0.6,1.3,1.3c0,0.7-0.6,1.3-1.3,1.3C247.4,9.6,245.1,9.7,242.8,9.7
			C242.8,9.7,242.8,9.7,242.8,9.7z"/>
	</g>
</g>
</svg>
